<?xml version="1.0" encoding="UTF-8" standalone="no"?>
<svg
   width="670.804"
   height="1010.248"
   viewBox="0 0 503.103 757.686"
   version="1.1"
   id="svg7"
   sodipodi:docname="aarc-logo-lg-rw, with text.svg"
   inkscape:version="1.3.1 (91b66b0783, 2023-11-16)"
   xmlns:inkscape="http://www.inkscape.org/namespaces/inkscape"
   xmlns:sodipodi="http://sodipodi.sourceforge.net/DTD/sodipodi-0.dtd"
   xmlns="http://www.w3.org/2000/svg"
   xmlns:svg="http://www.w3.org/2000/svg">
  <defs
     id="defs7">
    <rect
       x="0"
       y="763.78342"
       width="671.35921"
       height="229.77686"
       id="rect7" />
  </defs>
  <sodipodi:namedview
     id="namedview7"
     pagecolor="#ffffff"
     bordercolor="#000000"
     borderopacity="0.25"
     inkscape:showpageshadow="2"
     inkscape:pageopacity="0.0"
     inkscape:pagecheckerboard="0"
     inkscape:deskcolor="#d1d1d1"
     inkscape:zoom="1.3528978"
     inkscape:cx="317.4667"
     inkscape:cy="709.21839"
     inkscape:window-width="1920"
     inkscape:window-height="1001"
     inkscape:window-x="-9"
     inkscape:window-y="-9"
     inkscape:window-maximized="1"
     inkscape:current-layer="svg7" />
  <g
     fill="#131510"
     fill-rule="evenodd"
     id="g2">
    <path
       d="M 0.28423234,223.04032 0.45490911,554.843 502.851,554.843 V 223.211 Z"
       stroke="#1b1918"
       stroke-width="0.501"
       id="path1"
       sodipodi:nodetypes="ccccc" />
    <path
       d="M -0.09538383,561.227 -0.2660606,572.117 503.20444,571.94632 503.03377,561.227 Z"
       id="path2"
       sodipodi:nodetypes="ccccc" />
  </g>
  <path
     d="M382.54 463.342c-.593.198-1.42.754-2.289 1.317.747 1.169.913 2.32-1.083 3.376-2.493 1.32-3.226 3.813-5.573 3.666s-9.826 5.72-13.786 7.039-5.866 1.907-7.333 2.786-5.573 1.76-7.039 3.52l-2.107 2.758c.236.091.479.254.729.504 2.053 2.053 1.907 1.466 3.666 1.027s9.972-4.253 12.319-5.573 10.413-6.306 12.319-7.48 8.213-4.253 9.972-5.866 5.006-3.794 3.227-5.829-3.024-1.246-3.024-1.246zm-6.819 1.021c-.379-1.298.051-1.619 1.612-3.661 1.907-2.493 2.932-6.746 7.039-9.093s4.986-7.48 7.773-9.679 2.053-4.253 5.133-6.159 8.359-10.266 10.119-10.706 2.493-5.28 4.693-6.16 4.399-3.666 5.866-5.866.147-.587 4.253-3.373 6.746-9.826 10.193-11.22 6.16-1.1 7.186.66 3.08.587 4.106-1.1.66-5.499 2.64-7.333 1.979-2.64 4.253-2.567 4.326 0 3.74 3.593-2.273 5.72-4.106 7.48-2.86 5.279-4.473 6.086-3.007 2.053-3.154 3.226-9.679 11.292-11.146 12.759-2.2 4.84-2.2 4.84.733 1.906 2.64.733 5.426-6.893 7.773-8.946 4.106-5.866 5.573-6.599.88.88 2.493-.733 5.426-8.799 7.773-9.533 4.253.293 3.226 2.347-41.797 62.036-63.942 80.514-28.011 22.731-30.798 24.051-5.573 2.053-5.426 0 .587-5.133 2.64-6.599l6.599-4.84s1.466-3.226-1.76-4.546-5.573-.733-8.066.733-8.799 4.84-9.679 6.746-2.934 4.986-1.173 5.866 4.4-.147 6.893.733 3.813 5.133.88 5.866-10.413 5.573-17.452 7.039-14.079 5.427-16.279 5.573-10.119 2.346-12.759 1.907-8.066.586-14.079.147-7.772-1.026-8.359.293-.147 3.226 2.2 3.226 14.079 1.32 18.919 1.32 6.893-1.027 6.893.733-.88 2.2-3.226 2.053l-35.198-2.346c-5.573-.293-5.775.771-6.948-.256s-6.159-.733-9.093-1.467-6.893-1.32-9.68-3.08-7.919-4.986-10.266-5.866-3.813-1.173-9.973-2.493-15.545-4.546-19.505-6.159-8.359-3.227-10.559-5.133-4.106-2.054-4.4-5.427.293-5.28 2.493-4.546 13.786 4.986 21.265 5.866 9.533 2.053 10.706 0-1.467-4.986-3.52-6.16-6.746-1.32-8.213-2.2-2.346-1.613-7.039-2.493-5.426-.44-7.626-1.32-5.72-3.373-7.48-4.4-4.107-1.907-4.18-3.3-1.687-4.62-.513-5.426 2.933-1.394 4.253-.22 2.493 3.3 4.766 4.547 7.626 1.1 10.046 1.1 6.453-.88 8.286-.44 4.106.147 5.646 1.467 4.766 4.18 5.5 4.4 3.3.953 3.96-.66 2.566-5.866-.22-6.893-8.066-1.98-9.019-2.786-1.906-1.539-1.906-2.566.953-3.08 3.153-2.86 5.426.073 7.699.073 4.4 2.126 6.966 4.032 4.839 4.326 7.479 5.866 8.726 3.006 12.319 3.226 4.619.587 8.213.22 4.546.22 6.673-.66 2.86-2.053 5.06-1.1.293 2.787 3.52 4.18 4.62 1.394 7.553 1.247 2.933-.587 4.253 1.027-.367 1.833 4.4 1.173 12.32-2.127 12.32-2.127-.88 5.133.733 7.039 4.546 2.347 7.479 1.613 15.253-4.4 17.013-5.134 2.053-1.026 2.64-2.346c.321-.722.948-2.189 1.787-3.035-1.261-.514-2.534-1.954-4.075-1.254-1.613.733-4.84 1.76-8.066 3.373s-8.066 2.347-9.972 1.467-1.32-3.373-2.64-4.253-18.479-1.613-21.412-2.787-5.133-1.906-6.893-2.347-4.253.146-7.333-1.32-5.719-1.466-7.919-1.466-4.693-.44-5.866-1.173-4.253-.44-4.253-.44-3.08-1.466-3.666-2.786-1.027-1.173-2.64-1.907-3.595-.66-6.013-1.32l-2.418-.66s-2.2-2.053-2.2-4.106-1.027-3.52.733-4.4 17.892.587 19.212.147-.147 2.493 3.96 2.787 6.746-1.467 8.506-.44 1.467 3.667 5.866 3.96 5.719 0 9.093-.88 3.813-.293 5.573.88.147 3.226 2.64 3.373 5.72-.733 7.48-.293 2.347 1.32 2.347 1.32 7.333.147 10.413-.88 10.266-4.253 12.759-4.84 2.933-1.173 7.48-2.787 4.253-1.027 5.426-2.933 4.547-2.493 7.48-2.493 2.493-2.053 5.719-2.053 5.28-.587 6.306 1.32.072 6.819 2.565 6.966c2.452.144 4.477-1.839 5.939-1.765z"
     fill="#154575"
     fill-rule="evenodd"
     id="path3" />
  <g
     fill="#131510"
     id="g5">
    <path
       d="m 0,746.796 v 10.89 h 503.38825 v -10.89 z"
       fill-rule="evenodd"
       id="path4"
       style="stroke-width:1.00288" />
    <path
       d="M 0.28423234,0.08032323 V 217.54 L 502.851,217.54 V 0.251 Z"
       fill-rule="evenodd"
       stroke="#1b1918"
       stroke-width="0.501"
       id="path5"
       sodipodi:nodetypes="ccccc" />
  </g>
  <path
     d="M134.643 353.16h8.55l32.625 79.875h-10.8l-9.45-23.4h-33.525l-9.338 23.4h-10.8zm18.675 48.6l-14.4-36.9-14.85 36.9zm57.488-48.6h8.55l32.625 79.875h-10.8l-9.45-23.4h-33.525l-9.338 23.4h-10.8zm18.675 48.6l-14.4-36.9-14.85 36.9zm33.188 31.275V353.16h34.2q5.288 0 9.675 2.25 4.387 2.137 7.65 5.85 3.263 3.6 5.063 8.212 1.8 4.5 1.8 9.225 0 5.513-2.138 10.463-2.025 4.95-5.85 8.438-3.713 3.488-8.775 4.838l19.35 30.6h-11.475l-18.225-28.687h-21.15v28.688zm10.125-37.687h24.188q4.163 0 7.2-2.25 3.15-2.363 4.838-6.187 1.8-3.825 1.8-8.213 0-4.5-2.025-8.213-2.025-3.825-5.288-6.075-3.262-2.25-7.2-2.25h-23.512zm58.612-2.812q0-7.312 2.475-14.287 2.587-7.088 7.425-12.825 4.95-5.85 12.038-9.225 7.087-3.488 16.087-3.488 10.688 0 18.337 4.95 7.65 4.837 11.363 12.488l-7.988 5.175q-2.363-5.062-6.075-7.988-3.6-3.037-7.875-4.275-4.163-1.238-8.212-1.238-6.637 0-11.812 2.7-5.062 2.7-8.55 7.2-3.488 4.5-5.288 10.125-1.687 5.513-1.687 11.138 0 6.188 2.025 11.925 2.138 5.738 5.85 10.125 3.712 4.388 8.775 6.975 5.063 2.587 11.025 2.587 4.163 0 8.55-1.462 4.387-1.463 8.212-4.5 3.825-3.15 6.075-8.1l8.438 4.613q-2.475 5.963-7.65 10.125-5.175 4.162-11.587 6.3-6.3 2.137-12.487 2.137-8.213 0-15.075-3.488-6.862-3.6-11.925-9.45-4.95-5.963-7.763-13.275-2.7-7.425-2.7-14.963z"
     fill="#caccd8"
     id="path7" />
  <text
     xml:space="preserve"
     transform="matrix(0.75,0,0,0.75,-2.5530232,2.3510093)"
     id="text7"
     style="font-weight:500;font-size:72px;line-height:1;font-family:'Raleway Thin';-inkscape-font-specification:'Raleway Thin,  Medium';text-align:center;white-space:pre;shape-inside:url(#rect7);fill:#caccd8"><tspan
       x="156.68164"
       y="821.43227"
       id="tspan8"><tspan
         style="font-weight:normal;font-family:'Times New Roman';-inkscape-font-specification:'Times New Roman, ';fill:#2a2a2a"
         id="tspan7">Assessment 
</tspan></tspan><tspan
       x="140.70312"
       y="896.17262"
       id="tspan10"><tspan
         style="font-weight:normal;font-family:'Times New Roman';-inkscape-font-specification:'Times New Roman, ';fill:#2a2a2a"
         id="tspan9">Advisory and
</tspan></tspan><tspan
       x="92.767578"
       y="970.91298"
       id="tspan12"><tspan
         style="font-weight:normal;font-family:'Times New Roman';-inkscape-font-specification:'Times New Roman, ';fill:#2a2a2a"
         id="tspan11">Remedial Center</tspan></tspan></text>
</svg>
