<svg xmlns="http://www.w3.org/2000/svg" width="669.792" height="762.823" viewBox="0 0 502.344 572.117" xmlns:v="https://vecta.io/nano"><g fill="#131510" fill-rule="evenodd"><path d="M1.233 223.211v331.632h500.86V223.211H1.233z" stroke="#1b1918" stroke-width=".501"/><path d="M0 561.227v10.89h500.569v-10.89z"/></g><path d="M142.402 415.208h-31.275l-5.175 14.963H89.415l28.237-78.638h18.338l28.238 78.638h-16.65zm-4.275-12.6l-11.363-32.85-11.363 32.85zm84.825 12.6h-31.275l-5.175 14.963h-16.538l28.238-78.638h18.337l28.238 78.638h-16.65zm-4.275-12.6l-11.363-32.85-11.363 32.85zm77.175 27.563l-17.325-30.6h-7.425v30.6h-15.75v-78.525h29.475q9.113 0 15.525 3.262 6.412 3.15 9.563 8.663 3.262 5.4 3.262 12.15 0 7.763-4.5 14.063-4.5 6.188-13.387 8.55l18.787 31.837zm-24.75-42.413h13.162q6.413 0 9.563-3.038 3.15-3.15 3.15-8.662 0-5.4-3.15-8.325-3.15-3.037-9.562-3.037h-13.162zm52.538 3.038q0-11.587 5.175-20.7 5.288-9.225 14.288-14.287 9.112-5.175 20.362-5.175 13.163 0 23.063 6.75 9.9 6.75 13.837 18.675h-18.112q-2.7-5.625-7.65-8.437-4.837-2.812-11.25-2.812-6.862 0-12.263 3.262-5.288 3.15-8.325 9-2.925 5.85-2.925 13.725 0 7.763 2.925 13.725 3.038 5.85 8.325 9.112 5.4 3.15 12.263 3.15 6.413 0 11.25-2.812 4.95-2.925 7.65-8.55h18.112q-3.937 12.038-13.837 18.788-9.788 6.637-23.062 6.637-11.25 0-20.362-5.062-9-5.175-14.288-14.287-5.175-9.113-5.175-20.7z" fill="#caccd8"/><g fill-rule="evenodd"><path d="M381.782 463.342c-.593.198-1.42.754-2.289 1.317.747 1.169.913 2.32-1.083 3.376-2.493 1.32-3.226 3.813-5.573 3.666s-9.826 5.72-13.786 7.039-5.866 1.907-7.333 2.786-5.573 1.76-7.039 3.52l-2.107 2.758c.236.091.479.254.729.504 2.053 2.053 1.907 1.466 3.666 1.027s9.972-4.253 12.319-5.573 10.413-6.306 12.319-7.48 8.213-4.253 9.972-5.866 5.006-3.794 3.227-5.829-3.024-1.246-3.024-1.246zm-6.819 1.021c-.379-1.298.051-1.619 1.612-3.661 1.907-2.493 2.932-6.746 7.039-9.093s4.986-7.48 7.773-9.679 2.053-4.253 5.133-6.159 8.359-10.266 10.119-10.706 2.493-5.28 4.693-6.16 4.399-3.666 5.866-5.866.147-.587 4.253-3.373 6.746-9.826 10.193-11.22 6.16-1.1 7.186.66 3.08.587 4.106-1.1.66-5.499 2.64-7.333 1.979-2.64 4.253-2.567 4.326 0 3.74 3.593-2.273 5.72-4.106 7.48-2.86 5.279-4.473 6.086-3.007 2.053-3.154 3.226-9.679 11.292-11.146 12.759-2.2 4.84-2.2 4.84.733 1.906 2.64.733 5.426-6.893 7.773-8.946 4.106-5.866 5.573-6.599.88.88 2.493-.733 5.426-8.799 7.773-9.533 4.253.293 3.226 2.347-41.797 62.036-63.942 80.514-28.011 22.731-30.798 24.051-5.573 2.053-5.426 0 .587-5.133 2.64-6.599l6.599-4.84s1.466-3.226-1.76-4.546-5.573-.733-8.066.733-8.799 4.84-9.679 6.746-2.934 4.986-1.173 5.866 4.4-.147 6.893.733 3.813 5.133.88 5.866-10.413 5.573-17.452 7.039-14.079 5.427-16.279 5.573-10.119 2.346-12.759 1.907-8.066.586-14.079.147-7.773-1.026-8.359.293-.147 3.226 2.2 3.226 14.079 1.32 18.919 1.32 6.893-1.027 6.893.733-.88 2.2-3.226 2.053l-35.198-2.346c-5.573-.293-5.775.771-6.948-.256s-6.159-.733-9.093-1.467-6.893-1.32-9.679-3.08-7.919-4.986-10.266-5.866-3.813-1.173-9.973-2.493-15.545-4.546-19.505-6.159-8.359-3.227-10.559-5.133-4.106-2.054-4.4-5.427.293-5.28 2.493-4.546 13.786 4.986 21.265 5.866 9.533 2.053 10.706 0-1.467-4.986-3.52-6.16-6.746-1.32-8.213-2.2-2.346-1.613-7.039-2.493-5.426-.44-7.626-1.32-5.72-3.373-7.48-4.4-4.107-1.907-4.18-3.3-1.687-4.62-.513-5.426 2.933-1.394 4.253-.22 2.493 3.3 4.766 4.547 7.626 1.1 10.046 1.1 6.453-.88 8.286-.44 4.106.147 5.646 1.467 4.766 4.18 5.5 4.4 3.3.953 3.96-.66 2.566-5.866-.22-6.893-8.066-1.98-9.019-2.786-1.906-1.539-1.906-2.566.953-3.08 3.153-2.86 5.426.073 7.699.073 4.4 2.126 6.966 4.032 4.839 4.326 7.479 5.866 8.726 3.006 12.319 3.226 4.619.587 8.213.22 4.546.22 6.673-.66 2.86-2.053 5.06-1.1.293 2.787 3.52 4.18 4.62 1.394 7.553 1.247 2.933-.587 4.253 1.027-.367 1.833 4.4 1.173 12.32-2.127 12.32-2.127-.88 5.133.733 7.039 4.546 2.347 7.479 1.613 15.253-4.4 17.013-5.134 2.053-1.026 2.64-2.346c.321-.722.948-2.189 1.787-3.035-1.261-.514-2.534-1.954-4.075-1.254-1.613.733-4.84 1.76-8.066 3.373s-8.066 2.347-9.972 1.467-1.32-3.373-2.64-4.253-18.479-1.613-21.412-2.787-5.133-1.906-6.893-2.347-4.253.146-7.333-1.32-5.719-1.466-7.919-1.466-4.693-.44-5.866-1.173-4.253-.44-4.253-.44-3.08-1.466-3.666-2.786-1.027-1.173-2.64-1.907-3.595-.66-6.013-1.32l-2.418-.66s-2.2-2.053-2.2-4.106-1.027-3.52.733-4.4 17.893.587 19.212.147-.147 2.493 3.96 2.787 6.746-1.467 8.506-.44 1.467 3.667 5.866 3.96 5.719 0 9.093-.88 3.813-.293 5.573.88.147 3.226 2.64 3.373 5.72-.733 7.48-.293 2.347 1.32 2.347 1.32 7.333.147 10.413-.88 10.266-4.253 12.759-4.84 2.933-1.173 7.48-2.787 4.253-1.027 5.426-2.933 4.547-2.493 7.48-2.493 2.493-2.053 5.719-2.053 5.28-.587 6.306 1.32.072 6.819 2.565 6.966c2.452.144 4.477-1.839 5.939-1.765z" fill="#154575"/><path d="M1.233.251v217.289h500.86V.251z" fill="#131510" stroke="#1b1918" stroke-width=".501"/></g></svg>