<?xml version="1.0" encoding="UTF-8" standalone="no"?>
<svg
   width="670.804"
   height="1010.248"
   viewBox="0 0 503.103 757.686"
   version="1.1"
   id="svg7"
   sodipodi:docname="aarc-logo-lg-rw.svg"
   inkscape:version="1.3.1 (91b66b0783, 2023-11-16)"
   xmlns:inkscape="http://www.inkscape.org/namespaces/inkscape"
   xmlns:sodipodi="http://sodipodi.sourceforge.net/DTD/sodipodi-0.dtd"
   xmlns="http://www.w3.org/2000/svg"
   xmlns:svg="http://www.w3.org/2000/svg">
  <defs
     id="defs7">
    <rect
       x="0"
       y="763.78342"
       width="671.35921"
       height="229.77686"
       id="rect7" />
  </defs>
  <sodipodi:namedview
     id="namedview7"
     pagecolor="#ffffff"
     bordercolor="#000000"
     borderopacity="0.25"
     inkscape:showpageshadow="2"
     inkscape:pageopacity="0.0"
     inkscape:pagecheckerboard="0"
     inkscape:deskcolor="#d1d1d1"
     inkscape:zoom="1.3528978"
     inkscape:cx="317.4667"
     inkscape:cy="709.21839"
     inkscape:window-width="1920"
     inkscape:window-height="1001"
     inkscape:window-x="-9"
     inkscape:window-y="-9"
     inkscape:window-maximized="1"
     inkscape:current-layer="text7" />
  <g
     fill="#131510"
     fill-rule="evenodd"
     id="g2">
    <path
       d="M 0.28423234,223.04032 0.45490911,554.843 502.851,554.843 V 223.211 Z"
       stroke="#1b1918"
       stroke-width="0.501"
       id="path1"
       sodipodi:nodetypes="ccccc" />
    <path
       d="M -0.09538383,561.227 -0.2660606,572.117 503.20444,571.94632 503.03377,561.227 Z"
       id="path2"
       sodipodi:nodetypes="ccccc" />
  </g>
  <path
     d="M382.54 463.342c-.593.198-1.42.754-2.289 1.317.747 1.169.913 2.32-1.083 3.376-2.493 1.32-3.226 3.813-5.573 3.666s-9.826 5.72-13.786 7.039-5.866 1.907-7.333 2.786-5.573 1.76-7.039 3.52l-2.107 2.758c.236.091.479.254.729.504 2.053 2.053 1.907 1.466 3.666 1.027s9.972-4.253 12.319-5.573 10.413-6.306 12.319-7.48 8.213-4.253 9.972-5.866 5.006-3.794 3.227-5.829-3.024-1.246-3.024-1.246zm-6.819 1.021c-.379-1.298.051-1.619 1.612-3.661 1.907-2.493 2.932-6.746 7.039-9.093s4.986-7.48 7.773-9.679 2.053-4.253 5.133-6.159 8.359-10.266 10.119-10.706 2.493-5.28 4.693-6.16 4.399-3.666 5.866-5.866.147-.587 4.253-3.373 6.746-9.826 10.193-11.22 6.16-1.1 7.186.66 3.08.587 4.106-1.1.66-5.499 2.64-7.333 1.979-2.64 4.253-2.567 4.326 0 3.74 3.593-2.273 5.72-4.106 7.48-2.86 5.279-4.473 6.086-3.007 2.053-3.154 3.226-9.679 11.292-11.146 12.759-2.2 4.84-2.2 4.84.733 1.906 2.64.733 5.426-6.893 7.773-8.946 4.106-5.866 5.573-6.599.88.88 2.493-.733 5.426-8.799 7.773-9.533 4.253.293 3.226 2.347-41.797 62.036-63.942 80.514-28.011 22.731-30.798 24.051-5.573 2.053-5.426 0 .587-5.133 2.64-6.599l6.599-4.84s1.466-3.226-1.76-4.546-5.573-.733-8.066.733-8.799 4.84-9.679 6.746-2.934 4.986-1.173 5.866 4.4-.147 6.893.733 3.813 5.133.88 5.866-10.413 5.573-17.452 7.039-14.079 5.427-16.279 5.573-10.119 2.346-12.759 1.907-8.066.586-14.079.147-7.772-1.026-8.359.293-.147 3.226 2.2 3.226 14.079 1.32 18.919 1.32 6.893-1.027 6.893.733-.88 2.2-3.226 2.053l-35.198-2.346c-5.573-.293-5.775.771-6.948-.256s-6.159-.733-9.093-1.467-6.893-1.32-9.68-3.08-7.919-4.986-10.266-5.866-3.813-1.173-9.973-2.493-15.545-4.546-19.505-6.159-8.359-3.227-10.559-5.133-4.106-2.054-4.4-5.427.293-5.28 2.493-4.546 13.786 4.986 21.265 5.866 9.533 2.053 10.706 0-1.467-4.986-3.52-6.16-6.746-1.32-8.213-2.2-2.346-1.613-7.039-2.493-5.426-.44-7.626-1.32-5.72-3.373-7.48-4.4-4.107-1.907-4.18-3.3-1.687-4.62-.513-5.426 2.933-1.394 4.253-.22 2.493 3.3 4.766 4.547 7.626 1.1 10.046 1.1 6.453-.88 8.286-.44 4.106.147 5.646 1.467 4.766 4.18 5.5 4.4 3.3.953 3.96-.66 2.566-5.866-.22-6.893-8.066-1.98-9.019-2.786-1.906-1.539-1.906-2.566.953-3.08 3.153-2.86 5.426.073 7.699.073 4.4 2.126 6.966 4.032 4.839 4.326 7.479 5.866 8.726 3.006 12.319 3.226 4.619.587 8.213.22 4.546.22 6.673-.66 2.86-2.053 5.06-1.1.293 2.787 3.52 4.18 4.62 1.394 7.553 1.247 2.933-.587 4.253 1.027-.367 1.833 4.4 1.173 12.32-2.127 12.32-2.127-.88 5.133.733 7.039 4.546 2.347 7.479 1.613 15.253-4.4 17.013-5.134 2.053-1.026 2.64-2.346c.321-.722.948-2.189 1.787-3.035-1.261-.514-2.534-1.954-4.075-1.254-1.613.733-4.84 1.76-8.066 3.373s-8.066 2.347-9.972 1.467-1.32-3.373-2.64-4.253-18.479-1.613-21.412-2.787-5.133-1.906-6.893-2.347-4.253.146-7.333-1.32-5.719-1.466-7.919-1.466-4.693-.44-5.866-1.173-4.253-.44-4.253-.44-3.08-1.466-3.666-2.786-1.027-1.173-2.64-1.907-3.595-.66-6.013-1.32l-2.418-.66s-2.2-2.053-2.2-4.106-1.027-3.52.733-4.4 17.892.587 19.212.147-.147 2.493 3.96 2.787 6.746-1.467 8.506-.44 1.467 3.667 5.866 3.96 5.719 0 9.093-.88 3.813-.293 5.573.88.147 3.226 2.64 3.373 5.72-.733 7.48-.293 2.347 1.32 2.347 1.32 7.333.147 10.413-.88 10.266-4.253 12.759-4.84 2.933-1.173 7.48-2.787 4.253-1.027 5.426-2.933 4.547-2.493 7.48-2.493 2.493-2.053 5.719-2.053 5.28-.587 6.306 1.32.072 6.819 2.565 6.966c2.452.144 4.477-1.839 5.939-1.765z"
     fill="#154575"
     fill-rule="evenodd"
     id="path3" />
  <g
     fill="#131510"
     id="g5">
    <path
       d="m 0,746.796 v 10.89 h 503.38825 v -10.89 z"
       fill-rule="evenodd"
       id="path4"
       style="stroke-width:1.00288" />
    <path
       d="M 0.28423234,0.08032323 V 217.54 L 502.851,217.54 V 0.251 Z"
       fill-rule="evenodd"
       stroke="#1b1918"
       stroke-width="0.501"
       id="path5"
       sodipodi:nodetypes="ccccc" />
  </g>
  <path
     d="M134.643 353.16h8.55l32.625 79.875h-10.8l-9.45-23.4h-33.525l-9.338 23.4h-10.8zm18.675 48.6l-14.4-36.9-14.85 36.9zm57.488-48.6h8.55l32.625 79.875h-10.8l-9.45-23.4h-33.525l-9.338 23.4h-10.8zm18.675 48.6l-14.4-36.9-14.85 36.9zm33.188 31.275V353.16h34.2q5.288 0 9.675 2.25 4.387 2.137 7.65 5.85 3.263 3.6 5.063 8.212 1.8 4.5 1.8 9.225 0 5.513-2.138 10.463-2.025 4.95-5.85 8.438-3.713 3.488-8.775 4.838l19.35 30.6h-11.475l-18.225-28.687h-21.15v28.688zm10.125-37.687h24.188q4.163 0 7.2-2.25 3.15-2.363 4.838-6.187 1.8-3.825 1.8-8.213 0-4.5-2.025-8.213-2.025-3.825-5.288-6.075-3.262-2.25-7.2-2.25h-23.512zm58.612-2.812q0-7.312 2.475-14.287 2.587-7.088 7.425-12.825 4.95-5.85 12.038-9.225 7.087-3.488 16.087-3.488 10.688 0 18.337 4.95 7.65 4.837 11.363 12.488l-7.988 5.175q-2.363-5.062-6.075-7.988-3.6-3.037-7.875-4.275-4.163-1.238-8.212-1.238-6.637 0-11.812 2.7-5.062 2.7-8.55 7.2-3.488 4.5-5.288 10.125-1.687 5.513-1.687 11.138 0 6.188 2.025 11.925 2.138 5.738 5.85 10.125 3.712 4.388 8.775 6.975 5.063 2.587 11.025 2.587 4.163 0 8.55-1.462 4.387-1.463 8.212-4.5 3.825-3.15 6.075-8.1l8.438 4.613q-2.475 5.963-7.65 10.125-5.175 4.162-11.587 6.3-6.3 2.137-12.487 2.137-8.213 0-15.075-3.488-6.862-3.6-11.925-9.45-4.95-5.963-7.763-13.275-2.7-7.425-2.7-14.963z"
     fill="#caccd8"
     id="path7" />
  <g
     id="text7"
     style="font-weight:500;font-size:72px;line-height:1;font-family:'Raleway Thin';-inkscape-font-specification:'Raleway Thin,  Medium';text-align:center;white-space:pre;fill:#caccd8"
     transform="matrix(0.75,0,0,0.75,-2.5530232,2.3510093)"
     aria-label="Assessment &#10;Advisory and&#10;Remedial Center">
    <path
       style="font-weight:normal;font-family:'Times New Roman';-inkscape-font-specification:'Times New Roman, ';fill:#2a2a2a"
       d="m 189.62305,805.47133 h -18.45703 l -3.23438,7.52344 q -1.19531,2.77734 -1.19531,4.14843 0,1.08985 1.01953,1.9336 1.05469,0.80859 4.5,1.05468 v 1.30079 h -15.01172 v -1.30079 q 2.98828,-0.52734 3.86719,-1.37109 1.79297,-1.6875 3.97265,-6.85547 l 16.76954,-39.23437 h 1.23046 l 16.59375,39.65625 q 2.00391,4.78125 3.6211,6.22265 1.65234,1.40625 4.57031,1.58203 v 1.30079 h -18.80859 v -1.30079 q 2.84765,-0.14062 3.83203,-0.94921 1.01953,-0.8086 1.01953,-1.96875 0,-1.54688 -1.40625,-4.88672 z m -0.98438,-2.60156 -8.08594,-19.26563 -8.29687,19.26563 z m 43.10156,-14.58985 v 10.96875 h -1.16015 q -1.33594,-5.16797 -3.44531,-7.03125 -2.07422,-1.86328 -5.3086,-1.86328 -2.46094,0 -3.97265,1.30078 -1.51172,1.30078 -1.51172,2.88281 0,1.96875 1.125,3.375 1.08984,1.44141 4.42968,3.0586 l 5.13282,2.49609 q 7.13672,3.48047 7.13672,9.17578 0,4.39453 -3.33985,7.10157 -3.30469,2.67187 -7.41797,2.67187 -2.95312,0 -6.75,-1.05469 -1.16015,-0.35156 -1.89843,-0.35156 -0.8086,0 -1.26563,0.91406 h -1.16016 v -11.49609 h 1.16016 q 0.98438,4.92187 3.76172,7.41797 2.77734,2.49609 6.22266,2.49609 2.42578,0 3.9375,-1.40625 1.54687,-1.4414 1.54687,-3.44531 0,-2.42578 -1.72266,-4.07813 -1.6875,-1.65234 -6.78515,-4.18359 -5.09766,-2.53125 -6.67969,-4.57031 -1.58203,-2.00391 -1.58203,-5.0625 0,-3.97266 2.70703,-6.64453 2.74219,-2.67188 7.06641,-2.67188 1.89843,0 4.60547,0.8086 1.79296,0.52734 2.39062,0.52734 0.5625,0 0.87891,-0.24609 0.3164,-0.2461 0.73828,-1.08985 z m 28.01954,0 v 10.96875 h -1.16016 q -1.33594,-5.16797 -3.44531,-7.03125 -2.07422,-1.86328 -5.3086,-1.86328 -2.46093,0 -3.97265,1.30078 -1.51172,1.30078 -1.51172,2.88281 0,1.96875 1.125,3.375 1.08984,1.44141 4.42969,3.0586 l 5.13281,2.49609 q 7.13672,3.48047 7.13672,9.17578 0,4.39453 -3.33985,7.10157 -3.30468,2.67187 -7.41797,2.67187 -2.95312,0 -6.75,-1.05469 -1.16015,-0.35156 -1.89843,-0.35156 -0.8086,0 -1.26563,0.91406 h -1.16015 v -11.49609 h 1.16015 q 0.98438,4.92187 3.76172,7.41797 2.77734,2.49609 6.22266,2.49609 2.42578,0 3.9375,-1.40625 1.54687,-1.4414 1.54687,-3.44531 0,-2.42578 -1.72265,-4.07813 -1.6875,-1.65234 -6.78516,-4.18359 -5.09766,-2.53125 -6.67969,-4.57031 -1.58203,-2.00391 -1.58203,-5.0625 0,-3.97266 2.70703,-6.64453 2.74219,-2.67188 7.06641,-2.67188 1.89844,0 4.60547,0.8086 1.79297,0.52734 2.39062,0.52734 0.5625,0 0.87891,-0.24609 0.3164,-0.2461 0.73828,-1.08985 z m 12.62109,13.07813 q -0.0352,7.17187 3.48047,11.25 3.51562,4.07812 8.26172,4.07812 3.16406,0 5.48437,-1.72265 2.35547,-1.75782 3.9375,-5.97657 l 1.08985,0.70313 q -0.73829,4.8164 -4.28907,8.78906 -3.55078,3.9375 -8.89453,3.9375 -5.80078,0 -9.94922,-4.5 -4.11328,-4.53516 -4.11328,-12.16406 0,-8.26172 4.21875,-12.86719 4.25391,-4.64062 10.65235,-4.64062 5.41406,0 8.89453,3.58593 3.48047,3.55078 3.48047,9.52735 z m 0,-2.03907 h 14.90625 q -0.17578,-3.09375 -0.73828,-4.35937 -0.87891,-1.96875 -2.63672,-3.09375 -1.72266,-1.125 -3.62109,-1.125 -2.91797,0 -5.23829,2.28516 -2.28515,2.25 -2.67187,6.29296 z m 47.35547,-11.03906 v 10.96875 h -1.16016 q -1.33594,-5.16797 -3.44531,-7.03125 -2.07422,-1.86328 -5.30859,-1.86328 -2.46094,0 -3.97266,1.30078 -1.51172,1.30078 -1.51172,2.88281 0,1.96875 1.125,3.375 1.08984,1.44141 4.42969,3.0586 l 5.13281,2.49609 q 7.13672,3.48047 7.13672,9.17578 0,4.39453 -3.33984,7.10157 -3.30469,2.67187 -7.41797,2.67187 -2.95313,0 -6.75,-1.05469 -1.16016,-0.35156 -1.89844,-0.35156 -0.80859,0 -1.26563,0.91406 h -1.16015 v -11.49609 h 1.16015 q 0.98438,4.92187 3.76172,7.41797 2.77735,2.49609 6.22266,2.49609 2.42578,0 3.9375,-1.40625 1.54687,-1.4414 1.54687,-3.44531 0,-2.42578 -1.72265,-4.07813 -1.6875,-1.65234 -6.78516,-4.18359 -5.09765,-2.53125 -6.67969,-4.57031 -1.58203,-2.00391 -1.58203,-5.0625 0,-3.97266 2.70703,-6.64453 2.74219,-2.67188 7.06641,-2.67188 1.89844,0 4.60547,0.8086 1.79297,0.52734 2.39062,0.52734 0.5625,0 0.87891,-0.24609 0.31641,-0.2461 0.73828,-1.08985 z m 28.01953,0 v 10.96875 h -1.16016 q -1.33593,-5.16797 -3.44531,-7.03125 -2.07422,-1.86328 -5.30859,-1.86328 -2.46094,0 -3.97266,1.30078 -1.51172,1.30078 -1.51172,2.88281 0,1.96875 1.125,3.375 1.08985,1.44141 4.42969,3.0586 l 5.13281,2.49609 q 7.13672,3.48047 7.13672,9.17578 0,4.39453 -3.33984,7.10157 -3.30469,2.67187 -7.41797,2.67187 -2.95313,0 -6.75,-1.05469 -1.16016,-0.35156 -1.89844,-0.35156 -0.80859,0 -1.26562,0.91406 h -1.16016 v -11.49609 h 1.16016 q 0.98437,4.92187 3.76171,7.41797 2.77735,2.49609 6.22266,2.49609 2.42578,0 3.9375,-1.40625 1.54688,-1.4414 1.54688,-3.44531 0,-2.42578 -1.72266,-4.07813 -1.6875,-1.65234 -6.78516,-4.18359 -5.09765,-2.53125 -6.67968,-4.57031 -1.58204,-2.00391 -1.58204,-5.0625 0,-3.97266 2.70704,-6.64453 2.74218,-2.67188 7.0664,-2.67188 1.89844,0 4.60547,0.8086 1.79297,0.52734 2.39063,0.52734 0.5625,0 0.8789,-0.24609 0.31641,-0.2461 0.73828,-1.08985 z m 16.76953,6.85547 q 3.51563,-3.51562 4.14844,-4.04297 1.58203,-1.33594 3.41015,-2.07422 1.82813,-0.73828 3.6211,-0.73828 3.02344,0 5.20312,1.75781 2.17969,1.75782 2.91797,5.09766 3.6211,-4.21875 6.11719,-5.51953 2.49609,-1.33594 5.13281,-1.33594 2.56641,0 4.53516,1.33594 2.0039,1.30078 3.16406,4.28906 0.77344,2.03906 0.77344,6.39844 v 13.85156 q 0,3.02344 0.45703,4.14844 0.35156,0.77344 1.30078,1.33594 0.94922,0.52734 3.09375,0.52734 v 1.26563 h -15.89062 v -1.26563 h 0.66796 q 2.07422,0 3.23438,-0.80859 0.80859,-0.5625 1.16016,-1.79297 0.14062,-0.59766 0.14062,-3.41016 v -13.85156 q 0,-3.9375 -0.94922,-5.55469 -1.37109,-2.25 -4.39453,-2.25 -1.86328,0 -3.76172,0.94922 -1.86328,0.91406 -4.53515,3.44531 l -0.0703,0.38672 0.0703,1.51172 v 15.36328 q 0,3.30469 0.35156,4.11328 0.38672,0.8086 1.40625,1.3711 1.01953,0.52734 3.48047,0.52734 v 1.26563 H 373.0332 v -1.26563 q 2.67188,0 3.65625,-0.63281 1.01953,-0.63281 1.40625,-1.89844 0.17578,-0.59766 0.17578,-3.48047 v -13.85156 q 0,-3.9375 -1.16015,-5.66016 -1.54688,-2.25 -4.32422,-2.25 -1.89844,0 -3.76172,1.01953 -2.91797,1.54688 -4.5,3.48047 v 17.26172 q 0,3.16406 0.42188,4.11328 0.45703,0.94922 1.30078,1.44141 0.8789,0.45703 3.51562,0.45703 v 1.26563 h -15.92578 v -1.26563 q 2.21484,0 3.09375,-0.45703 0.87891,-0.49219 1.33594,-1.51172 0.45703,-1.05469 0.45703,-4.04297 v -12.30469 q 0,-5.30859 -0.31641,-6.85546 -0.24609,-1.16016 -0.77343,-1.58204 -0.52735,-0.45703 -1.44141,-0.45703 -0.98438,0 -2.35547,0.52735 l -0.52734,-1.26563 9.70312,-3.9375 h 1.51172 z m 51.85547,6.22266 q -0.0352,7.17187 3.48047,11.25 3.51562,4.07812 8.26172,4.07812 3.16406,0 5.48437,-1.72265 2.35547,-1.75782 3.9375,-5.97657 l 1.08985,0.70313 q -0.73829,4.8164 -4.28907,8.78906 -3.55078,3.9375 -8.89453,3.9375 -5.80078,0 -9.94922,-4.5 -4.11328,-4.53516 -4.11328,-12.16406 0,-8.26172 4.21875,-12.86719 4.25391,-4.64062 10.65235,-4.64062 5.41406,0 8.89453,3.58593 3.48047,3.55078 3.48047,9.52735 z m 0,-2.03907 h 14.90625 q -0.17578,-3.09375 -0.73828,-4.35937 -0.87891,-1.96875 -2.63672,-3.09375 -1.72266,-1.125 -3.62109,-1.125 -2.91797,0 -5.23829,2.28516 -2.28515,2.25 -2.67187,6.29296 z m 35.92969,-4.21875 q 5.66015,-6.82031 10.79297,-6.82031 2.63671,0 4.53515,1.33594 1.89844,1.30078 3.02344,4.32422 0.77344,2.10937 0.77344,6.46875 v 13.74609 q 0,3.0586 0.49218,4.14844 0.38672,0.87891 1.23047,1.37109 0.87891,0.49219 3.19922,0.49219 v 1.26563 h -15.92578 v -1.26563 h 0.66797 q 2.25,0 3.12891,-0.66797 0.91406,-0.70312 1.26562,-2.03906 0.14063,-0.52734 0.14063,-3.30469 v -13.18359 q 0,-4.39453 -1.16016,-6.36328 -1.125,-2.00391 -3.83203,-2.00391 -4.1836,0 -8.33203,4.57031 v 16.98047 q 0,3.26953 0.38672,4.04297 0.49218,1.01953 1.33593,1.51172 0.87891,0.45703 3.51563,0.45703 v 1.26563 h -15.92578 v -1.26563 h 0.70312 q 2.46094,0 3.30469,-1.23047 0.87891,-1.26562 0.87891,-4.78125 V 802.2018 q 0,-5.80078 -0.28125,-7.06641 -0.2461,-1.26562 -0.8086,-1.72266 -0.52734,-0.45703 -1.4414,-0.45703 -0.98438,0 -2.35547,0.52735 l -0.52735,-1.26563 9.70313,-3.9375 h 1.51172 z m 35.96484,-16.45312 v 10.58203 h 7.52344 v 2.46094 h -7.52344 v 20.88281 q 0,3.12891 0.87891,4.21875 0.91406,1.08984 2.32031,1.08984 1.16016,0 2.25,-0.70312 1.08984,-0.73828 1.6875,-2.14453 h 1.37109 q -1.23047,3.44531 -3.48047,5.20312 -2.25,1.72266 -4.64062,1.72266 -1.61719,0 -3.16406,-0.87891 -1.54688,-0.91406 -2.28516,-2.5664 -0.73828,-1.6875 -0.73828,-5.16797 v -21.65625 h -5.09766 v -1.16016 q 1.9336,-0.77344 3.9375,-2.60156 2.03907,-1.86328 3.6211,-4.39453 0.80859,-1.33594 2.25,-4.88672 z"
       id="path6" />
    <path
       style="font-weight:normal;font-family:'Times New Roman';-inkscape-font-specification:'Times New Roman, ';fill:#2a2a2a"
       d="M 173.64453,880.21169 H 155.1875 l -3.23438,7.52343 q -1.19531,2.77735 -1.19531,4.14844 0,1.08984 1.01953,1.93359 1.05469,0.8086 4.5,1.05469 v 1.30078 h -15.01172 v -1.30078 q 2.98829,-0.52734 3.86719,-1.37109 1.79297,-1.6875 3.97266,-6.85547 L 165.875,847.4109 h 1.23047 l 16.59375,39.65625 q 2.0039,4.78125 3.62109,6.22266 1.65235,1.40625 4.57031,1.58203 v 1.30078 h -18.80859 v -1.30078 q 2.84766,-0.14062 3.83203,-0.94922 1.01953,-0.80859 1.01953,-1.96875 0,-1.54687 -1.40625,-4.88672 z m -0.98437,-2.60157 -8.08594,-19.26562 -8.29688,19.26562 z m 45.03515,14.94141 q -2.35547,2.46094 -4.60547,3.55078 -2.25,1.05469 -4.85156,1.05469 -5.27344,0 -9.21094,-4.39453 -3.9375,-4.42969 -3.9375,-11.35547 0,-6.92578 4.35938,-12.65625 4.35937,-5.76563 11.21484,-5.76563 4.25391,0 7.03125,2.70703 v -5.9414 q 0,-5.51953 -0.28125,-6.78516 -0.24609,-1.26562 -0.80859,-1.72265 -0.5625,-0.45704 -1.40625,-0.45704 -0.91406,0 -2.42578,0.5625 l -0.45703,-1.23046 9.59765,-3.9375 h 1.58203 v 37.23046 q 0,5.66016 0.2461,6.92579 0.28125,1.23046 0.84375,1.72265 0.59765,0.49219 1.37109,0.49219 0.94922,0 2.53125,-0.59766 l 0.38672,1.23047 -9.5625,3.97266 h -1.61719 z m 0,-2.46094 v -16.59375 q -0.21094,-2.39062 -1.26562,-4.35937 -1.05469,-1.96875 -2.8125,-2.95313 -1.72266,-1.01953 -3.375,-1.01953 -3.09375,0 -5.51953,2.77734 -3.19922,3.65625 -3.19922,10.6875 0,7.10157 3.09375,10.89844 3.09375,3.76172 6.89062,3.76172 3.19922,0 6.1875,-3.19922 z m 11.60156,-26.12109 h 15.15235 v 1.30078 h -0.98438 q -1.37109,0 -2.10937,0.66797 -0.70313,0.66797 -0.70313,1.79297 0,1.23047 0.73828,2.91797 l 7.48829,17.78906 7.52343,-18.45703 q 0.8086,-1.96875 0.8086,-2.98828 0,-0.49219 -0.28125,-0.8086 -0.38672,-0.52734 -0.98438,-0.70312 -0.59765,-0.21094 -2.42578,-0.21094 v -1.30078 h 10.51172 v 1.30078 q -1.82813,0.14062 -2.53125,0.73828 -1.23047,1.05469 -2.21484,3.51563 L 247.85937,897.157 h -1.4414 l -11.4961,-27.17578 q -0.77343,-1.89844 -1.47656,-2.70703 -0.70312,-0.84375 -1.79297,-1.40625 -0.59765,-0.31641 -2.35547,-0.59766 z m 45.84375,-17.78906 q 1.47657,0 2.4961,1.05468 1.05469,1.01953 1.05469,2.4961 0,1.47656 -1.05469,2.53125 -1.01953,1.05468 -2.4961,1.05468 -1.47656,0 -2.53125,-1.05468 -1.05468,-1.05469 -1.05468,-2.53125 0,-1.47657 1.01953,-2.4961 1.05469,-1.05468 2.5664,-1.05468 z m 2.91797,16.83984 v 25.875 q 0,3.02344 0.42188,4.04297 0.45703,0.98437 1.30078,1.47656 0.87891,0.49219 3.16406,0.49219 v 1.26562 H 267.30078 V 894.907 q 2.35547,0 3.16406,-0.45703 0.8086,-0.45703 1.26563,-1.51172 0.49219,-1.05469 0.49219,-4.04297 v -12.41016 q 0,-5.23828 -0.31641,-6.78515 -0.24609,-1.125 -0.77344,-1.54688 -0.52734,-0.45703 -1.4414,-0.45703 -0.98438,0 -2.39063,0.52734 l -0.49219,-1.26562 9.70313,-3.9375 z m 29.70703,0 v 10.96875 h -1.16015 q -1.33594,-5.16797 -3.44531,-7.03125 -2.07422,-1.86328 -5.3086,-1.86328 -2.46094,0 -3.97265,1.30078 -1.51172,1.30078 -1.51172,2.88281 0,1.96875 1.125,3.375 1.08984,1.44141 4.42968,3.0586 l 5.13282,2.49609 q 7.13672,3.48047 7.13672,9.17578 0,4.39453 -3.33985,7.10156 -3.30469,2.67188 -7.41797,2.67188 -2.95312,0 -6.75,-1.05469 -1.16015,-0.35156 -1.89843,-0.35156 -0.8086,0 -1.26563,0.91406 h -1.16016 v -11.49609 h 1.16016 q 0.98438,4.92187 3.76172,7.41797 2.77734,2.49609 6.22266,2.49609 2.42578,0 3.9375,-1.40625 1.54687,-1.44141 1.54687,-3.44531 0,-2.42578 -1.72266,-4.07813 -1.6875,-1.65234 -6.78515,-4.18359 -5.09766,-2.53125 -6.67969,-4.57031 -1.58203,-2.00391 -1.58203,-5.0625 0,-3.97266 2.70703,-6.64454 2.74219,-2.67187 7.06641,-2.67187 1.89843,0 4.60547,0.80859 1.79296,0.52735 2.39062,0.52735 0.5625,0 0.87891,-0.2461 0.3164,-0.24609 0.73828,-1.08984 z m 22.95704,0 q 7.3125,0 11.74218,5.55469 3.76172,4.74609 3.76172,10.89843 0,4.32422 -2.07422,8.75391 -2.07422,4.42969 -5.73047,6.67969 -3.62109,2.25 -8.08593,2.25 -7.27735,0 -11.56641,-5.80078 -3.62109,-4.88672 -3.62109,-10.96875 0,-4.42969 2.17968,-8.78907 2.21485,-4.39453 5.80079,-6.46875 3.58593,-2.10937 7.59375,-2.10937 z m -1.08985,2.28516 q -1.86328,0 -3.76172,1.125 -1.86328,1.08984 -3.02343,3.86718 -1.16016,2.77735 -1.16016,7.13672 0,7.03125 2.77734,12.12891 2.8125,5.09765 7.38282,5.09765 3.41015,0 5.625,-2.8125 2.21484,-2.8125 2.21484,-9.66796 0,-8.57813 -3.69141,-13.5 -2.49609,-3.375 -6.36328,-3.375 z m 30.76172,-2.28516 v 7.24219 q 4.04297,-7.24219 8.29688,-7.24219 1.93359,0 3.19921,1.19531 1.26563,1.16016 1.26563,2.70703 0,1.3711 -0.91406,2.32032 -0.91407,0.94921 -2.17969,0.94921 -1.23047,0 -2.77734,-1.19531 -1.51172,-1.23047 -2.25,-1.23047 -0.63282,0 -1.3711,0.70313 -1.58203,1.4414 -3.26953,4.74609 v 15.4336 q 0,2.67187 0.66797,4.04296 0.45703,0.94922 1.61719,1.58204 1.16015,0.63281 3.33984,0.63281 v 1.26562 H 349.53125 V 894.907 q 2.46094,0 3.65625,-0.77344 0.87891,-0.5625 1.23047,-1.79297 0.17578,-0.59765 0.17578,-3.41015 v -12.48047 q 0,-5.625 -0.24609,-6.67969 -0.21094,-1.08984 -0.84375,-1.58203 -0.59766,-0.49219 -1.51172,-0.49219 -1.08985,0 -2.46094,0.52734 l -0.35156,-1.26562 9.73828,-3.9375 z m 12.72656,0.94922 h 15.01172 v 1.30078 h -0.73828 q -1.58203,0 -2.39062,0.70312 -0.77344,0.66797 -0.77344,1.6875 0,1.3711 1.16015,3.79688 l 7.83985,16.24219 7.20703,-17.78907 q 0.59766,-1.4414 0.59766,-2.84765 0,-0.63281 -0.2461,-0.94922 -0.28125,-0.38672 -0.8789,-0.59766 -0.59766,-0.24609 -2.10938,-0.24609 v -1.30078 h 10.47656 v 1.30078 q -1.30078,0.14062 -2.0039,0.5625 -0.70313,0.42187 -1.54688,1.58203 -0.3164,0.49219 -1.19531,2.70703 l -13.11328,32.13281 q -1.89844,4.67579 -4.99219,7.06641 -3.05859,2.39063 -5.90625,2.39063 -2.07422,0 -3.41016,-1.19532 -1.33593,-1.19531 -1.33593,-2.74218 0,-1.47657 0.94922,-2.39063 0.98437,-0.87891 2.67187,-0.87891 1.16016,0 3.16406,0.77344 1.40625,0.52735 1.75782,0.52735 1.05468,0 2.28515,-1.08985 1.26563,-1.08984 2.53125,-4.21875 l 2.28516,-5.58984 -11.56641,-24.29297 q -0.52734,-1.08984 -1.6875,-2.70703 -0.8789,-1.23047 -1.4414,-1.65235 -0.8086,-0.5625 -2.60157,-0.98437 z m 74.07422,27.5625 q -4.95703,3.83203 -6.22265,4.42969 -1.89844,0.8789 -4.04297,0.8789 -3.33985,0 -5.51953,-2.28515 -2.14454,-2.28516 -2.14454,-6.01172 0,-2.35547 1.05469,-4.07813 1.44141,-2.39062 4.99219,-4.5 3.58594,-2.10937 11.88281,-5.13281 v -1.26563 q 0,-4.8164 -1.54687,-6.60937 -1.51172,-1.79297 -4.42969,-1.79297 -2.21484,0 -3.51563,1.19531 -1.33593,1.19532 -1.33593,2.74219 l 0.0703,2.03906 q 0,1.61719 -0.84375,2.4961 -0.80859,0.8789 -2.14453,0.8789 -1.30078,0 -2.14453,-0.91406 -0.8086,-0.91406 -0.8086,-2.49609 0,-3.02344 3.09375,-5.55469 3.09375,-2.53125 8.6836,-2.53125 4.28906,0 7.03125,1.44141 2.07422,1.08984 3.05859,3.41015 0.63281,1.51172 0.63281,6.1875 v 10.9336 q 0,4.60546 0.17578,5.66015 0.17579,1.01953 0.5625,1.3711 0.42188,0.35156 0.94922,0.35156 0.5625,0 0.98438,-0.2461 0.73828,-0.45703 2.84765,-2.5664 v 1.96875 q -3.9375,5.27344 -7.52343,5.27344 -1.72266,0 -2.74219,-1.19532 -1.01953,-1.19531 -1.05469,-4.07812 z m 0,-2.28516 v -12.26953 q -5.30859,2.10938 -6.85547,2.98828 -2.77734,1.54688 -3.97265,3.23438 -1.19532,1.6875 -1.19532,3.6914 0,2.53125 1.51172,4.21875 1.51172,1.65235 3.48047,1.65235 2.67188,0 7.03125,-3.51563 z m 23.09766,-19.40625 q 5.66015,-6.82031 10.79297,-6.82031 2.63672,0 4.53515,1.33594 1.89844,1.30078 3.02344,4.32422 0.77344,2.10937 0.77344,6.46875 v 13.74609 q 0,3.05859 0.49219,4.14844 0.38671,0.8789 1.23046,1.37109 0.87891,0.49219 3.19922,0.49219 v 1.26562 H 478.41406 V 894.907 h 0.66797 q 2.25,0 3.12891,-0.66797 0.91406,-0.70313 1.26562,-2.03906 0.14063,-0.52735 0.14063,-3.30469 v -13.18359 q 0,-4.39454 -1.16016,-6.36329 -1.125,-2.0039 -3.83203,-2.0039 -4.18359,0 -8.33203,4.57031 v 16.98047 q 0,3.26953 0.38672,4.04297 0.49218,1.01953 1.33593,1.51172 0.87891,0.45703 3.51563,0.45703 v 1.26562 H 459.60547 V 894.907 h 0.70312 q 2.46094,0 3.30469,-1.23047 0.87891,-1.26563 0.87891,-4.78125 v -11.95313 q 0,-5.80078 -0.28125,-7.0664 -0.2461,-1.26563 -0.8086,-1.72266 -0.52734,-0.45703 -1.4414,-0.45703 -0.98438,0 -2.35547,0.52734 l -0.52735,-1.26562 9.70313,-3.9375 h 1.51172 z m 49.35937,22.71094 q -2.35547,2.46094 -4.60547,3.55078 -2.25,1.05469 -4.85156,1.05469 -5.27344,0 -9.21094,-4.39453 -3.9375,-4.42969 -3.9375,-11.35547 0,-6.92578 4.35938,-12.65625 4.35937,-5.76563 11.21484,-5.76563 4.25391,0 7.03125,2.70703 v -5.9414 q 0,-5.51953 -0.28125,-6.78516 -0.24609,-1.26562 -0.80859,-1.72265 -0.5625,-0.45704 -1.40625,-0.45704 -0.91406,0 -2.42578,0.5625 l -0.45703,-1.23046 9.59765,-3.9375 h 1.58203 v 37.23046 q 0,5.66016 0.2461,6.92579 0.28125,1.23046 0.84375,1.72265 0.59765,0.49219 1.37109,0.49219 0.94922,0 2.53125,-0.59766 l 0.38672,1.23047 -9.5625,3.97266 h -1.61719 z m 0,-2.46094 v -16.59375 q -0.21093,-2.39062 -1.26562,-4.35937 -1.05469,-1.96875 -2.8125,-2.95313 -1.72266,-1.01953 -3.375,-1.01953 -3.09375,0 -5.51953,2.77734 -3.19922,3.65625 -3.19922,10.6875 0,7.10157 3.09375,10.89844 3.09375,3.76172 6.89062,3.76172 3.19922,0 6.1875,-3.19922 z"
       id="path8" />
    <path
       style="font-weight:normal;font-family:'Times New Roman';-inkscape-font-specification:'Times New Roman, ';fill:#2a2a2a"
       d="m 141.42383,970.91298 h -12.72656 l -16.13672,-22.28906 q -1.79297,0.0703 -2.91797,0.0703 -0.45703,0 -0.98438,0 -0.52734,-0.0352 -1.08984,-0.0703 v 13.85156 q 0,4.5 0.98437,5.58984 1.33594,1.54688 4.00782,1.54688 h 1.86328 v 1.30078 H 93.998047 v -1.30078 h 1.792969 q 3.023437,0 4.324214,-1.96875 0.73829,-1.08985 0.73829,-5.16797 V 931.6786 q 0,-4.5 -0.984379,-5.58984 -1.371094,-1.54687 -4.078125,-1.54687 h -1.792969 v -1.30079 h 17.367183 q 7.59375,0 11.17969,1.125 3.6211,1.08985 6.11719,4.07813 2.53125,2.95312 2.53125,7.06641 0,4.39453 -2.88281,7.6289 -2.84766,3.23438 -8.85938,4.57031 l 9.84375,13.67579 q 3.375,4.71093 5.80078,6.25781 2.42578,1.54687 6.32813,1.96875 z m -33.85547,-24.50391 q 0.66797,0 1.16016,0.0352 0.49218,0 0.80859,0 6.82031,0 10.26562,-2.95313 3.48047,-2.95312 3.48047,-7.52343 0,-4.46485 -2.8125,-7.24219 -2.77734,-2.8125 -7.38281,-2.8125 -2.03906,0 -5.51953,0.66797 z m 40.88672,4.42969 q -0.0352,7.17188 3.48047,11.25 3.51562,4.07813 8.26172,4.07813 3.16406,0 5.48437,-1.72266 2.35547,-1.75781 3.9375,-5.97656 l 1.08984,0.70312 q -0.73828,4.81641 -4.28906,8.78906 -3.55078,3.9375 -8.89453,3.9375 -5.80078,0 -9.94922,-4.5 -4.11328,-4.53515 -4.11328,-12.16406 0,-8.26172 4.21875,-12.86719 4.25391,-4.64062 10.65234,-4.64062 5.41407,0 8.89454,3.58594 3.48046,3.55078 3.48046,9.52734 z m 0,-2.03906 h 14.90625 q -0.17578,-3.09375 -0.73828,-4.35938 -0.87891,-1.96875 -2.63672,-3.09375 -1.72266,-1.125 -3.6211,-1.125 -2.91796,0 -5.23828,2.28516 -2.28515,2.25 -2.67187,6.29297 z m 36.10547,-4.1836 q 3.51562,-3.51562 4.14843,-4.04296 1.58204,-1.33594 3.41016,-2.07422 1.82813,-0.73828 3.62109,-0.73828 3.02344,0 5.20313,1.75781 2.17969,1.75781 2.91797,5.09765 3.62109,-4.21875 6.11719,-5.51953 2.49609,-1.33593 5.13281,-1.33593 2.5664,0 4.53515,1.33593 2.00391,1.30078 3.16407,4.28907 0.77343,2.03906 0.77343,6.39843 v 13.85157 q 0,3.02343 0.45704,4.14843 0.35156,0.77344 1.30078,1.33594 0.94922,0.52734 3.09375,0.52734 v 1.26563 h -15.89063 v -1.26563 h 0.66797 q 2.07422,0 3.23438,-0.80859 0.80859,-0.5625 1.16015,-1.79297 0.14063,-0.59765 0.14063,-3.41015 v -13.85157 q 0,-3.9375 -0.94922,-5.55468 -1.3711,-2.25 -4.39453,-2.25 -1.86328,0 -3.76172,0.94921 -1.86328,0.91407 -4.53516,3.44532 l -0.0703,0.38672 0.0703,1.51171 v 15.36329 q 0,3.30468 0.35156,4.11328 0.38672,0.80859 1.40625,1.37109 1.01954,0.52734 3.48047,0.52734 v 1.26563 h -16.27734 v -1.26563 q 2.67187,0 3.65625,-0.63281 1.01953,-0.63281 1.40625,-1.89844 0.17578,-0.59765 0.17578,-3.48046 v -13.85157 q 0,-3.9375 -1.16016,-5.66015 -1.54687,-2.25 -4.32421,-2.25 -1.89844,0 -3.76172,1.01953 -2.91797,1.54687 -4.5,3.48047 v 17.26172 q 0,3.16406 0.42187,4.11328 0.45703,0.94922 1.30078,1.4414 0.87891,0.45703 3.51563,0.45703 v 1.26563 h -15.92578 v -1.26563 q 2.21484,0 3.09375,-0.45703 0.8789,-0.49218 1.33593,-1.51172 0.45704,-1.05468 0.45704,-4.04296 v -12.30469 q 0,-5.3086 -0.31641,-6.85547 -0.24609,-1.16016 -0.77344,-1.58203 -0.52734,-0.45703 -1.4414,-0.45703 -0.98438,0 -2.35547,0.52734 l -0.52735,-1.26562 9.70313,-3.9375 h 1.51172 z m 51.85547,6.22266 q -0.0352,7.17188 3.48046,11.25 3.51563,4.07813 8.26172,4.07813 3.16407,0 5.48438,-1.72266 2.35547,-1.75781 3.9375,-5.97656 l 1.08984,0.70312 q -0.73828,4.81641 -4.28906,8.78906 -3.55078,3.9375 -8.89453,3.9375 -5.80078,0 -9.94922,-4.5 -4.11328,-4.53515 -4.11328,-12.16406 0,-8.26172 4.21875,-12.86719 4.2539,-4.64062 10.65234,-4.64062 5.41406,0 8.89453,3.58594 3.48047,3.55078 3.48047,9.52734 z m 0,-2.03906 h 14.90625 q -0.17579,-3.09375 -0.73829,-4.35938 -0.8789,-1.96875 -2.63671,-3.09375 -1.72266,-1.125 -3.6211,-1.125 -2.91797,0 -5.23828,2.28516 -2.28516,2.25 -2.67187,6.29297 z m 49.28906,18.49219 q -2.35547,2.46093 -4.60547,3.55078 -2.25,1.05468 -4.85156,1.05468 -5.27344,0 -9.21094,-4.39453 -3.9375,-4.42968 -3.9375,-11.35547 0,-6.92578 4.35937,-12.65625 4.35938,-5.76562 11.21485,-5.76562 4.2539,0 7.03125,2.70703 v -5.94141 q 0,-5.51953 -0.28125,-6.78515 -0.2461,-1.26563 -0.8086,-1.72266 -0.5625,-0.45703 -1.40625,-0.45703 -0.91406,0 -2.42578,0.5625 l -0.45703,-1.23047 9.59766,-3.9375 h 1.58203 v 37.23047 q 0,5.66016 0.24609,6.92578 0.28125,1.23047 0.84375,1.72266 0.59766,0.49219 1.3711,0.49219 0.94922,0 2.53125,-0.59766 l 0.38672,1.23047 -9.5625,3.97265 h -1.61719 z m 0,-2.46094 V 948.2372 q -0.21094,-2.39063 -1.26563,-4.35938 -1.05468,-1.96875 -2.8125,-2.95312 -1.72265,-1.01953 -3.375,-1.01953 -3.09375,0 -5.51953,2.77734 -3.19922,3.65625 -3.19922,10.6875 0,7.10156 3.09375,10.89844 3.09375,3.76172 6.89063,3.76172 3.19922,0 6.1875,-3.19922 z m 21.44531,-43.91016 q 1.47656,0 2.49609,1.05469 1.05469,1.01953 1.05469,2.49609 0,1.47657 -1.05469,2.53125 -1.01953,1.05469 -2.49609,1.05469 -1.47656,0 -2.53125,-1.05469 -1.05469,-1.05468 -1.05469,-2.53125 0,-1.47656 1.01953,-2.49609 1.05469,-1.05469 2.56641,-1.05469 z m 2.91797,16.83985 v 25.875 q 0,3.02343 0.42187,4.04296 0.45704,0.98438 1.30079,1.47657 0.8789,0.49218 3.16406,0.49218 v 1.26563 h -15.64453 v -1.26563 q 2.35547,0 3.16406,-0.45703 0.80859,-0.45703 1.26562,-1.51172 0.49219,-1.05468 0.49219,-4.04296 v -12.41016 q 0,-5.23828 -0.3164,-6.78516 -0.2461,-1.125 -0.77344,-1.54687 -0.52735,-0.45703 -1.44141,-0.45703 -0.98437,0 -2.39062,0.52734 l -0.49219,-1.26562 9.70312,-3.9375 z m 27.14062,28.51171 q -4.95703,3.83204 -6.22265,4.42969 -1.89844,0.87891 -4.04297,0.87891 -3.33984,0 -5.51953,-2.28516 -2.14453,-2.28515 -2.14453,-6.01172 0,-2.35547 1.05468,-4.07812 1.44141,-2.39063 4.99219,-4.5 3.58594,-2.10938 11.88281,-5.13281 v -1.26563 q 0,-4.81641 -1.54687,-6.60937 -1.51172,-1.79297 -4.42969,-1.79297 -2.21484,0 -3.51562,1.19531 -1.33594,1.19531 -1.33594,2.74219 l 0.0703,2.03906 q 0,1.61719 -0.84375,2.49609 -0.80859,0.87891 -2.14453,0.87891 -1.30078,0 -2.14453,-0.91406 -0.80859,-0.91407 -0.80859,-2.4961 0,-3.02343 3.09375,-5.55468 3.09375,-2.53125 8.68359,-2.53125 4.28906,0 7.03125,1.4414 2.07422,1.08985 3.05859,3.41016 0.63282,1.51172 0.63282,6.1875 v 10.93359 q 0,4.60547 0.17578,5.66016 0.17578,1.01953 0.5625,1.37109 0.42187,0.35156 0.94922,0.35156 0.5625,0 0.98437,-0.24609 0.73828,-0.45703 2.84766,-2.56641 v 1.96875 q -3.9375,5.27344 -7.52344,5.27344 -1.72266,0 -2.74219,-1.19531 -1.01953,-1.19531 -1.05469,-4.07813 z m 0,-2.28515 v -12.26953 q -5.30859,2.10937 -6.85546,2.98828 -2.77735,1.54687 -3.97266,3.23437 -1.19531,1.6875 -1.19531,3.69141 0,2.53125 1.51172,4.21875 1.51171,1.65234 3.48046,1.65234 2.67188,0 7.03125,-3.51562 z m 24.78516,-43.06641 v 42.71485 q 0,3.02343 0.42188,4.00781 0.45703,0.98437 1.37109,1.51172 0.91406,0.49218 3.41016,0.49218 v 1.26563 h -15.78516 v -1.26563 q 2.21484,0 3.02344,-0.45703 0.80859,-0.45703 1.26562,-1.51172 0.45703,-1.05468 0.45703,-4.04296 v -29.25 q 0,-5.44922 -0.24609,-6.67969 -0.24609,-1.26563 -0.80859,-1.72266 -0.52735,-0.45703 -1.3711,-0.45703 -0.91406,0 -2.32031,0.5625 l -0.59766,-1.23047 9.59766,-3.9375 z m 68.02734,1.23047 1.08985,16.20703 h -1.08985 q -2.17968,-7.27734 -6.22265,-10.47656 -4.04297,-3.19922 -9.70313,-3.19922 -4.74609,0 -8.57812,2.42578 -3.83203,2.39063 -6.04688,7.66406 -2.17968,5.27344 -2.17968,13.11329 0,6.46875 2.07421,11.21484 2.07422,4.74609 6.22266,7.27734 4.18359,2.53125 9.52734,2.53125 4.64063,0 8.19141,-1.96875 3.55078,-2.0039 7.80469,-7.91015 l 1.08984,0.70312 q -3.58594,6.36328 -8.36719,9.31641 -4.78125,2.95312 -11.35546,2.95312 -11.84766,0 -18.35157,-8.78906 -4.85156,-6.53906 -4.85156,-15.39844 0,-7.13672 3.19922,-13.11328 3.19922,-5.97656 8.78906,-9.24609 5.625,-3.30469 12.26953,-3.30469 5.16797,0 10.19532,2.53125 1.47656,0.77344 2.10937,0.77344 0.94922,0 1.65234,-0.66797 0.91407,-0.94922 1.30079,-2.63672 z m 12.33985,28.6875 q -0.0352,7.17188 3.48047,11.25 3.51562,4.07813 8.26172,4.07813 3.16406,0 5.48437,-1.72266 2.35547,-1.75781 3.9375,-5.97656 l 1.08984,0.70312 q -0.73828,4.81641 -4.28906,8.78906 -3.55078,3.9375 -8.89453,3.9375 -5.80078,0 -9.94922,-4.5 -4.11328,-4.53515 -4.11328,-12.16406 0,-8.26172 4.21875,-12.86719 4.25391,-4.64062 10.65234,-4.64062 5.41407,0 8.89454,3.58594 3.48046,3.55078 3.48046,9.52734 z m 0,-2.03906 h 14.90625 q -0.17578,-3.09375 -0.73828,-4.35938 -0.87891,-1.96875 -2.63672,-3.09375 -1.72266,-1.125 -3.6211,-1.125 -2.91796,0 -5.23828,2.28516 -2.28515,2.25 -2.67187,6.29297 z m 35.92969,-4.21875 q 5.66015,-6.82031 10.79296,-6.82031 2.63672,0 4.53516,1.33593 1.89844,1.30078 3.02344,4.32422 0.77344,2.10938 0.77344,6.46875 v 13.7461 q 0,3.05859 0.49218,4.14843 0.38672,0.87891 1.23047,1.3711 0.87891,0.49218 3.19922,0.49218 v 1.26563 h -15.92578 v -1.26563 h 0.66797 q 2.25,0 3.1289,-0.66796 0.91407,-0.70313 1.26563,-2.03907 0.14062,-0.52734 0.14062,-3.30468 v -13.1836 q 0,-4.39453 -1.16015,-6.36328 -1.125,-2.00391 -3.83203,-2.00391 -4.1836,0 -8.33203,4.57032 v 16.98047 q 0,3.26953 0.38671,4.04296 0.49219,1.01954 1.33594,1.51172 0.87891,0.45703 3.51563,0.45703 v 1.26563 h -15.92578 v -1.26563 h 0.70312 q 2.46094,0 3.30469,-1.23046 0.8789,-1.26563 0.8789,-4.78125 v -11.95313 q 0,-5.80078 -0.28125,-7.06641 -0.24609,-1.26562 -0.80859,-1.72265 -0.52734,-0.45703 -1.44141,-0.45703 -0.98437,0 -2.35546,0.52734 l -0.52735,-1.26562 9.70313,-3.9375 h 1.51172 z m 35.96484,-16.45313 v 10.58203 h 7.52344 v 2.46094 h -7.52344 v 20.88281 q 0,3.12891 0.87891,4.21875 0.91406,1.08985 2.32031,1.08985 1.16015,0 2.25,-0.70313 1.08984,-0.73828 1.6875,-2.14453 h 1.37109 q -1.23047,3.44531 -3.48047,5.20313 -2.25,1.72265 -4.64062,1.72265 -1.61719,0 -3.16406,-0.8789 -1.54688,-0.91407 -2.28516,-2.56641 -0.73828,-1.6875 -0.73828,-5.16797 v -21.65625 h -5.09766 v -1.16015 q 1.9336,-0.77344 3.9375,-2.60157 2.03906,-1.86328 3.6211,-4.39453 0.80859,-1.33594 2.25,-4.88672 z m 16.06641,22.71094 q -0.0352,7.17188 3.48046,11.25 3.51563,4.07813 8.26172,4.07813 3.16407,0 5.48438,-1.72266 2.35547,-1.75781 3.9375,-5.97656 l 1.08984,0.70312 q -0.73828,4.81641 -4.28906,8.78906 -3.55078,3.9375 -8.89453,3.9375 -5.80078,0 -9.94922,-4.5 -4.11328,-4.53515 -4.11328,-12.16406 0,-8.26172 4.21875,-12.86719 4.2539,-4.64062 10.65234,-4.64062 5.41406,0 8.89453,3.58594 3.48047,3.55078 3.48047,9.52734 z m 0,-2.03906 h 14.90625 q -0.17579,-3.09375 -0.73829,-4.35938 -0.8789,-1.96875 -2.63671,-3.09375 -1.72266,-1.125 -3.6211,-1.125 -2.91797,0 -5.23828,2.28516 -2.28516,2.25 -2.67187,6.29297 z m 35.96484,-11.03906 v 7.24218 q 4.04297,-7.24218 8.29687,-7.24218 1.9336,0 3.19922,1.19531 1.26563,1.16015 1.26563,2.70703 0,1.37109 -0.91406,2.32031 -0.91407,0.94922 -2.17969,0.94922 -1.23047,0 -2.77735,-1.19531 -1.51171,-1.23047 -2.25,-1.23047 -0.63281,0 -1.37109,0.70312 -1.58203,1.44141 -3.26953,4.7461 v 15.43359 q 0,2.67188 0.66797,4.04297 0.45703,0.94922 1.61719,1.58203 1.16015,0.63281 3.33984,0.63281 v 1.26563 h -16.48828 v -1.26563 q 2.46094,0 3.65625,-0.77343 0.8789,-0.5625 1.23047,-1.79297 0.17578,-0.59766 0.17578,-3.41016 v -12.48047 q 0,-5.625 -0.2461,-6.67968 -0.21093,-1.08985 -0.84375,-1.58204 -0.59765,-0.49218 -1.51171,-0.49218 -1.08985,0 -2.46094,0.52734 l -0.35156,-1.26562 9.73828,-3.9375 z"
       id="path9" />
  </g>
</svg>
