<svg xmlns="http://www.w3.org/2000/svg" xmlns:xlink="http://www.w3.org/1999/xlink" viewBox="0 0 500 500" xmlns:v="https://vecta.io/nano"><style><![CDATA[.B{fill:#154575}.C{fill:#e4897b}.D{fill:#263238}.E{fill:#fff}.F{opacity:.2}.G{opacity:.5}.H{fill:#ce6f64}]]></style><use xlink:href="#B" class="B"/><use xlink:href="#B" opacity=".9" class="E"/><ellipse cx="250" cy="416.24" rx="193.89" ry="11.32" fill="#f5f5f5"/><path d="M325.25 212.28l-2.44 17.55-2.61 17.76a15.33 15.33 0 0 1-2.53 6 19.57 19.57 0 0 1-4.13 4.23 31.9 31.9 0 0 1-9.18 4.64 55.55 55.55 0 0 1-9.27 2.18l-4.64.53s-3.05.21-4.7.21l-.51-5.64 8.21-2.23a60.36 60.36 0 0 0 7.74-3 25.52 25.52 0 0 0 6.29-4 9.73 9.73 0 0 0 1.87-2.31 5.62 5.62 0 0 0 .65-2.2l.29-4.21.37-4.48q.39-4.47.89-8.91c.65-5.94 1.42-11.83 2.35-17.74z" class="C"/><use xlink:href="#C" class="B"/><use xlink:href="#C" class="F"/><use xlink:href="#D" class="B"/><use xlink:href="#D" class="F"/><path d="M366.54 406.94h-7.55l-5.88-17.47h7.55l5.88 17.47z" class="C"/><path d="M303.9 389.47l1.03 9.01h7.55l-1.04-9.01h-7.54zm56.76 0h-7.55l3.04 9.01h7.54l-3.03-9.01z" class="H"/><use xlink:href="#E" class="B"/><use xlink:href="#E" opacity=".7"/><path d="M313.44 406.94h-7.54l-2.01-17.47h7.55l2 17.47z" class="C"/><use xlink:href="#F" class="B"/><use xlink:href="#F" opacity=".7"/><path d="M358 406.06h9.2a.65.65 0 0 1 .64.52l1.49 6.7a1.11 1.11 0 0 1-1.1 1.35l-8.85-.23c-2.29 0-7 .24-10.18.24s-3.58-3.13-2.28-3.41c5.81-1.28 8-3 9.86-4.7a1.82 1.82 0 0 1 1.22-.47zm-52 0h8.24a.67.67 0 0 1 .65.52l1.49 6.7a1.11 1.11 0 0 1-1.09 1.35l-11-.23c-4.37 0-8.14.24-13.26.24-3.1 0-4-3.13-2.66-3.41 5.9-1.3 10.72-1.43 15.82-4.58a3.48 3.48 0 0 1 1.81-.59z" class="D"/><g class="C"><path d="M289.25,259.05l-8.23.55,3.85,8.83a7.24,7.24,0,0,0,6.77-5.29Z"/><path d="M276.57 262.39l4.57 6.18 3.73-.14-3.85-8.83-4.45 2.79z"/></g><path d="M352.82 216.89c1.32-6.66 3.89-5.51 6.32-2.23a210.05 210.05 0 0 0-1.44 26.61c-1.7-2.82-7.08-13.22-4.88-24.38z" class="F"/><path d="M345.84,181.92c-1.08,5.52-2.16,15.63,1.7,19.32,0,0-1.51,5.59-11.77,5.59-11.27,0-5.38-5.59-5.38-5.59,6.15-1.47,6-6,4.92-10.33Z" class="C"/><path d="M341.55 185.59l-6.24 5.32a17.15 17.15 0 0 1 .53 3c2.35-.34 5.58-2.92 5.83-5.38a8.17 8.17 0 0 0-.12-2.94z" class="H"/><path d="M332.45 160.73c-3.93.93-8.07 12.35-3.79 15.5s11.22-17.23 3.79-15.5z" class="D"/><path d="M347.44 175.4c-2.19 7.16-3.11 11.46-7.68 14.31-6.86 4.29-15-1.19-15-8.86 0-6.91 3.59-17.45 11.4-18.64a10.21 10.21 0 0 1 11.28 13.19z" class="C"/><g class="D"><path d="M345.22 182.4c-4.21.66-7.53-15 3.53-16.21 13.41-1.52 3.25 15.15-3.53 16.21z"/><path d="M350.56 169.91c-5.29.1-20.76-3.07-22.76-11.65-.82-3.52 5.27-8.12 11.41-7.43-8.11 3.56-1.74 9.25 6.86 8.5 9.83-.87 11.63 10.45 4.49 10.58z"/><path d="M352.91 166.92s5.34-.39 4 4.37a6 6 0 0 0-4-4.37z"/><path d="M351.48 166.75s4.59 2.77 5.52-2.1a6.06 6.06 0 0 1-5.52 2.1z"/></g><path d="M348.8 184.2a7.14 7.14 0 0 1-5.05 2c-2.49-.05-3-2.45-1.73-4.43 1.16-1.78 3.86-3.91 6.07-2.9s2.34 3.7.71 5.33z" class="C"/><path d="M350.15 397.03h18.07v-4.86l-20.2-.31 2.13 5.17zm-50.9 0h18.06v-4.92l-20.19-.25 2.13 5.17z" class="B"/><path d="M335.93 174.79c-.14.59-.57 1-1 .9s-.58-.65-.44-1.24.57-1 1-.9.58.65.44 1.24zm-6.69-1.61c-.14.6-.57 1-1 .91s-.58-.65-.44-1.24.57-1 1-.91.58.65.44 1.24z" class="D"/><path d="M331.3,174a21.78,21.78,0,0,1-4.05,4.38,3.51,3.51,0,0,0,2.7,1.21Z" fill="#de5753"/><path d="M332.63 181.79a5.89 5.89 0 0 1-1.34-.16.19.19 0 0 1-.14-.22.18.18 0 0 1 .22-.13 4.8 4.8 0 0 0 4.26-.92.18.18 0 0 1 .25.26 4.93 4.93 0 0 1-3.25 1.17zm5.91-8.66a.37.37 0 0 1-.32-.22 2.84 2.84 0 0 0-2-1.69.35.35 0 0 1-.29-.41.36.36 0 0 1 .41-.3 3.53 3.53 0 0 1 2.48 2.11.36.36 0 0 1-.18.48.4.4 0 0 1-.1.03zM327 170.19a.34.34 0 0 1-.23-.08.36.36 0 0 1-.05-.5 3.54 3.54 0 0 1 3-1.36.36.36 0 0 1 .31.4.35.35 0 0 1-.39.31 2.84 2.84 0 0 0-2.34 1.1.34.34 0 0 1-.3.13z" class="D"/><g class="B"><path d="M355.49 407.38A2.32 2.32 0 0 1 354 407a1.08 1.08 0 0 1-.37-.95.56.56 0 0 1 .3-.5c.83-.43 3.27 1.06 3.55 1.24a.18.18 0 0 1 .08.18.18.18 0 0 1-.14.14 8.6 8.6 0 0 1-1.93.27zm-1.12-1.56a.41.41 0 0 0-.23.05.21.21 0 0 0-.12.2.72.72 0 0 0 .25.65 3.58 3.58 0 0 0 2.67.14 7.23 7.23 0 0 0-2.57-1.04z"/><path d="M357.42 407.12a.11.11 0 0 1-.08 0c-.79-.42-2.29-2.07-2.13-2.91a.56.56 0 0 1 .56-.47 1 1 0 0 1 .77.23c.87.71 1 2.89 1.06 3a.21.21 0 0 1-.08.17.17.17 0 0 1-.1-.02zm-1.52-3.06h-.08c-.24 0-.25.14-.26.18-.1.5.86 1.75 1.64 2.34a4.34 4.34 0 0 0-.89-2.37.65.65 0 0 0-.41-.15zm-53.08 3.32a2.88 2.88 0 0 1-1.84-.46 1 1 0 0 1-.33-.87.6.6 0 0 1 .29-.48c.92-.51 3.95 1 4.3 1.21a.18.18 0 0 1 .09.18.17.17 0 0 1-.14.15 12.58 12.58 0 0 1-2.37.27zm-1.37-1.56a.62.62 0 0 0-.33.07.22.22 0 0 0-.12.19.68.68 0 0 0 .22.57c.47.41 1.71.48 3.37.21a9.72 9.72 0 0 0-3.14-1.04z"/><path d="M305.15 407.12h-.07c-.91-.41-2.71-2-2.58-2.89 0-.2.18-.45.67-.5a1.28 1.28 0 0 1 1 .3c1 .79 1.16 2.82 1.17 2.91a.16.16 0 0 1-.07.16.21.21 0 0 1-.12.02zm-1.84-3.06h-.1c-.33 0-.35.16-.35.2-.09.52 1.14 1.8 2.07 2.36a4.22 4.22 0 0 0-1-2.33.92.92 0 0 0-.62-.23z"/><use xlink:href="#G"/></g><use xlink:href="#G" opacity=".3" class="E"/><use xlink:href="#H" class="B"/><use xlink:href="#H" class="E G"/><use xlink:href="#I" class="B"/><use xlink:href="#I" opacity=".7" class="E"/><path d="M363.92 208.81l1.72 4 1.52 4c1 2.65 1.83 5.34 2.58 8.09a85.18 85.18 0 0 1 1.91 8.39l.36 2.15.26 2.19c.1.73.14 1.48.19 2.22l.08 1.12v.28.46 1a15.52 15.52 0 0 1-1.68 5.63 34.12 34.12 0 0 1-2.4 4.07 64.85 64.85 0 0 1-5.41 6.78 108.38 108.38 0 0 1-12.2 11.48l-4-4c3.27-4.17 6.52-8.48 9.47-12.76a73.2 73.2 0 0 0 4-6.46 24.84 24.84 0 0 0 1.44-3.1 6.09 6.09 0 0 0 .5-2.15s0-.05 0 0 0 .06 0 0v-.23l-.14-.9c-.09-.61-.17-1.2-.31-1.82l-.36-1.82-.43-1.84a106.79 106.79 0 0 0-2.09-7.36c-.79-2.45-1.65-4.9-2.56-7.34a123.63 123.63 0 0 0-1.39-3.64l-1.43-3.52z" class="C"/><use xlink:href="#J" class="B"/><use xlink:href="#J" class="F"/><g class="C"><path d="M348.6,265.55l-7.4,2,6.13,7.43s5.93-3.07,4.65-6.4Z"/><path d="M335.84 273.7l5.36 5.82 6.13-4.57-6.13-7.43-5.36 6.18z"/></g><use xlink:href="#K" class="B"/><use xlink:href="#K" opacity=".6" class="E"/><path d="M218.73 199.78l-5.47 4.95-5.64 4.5a29.71 29.71 0 0 1-2.86 1.83 10.54 10.54 0 0 1-2.26 1l-.13-.34-.62-1.65a97.31 97.31 0 0 1-3.65-13.89l-1.17-7.19-.83-7.16-8.37.53.83 7.82 1.39 7.66a85.74 85.74 0 0 0 4.6 15l.83 1.84.2.45.11.23a3 3 0 0 0 .14.3 7.61 7.61 0 0 0 1.07 1.61 6.35 6.35 0 0 0 1.79 1.42 6.46 6.46 0 0 0 2.14.67 8 8 0 0 0 3.37-.36 15.94 15.94 0 0 0 4.25-2.2 34.26 34.26 0 0 0 3.23-2.6 73.76 73.76 0 0 0 10.22-11.79z" class="C"/><use xlink:href="#L" class="B"/><use xlink:href="#L" opacity=".6" class="E"/><path d="M175.16 406.42h8.2l.55-18.99h-8.2l-.55 18.99z" class="C"/><path d="M183.64 405.47h-9.21a.65.65 0 0 0-.66.56l-1.05 7.28a1.33 1.33 0 0 0 1.32 1.46l8.81-.24c2.49 0 7.64.26 11.09.26s3.62-3.41 2.19-3.71c-6.43-1.39-9-3.29-11.12-5.11a2.12 2.12 0 0 0-1.37-.5z" class="D"/><path d="M183.9 387.43l-.28 9.79h-8.2l.28-9.79h8.2zm-66.79-31.86l6.25 5.31-7.38 6.58-6.25-5.31 7.38-6.58z" class="H"/><g class="B"><path d="M186.72 406.9a14.59 14.59 0 0 1-2.58-.29.21.21 0 0 1-.16-.17.2.2 0 0 1 .1-.2c.37-.19 3.64-1.86 4.65-1.31a.67.67 0 0 1 .33.52 1.09 1.09 0 0 1-.35.94 3.1 3.1 0 0 1-1.99.51zm-1.94-.57c1.82.3 3.17.22 3.67-.22a.73.73 0 0 0 .22-.63.25.25 0 0 0-.13-.21c-.54-.27-2.42.41-3.76 1.06z"/><path d="M184.17,406.61a.17.17,0,0,1-.11,0,.21.21,0,0,1-.08-.17c0-.09.2-2.3,1.23-3.16a1.41,1.41,0,0,1,1.07-.33c.54,0,.7.32.73.54.15.93-1.78,2.7-2.76,3.14Zm2-3.32a1,1,0,0,0-.67.25,4.52,4.52,0,0,0-1.05,2.53c1-.61,2.31-2,2.22-2.55,0,0,0-.19-.39-.23Z"/><use xlink:href="#M"/></g><use xlink:href="#M" class="G"/><path d="M218.64 199.26l4.43-7 2.51 7.95s-3.63 3.81-6.92 2.9zM102.81 368.33l6.25 5.31 14.3-12.76-6.25-5.31-14.3 12.76z" class="C"/><g class="D"><path d="M110.77 373l-6.06-6.93a.64.64 0 0 0-.85-.13l-6.18 4a1.32 1.32 0 0 0-.23 1.95l6 6.47 6.1 7.38c2.26 2.59 5 .49 4.24-.79-3.19-5.75-2.42-7.77-2.48-10.59a2.12 2.12 0 0 0-.54-1.36zm46.29-225.73c-7 7.79-.51 25.31 11.39 18.35s1.44-13.62 1.44-13.62z"/><path d="M157.64 164.64a.25.25 0 0 1-.18-.08c-3.16-3.14-4.72-6.44-4.64-9.8a12.11 12.11 0 0 1 3.67-8.09.255.255 0 1 1 .36.36 11.8 11.8 0 0 0-3.5 7.73c-.08 3.21 1.43 6.38 4.48 9.42a.25.25 0 0 1 0 .36.25.25 0 0 1-.19.1zm15.61-32.55c-.82 2.67 5.32 7.47 3.8 14.23-.81 3.61.72 7 2.43 8s8.21 1.42 9.54-1.67a23 23 0 0 1-3.8-11.09c-.57-7.35-9.7-16.86-11.97-9.47z"/><path d="M174.13 129.46c-2.86-5-26.27-.4-18 16.25s18-16.25 18-16.25z"/></g><path d="M166,153.24c.95,4.87,1.91,13.78-1.5,17,0,0,1.33,4.93,10.37,4.93,9.94,0,4.75-4.93,4.75-4.93-5.42-1.3-5.28-5.32-4.34-9.1Z" class="C"/><path d="M169.74 156.47l5.5 4.69a15 15 0 0 0-.47 2.69c-2.07-.3-4.92-2.58-5.14-4.75a7.48 7.48 0 0 1 .11-2.63z" class="H"/><path d="M160.83 144.32c1.91 7.91 2.55 11.3 7.31 14.69 7.17 5.09 16.47 1 17-7.3.45-7.49-2.75-19.17-11.14-21a11.09 11.09 0 0 0-13.17 13.61z" class="C"/><path d="M173.32 395.72h13l.96-4.15-14.57-.5.61 4.65z" class="B"/><path d="M175.16 237.56c8.18 16.46 1.64 46.47-1.25 57.63-1.48-16.77-4-37.26-5.93-52.32 1.24-8.52 3.41-12.87 7.18-5.31z" class="F"/><g class="D"><path d="M173.35 144.4c.12.65.56 1.12 1 1s.68-.67.57-1.32-.56-1.12-1-1-.68.67-.57 1.32zm7.37-1.3c.11.65.55 1.12 1 1s.68-.66.57-1.31-.56-1.12-1-1.05-.69.71-.57 1.36z"/><path d="M181.1 141.85l1.48-.72s-.58 1.36-1.48.72z"/></g><path d="M179,144.56a17.62,17.62,0,0,0,3.06,3.75,2.88,2.88,0,0,1-2.25.85Z" fill="#de5753"/><path d="M176.84 152.22a5.41 5.41 0 0 1-3.81-1.48.2.2 0 0 1 0-.28.19.19 0 0 1 .27 0 5.24 5.24 0 0 0 4.57 1.27.2.2 0 0 1 .22.16.2.2 0 0 1-.16.23 7.29 7.29 0 0 1-1.09.1zm-.61-20.7c-.23 2.78-7.72 5-8.81 11.81-.58 3.64-3.28 6.27-5.22 6.53A11 11 0 0 1 155 147a2.18 2.18 0 0 1 .4-3.26c2.74-1.92 5.64-4.26 6.18-7.88.66-4.25 15.29-12.05 14.65-4.34z" class="D"/><path d="M160.49 151.13a6 6 0 0 0 3.22 3.2c1.94.78 3.13-.89 2.79-2.84-.32-1.75-1.7-4.26-3.73-4.21a2.67 2.67 0 0 0-2.28 3.85z" class="C"/><path d="M170.65 142.43a.58.58 0 0 1-.18 0 .41.41 0 0 1-.17-.53 3.87 3.87 0 0 1 2.84-2.13.392.392 0 0 1 .08.78 3.06 3.06 0 0 0-2.23 1.71.38.38 0 0 1-.34.17zm12.74-3.31a.38.38 0 0 1-.28-.12 3.09 3.09 0 0 0-2.63-1 .39.39 0 0 1-.14-.76 3.82 3.82 0 0 1 3.33 1.23.39.39 0 0 1 0 .55.41.41 0 0 1-.28.1z" class="D"/><path d="M161 204.28c-4 2-8.12 4.16-12.13 5.79-.76.32-1.52.59-2.25.83l.23-1.41c.38-2.12.84-4.25 1.42-6.38l1.83-6.41c1.36-4.23 2.86-8.55 4.43-12.64l-7.76-3.17a129.76 129.76 0 0 0-4.65 13.41 91.74 91.74 0 0 0-3 14c-.12 1.23-.27 2.45-.3 3.73l-.05.94a7.25 7.25 0 0 0 .15 1.89 5.38 5.38 0 0 0 .62 1.49 4.93 4.93 0 0 0 1.25 1.36 5.22 5.22 0 0 0 2.6 1 7 7 0 0 0 1.69 0 11.68 11.68 0 0 0 1.27-.27 15.65 15.65 0 0 0 2-.71 30.26 30.26 0 0 0 3.42-1.7 78.27 78.27 0 0 0 11.57-8.3z" class="C"/><g class="B"><path d="M113 377h-.12c-1-.11-2-1.75-2.55-2.71a.2.2 0 0 1 0-.22.19.19 0 0 1 .2-.06c.33.09 3.17.91 3.48 1.91a.67.67 0 0 1-.16.65 1.16 1.16 0 0 1-.85.43zm-2.1-2.49c.72 1.26 1.47 2 2 2.1a.76.76 0 0 0 .66-.31.28.28 0 0 0 .07-.28c-.13-.57-1.63-1.19-2.72-1.55z"/><path d="M111.81 374.5a4.58 4.58 0 0 1-1.37-.17.2.2 0 0 1-.12-.15.19.19 0 0 1 .06-.18c.08-.07 1.88-1.6 3-1.46a1 1 0 0 1 .74.45.69.69 0 0 1 0 .85 3.38 3.38 0 0 1-2.31.66zm-.88-.45c1 .18 2.59 0 2.94-.45.06-.07.11-.19 0-.39a.64.64 0 0 0-.47-.29 4.54 4.54 0 0 0-2.47 1.13z"/></g><path d="M173.74 143.16l1.48-.73s-.59 1.36-1.48.73z" class="D"/><use xlink:href="#N" class="B"/><use xlink:href="#N" class="G"/><g class="B"><path d="M108.84 359.67l10.57 8.98 3.95-2.37-11.96-11.12-2.56 4.51z"/><use xlink:href="#O"/></g><use xlink:href="#O" class="E F"/><g class="B"><use xlink:href="#P"/><use xlink:href="#Q"/><use xlink:href="#R"/></g><use xlink:href="#P" class="G"/><use xlink:href="#Q" class="G"/><use xlink:href="#R" class="G"/><path d="M220.85 178a20.58 20.58 0 0 0-12.38-4.12v-1a21.47 21.47 0 0 1 13 4.32zm5.08 5.48a21 21 0 0 0-3.2-3.9l.69-.72a21.92 21.92 0 0 1 3.36 4.08z" class="B"/><path d="M220.85 178a20.58 20.58 0 0 0-12.38-4.12v-1a21.47 21.47 0 0 1 13 4.32zm5.08 5.48a21 21 0 0 0-3.2-3.9l.69-.72a21.92 21.92 0 0 1 3.36 4.08z" class="F"/><use xlink:href="#S" class="B"/><use xlink:href="#S" class="F"/><g class="C"><path d="M168.33 192.9l3.36 6.13-4.69 4.79-4.39-7.08 5.72-3.84z"/><path d="M159.86,205.16l2.75-8.42,4.39,7.08s-2.58,4.59-6,4.52Z"/></g><use xlink:href="#T" class="B"/><use xlink:href="#T" opacity=".6" class="E"/><path d="M229.56 189.95l1.75 6.77-5.73 3.5-2.51-7.95 6.49-2.32z" class="C"/><defs ><path id="B" d="M273 148.7c-41.81 13.58-75.42-55.88-114.23-63.48C115 76.65 87.92 110 84.65 151.57c-6.86 87 73.78 176.8 155.32 193.71 86.48 17.94 154.62-65.83 158.49-147.38 1.56-32.89-6.89-88.5-43.7-101.81-52.53-19-44.44 40.47-81.76 52.61z"/><path id="C" d="M318.78 203.33s-8.9 22.78-.45 65.21h40.36c.27-6.2-3.62-36.41 2.36-65.6a104.35 104.35 0 0 0-13.51-1.7 146.34 146.34 0 0 0-17.15 0 75.28 75.28 0 0 0-11.61 2.09z"/><path id="D" d="M327.74 208.49c2.54 6.75-3.55 29.38-3.55 29.38l-16.76-8.38s.79-11.28 4.63-20 12.94-8.4 15.68-1z"/><path id="E" d="M332.65,268.54s-15,42-10.29,63.61c5.14,23.65,30.24,64.58,30.24,64.58h13.82s-18.49-39-21.43-62.43c-3.19-25.42,13.7-46.86,13.7-65.76Z"/><path id="F" d="M318.33,268.54s-29.41,40.77-28.59,63.77c.85,23.93,12.36,64.42,12.36,64.42h12.78s-5.23-39.09-4.67-62.59c.62-25.62,34.65-45.84,34.65-65.6Z"/><path id="G" d="M304.69 211.45a16 16 0 0 1 22.34 4 16.05 16.05 0 1 1 18.35 26.34L319 260.14l-18.34-26.35a16 16 0 0 1 4.03-22.34z"/><path id="H" d="M269.72 238.58a13.12 13.12 0 0 1 15.61-10 13.11 13.11 0 0 1 25.61 5.59l-5.59 25.61-25.61-5.59a13.11 13.11 0 0 1-10.02-15.61z"/><path id="I" d="M285.51 247.87a22.06 22.06 0 0 1 30.59-6.06 22.06 22.06 0 1 1 36.65 24.55L328.21 303l-36.65-24.55a22 22 0 0 1-6.05-30.58z"/><path id="J" d="M362.62 203.44c6.73 2.59 11.56 27.21 11.56 27.21l-16 6.31s-5.37-12.37-7.17-21.52c-1.93-9.63 3.99-14.94 11.61-12z"/><path id="K" d="M193.44 172.37s3.91 1.37-3.92 49.48h-33.3c.56-13.55.58-21.91-5.9-49.72a97.74 97.74 0 0 1 14.14-1.86 105.85 105.85 0 0 1 15.12 0c6.5.59 13.86 2.1 13.86 2.1z"/><path id="L" d="M193.44 172.37c3.38.86 5.74 14.76 5.74 14.76l-9.31 6.33s-8.93-14-6.33-17.74c2.71-3.87 4.97-4.61 9.9-3.35z"/><path id="M" d="M189.52,221.85S196,285,195.45,310c-.56,26-10.09,85.32-10.09,85.32H174.28s1.75-57.8.77-83.34c-1.07-27.84-9.91-90.14-9.91-90.14Z"/><path id="N" d="M180.73,221.85s-7.54,65.66-13.24,86.74c-6.76,25-48.77,58.7-48.77,58.7l-8.52-7.23s30.45-36.59,35.62-49.77c11-28.14,1.59-70.08,10.4-88.44Z"/><path id="O" d="M155.73 219.9l-.86 3c-.11.23.16.46.55.46h34.27c.3 0 .55-.14.57-.33l.3-3c0-.21-.24-.38-.57-.38h-33.72a.59.59 0 0 0-.54.25z"/><path id="P" d="M160.25 223.67h-.9c-.18 0-.32-.1-.3-.21l.42-3.87c0-.12.17-.21.35-.21h.9c.18 0 .32.09.31.21l-.43 3.87c-.01.11-.17.21-.35.21z"/><path id="Q" d="M187.15 223.67h-.9c-.18 0-.32-.1-.31-.21l.43-3.87c0-.12.17-.21.35-.21h.9c.18 0 .31.09.3.21l-.42 3.87c-.01.11-.17.21-.35.21z"/><path id="R" d="M173.7 223.67h-.9c-.18 0-.32-.1-.31-.21l.43-3.87c0-.12.17-.21.35-.21h.9c.18 0 .32.09.31.21l-.43 3.87c-.05.11-.17.21-.35.21z"/><path id="S" d="M168.46 187.31a18.18 18.18 0 0 1 25.44-3.66 18.18 18.18 0 0 1 29.1 21.79l-21.79 29.1-29.1-21.78a18.18 18.18 0 0 1-3.65-25.45z"/><path id="T" d="M150.32 172.13c-3.33 1-7.34 12.5-7.34 12.5l12.94 9.25s4.72-9.59 3.32-13.9c-1.46-4.49-5.11-8.98-8.92-7.85z"/></defs></svg>