<svg xmlns="http://www.w3.org/2000/svg" xmlns:xlink="http://www.w3.org/1999/xlink" viewBox="0 0 500 500" xmlns:v="https://vecta.io/nano"><style><![CDATA[.B{fill:#154575}.C{fill:#263238}.D{fill:#fff}.E{opacity:.4}.F{opacity:.2}.G{fill:#7f3e3b}.H{fill:#ffb573}.I{fill:#ff8b7b}.J{fill:#e0e0e0}]]></style><use xlink:href="#B" class="B"/><use xlink:href="#B" opacity=".9" class="D"/><ellipse cx="250" cy="416.24" rx="193.89" ry="11.32" fill="#f5f5f5"/><path d="M223 242.82c.2 5.62-9.54 18.18-9.54 18.18s-10.61-11.83-10.81-17.45 2.87-10.29 9.81-10.54 10.37 4.19 10.54 9.81z" class="B"/><path d="M213.16 243.17h.68v149.16h-.68z" class="C"/><path d="M196.29 387.83a2.16 2.16 0 0 0-2.14 2.53c1.45 7.86 9.56 13.88 19.35 13.88s17.89-6 19.34-13.88a2.15 2.15 0 0 0-2.13-2.53zm11.81-114.55a31.71 31.71 0 0 0-12.93-8c-4.08 4.19-.17 9.94 12.93 8z" class="B"/><path d="M213.3,280.42c-3.14-5.66-10-12.47-18.19-14.94l.13-.44c8.34,2.5,15.28,9.42,18.46,15.16Z" class="C"/><path d="M206.13 312.13c0-13.5-9.83-17.25-17.65-10.95h0c-5.56 5.75-.3 13.59 17.65 10.95a48.15 48.15 0 0 0-4.24-3.76 48.15 48.15 0 0 1 4.24 3.76z" class="B"/><path d="M213.3,321.83c-4.29-7.74-13.65-17.06-24.88-20.43l.13-.44c11.36,3.41,20.82,12.82,25.15,20.65Z" class="C"/><path d="M220.42 290.2A40.45 40.45 0 0 1 237 279.92c5.19 5.4.25 12.76-16.58 10.28z" class="B"/><path d="M213.7 299.31l-.4-.22c4.07-7.35 12.94-16.19 23.61-19.39l.13.44c-10.54 3.17-19.32 11.91-23.34 19.17z" class="C"/><path d="M220.78 329.41a52.09 52.09 0 0 1 19.35-16c7.58 6.04 2.55 16.27-19.35 16z" class="B"/><path d="M213.71 342.16l-.43-.16c3.93-10.06 13.72-22.84 26.75-28.75l.19.42c-12.91 5.85-22.62 18.53-26.51 28.49z" class="C"/><path d="M163.3 366.29H95.47a4 4 0 0 1-4-4h0a4 4 0 0 1 4-4h67.83a4 4 0 0 1 4 4h0a4 4 0 0 1-4 4z" class="B"/><path d="M85.13 358.25h-2.25l-8.61-56.18h2.25l8.61 56.18zm34.45 0h-2.26l-8.61-56.18h2.26l8.61 56.18z" class="C"/><path d="M119.67 347H75.44a6.4 6.4 0 0 1-6.11-5.35l-6.76-46.9a4.54 4.54 0 0 1 4.58-5.35h44.23a6.42 6.42 0 0 1 6.12 5.35l6.75 46.9a4.54 4.54 0 0 1-4.58 5.35z" class="B"/><path d="M62.57 294.71l6.76 46.9a6.07 6.07 0 0 0 1.41 3.07c1.62 1.91 4.5.87 4.16-1.46l-7.21-50.12c-.34-2.33-3.52-3.36-4.59-1.46a4.9 4.9 0 0 0-.53 3.07z" class="D E"/><use xlink:href="#C" class="B"/><use xlink:href="#C" class="D E"/><g class="C"><path d="M130.03 414.67h-2.26l-8.61-48.38h2.25l8.62 48.38zm39.13 0h-2.26l-8.61-48.38h2.26l8.61 48.38z"/><path d="M114.88 414.67h2.25l8.61-48.38h-2.25l-8.61 48.38zm-39.14 0H78l8.61-48.38h-2.25l-8.62 48.38z"/></g><path d="M191.77 368.19l-11.15 4.85 6.39 7.46 9.33-4.04-4.57-8.27z" class="G"/><path d="M191.77 368.2l-11.16 4.85 3.59 4.18 10.13-4.4-2.56-4.63z" class="F"/><g class="B"><path d="M185.05 384.1l1.27-.24a2.29 2.29 0 0 0 1.68-1.38h0l.8.41a2.37 2.37 0 0 0 1.48.21l17.34-3.38a6.85 6.85 0 0 0-1.31-3.3s-7.69 1.07-9.85-.82a.58.58 0 0 0-.6-.12c-1.41.6-7 2.81-10.46 2.36a.7.7 0 0 0-.76.82 38.17 38.17 0 0 1 .41 5.44z"/><path d="M196.14 376.05h-.06a.18.18 0 0 1-.12-.16c-.07-1.13.47-3.21 1.23-3.57a.61.61 0 0 1 .7.14.72.72 0 0 1 .24.57c0 1.09-1.78 2.9-1.86 3a.19.19 0 0 1-.13.02zm1.31-3.43h-.1c-.48.23-.95 1.68-1 2.76.58-.64 1.45-1.74 1.44-2.38a.42.42 0 0 0-.13-.3.27.27 0 0 0-.21-.08z"/><path d="M197.79 376.18a11.9 11.9 0 0 1-1.68-.13.19.19 0 0 1-.15-.14.2.2 0 0 1 .07-.19c.86-.71 2.87-1.51 3.6-1.1a.63.63 0 0 1 .31.65.81.81 0 0 1-.32.53 3.41 3.41 0 0 1-1.83.38zm-1.16-.44a5.14 5.14 0 0 0 2.77-.24.4.4 0 0 0 .17-.28c0-.18 0-.24-.11-.28-.46-.25-1.92.22-2.83.8z"/></g><path d="M91.54 333.08l4.78 10c7.05 14.77 24.43 22.2 38.3 16.39 8.1-3.41 16.94-10.58 23-13.86 5.15 11.27 14.78 23.72 22.15 32.37l14.92-7.5-19.75-45.72a13.27 13.27 0 0 0-11.59-8c-24.84-.71-71.81 16.32-71.81 16.32z" class="C"/><path d="M164.03 400.93l-12.15-.57 2.45 9.52 10.15.48-.45-9.43z" class="G"/><path d="M164.03 400.93l-12.16-.57 1.37 5.33 11.04.52-.25-5.28z" class="F"/><g class="B"><path d="M152.46 414.89h1.3a2.31 2.31 0 0 0 1.92-1h0l.7.54a2.27 2.27 0 0 0 1.42.49h17.65a6.81 6.81 0 0 0-.65-3.49s-7.75-.42-9.51-2.69a.54.54 0 0 0-.56-.22c-1.5.31-7.37 1.42-10.72.31a.7.7 0 0 0-.91.66 37.58 37.58 0 0 1-.64 5.4z"/><path d="M164.93 409.11a.19.19 0 0 1-.1 0 .18.18 0 0 1-.08-.18c.15-1.11 1.07-3.06 1.89-3.26a.6.6 0 0 1 .66.26.77.77 0 0 1 .13.61c-.19 1.08-2.31 2.51-2.4 2.57a.17.17 0 0 1-.1 0zm1.86-3.13h-.06c-.52.13-1.25 1.47-1.53 2.51.7-.51 1.75-1.42 1.87-2.06a.4.4 0 0 0-.07-.32.24.24 0 0 0-.21-.11z"/><path d="M167.56 409.66a9.68 9.68 0 0 1-2.69-.56.18.18 0 0 1-.12-.16.19.19 0 0 1 .09-.18c1-.53 3.11-.93 3.75-.39a.59.59 0 0 1 .18.69.79.79 0 0 1-.42.46 1.89 1.89 0 0 1-.79.14zm-2.13-.76a5.19 5.19 0 0 0 2.76.29.45.45 0 0 0 .23-.24c.05-.17 0-.25-.06-.3-.36-.34-1.92-.15-2.93.25z"/></g><path d="M84.59 329.12l.08 10.57C84.8 355.28 98 359.81 113.8 361c9.21.68 21.66.89 28.84.75 1.05 10.92 4.46 33.17 7.89 42.49l15.52-1.08 1.51-44.44a13.07 13.07 0 0 0-7.44-11.9c-23.27-11.48-75.53-17.7-75.53-17.7z" class="C"/><path d="M158.19 346.92a110.91 110.91 0 0 0 9.22 15.29l-.25 6.9c-5.49-8.67-9-22.21-9-22.21a0 0 0 0 0 .03.02z" class="F"/><path d="M135.23 268.07l1 .51 1.24.62 2.58 1.14a43.89 43.89 0 0 0 5.2 1.79 29.06 29.06 0 0 0 5 .89 17.86 17.86 0 0 0 4.49-.22l-3 1.8a9.14 9.14 0 0 0 2.32-2.58 39.15 39.15 0 0 0 2.48-4.41l2.3-5.08 2.2-5.29.11-.25a4.29 4.29 0 0 1 8.23 1.27 46.85 46.85 0 0 1 .1 6.58 51.79 51.79 0 0 1-.76 6.59 38.6 38.6 0 0 1-1.89 6.82 22.67 22.67 0 0 1-4.42 7.34 6 6 0 0 1-2.27 1.53l-.74.27a29.51 29.51 0 0 1-9.08 1.82 36.48 36.48 0 0 1-8.69-.67 44.56 44.56 0 0 1-7.93-2.32l-3.72-1.65-1.82-1-.92-.54-1.06-.65a8.46 8.46 0 0 1 8.26-14.75z" fill="#803e3c"/><path d="M164.36,262.14,161,258.55c-1.94-4.76,4.62-6.19,4.62-6.19l2.88-2a2.61,2.61,0,0,1,3.31.57l2.35,2.49a2.7,2.7,0,0,1,.16,3.77l-2.19,2.1a5.32,5.32,0,0,1-2.27,1.29Z" class="G"/><g class="B"><path d="M118 260.86c2.06-2.77 8.37-2.06 14.79 4.2 1.59-.07 5.71 3.66 10.49 4.87s6.35 9.8 5.48 13.23c-.91 3.6-2.71 6-7.17 6.47s-10.33-2.41-15.06-6-12.2-17.86-8.53-22.77z"/><use xlink:href="#D"/></g><use xlink:href="#D" opacity=".8" class="D"/><g class="B F"><path d="M91.11 330.4h0a.24.24 0 0 1-.21-.27q0-.44.09-.93a.25.25 0 0 1 .26-.22.23.23 0 0 1 .21.26c0 .33 0 .65-.09.95a.24.24 0 0 1-.26.21zm.21-2.87h0a.24.24 0 0 1-.22-.25v-1.93a.25.25 0 0 1 .24-.24h0a.25.25 0 0 1 .23.25l-.06 1.94a.23.23 0 0 1-.19.23zm.08-3.87a.24.24 0 0 1-.24-.24v-.11-1.83a.23.23 0 0 1 .23-.24.23.23 0 0 1 .24.24v1.82.12a.24.24 0 0 1-.23.24zm-.05-3.88a.23.23 0 0 1-.23-.23l-.05-1.94a.24.24 0 0 1 .23-.25h0a.24.24 0 0 1 .24.24v1.94a.23.23 0 0 1-.23.24zm-.11-3.87a.24.24 0 0 1-.24-.23l-.08-1.94a.25.25 0 0 1 .23-.25h0a.24.24 0 0 1 .24.23l.08 1.94a.25.25 0 0 1-.23.25zm-.17-3.91a.23.23 0 0 1-.23-.22c0-.64-.07-1.29-.1-1.94a.24.24 0 0 1 .22-.25h0a.25.25 0 0 1 .24.23l.09 1.93a.23.23 0 0 1-.22.25zm-.2-3.87a.25.25 0 0 1-.24-.22c0-.64-.07-1.29-.11-1.94a.24.24 0 0 1 .48 0c0 .65.07 1.3.11 1.94a.24.24 0 0 1-.22.25zm-.23-3.86a.24.24 0 0 1-.24-.23c0-.64-.08-1.29-.13-1.93a.23.23 0 0 1 .23-.25.23.23 0 0 1 .25.22c0 .64.08 1.29.13 1.93a.24.24 0 0 1-.23.25zm-.26-3.87a.24.24 0 0 1-.24-.23c0-.64-.09-1.29-.14-1.93a.24.24 0 0 1 .48 0c0 .64.09 1.28.14 1.93a.25.25 0 0 1-.23.26zm-.29-3.87a.23.23 0 0 1-.23-.22l-.15-1.93a.24.24 0 1 1 .47 0l.15 1.93a.24.24 0 0 1-.22.26zm-.3-3.86a.24.24 0 0 1-.24-.22l-.16-1.93a.24.24 0 0 1 .21-.26.23.23 0 0 1 .26.22l.16 1.93a.24.24 0 0 1-.21.26zm-.33-3.87a.23.23 0 0 1-.24-.21l-.18-1.93a.241.241 0 0 1 .48-.05l.17 1.94a.23.23 0 0 1-.21.25zm-.36-3.8a.25.25 0 0 1-.24-.21l-.19-1.93a.24.24 0 0 1 .22-.26.23.23 0 0 1 .26.21l.19 1.93a.24.24 0 0 1-.22.26zm-.38-3.85a.23.23 0 0 1-.24-.22q-.11-1-.21-1.92a.25.25 0 0 1 .21-.27.24.24 0 0 1 .26.22l.21 1.92a.24.24 0 0 1-.21.27zm-.44-3.88a.23.23 0 0 1-.23-.18l-.11-.95a.24.24 0 0 1 .47-.05l.11.89a.26.26 0 0 1-.2.29z"/></g><path d="M94.62 285.87l-1.19 2.7-1.23 2.86-2.34 5.78-2.06 5.8-1.65 5.76-.28-3.49a1.16 1.16 0 0 1 .08.47 5.4 5.4 0 0 1 .33.82 15.47 15.47 0 0 0 1.21 2 44.08 44.08 0 0 0 3.6 4.51l4.32 4.6 4.59 4.62.14.14a4.28 4.28 0 0 1-4.52 7 59.47 59.47 0 0 1-6.58-3 63.57 63.57 0 0 1-6.23-3.72 42.57 42.57 0 0 1-6-4.87 30.56 30.56 0 0 1-2.89-3.28l-1.37-2.07-1.22-2.63a5.11 5.11 0 0 1-.38-2.48l.1-1a67.53 67.53 0 0 1 1.08-7.39 72.84 72.84 0 0 1 1.87-7.19l2.42-6.89 1.44-3.36.79-1.66.91-1.76a8.48 8.48 0 0 1 15.3 7.28z" fill="#803e3c"/><path d="M98.07,324l-1.69,2.59c-1.11,5,5.59,5.33,5.59,5.33l3.17,1.46a2.59,2.59,0,0,0,3.16-1.11l1.9-2.85a2.71,2.71,0,0,0-.46-3.75l-2.52-1.7a5.27,5.27,0,0,0-2.45-.89l-3.91-.4A3,3,0,0,0,98.07,324Z" class="G"/><path d="M87 263.83c-3.39-.63-8 5.94-8.72 13.2-2.88 3-3.15 7.93-5.51 12.26-4.77 8.88-.77 11.81 2.38 13.47C81.87 306.32 89.4 305 91.4 301s4.15-8.7 4.75-14.57C97 277.79 93 265 87 263.83z" class="B"/><path d="M136.82 284.46l-11.67.89a1.39 1.39 0 0 1-1.31-1l-1.61-5.09a.8.8 0 0 1 .65-1.12l11.68-.9a1.38 1.38 0 0 1 1.31 1l1.6 5.08a.8.8 0 0 1-.65 1.14z" class="D"/><path d="M116.06 261.36a6.84 6.84 0 0 0-3.44-2.88 6.35 6.35 0 0 1-.37-4.24l-16.2-4.09c1.6 5.18 2.86 9.27 1.07 11.94 3.24 1.71 9 5 15.26 5.35 4.7.25 4.83-3.94 3.68-6.08z" class="G"/><path d="M112.15 254.74h-12c4 3.76 9.72 4.91 12.2 3.13a6.32 6.32 0 0 1-.2-3.13z" class="F"/><path d="M114.43 244.14c2-2.79 2.54-6.94 1-7.51.13-2.82-.21-5.78-3-6.27a5.54 5.54 0 0 0-6.51 5.33c-4.02 4.63 2.4 10 8.51 8.45z" class="J"/><path d="M93,241.62c2,7.37,3.47,12.34,8.43,14.62,9.88,4.53,14.23-.59,14.51-8.42.25-7-3-17.93-10.92-19.36A10.52,10.52,0,0,0,93,241.62Z" class="G"/><path d="M110.24 248.29a7.08 7.08 0 0 0 1.24-.17.2.2 0 0 0 .15-.26.25.25 0 0 0-.28-.17 6.29 6.29 0 0 1-5.32-1.21.23.23 0 0 0-.31 0 .21.21 0 0 0 0 .31 6.58 6.58 0 0 0 4.52 1.5z" class="C"/><path d="M93.79 246.85c2.89-1.91 4.78-5.63 3.56-6.7 1.1-2.59 1.56-6.36-.61-6.9s-6.33-.72-7.95 2.76c-5.44 2.93-1.27 10.18 5 10.84z" class="J"/><path d="M103.09 241.08a3.5 3.5 0 0 0-2.65.41 6.85 6.85 0 0 0 2.65-.41zm.06.64a2.9 2.9 0 0 0-2.24 1 5.79 5.79 0 0 0 2.24-1zm10.25-2.61s.54-.8 1-.45a1.48 1.48 0 0 1-1 .45zm.18.58s.43-.71.82-.12a.71.71 0 0 1-.82.12zm-3.91-7.05a21.63 21.63 0 0 0-6.69.8 60.42 60.42 0 0 0 6.69-.8zm.99 1.07s-5.14.33-7.57 1.76a42.2 42.2 0 0 0 7.57-1.76z" class="F"/><path d="M91.68 249.21a7.16 7.16 0 0 0 4.73 2.86c2.51.36 3.46-2 2.51-4.18-.87-2-3.22-4.57-5.62-3.91a3.27 3.27 0 0 0-1.62 5.23z" class="G"/><path d="M105.15 241.08c.12.61.55 1 .94.95s.62-.65.5-1.25-.54-1-.94-.95-.65.64-.5 1.25zm6.47-1.22c.12.61.54 1 .94.95s.62-.64.5-1.25-.55-1-.94-.95-.63.64-.5 1.25z" class="C"/><path d="M109.62 240.77l1 5.12a4.45 4.45 0 0 0 3-1 10.79 10.79 0 0 0-4-4.12z" fill="#630f0f"/><path d="M102.83 239.64a.41.41 0 0 1-.19 0 .36.36 0 0 1-.24-.45 3.66 3.66 0 0 1 2.27-2.46.36.36 0 0 1 .45.25.37.37 0 0 1-.25.45h0a2.94 2.94 0 0 0-1.77 2 .37.37 0 0 1-.27.21zm11.92-2.33a.37.37 0 0 1-.33-.1 2.85 2.85 0 0 0-2.46-.92.36.36 0 0 1-.43-.29.38.38 0 0 1 .29-.43 3.61 3.61 0 0 1 3.18 1.13.36.36 0 0 1 0 .51.32.32 0 0 1-.25.1z" class="J"/><path d="M117.11 274.67c-8.55-.83-25.88-12.22-19.21-14.64 4.28 4.71 12 5.94 15.33 5.94 1.24-1.18 2.42-4.52-.61-7.49 3.48-.3 10.45 10.4 4.49 16.19zm224.62 91.18h67.83a4 4 0 0 0 4-4h0a4 4 0 0 0-4-4h-67.83a4 4 0 0 0-4 4h0a4 4 0 0 0 4 4z" class="B"/><path d="M419.9 357.82h2.26l8.61-56.18h-2.26l-8.61 56.18zm-34.45 0h2.26l8.61-56.18h-2.25l-8.62 56.18z" class="C"/><path d="M385.36 346.53h44.23a6.42 6.42 0 0 0 6.12-5.35l6.75-46.9a4.54 4.54 0 0 0-4.58-5.35h-44.23a6.4 6.4 0 0 0-6.11 5.35l-6.76 46.9a4.54 4.54 0 0 0 4.58 5.35z" class="B"/><path d="M442.46 294.28l-6.75 46.9a6.17 6.17 0 0 1-1.42 3.07c-1.62 1.91-4.5.87-4.16-1.46l7.22-50.12c.33-2.33 3.51-3.37 4.58-1.46a4.84 4.84 0 0 1 .53 3.07z" class="D E"/><path d="M391.9 365.85h31a4 4 0 0 0 4-4h0a4 4 0 0 0-4-4h-31a4 4 0 0 0-4 4h0a4 4 0 0 0 4 4z" class="B"/><path d="M391.9 365.85h31a4 4 0 0 0 4-4h0a4 4 0 0 0-4-4h-31a4 4 0 0 0-4 4h0a4 4 0 0 0 4 4z" class="D E"/><g class="C"><path d="M375.01 414.24h2.25l8.62-48.38h-2.26l-8.61 48.38zm-39.13 0h2.25l8.61-48.38h-2.25l-8.61 48.38z"/><path d="M390.16 414.24h-2.26l-8.61-48.38h2.26l8.61 48.38zm39.13 0h-2.26l-8.61-48.38h2.26l8.61 48.38zm-75.44-154.31c2.42 3.17 3.68 2.34 5.31-1.66 1-2.57 3.88-1.44 4.55-6 .27-1.89-5.72-5.53-9-4.55s-2.71 9.74-.86 12.21z"/></g><path d="M358.85 280.54a8.07 8.07 0 0 0-10 5.53l-.16.54-.42 1.47-.49 1.62-1.1 3.21a46.55 46.55 0 0 1-2.59 5.9 20.1 20.1 0 0 1-3 4.28 7.46 7.46 0 0 1-1.12 1l-1.82-1.26a61.18 61.18 0 0 1-4.72-3.94l-4.7-4.5-4.61-4.7-.18-.18a4.07 4.07 0 0 0-6.68 4.32 57.64 57.64 0 0 0 3.09 6.69 68.39 68.39 0 0 0 3.84 6.3 51.83 51.83 0 0 0 4.8 6 33.76 33.76 0 0 0 6.45 5.49 6.19 6.19 0 0 0 3.21.95h.6a17.56 17.56 0 0 0 6.6-1.25 20.16 20.16 0 0 0 5.31-3.15 30.78 30.78 0 0 0 6.73-7.9 49.15 49.15 0 0 0 4-8.23l1.43-4.18.6-2.14.26-1.09.27-1.23a8.1 8.1 0 0 0-5.6-9.55z"/><path d="M309.71 290.24l2.52 2a8.85 8.85 0 0 0 3.4 1.66l3.45.85a4.26 4.26 0 0 0 4.32-1.45h0a4.24 4.24 0 0 0-.48-5.88 16.74 16.74 0 0 0-4.26-2.47l-3.53-2.07a2.84 2.84 0 0 0-3.62.64l-2.22 2.69a2.84 2.84 0 0 0 .42 4.03z" class="H"/><path d="M378.46 275.2c-8.27.67-17.57 1.72-24.58 5a8.9 8.9 0 0 0-4.88 9.3c1.05 7.82 1.87 13.88 3.78 20.32 4.13 14-5.88 20.13 3.43 30.95 4.08 4.63 29.09 9 46.8 3.17 2.3-9.57 1.22-28.9-1.64-50.22a21.38 21.38 0 0 0-22.91-18.52z" class="C"/><path d="M396.46,304.08c4.61,21.63,1.14,27.38-7.78,33.41-12.52,1.94-17.54-3.23-17.54-3.23Z"/><path d="M367.69 307.27l10.85.07a1 1 0 0 0 1-.95l.29-4.65a.89.89 0 0 0-.85-1l-10.85-.07a1 1 0 0 0-1 .95l-.29 4.65a.88.88 0 0 0 .85 1z" class="D"/><g class="D F"><path d="M361.82 292.4a.37.37 0 0 1-.34-.23.37.37 0 0 1 .22-.46c6.15-2.18 14.89-7.81 17.63-11.37a.36.36 0 1 1 .57.43c-3.14 4.07-12.23 9.58-18 11.61a.25.25 0 0 1-.08.02z"/><path d="M367.91 293h-.11c-5.85-1.81-8.27-7.78-8.78-11a.35.35 0 0 1 .3-.41.35.35 0 0 1 .4.3c.49 3.08 2.78 8.74 8.29 10.45a.35.35 0 0 1 .24.44.36.36 0 0 1-.34.22z"/></g><path d="M373.3,263.84c-.16,4.12.93,10.39,4.08,12.77a2.66,2.66,0,0,1-.18,4.39c-2.29,1.46-8.52,4.63-11.63,4.63s-4.91-3.44-4.56-5.13a3.94,3.94,0,0,1,1.3-2.06c2.1-1.91.56-3.88-.3-5.31Z" class="H"/><path d="M369.91 269.58a6.49 6.49 0 0 0-.26-.74l-7.65 4.29a6.4 6.4 0 0 1 1.36 3.32c3.85-1.55 7.24-4.51 6.55-6.87z" class="F"/><path d="M323.13 392.86c1.26-1.32 9.45-3.83 9.45-3.83a160.88 160.88 0 0 1 5.29 18.78l-10.58 1.06s-1.74-10.72-4.16-16.01z" class="H"/><use xlink:href="#E" class="B"/><use xlink:href="#E" class="E"/><path d="M323.73 399l1.31 2.58a.79.79 0 0 0 .86.43c1.73-.3 6.9-1.13 9.9-.76a.8.8 0 0 0 .89-.75c.06-1 .05-2.34 0-3.16a.81.81 0 0 0-.81-.79 58.63 58.63 0 0 0-11.64 1.29.82.82 0 0 0-.51 1.16zm16.44 15.51l-1.17-7.44a.74.74 0 0 0-.78-.57l-10.85.05a4 4 0 0 0-2.47.66c-2.44 2-6.23 4-11.73 5-1.74.34-1 3.79 3.08 3.77 6.75 0 6.47-.24 12.22-.26 4.92 0 6.15.22 10.06.26a1.47 1.47 0 0 0 1.64-1.47z" class="C"/><path d="M374.58 254c0 7.5.38 11.86-3.25 16.16-5.46 6.47-15.11 4.24-17.4-3-2.06-6.48-1.7-17.66 5.6-21.55s15.06.9 15.05 8.39z" class="H"/><g class="C"><path d="M360.75 257.31c-.05.68.27 1.25.71 1.28s.85-.49.9-1.17-.27-1.26-.71-1.29-.85.5-.9 1.18zm-7.02-.16c-.06.68.26 1.26.7 1.29s.85-.5.9-1.18-.26-1.25-.7-1.28-.85.49-.9 1.17zm19.33 3.2c-3.69 1.52-4.36.17-3.74-4.11.39-2.74-2.63-3.2-.9-7.49.72-1.76 7.73-1.9 10 .58s-2.48 9.84-5.36 11.02z"/><path d="M371.53 250.7c-8.44.73-19.28.77-20.8-5.43-1-4.2 4.06-10.49 11.86-4.37 5.43 4.24 10.7 1.62 13.35 2.53 2.41.83 7.06 6.27-4.41 7.27z"/><path d="M377 249.62a6.67 6.67 0 0 1-1.15-.11.473.473 0 1 1 .17-.93 3.48 3.48 0 0 0 3-.54 1.91 1.91 0 0 0 .69-1.52.46.46 0 0 1 .46-.48h0a.46.46 0 0 1 .47.46 2.78 2.78 0 0 1-1 2.26 3.89 3.89 0 0 1-2.64.86zM361.71 265a5.85 5.85 0 0 1-1.09.21.19.19 0 0 1-.21-.17.19.19 0 0 1 .17-.22 5.24 5.24 0 0 0 4-2.45.19.19 0 0 1 .26-.09.2.2 0 0 1 .08.26 5.33 5.33 0 0 1-3.21 2.46zm1.2-11.78a.33.33 0 0 1 .34.18 2.84 2.84 0 0 0 2.06 1.52.36.36 0 1 1-.06.71 3.55 3.55 0 0 1-2.62-1.89.35.35 0 0 1 .14-.48.25.25 0 0 1 .14-.04zm-7.79.17a.31.31 0 0 1 .21.11.35.35 0 0 1 0 .5 3.5 3.5 0 0 1-3.09 1 .35.35 0 0 1-.26-.42.36.36 0 0 1 .43-.27 2.76 2.76 0 0 0 2.43-.8.39.39 0 0 1 .28-.12z"/></g><path d="M377.64 261.32a7 7 0 0 1-4 3.42c-2.32.72-3.55-1.34-3-3.56.52-2 2.36-4.79 4.72-4.54a3.11 3.11 0 0 1 2.28 4.68z" class="H"/><path d="M357.14,257.39a21.51,21.51,0,0,1-2.35,5.45,3.54,3.54,0,0,0,2.95.26Z" fill="#ed893e"/><path d="M353.69 392.29c1.12-1.44 9-4.77 9-4.77a162.38 162.38 0 0 1 7.16 18.15l-10.42 2.12s-2.8-10.48-5.74-15.5z" class="H"/><use xlink:href="#F" class="B"/><use xlink:href="#F" class="E"/><path d="M354.91 398.37l1.56 2.44a.81.81 0 0 0 .9.34c1.7-.47 6.75-1.82 9.78-1.76a.8.8 0 0 0 .81-.84c0-1-.19-2.32-.29-3.14a.81.81 0 0 0-.88-.71 58.38 58.38 0 0 0-11.45 2.47.81.81 0 0 0-.43 1.2zm17.92 13.25l-2.17-7.53a.72.72 0 0 0-.85-.45l-10.73 1.62a4 4 0 0 0-2.35 1 17.9 17.9 0 0 1-10.58 6c-1.74.34-1 3.79 3.08 3.77 6.74 0 6.45-.88 12.14-1.72 4.31-.63 6.13-.65 10-1a1.48 1.48 0 0 0 1.46-1.69z" class="C"/><path d="M347.16 331.94l3.13-.73a8.81 8.81 0 0 1 3.79 0l3.47.71a4.27 4.27 0 0 1 3.29 3.15h0a4.23 4.23 0 0 1-2.95 5.11 16.43 16.43 0 0 1-4.9.42l-4.08.35a2.85 2.85 0 0 1-3-2.12l-.86-3.38a2.84 2.84 0 0 1 2.11-3.51z" class="H"/><path d="M396.8 295.71l-.89-8.37a8.09 8.09 0 0 0-16.06 1.91v.12l.66 7.6.59 7.66.2 3.78.12 3.72v4.44l-3.55 2.4-7.07 4.36-7.33 4.3-7.38 4.35h-.07a3.47 3.47 0 0 0-1.25 4.25c.69 2.13 2.05 3.66 4.23 3.18l8.6-2.29 8.42-2.84 8.35-3.46a60.71 60.71 0 0 0 8.47-4.64 6.54 6.54 0 0 0 2.7-4l.13-.6a64.68 64.68 0 0 0 1.23-9l.26-8.54-.36-8.33z" class="C"/><path d="M258.37 294c-.43-2.76-5.5-3.92-5.5-3.92l-3-1.23a2.21 2.21 0 0 0-2.74.89l-1.45 2.33a2.23 2.23 0 0 0 .76 3.09l2.75 1.62a3.93 3.93 0 0 0 1.6.53l2.3.24a5.13 5.13 0 0 0 4.92-2.45l.14-.22a1.35 1.35 0 0 0 .22-.88zm34.39-21.8c-1.1 4.8-2.32 13.6.95 16.92a35.85 35.85 0 0 0-16.83 8.62c-3.19-6.4 1.84-9.09 1.84-9.09 5.42-1.11 5.41-5.11 4.59-8.88z" class="I"/><path d="M275.81,293.14c1.67-5.1-2.35-6.12,4.53-8.22,5.38-1.65,15.4-1.2,17.68.62,1.27,1-.67,4.09-.67,4.09Z" class="J"/><path d="M301.13 297.83l-.34.42-.29.36-.58.66-1.17 1.24-2.44 2.29a42.06 42.06 0 0 1-5.33 4l-2.87 1.69c-.96.55-2 1-3 1.45a42.31 42.31 0 0 1-6.33 2.2l-.28.07a3.24 3.24 0 0 1-1.23.11 13.73 13.73 0 0 1-4.36-1.17 29.86 29.86 0 0 1-3.2-1.65 57.73 57.73 0 0 1-5.51-3.74q-2.58-2-5-4.11l-4.64-4.45a2.49 2.49 0 0 1 3.07-3.87h.05l5.29 3.11 5.3 3c1.76 1 3.53 1.85 5.25 2.61a22.57 22.57 0 0 0 2.48.95 5.8 5.8 0 0 0 1.68.32l-1.51.18a40.75 40.75 0 0 0 4.83-2.2 41.21 41.21 0 0 0 4.52-2.78 45.9 45.9 0 0 0 4.18-3.3l1.93-1.8.9-.93.42-.45.34-.37.27-.3a5 5 0 0 1 7.59 6.46z" class="I"/><use xlink:href="#G" class="B"/><use xlink:href="#G" class="E"/><g class="C"><path d="M276 264.68c-.09.59-.49 1-.88 1s-.63-.6-.53-1.2.49-1 .88-1 .67.6.53 1.2z"/><path d="M275.68 263.54l-1.37-.64s.55 1.24 1.37.64z"/></g><path d="M275.7,265.25a16.23,16.23,0,0,1-2.74,3.48,2.58,2.58,0,0,0,2.07.74Z" fill="#ff5652"/><path d="M275.19 261.19a.32.32 0 0 1-.2-.18.34.34 0 0 1 .16-.47 3.51 3.51 0 0 1 3.25 0 .37.37 0 0 1 .12.49.35.35 0 0 1-.48.12 2.84 2.84 0 0 0-2.57.06.34.34 0 0 1-.28-.02z" class="C"/><path d="M296.13 265.87c-1.61 7.28-2.14 10.39-6.38 13.59-6.38 4.8-14.79 1.24-15.34-6.37-.5-6.85 2.22-17.6 9.75-19.4s13.59 4.9 11.97 12.18z" class="I"/><g class="C"><path d="M278.84 267.52c1.37 6.79 8 12.38 13 12.17S304.21 270 304 262.9s-5.18-13.37-13.29-13-18.48.83-11.87 17.62z"/><path d="M288 252.61c-6.16-6.37-14.7-1.82-15.89 4.9 3.59-.7 6.57 4.34 11.23 4.06 5.34-.32 8.08-5.4 4.66-8.96z"/></g><path d="M295.12 253.94c.84-6.06 7-4.9 9.51-1.75s3.64 12.8-2.52 10.71-7.41-5.9-6.99-8.96z" class="B"/><g class="C"><path d="M300.8 256.1c-1.1-6.91 3.89-21.94 16.15-16.16 10.14 4.78-3.8 30.24 10.14 34.86-5.29 8.07-23.44-.8-26.29-18.7z"/><path d="M328.47 278h-.09c-7.43-2.95-7.64-14.6-7.81-24-.12-6.09-.21-11.35-2.2-12.62a2.6 2.6 0 0 0-2.54.07.23.23 0 0 1-.31-.12.25.25 0 0 1 .12-.32 3.09 3.09 0 0 1 3 0c2.2 1.41 2.3 6.79 2.41 13 .17 9.23.38 20.71 7.51 23.54a.24.24 0 0 1 .14.31.25.25 0 0 1-.23.14z"/></g><path d="M282.08 268.5c-1 1.64-1.45 2.35-2.72 2.79a2.19 2.19 0 0 1-2.9-2.79c.52-1.7 2.14-4.1 4-3.93a2.46 2.46 0 0 1 1.62 3.93z" class="I"/><path d="M277.61 272.02l-1 2.13-1-2.13 1-2.12 1 2.12z" class="D"/><path d="M279.65,339.08s-27.81-1.43-46.13,6.86c-5.7,2.58-6.58,6.89-7.59,13.06-4.21,25.91-10.76,52-10.76,52l6.24,1.85s23.27-34.19,20.08-52.74c43.19,9.16,56.85-5.19,56.85-5.19Z" class="I"/><path d="M215.47 409.85c-.35-.11-.64.1-.95.27-2.26 1.22-2.25 1.29-8.33 1.91-2 .21-2.26 2.07 2.68 3.62l12.1 3.8c1.19.37 3.36-2.46 1.71-7.15a.89.89 0 0 0-.77-.58 17.91 17.91 0 0 1-6.44-1.87z" class="C"/><path d="M296,341.36s-22.12-3.69-40.42,4.52a14.06,14.06,0,0,0-8.19,14.81c3.72,26,13,56.53,13,56.53l6.51-.1s-.48-36.3-3.67-54.85c3.68,1.2,9.95,1.23,13.2,1.08,12-.57,21.8-3.81,20.31-15.72Z" class="I"/><path d="M260.06 416c-.36 0-.57.28-.82.54-1.78 1.85-1.76 1.9-7.38 4.33-1.88.81-1.53 2.64 3.65 2.64h12.68c1.24 0 2.47-3.36-.51-7.33a.88.88 0 0 0-.91-.32 18.17 18.17 0 0 1-6.71.14zm7.23-77.44s-17.7-.11-31.06 5.38c0 18.83 7.81 26.37 7.81 26.37s72.72 12.78 56.25-30.71c-8.53-2.6-32.81-1.81-33-1.04z" class="C"/><g class="I"><path d="M248.7 341.63c-1 2.61-6.2 2.66-6.2 2.66l-3.17.57a2.24 2.24 0 0 1-2.5-1.45l-.91-2.59a2.24 2.24 0 0 1 1.4-2.86l3-1a4.14 4.14 0 0 1 1.68-.17l2.3.26a5.16 5.16 0 0 1 4.29 3.43l.08.25a1.33 1.33 0 0 1 .03.9z"/><path d="M275.08 299.11l-1.37 7.18-1.71 7.08a100.51 100.51 0 0 1-4.78 14.06l-.13.29a3 3 0 0 1-.44.73 35.77 35.77 0 0 1-4.36 4.35c-1.47 1.29-3 2.43-4.54 3.54l-4.72 3.11-4.93 2.76a2.5 2.5 0 0 1-2.87-4h0l3.84-3.77 3.78-3.78 3.57-3.79a38 38 0 0 0 3-3.76l-.57 1 1.92-6.42 1.63-6.68 1.47-6.78 1.36-6.77v-.06a5 5 0 0 1 9.84 1.74z"/></g><use xlink:href="#H" class="B"/><use xlink:href="#H" class="E"/><use xlink:href="#I" class="B"/><use xlink:href="#I" class="E"/><g class="B"><rect x="225.35" y="367.98" width="75.87" height="8.04" rx="4.02" transform="matrix(-1 0 0 -1 526.57 743.99)"/><path d="M268.8 356.69H313a6.42 6.42 0 0 0 6.12-5.35l6.75-46.91a4.52 4.52 0 0 0-4.57-5.34h-44.21a6.39 6.39 0 0 0-6.11 5.34l-6.76 46.91a4.54 4.54 0 0 0 4.58 5.35z"/></g><path d="M271 304.43l-6.76 46.91a4.88 4.88 0 0 0 .57 3.13 2.42 2.42 0 0 0 4.46-.91l7.21-50.07a2.42 2.42 0 0 0-4.32-1.8 6 6 0 0 0-1.16 2.74z" class="D E"/><path d="M307.54 367.98h2.26l8.61-56.18h-2.26l-8.61 56.18zm-34.44 0h2.25l8.61-56.18h-2.25l-8.61 56.18z" class="C"/><rect x="275.52" y="367.98" width="39.08" height="8.04" rx="4.02" transform="matrix(-1 0 0 -1 590.12 743.99)" class="B"/><rect x="225.35" y="367.98" width="50.17" height="8.04" rx="4.02" class="D E"/><g class="C"><path d="M262.65 424.4h2.25l8.61-48.39h-2.25l-8.61 48.39zm-39.13 0h2.25l8.61-48.39h-2.25l-8.61 48.39z"/><path d="M277.8 424.4h-2.26l-8.61-48.39h2.26l8.61 48.39zm39.13 0h-2.26l-8.61-48.39h2.26l8.61 48.39z"/></g><use xlink:href="#J" class="B"/><g class="D"><use xlink:href="#J" opacity=".5"/><path d="M136.13 199.39a40.3 40.3 0 1 1 33.23-46.3 40.36 40.36 0 0 1-33.23 46.3zm-13-79a39.79 39.79 0 1 0 45.72 32.81 39.84 39.84 0 0 0-45.71-32.84zm3.25 58.46a23.45 23.45 0 1 1 19.34-26.94 23.47 23.47 0 0 1-19.34 26.94zm-7.52-45.78A22.94 22.94 0 1 0 145.22 152a23 23 0 0 0-26.36-18.93z"/></g><path d="M312.53 108.44a45.24 45.24 0 0 0-4.85-8.67l.88-.63a46.06 46.06 0 0 1 5 8.88zm-10.85-15.52a45.4 45.4 0 0 0-19.89-10.87l.27-1a46.64 46.64 0 0 1 20.36 11.13zm11.72 33.17a42.71 42.71 0 1 0-45.79 42.58c3.37 5.57 9.52 9.57 9.52 9.57a59 59 0 0 1-1.53-9.74 42.7 42.7 0 0 0 37.8-42.41z" class="B"/><path d="M276.14 122.84a5.45 5.45 0 1 1-5.44-5.44 5.44 5.44 0 0 1 5.44 5.44zm18.86 6.5a5.45 5.45 0 1 1-5.45-5.45 5.45 5.45 0 0 1 5.45 5.45zm-37.69-3.25a5.44 5.44 0 1 1-5.44-5.45 5.44 5.44 0 0 1 5.44 5.45z" class="D"/><use xlink:href="#K" class="B"/><use xlink:href="#K" class="E"/><path d="M383.3 186.64l24.35-1.92a2.22 2.22 0 0 0 2-2.37h0a2.22 2.22 0 0 0-2.38-2L383 182.24a2.21 2.21 0 0 0-2 2.38h0a2.2 2.2 0 0 0 2.3 2.02zm.7 8.6l24.35-1.93a2.21 2.21 0 0 0 2-2.37h0a2.23 2.23 0 0 0-2.38-2l-24.35 1.92a2.23 2.23 0 0 0-2 2.38h0a2.23 2.23 0 0 0 2.38 2zm-1.38-17.19l24.38-1.92a2.23 2.23 0 0 0 2-2.38h0a2.2 2.2 0 0 0-2.37-2l-24.35 1.92a2.21 2.21 0 0 0-2 2.37h0a2.21 2.21 0 0 0 2.34 2.01z" class="D"/><defs ><path id="B" d="M382.16 344.07c-20.29 49.73-95.87 26.7-136.18 9.56-20.3-8.63-36.33-15.9-58.33-11.55-20.41 4.05-31.87 13.21-53 3.22-19.41-9.19-37.51-44.56-36.88-68.27.77-29.09 18.39-39.44 25-62.76 9.54-33.6-59.62-104.48 7.27-122 17.45-4.59 32.95 7.32 48.76 12.92 23.5 8.33 38.15 2.71 60.76-7.23 20.62-9.07 43.51-17.49 65.08-8.35 21 8.89 31.73 32 54 39.12 35.54 11.39 110 19.51 72.41 76.36-13.35 20.18-44.29 36.66-50.65 59.19-6.69 23.8 14.04 49.72 1.76 79.79z"/><path id="C" d="M113.13 366.29h-31a4 4 0 0 1-4-4h0a4 4 0 0 1 4-4h31a4 4 0 0 1 4 4h0a4 4 0 0 1-4 4z"/><path id="D" d="M115.65 258.66A147.3 147.3 0 0 0 89 261.24a10.87 10.87 0 0 0-8.28 13.46c6.58 25 2.86 52.37 3.38 57.38 0 0 52.38 7.54 60.41-8 4.27-20.74-7.55-29.13-13.84-53.88a16 16 0 0 0-15.02-11.54z"/><path id="E" d="M373 335.6c-30.6.43-70.87-1.21-61.38 26.68 4.06 11.94.65 7.88 5.4 22.33 2 6.23 2.74 8.06 4.22 12.38 1.62 3.86 11.36 3.14 15 1.63 4.32-2.3.66-8.51.16-12-2.46-17.07 2.05-15.14-3.31-26.33 9.76 1.42 40.88.43 45-16.35-.09 0 5.55-6.69-5.09-8.34z"/><path id="F" d="M376.92 333.55c-30.07 2.05-53.33 2.11-40.06 28.41 5.68 11.25 3.73 8.84 9.91 22.74l5.46 11.88c2 3.68 11.62 2 15 .12 4.07-2.73-.2-8.54-1-12-4.17-16.73.56-14.22-5.82-24.87 9.85.51 43.46 3.82 42.56-15.93.03.04-4.9-10.35-26.05-10.35z"/><path id="G" d="M263.75,299.55c0,3.25-5.32,10.59.86,15.14.54,6.58,1.27,13.06,2.68,23.87l33,1c-3.15-12-.44-19.93,4.59-40.7a8.34,8.34,0,0,0-7-10.24c-1.31-.17-2.71-.33-4.13-.44a104.32,104.32,0,0,0-15-.48c-1.62.1-3.3.25-4.9.43A11.32,11.32,0,0,0,263.75,299.55Z"/><path id="H" d="M305 296.56c-2.18 5.45-8 9.45-16.23 10.81-3.61-.9-8.56-13-8.56-13s23.73-12.78 24.79 2.19z"/><path id="I" d="M268.54 289.72c-3.85 2.37-8.07 7.53-8.67 16.59 1.49 3.41 16.46 6.27 16.46 6.27s5.57-29.28-7.79-22.86z"/><path id="J" d="M124.36,118.2a42.7,42.7,0,0,0,2.28,84.59,60.21,60.21,0,0,1-2.06,9.36s6.58-3.76,10.24-9.27c1.12-.09,2.25-.22,3.38-.41a42.7,42.7,0,1,0-13.84-84.27Z"/><path id="K" d="M359,186.35a36.45,36.45,0,1,1,44.22,32.71,35.75,35.75,0,0,1-7.9,10.05,59.64,59.64,0,0,0,.3-9.19A36.44,36.44,0,0,1,359,186.35Z"/></defs></svg>