<svg xmlns="http://www.w3.org/2000/svg" xmlns:xlink="http://www.w3.org/1999/xlink" viewBox="0 0 500 500" xmlns:v="https://vecta.io/nano"><style><![CDATA[.B{fill:#fff}.C{opacity:.2}.D{fill:#263238}.E{fill:#451575}.F{opacity:.4}.G{fill:#e4897b}.H{opacity:.5}.I{fill:#b55b52}.J{opacity:.6}.K{opacity:.7}]]></style><use xlink:href="#B" class="E"/><use xlink:href="#B" opacity=".9" class="B"/><ellipse cx="250" cy="416.24" rx="193.89" ry="11.32" fill="#f5f5f5"/><use xlink:href="#C" class="E"/><use xlink:href="#C" opacity=".3" class="B"/><path d="M290.67,336.41c-10.8.87-23.75,3-28.38,8.26a20.68,20.68,0,0,0-3.52,6.09H240.91a21.42,21.42,0,0,0-3.57-6.09c-4.66-5.23-17.71-7.38-28.31-8.26Z" class="C"/><use xlink:href="#D" class="D"/><use xlink:href="#D" class="B J"/><path d="M292.61 300.94L287 326.3a1.91 1.91 0 0 1-1.82 1.44h-35.07a1.24 1.24 0 0 1-1.15-1.6l5.59-25.14a1.73 1.73 0 0 1 1.81-1.24h35.09c.82-.01 1.34.36 1.16 1.18z" class="C"/><path d="M226.28,324.9v2.82c0,.72.85,1,1.57,1h56.32c.73,0,1.6-.3,1.6-1V324.9Z" class="D"/><g class="B"><path d="M226.28,324.9v2.82c0,.72.85,1,1.57,1h56.32c.73,0,1.6-.3,1.6-1V324.9Z" class="J"/><path d="M226.28,324.9v2.82c0,.72.85,1,1.57,1H265c.72,0,1.58-.3,1.58-1V324.9Z" class="C"/></g><g class="E"><path d="M286.78 322.43h-36.11l4.7-21.19h36.12l-4.71 21.19z"/><path d="M262.38 320.67h-2.57l.98-4.24h2.57l-.98 4.24zm4.17 0h-2.57l1.69-7.32h2.57l-1.69 7.32zm4.17 0h-2.58l1.43-6.17h2.57l-1.42 6.17zm4.16 0h-2.57l2.14-9.25h2.57l-2.14 9.25zm4.17 0h-2.57l2.85-12.33h2.57l-2.85 12.33z"/></g><g class="H B"><path d="M262.38 320.67h-2.57l.98-4.24h2.57l-.98 4.24z"/></g><g class="H B"><path d="M266.55 320.67h-2.57l1.69-7.32h2.57l-1.69 7.32z"/></g><g class="H B"><path d="M270.72 320.67h-2.58l1.43-6.17h2.57l-1.42 6.17z"/></g><g class="H B"><path d="M274.88 320.67h-2.57l2.14-9.25h2.57l-2.14 9.25z"/></g><g class="H B"><path d="M279.05 320.67h-2.57l2.85-12.33h2.57l-2.85 12.33z"/></g><path d="M282.35 321.26h-26.21l.27-1.18h26.21l-.27 1.18z" class="B"/><path d="M280.73 408.05h118.44v7.78H280.73z" class="D"/><g class="B"><path d="M280.73 408.05h118.44v7.78H280.73z" class="F"/><path d="M280.73 408.05h67.15v7.78h-67.15z" class="C"/></g><use xlink:href="#E" class="E"/><use xlink:href="#E" class="B J"/><path d="M379.33,363.79h24.82L417.47,295a12.18,12.18,0,0,0-12-14.5h0a12.18,12.18,0,0,0-12,9.87Z" class="C"/><rect x="271.36" y="362.94" width="136.1" height="47.25" rx="6.14" class="E"/><rect x="271.36" y="362.94" width="136.1" height="47.25" rx="6.14" class="B J"/><rect x="342.19" y="362.94" width="65.27" height="47.25" rx="6.14" class="C"/><path d="M299.41 284.94l-8.41-2.23 3.1-7s6.13.73 7.41 5.66zm-13.02-6.45l3.56-4.65 4.11 1.89-3.1 6.98-4.57-4.22z" class="G"/><path d="M332.84 282s-6.79 4.42-16.61 11.86l-14.9-14.12-3.33 4.87s13.24 18.91 16.8 19.55 20.77-11.37 20.77-11.37z" class="D"/><path d="M335.52 292.79l-8.14 5.36c-5 3.11-10.74 6.36-12.63 6-3.56-.64-16.8-19.55-16.8-19.55l3.38-4.84 14.9 14.12c9.82-7.44 16.61-11.86 16.61-11.86l1.77 7.1z" class="B F"/><path d="M335.52 292.79l-8.14 5.36a31.3 31.3 0 0 1 7.23-9z" class="C"/><path d="M302.08 351.13c-.25.95 2.54 17.89 5.05 32.67l3.8 22-5.33.49s-4.08-8.11-8.68-18.87a249.24 249.24 0 0 1-9-24.06c-3.27-10.59-5-20.3-2.63-25.24a5.83 5.83 0 0 1 2.07-2.46.46.46 0 0 1 .11-.07l.37-.24c3.5-2 9.1-3.13 15.51-3.66 11.53-.94 25.67 0 34.84.87 5.73.54 9.51 1.05 9.51 1.05l7.49 27.9q-3.72-.13-7.28-.45c-26.65-2.31-45.43-11.48-45.83-9.93z" class="G"/><path d="M307.13 383.8a73.94 73.94 0 0 1-10.21 3.63 249.24 249.24 0 0 1-9-24.06c2.17-4 11.65-17.07 24.19-21.69a41.84 41.84 0 0 0-8.76-10c11.53-.94 25.67 0 34.84.87l9.72 28.5c-26.61-2.32-45.39-11.49-45.79-9.94-.29.97 2.5 17.89 5.01 32.69z" class="C"/><path d="M334.28 339.73s.68-9.34 1-11.24a43.56 43.56 0 0 1 1.16-5.59c2.07-6.23 29.81 1.09 29.81 1.09s16.41 24.71 4.94 36.37c-2.54 2.58-7.52 3.74-12.62 3.7 0 0-15.55.76-44.47-.59 0 0-12.89 18.23-48.19 42.34l-6.54-.9 44.71-55.13c11.53-9.32 30.2-10.05 30.2-10.05z" class="G"/><use xlink:href="#F" class="D"/><use xlink:href="#G" class="G"/><use xlink:href="#F" x="45.03" class="D"/><use xlink:href="#G" x="45.03" class="G"/><path d="M301.9 331.79s20.36 8.31 25.26 14.9 1.87 15.85-1.82 17.22c0 0 5.88.85 25.55.85s25.21-4.35 25.08-14.9-9.73-25.86-9.73-25.86l-30.78.16-3 7.16s-15.71-1.9-30.56.47z" class="D"/><path d="M368.69 288.47c-2.73 8.23-2.86 26.8-1.89 37.06l-31-.2a105.94 105.94 0 0 1-3.08-39.63 8 8 0 0 1 1.46-4.05s6.33-2.62 11.84-2.58a92.06 92.06 0 0 1 12.72 1.34 83.22 83.22 0 0 1 9.26 2.09 2.46 2.46 0 0 1 1.66 3.16c-.36.97-.66 1.9-.97 2.81z" class="E"/><path d="M335.77 325.33l18.71.13 12.32.07a154.75 154.75 0 0 1 .25-28.71 43.71 43.71 0 0 1 1.64-8.34l.94-2.82a2.46 2.46 0 0 0-1.63-3.16 83.22 83.22 0 0 0-9.26-2.09 90.55 90.55 0 0 0-12.74-1.34c-5.51 0-11.84 2.58-11.84 2.58a14.24 14.24 0 0 0-1.46 4.05c-.59 4.79-2.27 19.16 3.07 39.63z" opacity=".1" class="B"/><path d="M336.41 325.07l-4 6.24s.72-5.85.71-9.8-4.13-18.3-.19-39.55a45.42 45.42 0 0 1 6.75-2.27 12.41 12.41 0 0 1 2.25-.3S337.21 291 336.25 309a127.91 127.91 0 0 0 .16 16.07z" class="D"/><path d="M336.41 325.07l-4 6.24s.72-5.85.71-9.8-4.13-18.3-.19-39.55a45.86 45.86 0 0 1 6.75-2.27 10.85 10.85 0 0 1 2.25-.3S337.21 291 336.25 309a127.91 127.91 0 0 0 .16 16.07z" class="B F"/><path d="M368.85 318.34c1 9.36 2.77 14 2.77 14a20.69 20.69 0 0 1-13.41-12 19.72 19.72 0 0 1-1.14-6.52h0c-.53-12.68 4.75-33.45 4.75-33.45l1.05.28c7.08 1.93 9.05 4 9.05 4s-4.13 24.35-3.07 33.69z" class="D"/><g class="B"><path d="M370.17 326.77a42 42 0 0 0 1.45 5.58 20.69 20.69 0 0 1-13.41-12 13.23 13.23 0 0 1-.75-2.69 27.22 27.22 0 0 1-.39-3.83h0c-.53-12.68 4.75-33.45 4.75-33.45l1.05.28c7.08 1.93 9.05 4 9.05 4s-1 5.81-1.87 12.84c-.93 7.33-1.74 16-1.2 20.78.39 3.51.87 6.31 1.32 8.49z" class="F"/><path d="M361.33 292l2.14 4.35s-4.32 10.93-6.4 17.54c-.53-12.68 4.75-33.45 4.75-33.45l1.05.28c.92 2.28 2.39 7.07 2.75 14.9zm-19.4-12.61S337.21 291 336.25 309c-2.63-6-1.6-20.6-1.6-20.6l1.88-2.51-3.41 1.11c1.69-4 4.5-5.84 6.56-7.27a11.67 11.67 0 0 0 2.25-.34z" class="C"/></g><path d="M370.17 326.77a30.17 30.17 0 0 1-5.28 2.23 20.11 20.11 0 0 1-6.68-8.61 13.23 13.23 0 0 1-.75-2.69l2.79-3.07s.61-9.77 4.23-16.48c1.21-2.24 3.35-2.24 5.57-.59-.93 7.33-1.74 16-1.2 20.78.39 3.45.87 6.25 1.32 8.43z" class="C"/><use xlink:href="#H" class="E"/><g class="F B"><use xlink:href="#H"/></g><path d="M358.41 281.45A91.54 91.54 0 0 0 345.26 294s-3.31-11.8 2.08-13.72c0 0 1.51-.47 1.83-2.87a11.44 11.44 0 0 0-.64-5l-.26-.81 8.82-5.52s-3.09 11.19 1.32 15.37z" class="G"/><path d="M355.1 269.29s-.47 6.31-5.93 8.13a11.44 11.44 0 0 0-.64-5l6.57-3.13z" class="C"/><g class="D"><path d="M361.33 252.74a10.27 10.27 0 0 1 10.59-1.65c6.16 2.5 4.18 14.16-1.09 19.08s-1.07 5.56-1.07 5.56-4.3.59-2.54-5.69 2.18-12-3.63-11.37-2.26-5.93-2.26-5.93z"/><path d="M359.88 246.6s-10.54-6-17.27-1.23-4.22 18.07 0 21.52 15.27 2.56 15.27 2.56 6-1 7.74-9.79c1.45-7.18-2.18-12.53-5.74-13.06z"/></g><path d="M352.78 248.19c-7.28-.69-10 3-11.23 10.45-1.54 9.31-.09 16.17 9.2 15 12.62-1.54 14.12-24.32 2.03-25.45z" class="G"/><path d="M346.3,258.67a15.29,15.29,0,0,1-2.41,2.82,2,2,0,0,0,1.85,1Z" fill="#de5753"/><g class="D"><path d="M350.81 258.49c-.07.6.2 1.12.59 1.17s.78-.4.85-1-.2-1.12-.59-1.16-.78.4-.85.99z"/><path d="M351.82 257.55l-1.24-.67s.52 1.17 1.24.67zm-8.42-.05c-.07.6.2 1.12.6 1.16s.77-.4.85-1-.2-1.12-.6-1.17-.78.41-.85 1.01z"/><path d="M344.41 256.55l-1.23-.66s.51 1.17 1.23.66zm10-1.37a.31.31 0 0 1-.26-.14 3.55 3.55 0 0 0-2.79-1.26.31.31 0 0 1 0-.62 4.1 4.1 0 0 1 3.33 1.54.32.32 0 0 1-.09.43.34.34 0 0 1-.19.05zm-11.28-1.87a.29.29 0 0 1-.27-.17.31.31 0 0 1 .12-.42 3.71 3.71 0 0 1 3.24-.33.31.31 0 1 1-.26.56 3.12 3.12 0 0 0-2.68.32.42.42 0 0 1-.15.04z"/><path d="M359.59 261.2s-2.85-6.3-1.9-10.87c0 0-13.88-7.24-16 7.34 0 0-.19-13.14 12.35-12.26s10.78 19.19 3.8 24c.04.04 3.5-4.27 1.75-8.21z"/></g><path d="M358.25 262.63A3.22 3.22 0 0 1 362 260c2.23.46 2.87 5.19-2.85 5.78-.85.12-1.23-.71-.9-3.15z" class="G"/><path d="M344.61 265.31a18 18 0 0 1 .8 2.49h.46c2.08-.18 3-.95 3.36-1.75a2.69 2.69 0 0 0 .23-1.25 2.56 2.56 0 0 0-.13-.72 9.76 9.76 0 0 1-4 1.19l-.72.04z" class="D"/><path d="M345.32 265.23l.26.73c2-.17 3.31-.56 3.88-1.2a2.56 2.56 0 0 0-.13-.72 9.76 9.76 0 0 1-4.01 1.19z" class="B"/><path d="M345.87 267.76c2.08-.18 3-.95 3.36-1.75a6.87 6.87 0 0 0-2.27.66 2.59 2.59 0 0 0-1.09 1.09z" fill="#de5753"/><g class="G"><path d="M343.91,333.23l-8.67,1.13,2.19,7.32s6.17.07,8.06-4.66Z"/><path d="M330.17 337.97l2.94 5.07 4.32-1.35-2.19-7.33-5.07 3.61z"/></g><use xlink:href="#I" class="D"/><use xlink:href="#I" class="B F"/><path d="M354.73 377.35h26.03l-3.06 12.3-19.49-4.58-3.48-7.72z" class="D"/><path d="M356.23 380.98v-9.23l25.06.66v3.16h2.65l-1.51 14.08-26.2-8.67z" class="E"/><path d="M381.29 375.57h-22.42l-.66 5.13-1.98.28v-9.23l25.06.66v3.16z" class="C"/><path d="M358.21 415.83l-3.48-38.48 2.73 2.18h26.48l2.62 31.03 1.38 5.27h-29.73z" class="D"/><g class="B"><path d="M358.21 415.83l-3.48-38.48 2.73 2.18h26.48l2.62 31.03 1.38 5.27h-29.73z" class="C"/><path d="M373.24 389c-6.32 0-7.92-8.14-7.94-8.22a.5.5 0 0 1 .4-.58.48.48 0 0 1 .58.39c.06.33 1.59 8 7.64 7.38a4.94 4.94 0 0 0 3.72-1.89c1.53-2.1.86-5.25.85-5.29a.5.5 0 1 1 .98-.21c0 .14.77 3.61-1 6.08A5.87 5.87 0 0 1 374 389a7 7 0 0 1-.76 0z"/></g><path d="M357.46 379.53l2.2 34.04.92 2.26h-2.37l-3.48-38.48 2.73 2.18z" class="C"/><path d="M218.22 415.83H99.78v-7.78h118.44z" class="D"/><g class="B"><path d="M218.22 415.83H99.78v-7.78h118.44z" class="F"/><path d="M218.21 415.83h-67.15v-7.78h67.15z" class="C"/></g><use xlink:href="#J" class="E"/><use xlink:href="#J" class="B J"/><path d="M119.62,363.79H94.79L81.47,295a12.19,12.19,0,0,1,12-14.5h0a12.19,12.19,0,0,1,12,9.87Z" class="C"/><rect x="91.48" y="362.94" width="136.1" height="47.25" rx="6.14" class="E"/><rect x="91.48" y="362.94" width="136.1" height="47.25" rx="6.14" class="B J"/><rect x="91.48" y="362.94" width="65.27" height="47.25" rx="6.14" class="C"/><use xlink:href="#K" class="E"/><use xlink:href="#K" class="B H"/><path d="M219.81 395.41l12.69.93-.39 15-10.6-.75-1.7-15.18z" class="I"/><path d="M219.82 395.42l12.69.92-.22 8.41-11.53-.83-.94-8.5z" class="C"/><path d="M220 415.83h2.77l.74-1.12 1.46 1.13h16.68a7.42 7.42 0 0 0-.71-3.82s-5-.45-6.92-2.93a.63.63 0 0 0-.62-.25c-1.66.35-8.26 1.61-11.89.31a.6.6 0 0 0-.82.55 40.6 40.6 0 0 1-.69 6.13zm-69.72-85.3s-18.89 35.23 3.52 35.23c28.2 0 55-7.1 55-7.1s-1.54 15 9.36 43.57l15.23-.13s5.93-61.28-5.43-71.57c-9.15-8.28-41.64-5.62-41.64-5.62z" class="D"/><path d="M233.43 402.1l-15.23.12a171 171 0 0 1-6.59-21c-3.55-14.85-2.77-22.55-2.77-22.55s-26.85 7.1-55.05 7.1c-13.63 0-12-13-8.59-23.24a85.14 85.14 0 0 1 5.08-12l21.9-3.41 14.18-2.21s5.84-.48 13.27-.4c10.09.11 23.1 1.25 28.37 6 11.37 10.31 5.43 71.59 5.43 71.59z" class="B F"/><path d="M212.19 379l-.58 2.18c-3.55-14.85-2.77-22.55-2.77-22.55s-26.85 7.1-55.05 7.1c-13.63 0-12-13-8.59-23.24 9.61-6.1 19.75-11.63 27-15.4l14.18-2.21s5.84-.48 13.27-.4c10.97 4.94 21.53 18.46 12.54 54.52z" class="C"/><path d="M168.48 259.49l-1.69 5.08c-3.55 4.37-8.37-1.17-8.37-1.17l-5-2.41a2.85 2.85 0 0 1-1.2-3.48l1.15-3.56a3 3 0 0 1 3.53-2.15l4.73 1.7a5.83 5.83 0 0 1 2.47 1.5z" class="I"/><path d="M185.52 325.4c-16.39 9.06-58.09 2.49-65.55 1.22-.93-12.34-2.18-28-6.11-42.6a11.93 11.93 0 0 1 9-14.84 160.49 160.49 0 0 1 35.14-2.94c4.14.15 8.59 2.16 9.92 6.09 6.14 18.1 15.82 32.81 17.6 53.07z" class="E"/><path d="M174.8 268.54l1.46-.2 1.57-.15 3.15-.23 1.57-.11 1.54-.07 3-.17-3.42 1.79a5.33 5.33 0 0 0-1.15 1.57 6.46 6.46 0 0 0-.66 3.57 5.42 5.42 0 0 0 .36 1.49 3.61 3.61 0 0 0 .21.49l.2.36.11.15.07.09.15.17a1.14 1.14 0 0 0 .16.14c.13.05 0-.2-.33-.46a11.1 11.1 0 0 0-1.13-.91 57.63 57.63 0 0 0-6.68-3.9l-7.61-3.75-7.81-3.72-.12-.06a4.66 4.66 0 0 1 2.46-8.83c3.12.27 6.07.73 9.1 1.27s6 1.24 9 2.07l4.58 1.45a42.14 42.14 0 0 1 4.77 2A26.86 26.86 0 0 1 192 264a17 17 0 0 1 3 2.38c.26.25.59.64.88 1l.46.62.23.32.25.39a9.33 9.33 0 0 1 .45.84l.44 1a10.8 10.8 0 0 1 .59 2.57 10.22 10.22 0 0 1-1.11 5.68 11.74 11.74 0 0 1-2.54 3.27 5.86 5.86 0 0 1-1.86 1.18l-1.57.61-3.81 1.32a37.46 37.46 0 0 1-3.78 1c-1.25.29-2.51.48-3.77.65l-1.9.19-2 .08a9.28 9.28 0 0 1-1.85-18.38z" fill="#b65b52"/><path d="M185.52 325.4c-16.39 9.06-58.09 2.49-65.55 1.22l-.85-10.38c-.52-5.67-1.19-11.71-2.2-17.81-.79-4.82-1.79-9.67-3.06-14.41a11.93 11.93 0 0 1 9-14.84 160.49 160.49 0 0 1 35.14-2.94c4.14.15 8.59 2.16 9.92 6.09 6.14 18.1 15.82 32.81 17.6 53.07z" class="B K"/><path d="M152.63 268.66a7.51 7.51 0 0 0-3.79-3.13 6.91 6.91 0 0 1-.43-4.63l-17.75-4.36c1.79 5.65 3.2 10.11 1.25 13 3.56 1.86 10.07 5.18 16.88 4.52s5.11-3.06 3.84-5.4z" class="I"/><path d="M148.31 261.44l-13.09.12c4.37 4.08 10.66 5.3 13.36 3.34a6.91 6.91 0 0 1-.27-3.46z" class="C"/><path d="M149.2 274.06l-3-2.16-3.66 2.16s2.59 2.11 6.66 0z" class="E"/><path d="M149.2 274.06l-3-2.16-3.66 2.16s2.59 2.11 6.66 0z" class="B H"/><g class="E"><use xlink:href="#L"/><path d="M149.2 274.06l3-3.08 4.15.94s-2.84 3.68-7.15 2.14z"/></g><path d="M149.2 274.06l3-3.08 4.15.94s-2.84 3.68-7.15 2.14z" class="B H"/><use xlink:href="#M" class="E"/><g class="B"><use xlink:href="#L" opacity=".8"/><use xlink:href="#M" opacity=".8"/></g><path d="M135.92 238.24c-.15-5.35 4.83-8.13 9.48-5.63s5.66 11 2.63 15.74-12.11-10.11-12.11-10.11z" class="D"/><path d="M126.68,248c2.58,7.34,4.5,12.27,10.06,14.31,11,4.05,15.5-1.34,15.35-9.26-.14-7.12-4.33-17.92-13.06-19S124.1,240.64,126.68,248Z" class="I"/><path d="M132.36 243.68c2.46 2 4 11.7.53 11.78a52.11 52.11 0 0 1-7.15-.44s-4.56-1.38-2.58-8.21 9.2-3.13 9.2-3.13z" class="D"/><path d="M125.73 256.84a7.92 7.92 0 0 0 5.66 2.13c2.78-.12 3.33-2.82 1.86-5-1.32-2-4.37-4.27-6.82-3.09s-2.55 4.18-.7 5.96z" class="I"/><path d="M141.19 246c.17.66.65 1.1 1.08 1s.64-.74.47-1.4-.65-1.09-1.08-1-.66.74-.47 1.4zm6.81-1.58c.17.66.65 1.1 1.08 1s.64-.75.47-1.4-.65-1.1-1.08-1-.61.74-.47 1.4z" class="D"/><path d="M145.9 245.53l1.38 5.54a6.39 6.39 0 0 0 2-.42.74.74 0 0 0 .09-1.31 13.32 13.32 0 0 1-3.47-3.81z" fill="#a02724"/><path d="M137.21 245a.44.44 0 0 1-.2 0 .4.4 0 0 1-.22-.52 4 4 0 0 1 2.73-2.44.4.4 0 0 1 .47.32.41.41 0 0 1-.32.47h0a3.16 3.16 0 0 0-2.14 1.95.39.39 0 0 1-.32.22zm12.98-3a.4.4 0 0 1-.36-.09 3.13 3.13 0 0 0-2.74-.86.4.4 0 0 1-.48-.29.4.4 0 0 1 .29-.48 3.89 3.89 0 0 1 3.47 1 .41.41 0 0 1 0 .57.31.31 0 0 1-.18.15zm-1.64 12.07a.33.33 0 0 1-.17 0c-2.52-1.25-6-.5-6.07-.5a.38.38 0 0 1-.45-.28.38.38 0 0 1 .29-.45c.15 0 3.81-.8 6.56.56a.37.37 0 0 1-.16.71zm-25.89-2.52c-1.85-3.16-4.72-13.94 4.48-19.48s18.68-2.87 18.74.89-9.35 11.53-15.22 11.25-8 7.84-8 7.84" class="D"/><use xlink:href="#N" class="E"/><use xlink:href="#N" class="B K"/><path d="M195.5 396.61l12.65-1.31 2.25 14.84-10.57 1.12-4.33-14.65z" class="I"/><path d="M195.5 396.62l12.66-1.32 1.25 8.32-11.49 1.2-2.42-8.2z" class="C"/><g class="D"><path d="M198 415.83h2.76l.75-1.12 1.45 1.13h16.69a7.49 7.49 0 0 0-.72-3.82s-5-.45-6.91-2.93a.63.63 0 0 0-.62-.25c-1.66.35-8.26 1.61-11.9.31a.6.6 0 0 0-.81.55 40.6 40.6 0 0 1-.69 6.13z"/><use xlink:href="#O"/></g><use xlink:href="#O" class="B F"/><path d="M119.12 316.24c-.52-5.67-1.19-11.71-2.2-17.81 5.7-3.75 11.23-6.58 11.23-6.58s7.57 22.52-9.03 24.39z" class="C"/><path d="M127.39 288.57l-.79 3.71-.76 3.9-1.28 7.76-.75 7.59a50.54 50.54 0 0 0 .1 7l-1.41-3.32a2.67 2.67 0 0 0-.67-.66c-.08-.05-.14 0-.07 0a4.44 4.44 0 0 0 .78.57 21.6 21.6 0 0 0 3 1.42l7.58 2.56 8.15 2.33 8.29 2.3h.13a4.67 4.67 0 0 1-.9 9.13c-3.09.27-6.06.34-9.09.34s-6.06-.15-9.13-.4a74.65 74.65 0 0 1-9.45-1.39 37.69 37.69 0 0 1-5.21-1.54 19.15 19.15 0 0 1-3.08-1.47 16 16 0 0 1-1.84-1.28 13.08 13.08 0 0 1-2.16-2.25 7.12 7.12 0 0 1-1.26-2.69l-.15-.63a53 53 0 0 1-1.33-10l-.07-4.81.24-4.71c.22-3.11.63-6.16 1.14-9.18l.88-4.52.53-2.25.64-2.37a9.27 9.27 0 0 1 18 4.32z" fill="#b65b52"/><path d="M147.52,324.31l-1.47,5.15c.47,5.61,7.57,3.76,7.57,3.76l3.78.48a2.83,2.83,0,0,0,2.95-2.19l1.05-3.59a3,3,0,0,0-1.7-3.76l-3.18-1a5.73,5.73,0,0,0-2.85-.13Z" class="I"/><use xlink:href="#P" class="E"/><use xlink:href="#P" class="B K"/><path d="M175.31 290.77s-4.65-5.59-6.93-7.28c0 0 7.04 1.51 6.93 7.28z" class="C"/><use xlink:href="#Q" class="E"/><use xlink:href="#Q" class="B K"/><use xlink:href="#R" class="E"/><use xlink:href="#R" class="B K"/><defs ><path id="B" d="M248.51,135.66c-65.84,29.63-6.07,82.42-44.09,111.18S63,242.35,102.44,317c46.29,87.71,249,75.53,292.68-32S314.35,106,248.51,135.66Z"/><path id="C" d="M197.5 328.74h106.34a7.3 7.3 0 0 1-7 7.29c-11.43.51-29 2.32-34.58 8.64-10.4 11.79-9.39 53.19 3.06 62.78 3.9 3 15.28 9 15.28 9h-59.89s10.64-6.09 14.33-9c12.38-9.66 12.74-51 2.3-62.78-5.36-6-21.84-8-32.89-8.58a7.35 7.35 0 0 1-6.95-7.35z"/><path id="D" d="M293.64 300.94l-5.59 25.36a1.9 1.9 0 0 1-1.81 1.44h-36.13a1.24 1.24 0 0 1-1.15-1.6l5.58-25.14a1.75 1.75 0 0 1 1.82-1.24h36.13c.82-.01 1.33.36 1.15 1.18z"/><path id="E" d="M316.75,363.79h87.4L417.47,295a12.18,12.18,0,0,0-12-14.5H342.93a12.17,12.17,0,0,0-12,9.87Z"/><path id="F" d="M265.88 415.46h-1.43l-.4-1.77-4.74 2.14h-12s-1.91-1.92 3.81-3.45a4.31 4.31 0 0 0 .81-.31c3.05-1.43 7.39-6.26 7.39-6.26h6.59a8.37 8.37 0 0 1 .54.95c.71 1.45 1.96 4.49-.57 8.7z"/><path id="G" d="M266.44 406.76h0c-.87-1-4.83 3.29-7.73 4.74-2.59 1.29-5.5 1.86-6.79.55 3.05-1.43 7.85-7.68 7.85-7.68h5.3s1.06 1.77 1.37 2.39z"/><path id="H" d="M352.88 277.61s5.11.11 7.35 2.8c2 2.43.63 6.47.63 6.47l-7 .79-9.21 8.65-1.29-8.22-4.49-1.22s2.22-9.27 14.01-9.27z"/><path id="I" d="M370.48 284c-7.61-2.07-6.89 21.06-8.65 31.58L341 332.35l5.15 5.78s25.18-12.9 26.76-18.34c1.45-5.13 6.09-33.49-2.43-35.79z"/><path id="J" d="M182.2,363.79H94.79L81.47,295a12.19,12.19,0,0,1,12-14.5H156a12.19,12.19,0,0,1,12,9.87Z"/><path id="K" d="M178.58 291.19a22 22 0 0 1-16-8.26c-7.43-9.54-4.93-16.72-4.93-16.72h.07a15.28 15.28 0 0 1 4.65-.35c8.1.46 17.9 5.41 17.9 5.41 1.85 2.96 2.42 13.66-1.69 19.92z"/><path id="L" d="M132.84 265.63s6.06 6.42 13.38 6.27c-4.11 2.3-4.51 7.12-4.51 7.12s-9.29-2.16-11.66-11.73a3.54 3.54 0 0 1 2.79-1.66z"/><path id="M" d="M148.84 265.53s3.06 3.09 3.36 5.45c3.48.74 5.46 5.63 5.46 5.63s.14-7.19-5.48-10.69a5.71 5.71 0 0 0-3.34-.39z"/><path id="N" d="M178.58 291.19a22 22 0 0 1-16-8.26c-7.43-9.54-4.93-16.72-4.93-16.72h.07a16.57 16.57 0 0 1 3.95-.39l.4.22c1.48.8 7.12 3.48 11.63 5.19a22.2 22.2 0 0 0 4.88 19.96z"/><path id="O" d="M120.26,330.53s-7.89,26.05,13.34,33.22,42.21-5.48,42.21-5.48,0,5.48,18.91,45.78l15.68-3s-5.53-60.31-12.41-70.56-41.64-5.62-41.64-5.62Z"/><path id="P" d="M120.71 269.84c-10.71 2.34-16.19 18.16-17.48 33.63 0 0 9.43 3.67 23.48 2.31 0 0 2.43-16.73 1.47-25.26s-7.47-10.68-7.47-10.68z"/><path id="Q" d="M332.11 190.54h-42.73a8.85 8.85 0 0 0-8.85 8.85v25a8.85 8.85 0 0 0 8.85 8.85h28.4l13 13.9-7-13.9h8.38a8.85 8.85 0 0 0 8.85-8.85v-25a8.85 8.85 0 0 0-8.9-8.85z"/><path id="R" d="M211.92 190.54h-42.73a8.85 8.85 0 0 0-8.85 8.85v25a8.85 8.85 0 0 0 8.85 8.85h8.38l-7 13.9 13-13.9h28.4a8.85 8.85 0 0 0 8.85-8.85v-25a8.85 8.85 0 0 0-8.9-8.85z"/></defs></svg>