<svg xmlns="http://www.w3.org/2000/svg" width="400" height="400" fill-rule="evenodd" xmlns:v="https://vecta.io/nano"><path d="M94.939 72.792l-.275 5.291-.416 8.667-.827 17.167-.355 6.541-.105 1.209h1.16 1.16l1.131-3.875c1.479-5.065 2.718-8.811 3.598-10.875 4.809-11.28 12.736-17.804 24.49-20.155 6.219-1.244 17.546-2.233 28.796-2.513l4.213-.106-.057 60.22-.784 66.733c-.967 7.909-4.482 13.184-10.698 16.055-2.573 1.189-4.388 1.639-9.845 2.439l-1.958.287v1.145 1.145h35.25 35.25v-1.147-1.147l-1.875-.277c-5.321-.786-7.481-1.314-9.85-2.408-6.213-2.871-9.616-7.844-10.686-15.616-.867-6.302-.818-2.54-.879-67.38l-.056-60.059 3.798.108c7.465.21 16.56.768 20.548 1.26 4.818.595 7.199.955 9.5 1.438 10.344 2.174 17.986 8.18 22.662 17.811 1.691 3.484 2.347 5.346 4.596 13.042l1.133 3.875h1.16 1.161l-.106-1.375c-.058-.757-.18-3.1-.271-5.209L245.25 100c-.048-.687-.164-2.937-.257-5l-.327-7.083-.409-8.667-.357-6.708-.106-1.375h-74.373-74.373l-.109 1.625M52.27 96.542c-.06.848-.183 3.154-.272 5.125l-.415 8.666-.42 8.584-.419 8.583-.411 8.667-.262 4.708-.105 1.125h1.343 1.344l.333-1.125.909-3.125c2.943-10.226 4.6-14.52 7.365-19.083 5.99-9.888 15.576-15.984 27.782-17.668 2.309-.319 2.08-.096 2.194-2.134l.176-2.823.075-1.042H71.933 52.379l-.109 1.542m50.486-.167c-.651 1.414-1.263 3.006-1.186 3.084.024.024 1.687-.065 3.695-.198 5.669-.375 10.258-.591 15.03-.708l4.378-.107-.051 69.652-.875 77.319c-1.562 11.96-7.583 18.542-18.997 20.765-.813.159-6.629.985-6.931.985-.084 0-.152.6-.152 1.333v1.333l38.188.042 38.189.042.631 2.531c2.199 8.82 7.197 19.362 13.655 28.802l4.718 6.695 5.413 6.124c1.399 1.554 2.487 2.88 2.416 2.946s-1.173.394-2.452.728c-6.016 1.572-11.556 3.704-18.842 7.251-11.203 5.455-22.249 12.315-39.416 24.479-3.501 2.48-4.848 3.488-10.5 7.857-8.298 6.413-14.316 9.733-26.491 14.614-3.592 1.44-3.326 1.276-2.64 1.622a12.51 12.51 0 0 1 .797.435c.64.407 3.496 2.001 4.758 2.656.504.261 1.027.567 1.163.679s.246.149.246.081.094-.047.208.047c.193.159 5.272 2.75 5.459 2.784.045.009.646.283 1.333.61 1.357.646 1.525.72 4.25 1.892l3.045 1.352c1.537.716 1.231.775 3.683-.713 12.313-7.471 27.661-18.122 35.022-24.304 14.317-12.026 25.536-19.196 37.821-24.173 6.703-2.716 15.514-5.158 19.897-5.516l1.199-.097 3.462 1.686c23.385 11.39 54.491 9.242 80.215-5.539 7.61-4.373 14.418-9.29 29.573-21.361 18.843-15.008 29.168-20.867 45.833-26.008 1.451-.448 3.929-1.05 5.111-1.242l1.194-.194.359-.945a43.01 43.01 0 0 1 .578-1.446c.396-.903 1.497-3.646 1.536-3.825.096-.44.599-1.693.755-1.882.096-.115.133-.21.083-.21s.096-.468.324-1.041.441-1.155.471-1.292c.155-.695.981-3 1.076-3 .06 0 .127-.233.148-.519s.116-.66.208-.833c.449-.838-9.227-.145-15.426 1.105-17.327 3.494-32.176 11.064-61.917 31.564-1.847 1.273-11.838 7.905-16.094 10.683-4.326 2.824-4.997 3.066-6.478 2.33-1.419-.704-1.409-.565-.186-2.702 1.261-2.203 1.239-2.104.58-2.564l-.505-.353 1.55-.79c5.649-2.879 8.674-5.713 10.808-10.126.737-1.524.799-1.949.346-2.359-.3-.272-.349-.211-1.272 1.599-3.065 6.012-7.616 9.851-12.718 10.729l-2.364.409c-4.915.861-14.723.811-14.555-.073.015-.083.838-.57 1.829-1.084 1.491-.773 2.09-1.209 3.488-2.545 3.305-3.157 5.947-4.461 12.967-6.397l5.271-1.48c1.838-.531 3.042-.816 5.583-1.322.642-.128 1.054-.277.917-.332a128.28 128.28 0 0 0-2.234-.766c-2.37-.798-2.6-.971-2.6-1.959 0-.661-.275-2.831-.423-3.329-.041-.14-.254-.103-.726.125-.818.395-2.121.419-3.362.062-1.27-.366-1.527-.716-1.393-1.899.121-1.069-.13-1.99-.952-3.498-.867-1.589-1-1.676-2.552-1.676s-1.92-.178-2.42-1.157c-.309-.605-.612-.843-1.076-.843-.116 0-.878.477-1.695 1.06-3.555 2.54-4.128 2.537-6.645-.041-1.321-1.353-1.698-1.353-2.67 0-1.434 1.995-2.636 1.914-4.982-.338-4.209-4.041-5.211-4.397-7.037-2.499-1.626 1.691-2.404 1.795-4.049.542-.895-.681-.907-.681-1.364-.038-.842 1.182-1.752 1.149-3.631-.13-1.376-.937-1.411-.933-2.001.23-.754 1.488-1.053 1.44-5.934-.964-3.471-1.709-6.16-2.805-6.371-2.595-.03.031.061.331.202.668 1.055 2.525 1.576 6.68 1.19 9.48-.168 1.211-.112 1.232-1.687-.625-.731-.861-1.342-1.55-1.358-1.533-.196.215-1.333 5.684-1.478 7.109-.28 2.746-.491 2.758-8.666.496-1.469-.407-1.42-.412-1.42.161 0 .531-.212.449 2.917 1.119l1.833.4 3 .662c1.284.282 2.533.592 2.777.688.427.17 7.664 9.051 7.772 9.539.109.494-2.714.893-4.484.635-3.622-.529-6.853-3.138-11.437-9.236-2.268-3.018-2.354-3.11-2.461-2.623-.418 1.901 3.681 6.437 10.355 11.459 1.984 1.492 2.728 2.315 2.728 3.014 0 2.164 1.88 3.663 8.084 6.447 1.375.617 2.565 1.181 2.645 1.254.145.133-.035.165-2.812.492-3.825.452-3.791.445-10.167 2.034-2.13.531-3.673-.065-8.4-3.242-11.105-7.465-22.13-20.499-26.258-31.042l-1.921-4.833c-1.717-4.274-2.384-6.466-3.147-10.333-.47-2.385-.568-3.042-1.055-7.084-.279-2.311-.279-11.96 0-14.416.598-5.274 1.127-8.47 1.956-11.828l.575-2.376c0-.027-5.23-.029-11.623-.006l-11.624.043-.199 1.083c-.824 4.499-1.882 11.192-2.042 12.925-.535 5.759-.29 12.53.752 20.825l.671 5.728.117 1.06-.734-.114c-4.672-.729-9.536-3.033-12.585-5.96-5.748-5.518-7.344-11.775-7.678-30.089l-.108-5.875h-9.412c-9.146 0-9.427-.009-9.956-.336-1.542-.953-1.558-5.238-.023-6.244.422-.276.583-.308 5.111-1.011 6.754-1.049 11.332-3.633 13.708-7.738l.625-1.08v-54.712V98.5h1.417 1.417v-1.75V95h-25.889-25.89l-.632 1.375m80.948 1.332l.046 2.708 1 .125c15.001 1.87 23.892 6.953 30.65 17.522 2.967 4.641 4.606 8.773 7.696 19.396l1.321 4.541 1.291.001H227v-.834c0-.459-.074-2.127-.165-3.708l-.416-8.208-.42-8.667-.414-8.5-.412-8.5-.261-5.416c-.053-1.146-.138-2.327-.189-2.625L224.63 95h-20.486-20.486l.046 2.707m56.879 61.786c-3.819.186-5.822.415-10.083 1.153-4.653.805-10.897 2.98-15.422 5.372-6.769 3.577-10.751 6.283-14.572 9.899l-3.004 2.833c-2.496 2.346-4.473 4.599-6.362 7.25-1.814 2.546-6.415 9.405-6.783 10.113-.205.394.077 3.574.572 6.446 1.244 7.226 5.776 12.069 12.654 13.523l1.932.409.598.127 1.145-2.763c5.952-14.367 16.256-26.726 26.575-31.874 22.87-11.411 51.611-9.159 71.584 5.61 3.229 2.387 6.703 5.727 10.612 10.201 1.462 1.673 2.715 3.041 2.786 3.041.266 0 1.934-1.271 1.98-1.508.154-.8-5.059-8.626-8.529-12.805-12.987-15.636-26.934-23.464-46.933-26.342-4.337-.624-13.284-.951-18.75-.685m.788 110.734c2.587.974 4.865 2.386 7.087 4.395 1.619 1.463 1.646 1.577.881 3.696-1.161 3.216-2.411 6.349-2.533 6.349-.296 0-6.234-4.626-6.427-5.006-.202-.4-.33-9.828-.133-9.828.044 0 .55.177 1.125.394m23.854 1.843c1.393 1.048 1.925 1.661 4.243 4.882 2.21 3.071 2.309 3.56 1.005 4.975-1.07 1.16-1.967 1.072-2.641-.26-1.365-2.697-6.184-7.834-7.348-7.834-.392 0-.025-.374 1.443-1.473 1.908-1.429 1.798-1.419 3.298-.29m-5.627 2.602c3.979 3.054 5.329 4.534 6.746 7.394.821 1.656.838 1.608-.805 2.245-5.431 2.106-7.579 4.12-8.22 7.706-.113.632-.233 1.15-.266 1.15-1.311 0-7.008-4.826-8.067-6.834-.521-.987-.495-2.777.073-5.008.907-3.565 2.541-5.704 5.602-7.336.533-.284 1.181-.737 1.439-1.007.587-.612.352-.726 3.498 1.69m25.179.786c.869 2.776.273 6.677-1.77 11.583-.641 1.538-.789 1.673-.929.839-.407-2.441-1.902-4.034-4.745-5.056-.321-.116-1.005-.461-1.521-.767-1.157-.686-1.453-.691-2.583-.045-.965.552-1.105.478-.533-.281 1.232-1.635 2.602-2.57 6.676-4.552 1.675-.815 3.419-1.751 3.877-2.08 1.094-.786 1.175-.767 1.528.359m-8.803.357c.701.499.662.646-.39 1.477-1.157.913-.972.927-4.292-.326-.87-.328-.565-.683 1-1.163 1.768-.541 2.91-.538 3.682.012m13.193.061c0 .086-1.744 5.931-2.933 9.828-.048.158-.351.559-.672.89-.504.519-.59.726-.619 1.479-.054 1.401-1.785 3.863-2.332 3.316-.061-.061.066-.417.282-.791 1.173-2.036 1.814-3.365 2.11-4.38l.49-1.635c.437-1.385.875-4.229.95-6.166.046-1.192.113-2.261.149-2.375.054-.175 2.575-.337 2.575-.166m1.191 3.471c.165 1.897-.103 3.37-1.592 8.758-.465 1.682-1.183 2.54-2.441 2.917-.927.278-.927.298.013-2.457l2.204-6.526c1.454-4.333 1.648-4.62 1.816-2.692m-50.561 1.445l3.301 2.708c1.404 1.099 6.714 5.489 7.311 6.044.623.58.639.615.205.459-.764-.276-1.31-.199-2.281.324-.791.426-1.098.494-2.243.5-1.004.005-1.747.135-3.048.535l-1.72.528-.675-.653c-3.531-3.416-5.212-8.589-4.046-12.445.147-.488.33-.373 3.196 2m37.133 3.109c3.34 1.641 3.863 2.34 3.682 4.92-.376 5.349-4.464 9.727-10.772 11.534-1.324.379-1.457.266-.926-.782 1.483-2.922-1.315-5.063-7.824-5.987-2.514-.356-2.916-1.115-1.798-3.391 1.273-2.593 1.376-2.652 9.625-5.46 6.561-2.234 5.408-2.114 8.013-.834m15.987-.488c.55.133 1.618.244 2.375.248s1.378.062 1.383.131.106.987.227 2.041c.258 2.262.416 2.017-1.652 2.559l-3.53.935c-2.356.63-2.307.621-2.282.423.081-.62 2.173-6.583 2.309-6.581.093.002.62.112 1.17.244m-41.931 8.339c1.604 1.145 3.071 1.622 7.181 2.333 4.757.822 8.963 2.142 9.664 3.033 1.694 2.154-2.356 5.28-8.464 6.534-4.598.944-11.797-2.264-14.601-6.507-.582-.881-2.024-4.276-1.878-4.422.036-.036.808-.247 1.714-.467l3.315-.813c1.875-.464 2.003-.451 3.069.309m-11.711 6.663c.463.137 1.459.699 2.238 1.263 4.469 3.234 7.68 4.596 11.779 4.995 2.487.242 2.601.318 1.25.839-4.75 1.832-13.178-1.382-15.845-6.042-.798-1.395-.766-1.454.578-1.055m4.901.227c.839.54 1.849 1.797 1.606 1.998-.219.181-3.623-1.751-3.75-2.129-.139-.412 1.451-.315 2.144.131M271.417 302c0 .202-.313.259-1.625.298-1.548.045-1.625.031-1.625-.298s.077-.343 1.625-.298c1.312.039 1.625.096 1.625.298m14.863.672c1.784.235 3.737.694 3.68.864-.206.618-5.268 3.627-7.261 4.317-6.656 2.302-15.009.503-18.168-3.915l-.552-.772.451-.171c.331-.126.677-.108 1.302.07 2.126.603 4.844.751 7.886.429.898-.094 3.132-.238 4.965-.32s3.782-.258 4.334-.394c1.251-.308 1.733-.323 3.363-.108m-22.005 2.036c.279.298.823.991 1.208 1.539l.7.997-.466.125c-1.658.443-3.698.525-5.661.227l-2.598-.382c-.722-.095-.741-.166-.291-1.048s1.207-1.233 3.75-1.754c1.927-.396 2.781-.321 3.358.296m100.392 2.643c-6.426.504-12.658 2.574-19.409 6.445-5.353 3.069-8.901 5.622-21.591 15.534-18.451 14.41-27.63 20.04-37.334 22.898-7.948 2.341-17.346 2.376-25.75.095-1.515-.411-5.451-1.177-5.549-1.079-.659.658 8.493 6.77 14.383 9.605 17.471 8.408 31.863 6.101 48.833-7.828a325.7 325.7 0 0 0 6.276-5.391c.125-.117 1.014-.925 1.976-1.795l2.831-2.595 2.5-2.323 2.5-2.323 3.25-3.01 3.084-2.851C347.619 326.268 360.26 317 362.125 317c.097 0 .724-.769 1.392-1.708s1.277-1.734 1.353-1.766.252-.328.391-.66.305-.644.37-.693c.214-.161 1.536-2.153 1.536-2.314 0-.086.112-.2.25-.253s.25-.175.25-.271c0-.206.859-1.56 1.041-1.641.069-.03.125-.161.125-.291 0-.27-1.201-.285-4.166-.052m-109.859.891c.84 2.324 5.914 2.752 9.859.833 1.962-.956 2.137-.948 5.771.243 4.864 1.593 6.532 1.653 11.062.393l3.5-.973c1.587-.442 4.471-.546 6.486-.235l2.181.327c3.909.57 5.101.769 8.083 1.346l7.917 1.646 1.025.244c.465.104 2.141 1.342 2.141 1.581 0 .25-1.359 1.692-1.81 1.92-3.201 1.623-9.368 2.366-14.69 1.769-4.617-.519-5.344-.615-10.166-1.342l-6.667-.976a50.76 50.76 0 0 1-2.083-.331c-1.822-.348-3.858-.414-3.968-.129-.076.2.297.497 1.517 1.211 6.938 4.062 6.803 3.808 2.284 4.298-7.424.805-15.849.783-21.917-.057l-2.583-.352a102.97 102.97 0 0 1-7.917-1.516c-9.824-2.359-12.693-3.964-10.755-6.018 1.644-1.744 4.425-2.471 13.839-3.621l3.25-.413 3.175-.398c.154-.015.341.206.466.55" fill="#29806f"/><path d="M189.167.18l-2.5.151c-.596.01-2.134.122-3.417.249l-4.333.418-9.75 1.257-2.667.412-2 .337-1.667.336-7.166 1.476-2.584.613-2.333.579-1.583.414-4.357 1.176c-.092.057-.705.243-1.363.414l-5.864 1.797-7.5 2.627-2.333.853c-.642.224-1.238.475-1.325.559a.64.64 0 0 1-.385.152c-.125 0-.616.176-1.092.391l-2.031.862-2.388 1.025-1.301.555c-.32 0-10.624 5.017-13.547 6.596l-4.043 2.256c-.612.357-1.163.648-1.225.648s-.311.141-.554.313-.705.455-1.026.629c-1.006.545-3.912 2.295-4 2.408-.046.06-.346.251-.666.426-.825.448-2.073 1.284-2.139 1.433a.25.25 0 0 1-.211.125c-.085 0-1.019.581-2.074 1.291l-2.468 1.625c-.953.58-7.618 5.42-9.442 6.858l-6.5 5.21c-.046.056-.57.513-1.165 1.017-3.671 3.108-7.44 6.605-11.672 10.832-3.821 3.815-5.619 5.711-7.996 8.428L48.671 69c-.049.046-.501.571-1.004 1.167l-1.017 1.166c-.099.081-4.456 5.525-5.343 6.676l-2.724 3.612-4.417 6.212-2.977 4.565c-.471.723-.856 1.344-.856 1.379s-.375.63-.833 1.322-.833 1.281-.833 1.308c0 .043-2.095 3.62-2.495 4.26-.086.137-.334.587-.553 1l-.771 1.416c-1.315 2.336-2.284 4.199-4.335 8.334-2.422 4.883-2.645 5.357-3.924 8.333l-1.12 2.583-.468 1.084-1.915 4.833-.674 1.75c-.598 1.553-1.622 4.489-2.267 6.5l-.889 2.667a17.71 17.71 0 0 0-.424 1.333 21.23 21.23 0 0 1-.351 1.167c-.286.805-.998 3.27-1.494 5.166l-.66 2.417c-.186.587-1.06 4.157-1.428 5.833l-1.322 6.334-.486 2.416a38.51 38.51 0 0 0-.42 2.417c-.102.733-.29 1.896-.42 2.583s-.32 1.925-.424 2.75l-.414 3.167c-.371 2.761-.939 8.778-1.243 13.167-.224 3.226-.222 20.031.002 23.5.302 4.683.888 11.061 1.247 13.583l.417 3.167c.106.87.29 2.146.41 2.833l.409 2.417c.245 1.489.595 3.388 1.013 5.5l.588 3c.142.733.364 1.745.492 2.25l.401 1.666.852 3.584c.226.783.522 1.936.595 2.318.036.192.135.536.219.765s.243.792.354 1.25.297 1.133.415 1.5.307 1.004.42 1.417a40.62 40.62 0 0 0 .421 1.416l.827 2.667.774 2.406c.089.223.485 1.385.88 2.583.779 2.359 1.638 4.715 2.009 5.511.128.275.348.855.49 1.29s.325.922.409 1.083.355.819.602 1.46c.577 1.498.639 1.647 1.154 2.782.236.521.43.989.43 1.04s.344.862.765 1.802L17.787 283c.713 1.62 5.637 11.446 6.388 12.75l1.452 2.583c.991 1.831 3.084 5.388 3.489 5.933.211.283.384.57.384.636s.169.359.375.651.466.68.576.864c.538.893 1.79 2.843 1.874 2.916.051.046.452.67.889 1.387s.872 1.392.966 1.5 1.219 1.685 2.499 3.504l2.533 3.525c.112.12.617.788 1.121 1.484s.973 1.266 1.042 1.266.125.107.125.237.057.261.126.292.386.393.704.805.618.788.667.834.312.383.584.75c.602.808.921 1.204 1.258 1.562.14.149.553.645.916 1.102a20.43 20.43 0 0 0 .912 1.086c.137.139.55.627.916 1.082a30.94 30.94 0 0 0 1 1.188c.184.197.709.791 1.167 1.319l1.113 1.28c1.737 1.989 4.221 4.58 7.656 7.985l4.141 4.104.712-.126c.391-.07 1.911-.175 3.378-.235 2.419-.098 3.513-.2 8.333-.774 6.763-.807 15.563-2.746 21.179-4.668 13.596-4.651 21.43-8.645 38.488-19.619 15.619-10.049 19.781-12.488 25.083-14.705 10.183-4.258 15.343-5.293 26.543-5.328l1.126-.003-.942-1.459c-1.179-1.827-2.504-3.99-3.24-5.291l-.943-1.667c-3.375-5.975-6.341-13.358-7.985-19.875L173.92 270h-38.127-38.126v-1.399c0-1.116.052-1.419.261-1.499.233-.09 2.545-.421 4.822-.692 7.436-.884 13.856-4.565 17.282-9.91 2.329-3.633 3.252-7.113 4.069-15.333.37-3.728.532-30.829.551-92.125l.015-50.375-3.042.003c-4.018.005-14.479.492-18.176.845-1.082.104-2.004.152-2.048.108-.097-.096.757-2.281 1.464-3.746l.504-1.045 25.94.042 25.941.043.047 1.875.047 1.875h-1.422-1.422v54.615 54.615l-.686 1.155c-2.757 4.641-7.536 7.097-15.814 8.128-2.349.292-2.842.449-3.454 1.098l-.546.579v1.921c0 1.469.063 2.028.269 2.377.566.958.186.921 10.564 1.012l9.584.083.111 6.333c.149 8.486.694 14.856 1.618 18.918 1.713 7.531 6.706 12.986 14.187 15.501 2.005.674 4.615 1.272 4.79 1.097.105-.105-.135-2.576-.537-5.516-.125-.916-.305-2.454-.4-3.416l-.388-3.75c-.294-2.741-.293-13.825.002-15.75l.787-4.834a108.29 108.29 0 0 0 .411-2.583c.18-1.248.34-2.143.843-4.708l.205-1.042h11.727l11.724.125c-.002.069-.191.838-.421 1.708-.492 1.862-.869 3.558-1.077 4.834-1.142 7.022-1.23 8.081-1.232 14.916-.002 6.824.123 8.411 1.095 13.834.551 3.077 1.665 6.95 2.756 9.583 1.252 3.023 2.715 6.722 2.715 6.863 0 1.066 5.428 9.789 8.729 14.026 6.196 7.957 14.47 15.115 21.867 18.919 1.604.825 2.058.854 4.246.276 4.535-1.199 5.461-1.38 9.492-1.852 2.798-.328 2.822-.353 1.04-1.142-7.129-3.158-9.018-4.652-9.038-7.148-.004-.564-.65-1.227-2.709-2.785-7.433-5.619-10.293-8.95-10.293-11.988 0-.735.056-1.334.125-1.333s.8.183 1.625.402c8.43 2.237 8.053 2.248 8.332-.238.165-1.462.833-4.668 1.441-6.913l.179-.662.417.496c2.687 3.201 2.629 3.209 2.618-.385-.008-2.794-.228-4.086-1.146-6.713-.233-.667-.404-1.233-.38-1.257.284-.284 3.315.979 7.938 3.307 3.598 1.813 3.691 1.817 4.52.205.544-1.057.68-1.071 1.967-.203 2.111 1.425 2.389 1.454 3.447.366l.738-.759 1.109.759c1.701 1.165 2.133 1.075 3.92-.813 1.665-1.761 2.832-1.343 6.733 2.411 2.614 2.515 3.656 2.619 5.168.515 1.008-1.403 1.357-1.374 2.933.243 2.222 2.278 2.904 2.296 5.882.16 2.34-1.679 2.629-1.723 3.341-.507.709 1.208.832 1.25 3.692 1.25 3.204 0 3.19.005 7.231-2.649l9.42-6.045 12.25-7.747 3.166-2.022c.138-.057.813-.438 1.5-.847 3.818-2.272 12.423-5.882 17.084-7.166 10.425-2.874 23.637-2.541 35.819.902l2.597.733c2.659.746 5.537 1.666 7.124 2.278l2.167.826c2.249.848 3.305 1.308 3.908 1.701.781.509.853.454 1.207-.916l.506-1.881a108.03 108.03 0 0 0 1.591-6.334l.592-2.666a63.47 63.47 0 0 0 .393-1.834l.493-2.5 1.026-5.5.412-2.5c.121-.687.306-1.962.411-2.833l.339-2.583c.197-1.329.271-1.975.492-4.25l.354-3.5c.093-.871.205-2.296.251-3.167l.242-3.634c.208-2.676.205-17.029-.003-20.452l-.251-4.247c-.049-.871-.165-2.371-.259-3.334l-.831-7.833-.34-2.667c-.098-.779-.284-2.054-.412-2.833l-.419-2.667c-.102-.687-.26-1.587-.353-2s-.237-1.143-.321-1.625c-.392-2.253-.873-4.601-1.56-7.625l-.427-1.971c-.089-.442-.196-.861-.239-.931s-.117-.345-.164-.614a79.11 79.11 0 0 0-1.077-4.286c-.089-.292-.242-.831-.34-1.198s-.445-1.566-.773-2.666l-1.057-3.625a16.52 16.52 0 0 0-.337-1.042c-.101-.275-.556-1.625-1.01-3l-1.336-3.917-.771-2.166c-.143-.413-.359-.975-.479-1.25a58.55 58.55 0 0 1-.749-1.917c-.291-.779-.631-1.642-.754-1.917s-.498-1.175-.833-2l-1.413-3.333-1.531-3.417c-.604-1.344-4.949-10.059-5.484-11-.287-.504-.802-1.441-1.145-2.083s-.781-1.429-.975-1.75a19.81 19.81 0 0 1-.64-1.167 8.78 8.78 0 0 0-.673-1.099c-.212-.283-.385-.568-.385-.633 0-.1-.544-1.026-1.29-2.194-.114-.178-.36-.586-.547-.907s-.562-.921-.833-1.333-.542-.855-.605-.984-.662-1.066-1.334-2.083l-1.385-2.1a237.52 237.52 0 0 0-3.331-4.785c-.096-.11-.175-.273-.175-.361s-.06-.185-.133-.215-.835-1.031-1.694-2.222l-1.665-2.25c-.056-.046-.398-.496-.76-1s-.738-.992-.837-1.084-.399-.466-.668-.833l-.688-.917-2.831-3.444-.561-.667c-1.319-1.592-2.264-2.698-2.559-2.993-.195-.196-.469-.496-.609-.667-2.623-3.207-12.067-12.741-16.328-16.485l-1.104-.983c-.892-.848-5.659-4.888-7.045-5.972l-.852-.671-1-.78c-.412-.318-.787-.621-.833-.672s-.496-.389-1-.751-.991-.741-1.083-.843-.842-.663-1.667-1.246l-1.583-1.152c-.242-.267-1.336-1.007-1.489-1.007-.098 0-.178-.073-.178-.162s-.243-.288-.541-.44-.58-.328-.625-.388-.421-.336-.834-.612l-2.583-1.755c-2.157-1.476-8.192-5.31-8.359-5.31-.063 0-.233-.104-.378-.231s-.661-.446-1.147-.708l-1.166-.646a278.82 278.82 0 0 0-4.533-2.541l-1.584-.876c-1.034-.592-5.607-2.914-6.166-3.132-.275-.107-.613-.271-.75-.364s-1.15-.589-2.25-1.101l-3.035-1.416c-.569-.267-1.08-.485-1.135-.485s-.528-.193-1.049-.43l-1.365-.606-1.833-.762-1.083-.446-2.084-.839-2.333-.923c-.504-.205-1.104-.433-1.333-.507s-1.28-.445-2.334-.825-2.141-.755-2.416-.831c-.652-.179-3.501-1.13-4.25-1.417-.549-.21-1.408-.474-4.834-1.48-2.128-.625-4.925-1.354-8.083-2.107l-3.667-.9c-.458-.122-1.321-.312-1.916-.421s-1.534-.299-2.084-.423a55.15 55.15 0 0 0-1.916-.392L236 3.109c-.687-.137-1.85-.336-2.583-.443l-2.584-.415c-.687-.121-1.925-.309-2.75-.417l-3.166-.42c-.917-.123-2.567-.306-3.667-.407L217.616.65c-.899-.094-2.399-.206-3.334-.248a112.07 112.07 0 0 1-3.615-.238c-2.255-.189-19.44-.176-21.5.016m54.857 72.737l.643 12.583.344 6.833.654 14c.087 2.063.207 4.147.267 4.633l.108.882-1.291-.049-1.29-.049-1.375-4.667c-2.369-8.04-4.161-12.681-5.769-14.942-.173-.243-.315-.487-.315-.541 0-.816-5.184-6.751-7.333-8.396-6.215-4.757-11.448-6.377-25.167-7.794-4.199-.433-16.046-1.068-20.047-1.074l-1.964-.003.056 60.459.334 62.708.468 3.833c.887 7.39 4.261 12.569 10.07 15.454 2.681 1.332 5.319 2.027 10.041 2.644l2.209.289v1.307 1.306h-35.25-35.25v-1.306-1.307l2.208-.289c7.486-.979 11.621-2.699 14.994-6.239 2.916-3.061 4.314-6.254 5.117-11.692.774-5.237.738-2.194.799-66.735l.058-60.485-4.297.114c-11.15.295-18.736.921-27.296 2.251C112.392 78.72 103.289 86.893 98.62 101c-.649 1.962-.761 2.331-2.207 7.25l-1.029 3.5-1.298.049-1.298.049.104-.799c.058-.439.179-2.599.271-4.799l.255-5c.049-.55.161-2.687.25-4.75l.652-14.003.354-7.08.254-4.209c.049-.166 15.034-.2 74.525-.167l74.464.042.107 1.834M91.499 96.208c0 .757-.048 2.091-.106 2.965l-.105 1.59-1.936.307c-17.812 2.822-27.983 12.157-33.606 30.847l-1.486 5-.421 1.416c-.073.23-.226.754-.34 1.167a63.07 63.07 0 0 1-.491 1.667l-.285.916-1.304.049c-1.663.063-1.618.135-1.422-2.309.091-1.14.246-3.948.343-6.24l.41-8.666.414-8.5.343-7.084.325-6.5.263-5.5c.055-1.145.129-2.177.164-2.291.051-.165 4.127-.209 19.652-.209H91.5l-.001 1.375m133.369-.334c.066.527.196 2.702.288 4.833l.335 7.043.341 6.833.673 13.667.573 12.833.005 1-1.366.049-1.366.048-.33-1.132-1.353-4.631c-2.95-10.109-4.649-14.195-8.021-19.29-5.376-8.125-14.194-13.839-23.98-15.541l-5.334-.844c-1.961-.211-1.833.001-1.833-3.043 0-1.454.05-2.694.112-2.755s9.342-.093 20.624-.07l20.513.043.119.957m29.022 63.627c23.188 1.922 39.219 10.37 53.456 28.17 2.492 3.115 6.487 8.91 6.487 9.409 0 .045.22.439.488.876.859 1.401.838 1.522-.418 2.373l-1.1.746-.693-.752-1.193-1.33c-3.509-4.056-7.247-7.895-9.167-9.416l-.917-.747c-.386-.403-2.761-2.12-4.479-3.238-16.016-10.421-37.37-13.522-56.187-8.158-12.326 3.513-18.839 7.556-26.417 16.399l-1.592 1.834c-.159.143-2.043 2.538-2.751 3.499-3.078 4.173-5.699 9.001-8.234 15.167-1.067 2.596-.826 2.426-2.863 2.024-8.306-1.639-12.777-6.775-13.802-15.857-.54-4.783-.829-3.692 2.165-8.185 5.632-8.452 6.096-9.037 10.744-13.564 5.615-5.468 7.683-7.124 12.5-10.005 7.172-4.289 14.083-7.069 20.25-8.145.779-.135 1.754-.319 2.166-.409.722-.156 2.679-.39 5.667-.678 2.07-.199 13.527-.209 15.89-.013m117.86 93.831c-.55.067-2.012.211-3.25.32-9.754.859-15.337 2.149-24.083 5.565-2.362.923-2.624 1.036-6.5 2.817-4.854 2.23-11.187 5.771-16.584 9.27l-4.75 3.056-4.25 2.737-3.03 1.926-5.478 3.477-5.023 3.146c-1.207.685-1.264.63 1.661 1.605 3.348 1.115 3.436 1.259 2.283 3.715-1.85 3.942-5.263 7.175-10.387 9.839l-1.838.956.489.328c.639.428.652.371-.588 2.488-1.182 2.015-1.182 2.02-.023 2.581 1.518.735 2.199.513 5.947-1.938L318 290.758c12.637-8.653 19.102-12.672 27.417-17.043 12.168-6.397 22.773-10.159 33-11.707 2.949-.447 5.436-.669 8.693-.776l3.526-.116.358-1.183c.197-.651.464-1.483.594-1.85.53-1.493.449-1.757-.671-2.196-4.169-1.635-14.951-3.072-19.167-2.555m-131.417 21.346c0 5.413-.15 4.911 1.948 6.5l1.719 1.339c.295.357 2.747 1.966 2.835 1.862.102-.121.742-1.736 1.999-5.046.54-1.421.994-2.807.998-3.043.012-.863-4.954-4.456-7.832-5.665-1.091-.458-1.516-.625-1.591-.625-.042 0-.076 2.105-.076 4.678m22.167-2.588l-1.634 1.228-.383.304 1.217.891c2.456 1.797 4.73 4.331 6.046 6.737.646 1.181.723 1.25 1.408 1.25 1.414 0 2.515-2.15 1.72-3.359-.568-.865-3.178-4.403-3.826-5.187-.482-.584-3.073-2.787-3.277-2.787-.012 0-.584.415-1.271.923m-6.394 1.053c-.251.262-.659.58-.906.707-3.924 2.011-5.751 4.708-6.387 9.429-.245 1.812-.092 2.541.782 3.734 1.636 2.236 6.851 6.43 7.36 5.921.045-.045.189-.591.319-1.214.691-3.295 2.602-5.189 7.199-7.132.764-.324 1.477-.59 1.583-.593 2.022-.056-1.665-5.722-5.473-8.412-.641-.453-1.755-1.295-2.474-1.87-1.517-1.214-1.414-1.185-2.003-.57m27.288 2.017c-.369.272-1.603.953-2.741 1.513-4.084 2.009-4.747 2.365-5.766 3.092-.926.661-2.22 2.002-2.22 2.301 0 .063.34-.085.756-.329.914-.535 1.286-.489 2.652.334.544.328 1.089.596 1.211.596.354 0 2.41 1.093 3.02 1.604.876.737 1.852 2.585 1.858 3.521.005.722.259.351.972-1.421 1.982-4.924 2.415-8.268 1.427-10.996-.306-.843-.313-.844-1.169-.215m-10.644.68c-.55.177-1.122.323-1.271.324-.806.008-.634.468.309.829.529.202 1.208.473 1.509.604 1 .432 3.226-.577 2.936-1.331s-1.856-.95-3.483-.426m14.875.116l-.958.061-.002 1.033c-.003 1.22-.421 5.115-.64 5.95l-.969 3.583c-.079.276-.007.251.418-.149.517-.488.897-1.512 2.108-5.684l.655-2.167c.196-.595.367-1.186.685-2.375.069-.256.031-.365-.119-.343-.121.017-.651.058-1.178.091m95.625 1.058c-2.665.587-3.311.763-7.583 2.074-5.688 1.744-14.751 5.75-19.724 8.718l-2.86 1.697c-2.229 1.321-6.396 4.026-8.166 5.301-3.096 2.231-6.553 4.872-10.262 7.843-14.884 11.923-22.602 17.606-29.534 21.747l-2.185 1.273c-.03 0-.684.361-1.454.804-3.95 2.27-11.129 5.436-15.815 6.975-1.319.433-3.401 1.081-3.917 1.218-7.837 2.091-12.273 2.88-19.25 3.424-9.067.707-19.843-.213-27.333-2.335l-1.5-.419c-3.857-1.062-6.417-2.07-11.217-4.415l-3.3-1.612-2.117.37c-2.837.497-3.256.579-4.616.893l-1.834.414c-7.035 1.518-20.01 7.025-27.676 11.747l-1.119.686c-4.862 2.943-15.158 10.569-20.955 15.52-6.93 5.92-20.226 15.211-33.666 23.524-3.658 2.263-3.923 2.469-3.389 2.633a9.63 9.63 0 0 1 .805.313c.275.12 1.025.423 1.667.672l1.5.583.833.337a41.25 41.25 0 0 0 1.334.511l3.916 1.409a262.47 262.47 0 0 1 3.167 1.054c3.442 1.16 5.173 1.705 6.707 2.111l1.123.298.375-.483c2.487-3.2 12.297-12.802 15.854-15.516 4.007-3.058 6.068-4.524 9.108-6.479 2.836-1.824 8.995-4.984 12.416-6.371 7.799-3.162 15.896-3.861 24.5-2.115 5.965 1.211 9.808 2.272 12.761 3.525 2.856 1.213 2.485 1.604-1.076 1.133-3.128-.414-9.874-.42-12.351-.012-6.293 1.037-8.859 1.856-14.295 4.561-5.766 2.869-10.043 5.744-14.705 9.885-1.009.895-2.321 2.017-2.917 2.491-4.252 3.389-6.376 5.381-11.253 10.555-2.788 2.96-2.659 2.684-1.378 2.933 5.497 1.071 12.587 2.125 16.881 2.511l3.388.348c.764.092 2.189.205 3.167.251a109.64 109.64 0 0 1 3.612.241c2.375.206 19.281.207 21.949.002l3.634-.247c.871-.049 2.296-.163 3.167-.252l3.5-.342a110.84 110.84 0 0 0 3.75-.426l3.166-.418a100.07 100.07 0 0 0 2.834-.417l2.583-.419c.596-.096 1.608-.275 2.25-.399l2.25-.42a50.62 50.62 0 0 0 2.083-.424c.55-.126 1.629-.347 2.397-.491s1.457-.298 1.531-.344.457-.147.853-.226c1.968-.394 3.466-.726 4.219-.935.459-.128 1.321-.354 1.917-.503s1.308-.34 1.583-.424 1.438-.419 2.584-.744l5.5-1.653c.32-.12 1.745-.6 3.166-1.066 3.539-1.161 9.489-3.355 11.584-4.271a42.58 42.58 0 0 1 1-.421l1-.411.916-.382c.871-.362 1.617-.685 2.584-1.122l1.5-.666c1.913-.825 9.771-4.675 11.333-5.553l2.333-1.28 2.834-1.581c.091-.07.504-.313.916-.54a120.07 120.07 0 0 0 2.917-1.68 19.14 19.14 0 0 0 .864-.576c.292-.207.569-.376.615-.376.148 0 4.936-3.053 7.021-4.476l3.292-2.222c.71-.472 1.291-.92 1.291-.996s.08-.139.178-.139c.194 0 1.371-.839 1.461-1.042.031-.068.128-.125.216-.125s.25-.079.361-.176a44.99 44.99 0 0 1 1.368-1.045l2.011-1.532 1.409-1.08c.648-.479 4.038-3.186 4.163-3.324.046-.051.438-.377.871-.725s.883-.725 1-.837.925-.799 1.796-1.528 1.697-1.45 1.836-1.603.589-.557 1-.897c2.94-2.438 10.322-9.779 14.997-14.913l1.586-1.739a152.39 152.39 0 0 0 1.5-1.767l1.415-1.667c.311-.307 2.057-2.429 3.566-4.333l1.983-2.5c.11-.138.646-.85 1.192-1.584l1.084-1.416c.253-.228 1.007-1.332 1.007-1.475 0-.09.094-.198.209-.239s.155-.131.091-.2c-.244-.262-5.257 2.713-8.8 5.222-4.156 2.944-9.34 7.263-14.416 12.012l-4.417 4.096-4.5 4.182c-1.237 1.167-5.296 4.852-7.515 6.823-6.877 6.105-14.667 11.395-20.068 13.626-12.64 5.22-27.302 2.547-42.417-7.732-4.49-3.054-6.074-4.53-4.663-4.344.919.12 4.674.906 6.08 1.271 13.194 3.432 26.053 1.22 39.21-6.743 5.695-3.447 14.075-9.429 23.04-16.447l6.5-5.106c14.31-11.434 25.112-16.513 35.923-16.891l3.007-.105.66-1.078.91-1.517c.137-.242.418-.676.625-.965s.375-.583.375-.653.104-.246.231-.391.446-.661.708-1.147l.645-1.166c3.175-5.349 8.463-15.773 10.09-19.888.404-1.023.966-2.291 1.257-2.838.378-.711.147-.79-1.348-.46m-93.308 1.45c-.074.117-.199.417-.278.666s-1.006 3.002-2.06 6.116l-1.856 5.725c.21.209 1.234-.279 1.816-.864.846-.851 2.384-5.929 2.683-8.857.118-1.151-.097-3.115-.305-2.786m-53.179.237c-1.193 3.941.347 8.924 3.794 12.279.83.808.726.8 2.693.19.721-.224 1.718-.38 2.611-.409 1.253-.04 1.582-.117 2.481-.586.738-.384 1.199-.521 1.598-.474.72.084.808.192-1.065-1.308l-3.545-2.889-2.647-2.171-3.291-2.715c-1.544-1.284-2.59-2.046-2.629-1.917m37.037 4.474c-.156.091-2.181.795-4.5 1.565-8.334 2.766-8.476 2.845-9.886 5.504-1.107 2.086-.714 2.724 2.009 3.265 6.962 1.382 9.131 3.088 7.649 6.013-.527 1.04-.538 1.03.772.707 4.373-1.08 8.549-4.525 9.929-8.19 1.49-3.959.976-6.157-1.744-7.468l-2.089-1.013c-1.186-.579-1.658-.663-2.14-.383m17.758.533c-.43.993-1.938 5.801-1.848 5.891.103.103.372.041 4.04-.935l2.555-.667c.757-.184.748-.157.543-1.474-.1-.644-.181-1.512-.181-1.93v-.76h-1.042a17.42 17.42 0 0 1-2.458-.25l-1.432-.249c-.008-.001-.088.168-.177.374m-66.391 1.032c0 .093 2.353 3.285 4.063 5.51 2.387 3.106 5.749 5.707 8.287 6.41 1.717.476 5.483.338 5.483-.2 0-.125-2.045-2.866-2.333-3.127-.05-.046-.501-.608-1-1.25l-.999-1.25c-.049-.046-.464-.557-.921-1.137a60.64 60.64 0 0 0-1.286-1.583c-.251-.291-.457-.584-.458-.65-.008-.347-1.041-.662-5.003-1.524l-5.43-1.207c-.222-.056-.403-.052-.403.008m59.399 3.107c-.644.824-1.911 3.513-1.631 3.459.504-.097 1.932-2.505 1.868-3.151-.042-.434-.091-.496-.237-.308m16.934.495c-1.51.274-4.762.998-5.167 1.151-.505.189-4.883 1.443-7 2.004-5.474 1.45-8.673 3.087-11.713 5.993-1.29 1.234-1.987 1.743-3.523 2.575l-1.915 1.038 1.002.207c2.579.533 8.266.544 11.566.024l2.667-.415c4.66-.72 6.828-1.793 9.916-4.908 2.183-2.202 5.892-7.958 5.042-7.825-.069.011-.463.081-.875.156m-53.167 3.154l-3.157.744c-1.049.246-1.963.481-2.031.523-.142.088.547 2.139 1.055 3.14 2.724 5.366 10.727 8.95 16.391 7.339 5.168-1.471 7.855-3.436 7.457-5.454-.238-1.209-4.831-2.841-10.215-3.63-2.804-.411-5.279-1.194-6.624-2.096-1.359-.911-1.39-.917-2.876-.566m-9.998 6.962c.005.391 1.19 2.092 2.065 2.965 1.842 1.838 4.091 3.086 7.267 4.032 1.405.419 5.64.405 6.717-.023.987-.391.775-.591-.634-.599-3.493-.018-8.023-1.873-12.292-5.032-1.318-.976-3.128-1.754-3.123-1.343m3.94.002c-.114.184 3.252 2.247 3.407 2.089.162-.164-1.033-1.463-1.743-1.896-.521-.318-1.516-.433-1.664-.193m26.058 3.433c0 .233.221.274 1.5.274.889 0 1.5-.068 1.5-.167 0-.092-.281-.167-.625-.168a15.98 15.98 0 0 1-1.5-.107c-.742-.089-.875-.063-.875.168m14.334 1.06c-.596.155-1.571.27-2.167.254s-2.058.046-3.25.135c-6.335.474-6.933.497-8.657.333-.97-.092-2.177-.287-2.682-.434-.595-.173-1.063-.218-1.331-.129l-.413.138.756.963c3.821 4.868 13.387 6.021 20.197 2.435 2.144-1.13 4.668-2.927 4.436-3.158-.577-.578-5.316-.947-6.889-.537m-22.98 1.878c-1.842.505-1.973.585-2.489 1.52l-.332.602 1.192.205 1.992.357c1.554.295 5.194.061 5.681-.364.146-.128-.737-1.481-1.541-2.359-.579-.634-2.097-.621-4.503.039m-67.534 3.238c-.038.038-1.232.225-2.653.416-4.336.583-5.633.864-8.5 1.842a167.08 167.08 0 0 1-2.417.756c-5.143 1.58-10.796 4.059-17.552 7.697-2.966 1.597-9.599 5.695-15.198 9.388l-4.128 2.702-9.443 6.168c-4.19 2.741-10.377 6.033-15.595 8.298l-2.287 1.016c-.569.26-1.507.67-2.083.911l-1.797.78c-1.773.807-11.181 4.676-12.248 5.037-1.114.377-2.27.692-3.919 1.068l-2.5.582c-2.093.492-3.808.803-8.333 1.509l-7.123 1.181a220.46 220.46 0 0 1 1.206.924c2.796 2.149 6.019 4.537 6.238 4.622.13.05.366.21.524.355.316.288.466.394 3.447 2.443 1.122.771 2.081 1.403 2.13 1.403s.631.365 1.292.811 1.953 1.273 2.869 1.837L96 371.002c1.843 1.198 3.635 2.145 3.917 2.069 1.074-.288 7.396-2.907 10.833-4.486 9.167-4.213 11.277-5.52 21-13.005 6.268-4.825 12.783-9.446 21.583-15.306l4.778-3.188c.772-.528 5.417-3.419 7.556-4.703 7.83-4.7 18.269-9.898 24.059-11.978 4.18-1.502 5.963-2.083 7.884-2.568.656-.166 1.444-.378 1.75-.471s.767-.216 1.023-.273l.466-.103-.321-.409c-.177-.225-.882-1.029-1.566-1.787l-5.28-5.92c-.652-.776-1.244-1.088-1.529-.805" fill="#f4f3db"/><path d="M94.896 71.244a.73.73 0 0 0-.008.459c.047.117.092.045.099-.161l.013-.375h74.403l74.487.17c.047.094.066.076.042-.041-.07-.343-148.905-.394-149.036-.052m55.646 3.209c.252.038.664.038.916 0s.046-.07-.458-.07-.71.032-.458.07m36.585-.002c.207.04.507.039.667-.003s-.011-.074-.377-.073-.497.036-.29.076m-40.75.169c.254.038.629.037.834-.003s-.003-.071-.461-.069-.626.033-.373.072m44.665-.001a3.6 3.6 0 0 0 .916 0c.252-.038.046-.069-.458-.069s-.71.031-.458.069m53.341 6.048c0 .504.032.71.07.458s.038-.665 0-.917-.07-.046-.07.459m-150.011.666c0 .321.034.452.076.292s.042-.423 0-.583-.076-.03-.076.291m63.043 35.917l.043 18.222V99.138c-.023-10.022-.043-1.871-.043 18.112m87.294-30c.002.367.036.497.076.29s.038-.508-.004-.667-.074.01-.072.377m-150.661.5c.001.458.033.626.072.373s.037-.629-.003-.834-.071.003-.069.461m-.343 6.75c0 .321.035.452.077.292s.041-.423 0-.584-.077-.029-.077.292m-41.474.574a1.12 1.12 0 0 0-.027.541c.041.188.098.098.152-.24.09-.568.031-.71-.125-.301m131.343-.025c-.046.118-.062 1.374-.036 2.791l.047 2.577.082-2.792c.082-2.744.072-3.007-.093-2.576m-28.344 1.784c0 1.055.027 1.486.06.959s.033-1.39 0-1.917-.06-.096-.06.958m89.987.834c0 .504.031.71.069.458s.038-.665 0-.917-.069-.046-.069.459m-153.834.166c0 .504.032.711.07.459s.038-.665 0-.917-.07-.046-.07.458m25.077.952c.208.039.508.038.667-.004s-.01-.074-.377-.072-.497.036-.29.076m108.585.715c0 .412.033.581.073.375a2.42 2.42 0 0 0 0-.75c-.04-.206-.073-.038-.073.375m-115.337-.385a1.37 1.37 0 0 0 .584 0c.16-.042.029-.076-.292-.076s-.452.034-.292.076m135.834 5.302c.002.366.036.497.076.289s.038-.507-.003-.666-.075.01-.073.377m-152.325.75c0 .504.031.71.069.458s.038-.665 0-.917-.069-.046-.069.459M51.705 105c0 .321.035.452.077.292s.041-.423 0-.584-.077-.029-.077.292m129.691 1.75c0 1.008.028 1.399.061.869s.033-1.356-.001-1.833-.061-.044-.06.964m43.976-.417c0 .321.034.452.076.292s.042-.423 0-.583-.076-.029-.076.291m.176 3.584c.001.458.033.626.072.372a2.97 2.97 0 0 0-.003-.833c-.039-.205-.071.002-.069.461m-174.167 1.5c.001.458.034.626.072.372a3.01 3.01 0 0 0-.002-.833c-.04-.205-.071.002-.07.461m41.491-.084c0 .321.034.452.076.292s.042-.423 0-.583-.076-.029-.076.291m133.007 5.167c0 .412.032.581.072.375a2.36 2.36 0 0 0 0-.75c-.04-.206-.072-.038-.072.375m-174.84 1.667c0 .32.034.452.076.291s.042-.423 0-.583-.076-.029-.076.292m175.333 9.166c0 .321.034.452.076.292s.042-.423 0-.583-.076-.029-.076.291M50.55 128.667c0 .504.031.71.069.458a3.61 3.61 0 0 0 0-.917c-.038-.252-.069-.046-.069.459m176.167 5.166c0 .504.031.711.069.459s.038-.665 0-.917-.069-.046-.069.458m-176.512 1.5c0 .321.035.452.077.292a1.4 1.4 0 0 0 0-.583c-.042-.161-.077-.03-.077.291m-.33 6.209l.042.541 1.333.01 1.333.011-1.281-.059c-1.271-.058-1.283-.062-1.375-.552-.09-.475-.092-.473-.052.049m175.083.58c.39.035 1.027.035 1.417 0s.071-.064-.708-.064-1.098.029-.709.064m-23.967 33.17l-.574.625.625-.575c.581-.534.701-.675.574-.675-.028 0-.309.281-.625.625m-19.443 16.791c.001.459.033.626.072.373a2.97 2.97 0 0 0-.003-.833c-.039-.205-.071.002-.069.46m123.869.917c.821.825 1.53 1.5 1.576 1.5s-.588-.675-1.41-1.5-1.53-1.5-1.576-1.5.588.675 1.41 1.5m-148.197-.167c0 .596.03.84.067.542a5.3 5.3 0 0 0 0-1.083c-.037-.298-.067-.055-.067.541m-32.641 25l.046 6.542v-13.083c-.025-3.598-.046-.655-.046 6.541m26.661-4.458l-.49.542.542-.49c.298-.269.541-.513.541-.542 0-.128-.137-.015-.593.49m35.76-.49c0 .029.244.273.542.542l.541.49-.489-.542c-.456-.505-.594-.618-.594-.49m-35.305 9.407h35.333c9.747-.024 1.822-.044-17.611-.044l-17.722.044m-13.403 2h9.416c2.59-.026.471-.047-4.708-.047l-4.708.047m41.595.333h11.834c3.224-.025.537-.046-5.971-.046l-5.863.046M152.545 235c0 .412.033.581.073.375a2.42 2.42 0 0 0 0-.75c-.04-.206-.073-.037-.073.375m-28.162 1.333c0 .505.032.711.07.459s.038-.665 0-.917-.07-.046-.07.458m47.159 4.25c.002.367.036.497.076.29s.038-.507-.003-.667-.075.011-.073.377m23.167.834c.002.366.036.497.076.289a1.83 1.83 0 0 0-.004-.666c-.042-.16-.074.01-.072.377m-.159 4.75c0 .504.031.71.069.458a3.61 3.61 0 0 0 0-.917c-.038-.252-.069-.046-.069.459m158.075.624a95.82 95.82 0 0 0 4.083 0c1.123-.029.204-.052-2.041-.052s-3.165.023-2.042.052m-181.08 2.876c0 .412.033.581.073.375a2.42 2.42 0 0 0 0-.75c-.04-.207-.073-.038-.073.375M194.712 251c0 .412.033.581.072.375a2.36 2.36 0 0 0 0-.75c-.039-.206-.072-.037-.072.375m182.996 2.448a1.37 1.37 0 0 0 .584 0c.16-.042.029-.076-.292-.076s-.452.034-.292.076m-218.048 6.427c.69.736.84.868.84.743 0-.027-.356-.383-.792-.792l-.791-.743.743.792m223.715 1.573c.16.042.423.042.583 0s.03-.076-.291-.076-.452.034-.292.076m-143.138 11.969c0 1.925.025 2.689.054 1.699a68.06 68.06 0 0 0 0-3.5c-.03-.935-.054-.124-.054 1.801m49.721 1.701a2.42 2.42 0 0 0 .75 0c.207-.04.038-.073-.375-.073s-.581.033-.375.073m-2.25.83a1.37 1.37 0 0 0 .584 0c.16-.042.029-.076-.292-.076s-.452.034-.292.076m-1.169 2.219c0 .32.034.452.076.291s.042-.423 0-.583-.076-.029-.076.292m-47.805.625c.347.409.599.485.599.18 0-.107-.05-.144-.111-.083s-.268-.02-.458-.18c-.347-.292-.347-.292-.03.083m55.974 4.996a7.25 7.25 0 0 0 1.25 0c.344-.036.063-.065-.625-.065s-.968.029-.625.065m-9.336 2.717c-.299.272-.482.495-.406.495s.354-.225.617-.5c.613-.639.495-.637-.211.005m-40.164 4.277c.161.041.423.041.584 0s.029-.077-.292-.077-.452.035-.292.077m-4.307.676c.174.207.437.369.583.362.226-.011.228-.027.016-.105-.138-.05-.4-.213-.583-.362-.331-.267-.331-.266-.016.105m-9.484 1.375c.358.367.688.667.734.667s-.21-.3-.568-.667-.688-.666-.734-.666.21.3.568.666m67.493 3.375l-.827.875.875-.827c.813-.768.952-.923.827-.923-.026 0-.42.394-.875.875m-32.004 4.167l-.489.542.541-.49c.505-.456.619-.594.49-.594-.029 0-.273.244-.542.542m-82.695-.089c.253.039.628.038.833-.002s-.002-.071-.461-.07-.626.034-.372.072m-4.667.167a3.01 3.01 0 0 0 .833-.002c.205-.04-.002-.071-.46-.07s-.626.034-.373.072m97.416 1.332c.208.039.508.038.667-.004s-.01-.074-.377-.072-.497.036-.29.076m-3.585 1.83c.16.042.423.042.583 0s.029-.076-.291-.076-.452.034-.292.076m-3.417.172a5.31 5.31 0 0 0 1.084 0c.298-.037.054-.067-.542-.067s-.84.03-.542.067m-18.997 2.167c.3.037.75.036 1-.002s.006-.068-.544-.067-.755.032-.456.069m10.747 1.832c.252.038.665.038.917 0s.046-.069-.458-.069-.711.031-.459.069m-8.708.158a119.82 119.82 0 0 0-2.5.314l-3.167.412c-7.299.913-9.286 1.329-11.615 2.434-3.547 1.682-2.457 3.728 2.782 5.225l2.25.664c1.785.586 6.628 1.655 11 2.429 6.517 1.154 18.446 1.432 25.25.588 2.756-.342 3.322-.489 3.331-.868.001-.06-1.573-1.033-3.498-2.162-4.925-2.889-4.685-3.227 1.584-2.238l8.417 1.261 2.834.411c11.374 1.734 19.169 1.158 22.124-1.635 1.759-1.664.925-2.212-5.459-3.593l-1.916-.415c-2.242-.485-5.689-1.1-8.5-1.518l-4-.603c-2.877-.45-6.197-.232-8.225.539-.43.163-2.183.654-3.942 1.103-.646.165-1.825.26-3.333.268-2.548.015-2.486.027-6.576-1.346-2.795-.939-3.396-.963-4.841-.199-3.75 1.985-9.084 1.716-10.111-.509-.326-.708-.347-.714-1.889-.562m-1.373 30.341c.207.039.507.038.667-.004s-.011-.074-.377-.072-.497.036-.29.076m7.915-.003a1.4 1.4 0 0 0 .583 0c.16-.042.029-.077-.292-.077s-.452.035-.291.077m-192.167 7a1.4 1.4 0 0 0 .583 0c.161-.042.029-.077-.291-.077s-.452.035-.292.077m-3.25.169a2.36 2.36 0 0 0 .75 0c.206-.04.037-.072-.375-.072s-.581.032-.375.072m137.917 15.331a1.4 1.4 0 0 0 .583 0c.16-.042.029-.077-.292-.077s-.452.035-.291.077m7.583 5.002a2.36 2.36 0 0 0 .75 0c.206-.039.037-.072-.375-.072s-.581.033-.375.072m5.169.001a1.83 1.83 0 0 0 .666-.004c.16-.042-.01-.074-.377-.072s-.497.036-.289.076m-49.803 25.84l-.574.625.625-.574c.581-.535.701-.676.574-.676-.028 0-.309.281-.625.625m-2.751 2.917l-.49.541.542-.489c.298-.269.541-.513.541-.542 0-.129-.137-.015-.593.49" fill="#cbe3bc"/><path d="M149.375 74.448c.16.042.423.042.583 0s.029-.076-.291-.076-.452.034-.292.076m8.025 2.302l.057 1.201v-2.5c-.032-.661-.057-.076-.057 1.299m24.013 12.917l.045 7.708V81.958c-.024-4.239-.045-.77-.045 7.709m6.795-15.219a1.37 1.37 0 0 0 .584 0c.16-.042.029-.076-.292-.076s-.452.034-.292.076m-93.666 3.969c.002.366.036.497.076.289s.038-.507-.003-.666-.075.01-.073.377m62.83 1.416c0 .321.034.452.076.292s.042-.423 0-.583-.076-.03-.076.291m73.788 5.542c.69.736.84.868.84.743 0-.027-.356-.383-.792-.792l-.791-.743.743.792m13.549 3.042c.002.366.036.497.076.289a1.83 1.83 0 0 0-.004-.666c-.042-.16-.074.01-.072.377M62.208 94.958h19.584c5.385-.024.979-.044-9.792-.044l-9.792.044m54.167 0h25.917c7.127-.024 1.295-.043-12.959-.043l-12.958.043m77.68 0h20.5c5.607-.024.97-.044-10.305-.044l-10.195.044m-100.35.542c0 .321.035.452.077.292s.041-.423 0-.584-.077-.029-.077.292m28.17 3.123c.527.033 1.39.033 1.917 0s.096-.06-.959-.06-1.485.027-.958.06m30.535.085c-.043.115-.059 24.734-.036 54.709l.043 54.5.042-54.618.041-54.618 1.208-.057 1.209-.058-1.214-.033c-.843-.023-1.238.031-1.293.175m-43.702.407a1.37 1.37 0 0 0 .584 0c.16-.042.029-.076-.292-.076s-.452.034-.292.076m116.331 1.552c0 .32.034.452.076.291s.042-.423 0-.583-.076-.029-.076.292m-173.164 1.416c.002.367.036.497.076.29s.039-.507-.003-.667-.074.011-.073.377m193.664 3.417c0 .321.034.452.076.292a1.37 1.37 0 0 0 0-.584c-.042-.16-.076-.029-.076.292m-64.151 4.083c.001.642.031.884.067.538s.035-.871-.001-1.166-.067-.013-.066.628m.027 32.834l.043 15.695v-31.5c-.024-8.633-.043-1.52-.043 15.805m28.252-31.365c0 .029.243.273.541.542l.542.489-.49-.541c-.456-.505-.593-.619-.593-.49m16.205 6.615c0 .32.034.452.076.291s.042-.423 0-.583-.076-.029-.076.292m-174.833 1.5c0 .32.034.452.076.291s.042-.423 0-.583-.076-.029-.076.292m175.166 5.166c0 .321.035.452.077.292a1.4 1.4 0 0 0 0-.583c-.042-.161-.077-.029-.077.291M50.209 136.417c.002.366.036.497.076.289a1.83 1.83 0 0 0-.004-.666c-.042-.16-.074.01-.072.377m107.205 34.333l.044 8.612v-17.333c-.024-4.737-.044-.812-.044 8.721m83.046-11.299c.208.04.508.039.667-.003s-.01-.074-.377-.073-.497.036-.29.076m10.748-.003a1.37 1.37 0 0 0 .584 0c.16-.042.029-.076-.292-.076s-.452.034-.292.076m7.167 15.341c.435.035 1.148.035 1.583 0s.079-.062-.791-.062-1.227.028-.792.062m-76.833 18.628c.002.366.036.497.076.289s.038-.507-.003-.666-.075.01-.073.377M307 194.552c0 .029.244.273.542.542l.541.489-.489-.541c-.456-.505-.594-.619-.594-.49m-175.105 26.281c0 .963.028 1.357.061.875s.034-1.268 0-1.75-.061-.087-.061.875M124.556 232c0 .688.029.969.065.625a7.25 7.25 0 0 0 0-1.25c-.036-.344-.065-.062-.065.625m69.992 12.583c.001.459.033.626.072.373a2.97 2.97 0 0 0-.003-.833c-.039-.205-.071.002-.069.46m.005 3.417c0 .596.031.84.068.542a5.31 5.31 0 0 0 0-1.084c-.037-.298-.068-.054-.068.542m192.991 13.286c.253.039.628.038.833-.002s-.002-.071-.46-.07-.626.034-.373.072m-283.169 8.672h13.583c3.736-.025.68-.045-6.791-.045l-6.792.045m164.285 3.917c.69.736.84.868.84.743 0-.027-.356-.383-.792-.792l-.791-.743.743.792m-4.41 2.958c.451.459.858.834.904.834s-.286-.375-.737-.834-.859-.833-.904-.833.286.375.737.833m22.289.334c0 .32.034.452.076.291s.042-.423 0-.583-.076-.029-.076.292m-46.316.833c0 .688.029.969.065.625a7.25 7.25 0 0 0 0-1.25c-.036-.344-.065-.062-.065.625m22.777-.417c.311.321.603.584.649.584s-.171-.263-.482-.584-.603-.583-.649-.583.171.262.482.583m21.576 9.928c-.082.134-.059.165.065.088s.201.063.217.433c.024.533.028.536.097.073.079-.534-.172-.928-.379-.594m-33.493 1.322c.358.367.689.667.735.667s-.21-.3-.568-.667-.688-.666-.734-.666.209.3.567.666m26.084 7.25c-.405.413-.699.75-.653.75s.414-.337.819-.75.699-.75.653-.75-.414.338-.819.75m19.906.292l-.49.542.542-.49c.505-.456.618-.594.49-.594-.029 0-.273.244-.542.542m-19.331.833l-.659.709.709-.659c.389-.363.708-.681.708-.708 0-.127-.145 0-.758.658m-8.367.709c.002.366.036.497.076.289a1.81 1.81 0 0 0-.003-.666c-.042-.16-.074.01-.073.377m11.419 3.868a1.83 1.83 0 0 0 .666-.004c.16-.042-.01-.074-.377-.072s-.497.036-.289.076m-11.752.504c.435.035 1.148.035 1.583 0s.079-.062-.792-.062-1.227.028-.791.062m-12.167 1.499a7.25 7.25 0 0 0 1.25 0c.344-.036.063-.065-.625-.065s-.969.029-.625.065m5.669.498c.253.039.628.038.833-.002s-.002-.071-.46-.07-.626.034-.373.072m26.916 4.165c.208.04.508.039.667-.003s-.01-.074-.377-.073-.497.036-.29.076m-24.502 12.173a64.88 64.88 0 0 0 3.417 0c.94-.029.171-.054-1.708-.054s-2.648.025-1.709.054m-12.166 17.66a2.36 2.36 0 0 0 .75 0c.206-.039.037-.072-.375-.072s-.582.033-.375.072m5.668.001c.208.039.508.038.667-.004s-.01-.074-.377-.072-.497.036-.29.076m-62.418 22.338c.527.033 1.389.033 1.916 0s.096-.06-.958-.06-1.485.027-.958.06m92.505 5.166c.438.035 1.113.034 1.5-.001s.028-.063-.797-.062-1.141.029-.703.063m-133.805 16.253l-.659.708.709-.659c.389-.362.708-.681.708-.708 0-.126-.145 0-.758.659m-6.418 6.416l-.574.625.625-.574c.582-.535.702-.676.574-.676-.027 0-.309.282-.625.625m19.005.667l-1.079 1.125 1.125-1.079c.619-.593 1.125-1.099 1.125-1.125 0-.122-.17.034-1.171 1.079" fill="#9cc0ad"/><path d="M154.881 74.29c.531.033 1.356.033 1.833-.001s.044-.06-.964-.06-1.399.028-.869.061m27.333 0c.531.033 1.356.033 1.834-.001s.044-.06-.965-.06-1.399.028-.869.061m-34.17.163a3.01 3.01 0 0 0 .833-.002c.205-.04-.002-.071-.46-.07s-.626.034-.373.072m41.333 0c.254.038.629.037.834-.002s-.003-.071-.461-.07-.626.034-.373.072m54.832 4.297c.002.367.036.497.076.29s.038-.508-.004-.667-.074.01-.072.377m-149.667.833c.002.367.036.497.076.29s.038-.507-.003-.667-.075.011-.073.377m-.333 6.667c.002.367.036.497.076.29s.038-.508-.004-.667-.074.01-.072.377m150.496 3.25c0 .321.035.452.077.292s.041-.423 0-.584-.077-.029-.077.292m.34 6.667c0 .412.033.581.073.375a2.42 2.42 0 0 0 0-.75c-.04-.207-.073-.038-.073.375m-151.336.416c.002.367.036.497.076.29s.038-.507-.004-.667-.074.011-.072.377m25.579 2.037a6.22 6.22 0 0 0 1.167.002c.345-.036.103-.067-.538-.067s-.925.028-.629.065m-4.746.162a1.4 1.4 0 0 0 .583 0c.16-.042.029-.077-.292-.077s-.452.035-.291.077m-23.33.885c0 .412.033.581.072.375a2.36 2.36 0 0 0 0-.75c-.039-.207-.072-.038-.072.375m16.496-.552a1.37 1.37 0 0 0 .584 0c.16-.042.029-.076-.292-.076s-.452.034-.292.076m117.331 2.552c0 .32.034.452.076.291s.042-.423 0-.583-.076-.029-.076.292M51.875 103.25c.002.367.036.497.076.29s.039-.508-.003-.667-.074.01-.073.377m41.5 0c.002.367.036.497.076.29s.039-.508-.003-.667-.074.01-.073.377m152.167 3.333c.002.367.036.497.076.29s.038-.507-.003-.667-.075.011-.073.377m-20.163 1.75c0 .413.032.582.072.375a2.36 2.36 0 0 0 0-.75c-.04-.206-.072-.037-.072.375M51.542 109.75c.002.367.036.497.076.29s.038-.508-.003-.667-.075.01-.073.377m15.116 1.875l-.575.625.625-.574c.582-.535.702-.676.575-.676-.028 0-.309.281-.625.625m26.884.163a7.25 7.25 0 0 0 1.25 0c.343-.036.062-.065-.625-.065s-.969.029-.625.065m150.579-.001c.296.037.821.037 1.167.001s.104-.066-.538-.067-.925.029-.629.066m-18.249 6.88c0 .32.034.452.076.291s.042-.423 0-.583-.076-.029-.076.292m-174.83 1.583c.002.367.036.497.076.29s.038-.508-.003-.667-.075.01-.073.377m175.167 5.167c.002.366.036.497.076.289a1.83 1.83 0 0 0-.004-.666c-.042-.16-.074.01-.072.377m-175.5 1.5c.002.366.036.497.076.289a1.83 1.83 0 0 0-.004-.666c-.042-.16-.074.01-.072.377m-.504 10.583c0 .321.035.452.077.292s.041-.423 0-.584-.077-.029-.077.292m191.59 21.954c.299.037.749.036 1-.002s.005-.068-.545-.067-.755.032-.455.069m7.833 0c.3.037.75.036 1-.002s.005-.068-.545-.067-.755.032-.455.069M181.41 181.75l.048 3.947v-8c-.026-2.171-.048-.347-.048 4.053m75.215-6.966a2.36 2.36 0 0 0 .75 0c.206-.039.037-.072-.375-.072s-.581.033-.375.072m43.958 5.549l1.577 1.5c.046 0-.589-.675-1.41-1.5l-1.576-1.5c-.046 0 .588.675 1.409 1.5m-104.01-.791l-.49.541.542-.489c.505-.456.618-.594.49-.594-.029 0-.273.244-.542.542m-1.496 1.5l-.827.875.875-.827c.813-.769.951-.923.827-.923-.026 0-.42.393-.875.875m23.829 7.166l-.489.542.541-.49c.505-.456.619-.593.49-.593-.029 0-.273.243-.542.541m-61.511 1.459c0 .962.028 1.356.061.875s.034-1.269 0-1.75-.061-.088-.061.875m58.763 1.291l-.575.625.625-.574.625-.625c0-.127-.141-.007-.675.574m-34.619 3.542c0 .321.034.452.076.292a1.37 1.37 0 0 0 0-.584c-.042-.16-.076-.029-.076.292m-29.133 34.083l.052 2.115v-4.333c-.029-1.163-.052-.165-.052 2.218m-27.851 5.667c0 .642.031.884.067.538a6.22 6.22 0 0 0-.002-1.167c-.037-.296-.066-.013-.065.629m69.987 9c.002.367.036.497.076.29s.038-.508-.003-.667-.075.01-.073.377m152.791 3.84c-7.218.904-17.275 4.524-25 8.998-1.978 1.146-2.142 1.249-5.574 3.492l-9.167 5.798-10.342 6.588c-4.507 2.971-4.758 3.09-6.53 3.105-1.353.012-1.36.015-1.056.346 1.05 1.139 1.912 3.463 1.765 4.757-.134 1.183.123 1.533 1.393 1.899 1.241.357 2.544.333 3.362-.062.472-.228.685-.265.726-.125.147.498.423 2.668.423 3.327 0 1.284.113 1.241 5.071-1.924l8.846-5.625 8.583-5.492c11.933-7.74 21.079-12.217 31.883-15.604 5.495-1.723 8.085-2.17 18.367-3.169 6.163-.598 14.548.313 20.213 2.198 2.037.678 1.871.662 1.871.174 0-.473-1.305-1.204-3.834-2.148l-3-1.128c-1.842-.697-2.67-.964-6.083-1.96-7.195-2.1-9.496-2.634-14.583-3.382-2.059-.303-15.043-.35-17.334-.063m-175.791.66c.002.367.036.497.076.29s.038-.508-.003-.667-.075.01-.073.377m.163 3.417c0 .32.035.452.077.291a1.4 1.4 0 0 0 0-.583c-.042-.16-.077-.029-.077.292m-54.295 8.708l-.827.875.875-.827c.482-.455.875-.849.875-.875 0-.124-.154.014-.923.827m271.548 1.409a2.36 2.36 0 0 0 .75 0c.207-.039.038-.072-.375-.072s-.581.033-.375.072M133.5 269.957l40.558.001c-.043-.068-11.192-.107-24.776-.084l-15.782.083m132.5 2.762c0 .029.244.272.542.541l.541.49-.489-.542c-.456-.505-.594-.618-.594-.489m9.333.5c0 .029.244.272.542.541l.542.49-.49-.542c-.456-.505-.594-.618-.594-.489m-26.34 1.989c.691.736.84.869.84.743 0-.026-.356-.383-.791-.791l-.792-.743.743.791m-9.443.625c0 .504.031.711.069.459a3.61 3.61 0 0 0 0-.917c-.038-.252-.069-.046-.069.458m-3.345 6c0 .321.035.452.077.292a1.4 1.4 0 0 0 0-.583c-.042-.161-.077-.03-.077.291m-7.712 9.375c.691.736.84.869.84.743 0-.026-.356-.383-.791-.791l-.792-.743.743.791m-12.243 6.459c.729.733 1.363 1.333 1.409 1.333s-.513-.6-1.242-1.333-1.363-1.334-1.409-1.334.513.6 1.242 1.334m30 1.333c.358.367.688.667.734.667s-.209-.3-.567-.667-.689-.667-.735-.667.21.3.568.667m-60.083 1.201c-.78.065-3.255.197-5.5.294-8.364.36-14.571 2.046-23.921 6.499-3.83 1.824-5.47 2.807-18.496 11.088-21.181 13.466-23.66 14.813-36.25 19.7-9.353 3.632-17.756 5.727-27.583 6.88l-2.834.348c-.641.083-2.854.24-4.916.348l-3.82.253c-.088.071 1.359 1.383 1.528 1.387.069.001.125.098.125.216s.206.339.458.492.962.751 1.578 1.328c1.283 1.204 1.514 1.406 2.881 2.533.55.453 1.12.942 1.266 1.087s.556.488.908.763a23.97 23.97 0 0 1 1.012.833c.61.549 1.103.961 1.98 1.655.459.362.859.719.889.793s.162.135.292.135.236.075.236.167c0 .272.996.195 4.209-.328l6.208-1.002c7.256-1.163 10.889-2.202 17.88-5.109 17.051-7.09 21.322-9.257 31.87-16.175 20.121-13.195 23.478-15.243 30.505-18.606 5.987-2.866 7.569-3.465 16.078-6.09 1.192-.368 2.729-.747 3.417-.843l3.25-.442c3.039-.406 3.628-.551 3.353-.826-.252-.251-4.326-6.086-4.853-6.95l-.334-.546-1.416.118m98.041 2.418a3.61 3.61 0 0 0 .917 0c.252-.038.046-.069-.458-.069s-.711.031-.459.069m-26.666 17.663a1.4 1.4 0 0 0 .583 0c.16-.042.029-.077-.292-.077s-.452.035-.291.077m4.918.336c.208.04.508.038.667-.003s-.01-.075-.377-.073-.497.036-.29.076m7.832 0a2.42 2.42 0 0 0 .75 0c.206-.04.037-.073-.375-.073s-.582.033-.375.073m-15.417 17.672a26.38 26.38 0 0 0 2.25 0c.619-.032.112-.058-1.125-.058s-1.744.026-1.125.058m-62.792 22.609c-10.067 1.674-23.684 8.954-34.14 18.252-4.078 3.627-12.943 12.664-12.943 13.194 0 .125.484.27 2.167.648.32.072.808.221 1.083.331s.519.194.542.188.06-.006.083.001c.128.039.646.15 1.442.309.495.098.986.25 1.091.337s.337.149.516.137.588.058.909.155 1.034.266 1.584.375 1.412.3 1.916.424 1.367.313 1.917.418a41.92 41.92 0 0 1 1.686.361l.686.169 1.495-1.558 3.516-3.723c2.338-2.505 3.447-3.529 7.117-6.571l4.482-3.82c12.876-11.418 26.755-16.292 41.435-14.551 6.384.757 1.596-1.406-8.25-3.728-6.1-1.439-14.203-2.034-18.334-1.348m-89.25 14.086c.23.188.492.341.584.342.178.001-.123-.229-.667-.51-.221-.115-.193-.058.083.168m11.427 5.926c.178.135.436.247.573.249s.036-.107-.227-.244c-.608-.317-.762-.319-.346-.005m1.833.834c.178.134.436.246.574.249s.035-.108-.228-.245c-.608-.317-.762-.319-.346-.004" fill="#6fbfa4"/></svg>