<svg xmlns="http://www.w3.org/2000/svg" xmlns:xlink="http://www.w3.org/1999/xlink" viewBox="0 0 500 500" xmlns:v="https://vecta.io/nano"><style><![CDATA[.B{fill:#263238}.C{fill:#fff}.D{opacity:.2}.E{fill:#751545}.F{opacity:.6}.G{opacity:.4}.H{opacity:.7}.I{opacity:.3}.J{fill:#ffc3bd}.K{fill:#e6ae76}.L{fill:#fab27b}]]></style><use xlink:href="#B" class="E"/><use xlink:href="#B" opacity=".9" class="C"/><ellipse cx="250" cy="416.24" rx="193.89" ry="11.32" fill="#f5f5f5"/><path d="M138.42 111.71h220.92v137.1H138.42z" class="B"/><path d="M138.42 111.71h220.92v137.1H138.42z" opacity=".5" class="C"/><path d="M140.77 114.29h216.21v131.94H140.77z" fill="#f5f5f5"/><path d="M133.26 248.82H363.7v3.86H133.26z" class="B"/><path d="M133.26 248.82H363.7v3.86H133.26z" class="C I"/><g class="E"><rect x="269.19" y="157.5" width="28.01" height="3.6" rx="1.76"/><rect x="269.19" y="165.9" width="68.96" height="3.6" rx="1.76"/><rect x="269.19" y="173.1" width="66.94" height="3.6" rx="1.76"/><rect x="269.19" y="180.3" width="73.69" height="3.6" rx="1.76"/><rect x="269.19" y="187.5" width="67.39" height="3.6" rx="1.76"/><rect x="269.19" y="194.7" width="67.39" height="3.6" rx="1.76"/><rect x="269.19" y="201.9" width="71.46" height="3.6" rx="1.76"/><use xlink:href="#C"/></g><g class="C I"><rect x="269.19" y="157.5" width="28.01" height="3.6" rx="1.76"/><rect x="269.19" y="165.9" width="68.96" height="3.6" rx="1.76"/><rect x="269.19" y="173.1" width="66.94" height="3.6" rx="1.76"/><rect x="269.19" y="180.3" width="73.69" height="3.6" rx="1.76"/><rect x="269.19" y="187.5" width="67.39" height="3.6" rx="1.76"/><rect x="269.19" y="194.7" width="67.39" height="3.6" rx="1.76"/><rect x="269.19" y="201.9" width="71.46" height="3.6" rx="1.76"/><use xlink:href="#C"/></g><g class="E"><path d="M169.58 203.76c18.22-2.19 36.64-4.23 55.13-4.78 3.63-.11 7.27-.14 10.9 0v-1.78c-16-.4-32.05 1.15-47.8 2.78q-9.13.94-18.23 2c-.16 0 .11 1.76 0 1.78zm8.75 3.45c11.53-2.27 23.19-4.37 34.89-4.94 2.3-.11 4.6-.15 6.9-.06v-1.84c-10.09-.41-20.28 1.19-30.25 2.88q-5.77 1-11.54 2.12c-.1 0 .07 1.83 0 1.84z"/><use xlink:href="#D"/><use xlink:href="#E"/><use xlink:href="#F"/><use xlink:href="#G"/><use xlink:href="#H"/><use xlink:href="#I"/><use xlink:href="#J"/><use xlink:href="#K"/></g><g class="C D"><use xlink:href="#D"/><use xlink:href="#E"/><use xlink:href="#F"/><use xlink:href="#G"/><use xlink:href="#H"/><use xlink:href="#I"/><use xlink:href="#J"/><use xlink:href="#K"/></g><path d="M156 155.88l-1.75.64 1.75.64v.66l-2.5-.95v-.69l2.5-1zm1.91-1.94h.73l-1.73 4.95h-.73zm3.33 2.24v.69l-2.5.95v-.66l1.75-.64-1.75-.64v-.65z" class="E"/><g class="D"><path d="M160.87 163.39h-7.15a.66.66 0 0 1 0-1.31h7.15a.66.66 0 1 1 0 1.31zm0 4.29h-7.15a.66.66 0 0 1 0-1.31h7.15a.66.66 0 1 1 0 1.31zm0 4.32h-7.15a.66.66 0 0 1 0-1.31h7.15a.66.66 0 1 1 0 1.31zm0 4.26h-7.15a.66.66 0 0 1 0-1.31h7.15a.66.66 0 1 1 0 1.31zm0 4.29h-7.15a.66.66 0 0 1 0-1.32h7.15a.66.66 0 0 1 0 1.32zm0 4.29h-7.15a.66.66 0 0 1 0-1.32h7.15a.66.66 0 0 1 0 1.32zm0 4.29h-7.15a.66.66 0 0 1 0-1.32h7.15a.66.66 0 0 1 0 1.32zm0 4.29h-7.15a.66.66 0 0 1 0-1.32h7.15a.66.66 0 0 1 0 1.32zm0 4.28h-7.15a.66.66 0 0 1 0-1.31h7.15a.66.66 0 1 1 0 1.31z"/></g><path d="M181.54 184.76h-14.67a.66.66 0 0 1 0-1.31h14.67a.66.66 0 0 1 0 1.31zm0-21.37h-14.67a.66.66 0 0 1 0-1.31h14.67a.66.66 0 0 1 0 1.31z" class="E"/><path d="M223.65,184.76H185.44a.66.66,0,1,1,0-1.31h38.21a.66.66,0,1,1,0,1.31Z" class="B"/><g class="D B"><path d="M228.4,167.68H217.33a.66.66,0,1,1,0-1.31H228.4a.66.66,0,1,1,0,1.31Z"/></g><path d="M191.55,188.47h-22.7a.66.66,0,1,1,0-1.32h22.7a.66.66,0,0,1,0,1.32Z" class="B"/><path d="M218.58,188.47H196.22a.66.66,0,0,1,0-1.32h22.36a.66.66,0,1,1,0,1.32Z" class="E"/><path d="M246.35,188.47H222.22a.66.66,0,1,1,0-1.32h24.13a.66.66,0,0,1,0,1.32Z" class="B"/><g class="D B"><path d="M193.65,192.76H180a.66.66,0,0,1,0-1.32h13.63a.66.66,0,0,1,0,1.32Z"/></g><path d="M212.94,192.76H198.07a.66.66,0,0,1,0-1.32h14.87a.66.66,0,0,1,0,1.32Z" class="B"/><g class="D B"><path d="M240.43,192.76H216.32a.66.66,0,0,1,0-1.32h24.11a.66.66,0,0,1,0,1.32Z"/></g><g class="D B"><path d="M187.17,167.68H168.85a.66.66,0,1,1,0-1.31h18.32a.66.66,0,1,1,0,1.31Z"/></g><path d="M189.47,172H168.85a.66.66,0,1,1,0-1.31h20.62a.66.66,0,0,1,0,1.31Z" class="E"/><g class="D B"><path d="M223.91,172H192.84a.66.66,0,0,1,0-1.31h31.07a.66.66,0,1,1,0,1.31Z"/></g><g class="B"><path d="M242.66 163.39H211.6a.66.66 0 1 1 0-1.31h31.06a.66.66 0 1 1 0 1.31zm3.69 8.61h-18.67a.66.66 0 1 1 0-1.31h18.67a.66.66 0 0 1 0 1.31z"/><g class="D"><path d="M187.23,176.26H175.42a.66.66,0,0,1,0-1.32h11.81a.66.66,0,0,1,0,1.32Z"/></g><g class="D"><path d="M213.9,176.26H191.25a.66.66,0,0,1,0-1.32H213.9a.66.66,0,0,1,0,1.32Z"/></g><g class="D"><path d="M207.89,163.39H185.24a.66.66,0,0,1,0-1.31h22.65a.66.66,0,1,1,0,1.31Z"/></g><path d="M240.43 176.26h-22.11a.66.66 0 0 1 0-1.32h22.11a.66.66 0 0 1 0 1.32zm-26.8-8.58h-22.11a.66.66 0 0 1 0-1.31h22.11a.66.66 0 1 1 0 1.31zm-17.72 12.87H182a.66.66 0 0 1 0-1.32h13.91a.66.66 0 0 1 0 1.32z"/><g class="D"><path d="M212,180.55H198.77a.66.66,0,0,1,0-1.32H212a.66.66,0,0,1,0,1.32Z"/></g></g><path d="M240.43,180.55H216.19a.66.66,0,0,1,0-1.32h24.24a.66.66,0,0,1,0,1.32Z" class="E"/><g class="D B"><path d="M199,197.05H182a.66.66,0,0,1,0-1.32h17a.66.66,0,0,1,0,1.32Z"/></g><g class="E"><path d="M135.64 145.26h13.13v9.48h-13.13z"/><path d="M75.35 149.1h73.42v53.15H75.35z"/></g><path d="M75.35 149.1h73.42v53.15H75.35z" class="C H"/><path d="M75.35 149.1h10.23v53.15H75.35z" opacity=".1"/><path d="M75.35 148.98h73.42v4.97H75.35z" class="E"/><g class="C"><circle cx="145.61" cy="147.68" r="1.03"/><circle cx="142.01" cy="147.68" r="1.03"/><circle cx="138.41" cy="147.68" r="1.03"/></g><g class="E"><path d="M177.09 81.3h11.65v8.41h-11.65z"/><path d="M123.62 84.7h65.12v47.14h-65.12z"/></g><path d="M123.62 84.7h65.12v47.14h-65.12z" class="C H"/><path d="M123.62 84.7h9.07v47.14h-9.07z" opacity=".1"/><path d="M123.62 84.6h65.12v4.41h-65.12z" class="E"/><path d="M185 83.45a.91.91 0 0 0 1.82 0 .91.91 0 1 0-1.82 0zm-3.17 0a.92.92 0 1 0 .92-.91.91.91 0 0 0-.92.91zm-3.19 0a.92.92 0 1 0 .91-.91.91.91 0 0 0-.91.91z" class="C"/><g class="E"><path d="M295.45 224.75h7.42v5.36h-7.42z"/><path d="M261.36 226.92h41.51v30.05h-41.51z"/></g><path d="M261.36 226.92h41.51v30.05h-41.51z" class="C H"/><path d="M261.36 226.92h5.78v30.05h-5.78z" opacity=".1"/><path d="M261.36 226.86h41.51v2.81h-41.51z" class="E"/><g class="C"><circle cx="301.08" cy="226.12" r=".58"/><circle cx="299.05" cy="226.12" r=".58"/><circle cx="297.02" cy="226.12" r=".58"/></g><g class="E"><path d="M372.36 75.95h14.91v10.76h-14.91z"/><path d="M303.91 80.3h83.36v60.34h-83.36z"/></g><path d="M303.91 80.3h83.36v60.34h-83.36z" class="C H"/><path d="M303.91 80.3h11.61v60.34h-11.61z" opacity=".1"/><path d="M303.91 80.17h83.36v5.64h-83.36z" class="E"/><g class="C"><circle cx="383.67" cy="78.7" r="1.17"/><circle cx="379.59" cy="78.7" r="1.17"/><circle cx="375.5" cy="78.7" r="1.17"/></g><path d="M229.64 417.31h-2.47L224 311.47h3.26l2.38 105.84z" class="B"/><path d="M229.64 417.31h-2.47L224 311.47h3.26l2.38 105.84z" class="C F"/><path d="M189.87 311.47v105.84h2.61l3.07-101h31.5l2.3 101h2.59V311.47h-42.07z" class="B"/><path d="M189.87 311.47v105.84h2.61l3.07-101h31.5l2.3 101h2.59V311.47h-42.07z" class="C G"/><path d="M189.87 417.31h-2.47l-.79-105.84h3.26v105.84z" class="B"/><path d="M189.87 417.31h-2.47l-.79-105.84h3.26v105.84z" class="C F"/><path d="M142.15 417.31h-2.47l-3.18-105.84h3.26l2.39 105.84z" class="B"/><path d="M142.15 417.31h-2.47l-3.18-105.84h3.26l2.39 105.84z" class="C F"/><path d="M102.37 311.47v105.84h2.61l3.08-101h31.5l2.3 101h2.58V311.47h-42.07z" class="B"/><path d="M102.37 311.47v105.84h2.61l3.08-101h31.5l2.3 101h2.58V311.47h-42.07z" class="C I"/><path d="M102.37 417.31h-2.46l-.8-105.84h3.26v105.84z" class="B"/><path d="M102.37 417.31h-2.46l-.8-105.84h3.26v105.84z" class="C F"/><path d="M94.8 305.39h93.04v6.09H94.8z" class="B"/><path d="M94.8 305.39h93.04v6.09H94.8z" class="C G"/><path d="M184.04 305.39h52.21v6.09h-52.21z" class="B"/><path d="M184.04 305.39h52.21v6.09h-52.21z" class="C I"/><path d="M357.43 416.8h-2.47l-3.17-105.83h3.26l2.38 105.83z" class="B"/><path d="M357.43 416.8h-2.47l-3.17-105.83h3.26l2.38 105.83z" class="C F"/><path d="M317.66 310.97V416.8h2.61l3.07-101h31.5l2.3 101h2.59V310.97h-42.07z" class="B"/><path d="M317.66 310.97V416.8h2.61l3.07-101h31.5l2.3 101h2.59V310.97h-42.07z" class="C G"/><path d="M317.66 416.8h-2.47l-.79-105.83h3.26V416.8z" class="B"/><path d="M317.66 416.8h-2.47l-.79-105.83h3.26V416.8z" class="C F"/><path d="M269.93 416.8h-2.46l-3.18-105.83h3.26l2.38 105.83z" class="B"/><path d="M269.93 416.8h-2.46l-3.18-105.83h3.26l2.38 105.83z" class="C F"/><path d="M230.16 310.97V416.8h2.61l3.07-101h31.5l2.31 101h2.58V310.97h-42.07z" class="B"/><path d="M230.16 310.97V416.8h2.61l3.07-101h31.5l2.31 101h2.58V310.97h-42.07z" class="C I"/><path d="M230.16 416.8h-2.46l-.8-105.83h3.26V416.8z" class="B"/><path d="M230.16 416.8h-2.46l-.8-105.83h3.26V416.8z" class="C F"/><path d="M222.59 304.88h93.04v6.09h-93.04z" class="B"/><path d="M222.59 304.88h93.04v6.09h-93.04z" class="C G"/><path d="M311.83 304.88h52.21v6.09h-52.21z" class="B"/><path d="M311.83 304.88h52.21v6.09h-52.21z" class="C I"/><use xlink:href="#L" class="E"/><use xlink:href="#L" class="C D"/><use xlink:href="#M" class="B"/><g class="C"><use xlink:href="#M" class="H"/><path d="M141.23 283.31l-.52.19.52.18v.2l-.74-.28v-.21l.74-.28zm.56-.58h.21l-.51 1.47h-.22zm.98.66v.21l-.74.28v-.2l.52-.18-.52-.19v-.2z"/></g><g class="D"><path d="M142.42 285.53h-2.13a.19.19 0 0 1-.19-.19.2.2 0 0 1 .19-.2h2.13a.2.2 0 0 1 .19.2.19.19 0 0 1-.19.19zm-.21 1.28h-2.12a.2.2 0 0 1-.19-.2.19.19 0 0 1 .19-.19h2.12a.19.19 0 0 1 .2.19.2.2 0 0 1-.2.2zm-.12 1.27H140a.2.2 0 0 1-.19-.2.2.2 0 0 1 .19-.19h2.12a.2.2 0 1 1 0 .39zm-.25 1.27h-2.12a.19.19 0 0 1-.19-.19.19.19 0 0 1 .19-.2h2.12a.2.2 0 1 1 0 .39zm-.16 1.27h-2.12a.19.19 0 0 1-.2-.19.2.2 0 0 1 .2-.2h2.12a.19.19 0 0 1 .19.2.18.18 0 0 1-.19.19zm-.23 1.28h-2.12a.2.2 0 0 1-.19-.2.19.19 0 0 1 .19-.19h2.12a.19.19 0 0 1 .2.19.2.2 0 0 1-.2.2zm-.19 1.27h-2.12a.2.2 0 0 1-.2-.2.19.19 0 0 1 .2-.19h2.12a.18.18 0 0 1 .19.19.19.19 0 0 1-.19.2zm-.26 1.27h-2.1a.2.2 0 1 1 0-.39h2.1a.19.19 0 0 1 .19.2.19.19 0 0 1-.19.19zm-.22 1.27h-2.12a.18.18 0 0 1-.19-.19.19.19 0 0 1 .19-.2h2.12a.2.2 0 0 1 .2.2.19.19 0 0 1-.2.19z"/></g><path d="M148.55 285.53h-4.35a.19.19 0 0 1-.2-.19.2.2 0 0 1 .2-.2h4.35a.2.2 0 0 1 .19.2.19.19 0 0 1-.19.19z" class="E"/><path d="M161 285.53h-11.3a.19.19 0 0 1-.19-.19.2.2 0 0 1 .19-.2H161a.19.19 0 0 1 .19.2.18.18 0 0 1-.19.19z" class="B"/><g class="D B"><path d="M166.21 285.53h-3.28a.19.19 0 0 1-.2-.19.2.2 0 0 1 .2-.2h3.28a.2.2 0 0 1 .2.2.19.19 0 0 1-.2.19z"/></g><g class="D B"><path d="M155.94 286.81h-11.36a.2.2 0 0 1-.2-.2.19.19 0 0 1 .2-.19h11.36a.19.19 0 0 1 .2.19.2.2 0 0 1-.2.2z"/></g><path d="M167.57 286.81H157a.19.19 0 0 1-.19-.2.18.18 0 0 1 .19-.19h10.59a.19.19 0 0 1 .2.19.2.2 0 0 1-.22.2z" class="E"/><path d="M151.19,288.08h-6.73a.2.2,0,1,1,0-.39h6.73a.2.2,0,1,1,0,.39Z" class="B"/><path d="M159.21,288.08h-6.63a.19.19,0,0,1-.19-.2.19.19,0,0,1,.19-.19h6.63a.2.2,0,1,1,0,.39Z" class="E"/><g class="B"><path d="M167.45 288.08h-7.16a.2.2 0 0 1-.19-.2.2.2 0 0 1 .19-.19h7.16a.2.2 0 1 1 0 .39zm-15.88 1.27h-4a.2.2 0 0 1-.19-.19.2.2 0 0 1 .19-.2h4a.2.2 0 0 1 .19.2.2.2 0 0 1-.19.19zm5.72 0h-4.41a.2.2 0 1 1 0-.39h4.41a.19.19 0 0 1 .19.2.19.19 0 0 1-.19.19z"/><g class="D"><path d="M165.44,289.35h-7.15a.19.19,0,0,1-.19-.19.19.19,0,0,1,.19-.2h7.15a.2.2,0,1,1,0,.39Z"/></g><g class="D"><path d="M149.48 290.62h-5.43a.19.19 0 0 1-.2-.19.2.2 0 0 1 .2-.2h5.43a.2.2 0 0 1 .2.2.19.19 0 0 1-.2.19z"/></g></g><path d="M149.94 291.9h-6.12a.19.19 0 0 1-.19-.2.18.18 0 0 1 .19-.19h6.12a.18.18 0 0 1 .19.19.19.19 0 0 1-.19.2z" class="E"/><g class="B"><path d="M160.16 291.9h-9.22c1.1 0 1-.09 1-.2a.19.19 0 0 1 .2-.19h9.22a.19.19 0 0 1 .19.19c.01.11-.08.2-1.39.2z"/><path d="M166.81 291.9h-5.54a.2.2 0 0 1-.19-.2.19.19 0 0 1 .19-.19h5.54a.19.19 0 0 1 .2.19.2.2 0 0 1-.2.2z"/><g class="D"><path d="M149.08 293.17h-3.51a.2.2 0 0 1-.19-.2.19.19 0 0 1 .19-.19h3.51a.19.19 0 0 1 .19.19.2.2 0 0 1-.19.2z"/></g><g class="D"><path d="M157 293.17h-6.72a.19.19 0 0 1-.19-.2.18.18 0 0 1 .19-.19H157a.18.18 0 0 1 .19.19.19.19 0 0 1-.19.2z"/></g><path d="M164.86 293.17h-6.56c1.3 0 1.21-.09 1.21-.2a.19.19 0 0 1 .2-.19h6.56a.19.19 0 0 1 .19.19c0 .11-.09.2-1.6.2zm-13.45 1.27h-4.12a.2.2 0 1 1 0-.39h4.12a.2.2 0 1 1 0 .39z"/><g class="D"><path d="M156.2 294.44h-3.94a.2.2 0 0 1-.19-.19.2.2 0 0 1 .19-.2h3.94a.2.2 0 0 1 .19.2.2.2 0 0 1-.19.19z"/></g></g><path d="M164.62,294.44h-7.19a.19.19,0,0,1-.19-.19.19.19,0,0,1,.19-.2h7.19a.2.2,0,1,1,0,.39Z" class="E"/><g class="D B"><path d="M152.1 295.71h-5a.19.19 0 0 1-.2-.19.2.2 0 0 1 .2-.2h5a.2.2 0 0 1 .19.2.19.19 0 0 1-.19.19z"/></g><path d="M143.74 280.96l-3.08 20.49h-3.43l3.48-20.49h3.03z" class="C I"/><use xlink:href="#N" class="E"/><use xlink:href="#N" class="C H"/><use xlink:href="#O" class="E"/><use xlink:href="#O" opacity=".5" class="C"/><use xlink:href="#P" class="E"/><use xlink:href="#P" class="C D"/><use xlink:href="#Q" class="B"/><g class="C"><use xlink:href="#Q" class="H"/><path d="M275.11 280.76l-3.08 20.49h-3.43l3.48-20.49h3.03z" class="I"/><path d="M272.7 283.07l-.5.18.5.18v.19l-.71-.27v-.2l.71-.27zm.54-.56h.21l-.5 1.42h-.21zm.95.64v.2l-.71.27v-.19l.5-.18-.5-.18v-.19z"/></g><g class="D"><path d="M273.86 285.22h-2a.19.19 0 0 1-.19-.19.18.18 0 0 1 .19-.19h2a.18.18 0 0 1 .19.19.19.19 0 0 1-.19.19zm-.2 1.22h-2a.19.19 0 1 1 0-.37h2a.18.18 0 0 1 .19.18.18.18 0 0 1-.19.19zm-.12 1.23h-2.05a.19.19 0 0 1 0-.38h2.05a.19.19 0 0 1 0 .38zm-.25 1.22h-2a.19.19 0 1 1 0-.37h2a.18.18 0 0 1 .19.19.18.18 0 0 1-.19.18zm-.1 1.23h-2.05a.19.19 0 1 1 0-.37h2.05a.18.18 0 0 1 .18.18.18.18 0 0 1-.18.19zm-.19 1.23h-2.05a.19.19 0 0 1 0-.38H273a.19.19 0 1 1 0 .38zm-.17 1.22h-2a.19.19 0 1 1 0-.37h2a.18.18 0 0 1 .19.19.18.18 0 0 1-.19.18zm-.21 1.23h-2a.19.19 0 0 1-.19-.19.2.2 0 0 1 .19-.19h2a.19.19 0 0 1 .19.19.18.18 0 0 1-.19.19zm-.27 1.2h-2a.19.19 0 0 1-.19-.19.18.18 0 0 1 .19-.19h2a.18.18 0 0 1 .19.19.19.19 0 0 1-.19.19z"/></g><path d="M278.88 291.33h-4.2a.19.19 0 0 1-.18-.19.18.18 0 0 1 .18-.19h4.2a.19.19 0 0 1 .19.19.2.2 0 0 1-.19.19zm.89-6.11h-4.19a.19.19 0 0 1-.19-.19.18.18 0 0 1 .19-.19h4.19a.19.19 0 0 1 .19.19.2.2 0 0 1-.19.19z" class="E"/><path d="M290.92 291.33H280a.2.2 0 0 1-.19-.19.19.19 0 0 1 .19-.14h10.93a.18.18 0 0 1 .18.19.19.19 0 0 1-.19.14z" class="B"/><g class="D B"><path d="M293,286.44h-3.16a.18.18,0,0,1-.19-.19.18.18,0,0,1,.19-.18H293a.19.19,0,1,1,0,.37Z"/></g><path d="M281.65,292.57h-6.49a.19.19,0,1,1,0-.37h6.49a.19.19,0,1,1,0,.37Z" class="B"/><path d="M289.38,292.57H283a.18.18,0,0,1-.19-.18.18.18,0,0,1,.19-.19h6.39a.19.19,0,1,1,0,.37Z" class="E"/><path d="M297.32,292.57h-6.9a.19.19,0,1,1,0-.37h6.9a.19.19,0,1,1,0,.37Z" class="B"/><g class="D B"><path d="M282 293.8h-3.89a.19.19 0 0 1-.19-.19.2.2 0 0 1 .19-.19H282a.19.19 0 0 1 .19.19.18.18 0 0 1-.19.19z"/></g><path d="M287.49 293.8h-4.25a.18.18 0 0 1-.19-.19.19.19 0 0 1 .19-.19h4.25a.2.2 0 0 1 .19.19.19.19 0 0 1-.19.19z" class="B"/><g class="D B"><path d="M295.35 293.8h-6.89a.18.18 0 0 1-.19-.19.19.19 0 0 1 .19-.19h6.89a.2.2 0 0 1 .19.19.19.19 0 0 1-.19.19z"/></g><g class="D B"><path d="M281.18 286.44h-5.24a.18.18 0 0 1-.18-.19.18.18 0 0 1 .18-.18h5.24a.18.18 0 0 1 .19.18.18.18 0 0 1-.19.19z"/></g><path d="M281.71,287.67h-5.89a.19.19,0,0,1,0-.38h5.89a.19.19,0,0,1,0,.38Z" class="E"/><g class="D B"><path d="M291.56,287.67h-8.88a.19.19,0,0,1,0-.38h8.88a.19.19,0,0,1,0,.38Z"/></g><g class="B"><path d="M297.25 285.22h-8.89a.19.19 0 0 1-.18-.19.18.18 0 0 1 .18-.19h8.89a.18.18 0 0 1 .18.19.19.19 0 0 1-.18.19zm.75 2.45h-5.33a.19.19 0 0 1 0-.38H298a.19.19 0 0 1 0 .38z"/><g class="D"><path d="M280.83,288.89h-3.38a.18.18,0,0,1-.18-.18.18.18,0,0,1,.18-.19h3.38a.19.19,0,1,1,0,.37Z"/></g><g class="D"><path d="M288.45 288.89H282a.19.19 0 1 1 0-.37h6.47a.18.18 0 0 1 .19.19.18.18 0 0 1-.21.18z"/></g><g class="D"><path d="M287.3 285.22h-6.47a.2.2 0 0 1-.19-.19.19.19 0 0 1 .19-.19h6.47a.18.18 0 0 1 .19.19.19.19 0 0 1-.19.19z"/></g><path d="M296 288.89h-6.32a.18.18 0 0 1-.19-.18.18.18 0 0 1 .19-.19H296a.19.19 0 1 1 0 .37zm-7.25-2.45h-6.32a.18.18 0 0 1-.19-.19.18.18 0 0 1 .19-.18h6.32a.19.19 0 1 1 0 .37zm-5.55 3.68h-4a.18.18 0 0 1-.19-.19.18.18 0 0 1 .19-.18h4a.18.18 0 0 1 .19.18.18.18 0 0 1-.19.19z"/><g class="D"><path d="M287.81 290.12H284a.19.19 0 1 1 0-.37h3.79a.18.18 0 0 1 .19.18.18.18 0 0 1-.17.19z"/></g></g><path d="M295.93 290.12H289a.19.19 0 1 1 0-.37h6.93a.18.18 0 0 1 .19.18.18.18 0 0 1-.19.19z" class="E"/><g class="D B"><path d="M283.25 295h-4.86a.2.2 0 0 1-.19-.19.19.19 0 0 1 .19-.19h4.86a.18.18 0 0 1 .19.19.19.19 0 0 1-.19.19z"/></g><use xlink:href="#R" class="E"/><use xlink:href="#R" class="C H"/><use xlink:href="#S" class="E"/><use xlink:href="#S" opacity=".5" class="C"/><g class="K"><path d="M338 193.74l2.14 1.68a3.17 3.17 0 0 1 1.21 2.64l-.23 4.78a5.91 5.91 0 0 1-2.7 4.69l-1 .64c-3.74-2.54-5.91-8-5.91-8l-.79-1.51a2.64 2.64 0 0 1 1-3.6l3-1.61a3 3 0 0 1 3.28.29z"/><path d="M379.79 208.05l-.15.33-.11.25-.22.45-.44.83-.91 1.56-2 2.87a46 46 0 0 1-4.53 5.09l-2.48 2.28-2.61 2.09a58.78 58.78 0 0 1-5.48 3.73l-.23.14a3.34 3.34 0 0 1-.57.28 8.89 8.89 0 0 1-3.49.53 10 10 0 0 1-3-.62 15.51 15.51 0 0 1-4.25-2.44 26.4 26.4 0 0 1-3.12-2.89l-2.6-3.05-2.28-3.17-2.06-3.25-1.88-3.32-.87-1.7-.83-1.75a2.35 2.35 0 0 1 4-2.4l.05.06 1.08 1.4 1.12 1.42 2.27 2.79 2.34 2.69 2.41 2.54 2.47 2.31A22.53 22.53 0 0 0 354 219a7.78 7.78 0 0 0 2.22 1 1.76 1.76 0 0 0 .63.06c.11 0 .12-.06.13-.08l-.8.42 4.51-3.62 2.11-1.93 2-2 .94-1 .93-1.05 1.72-2.17 1.55-2.23.67-1.1.3-.53.13-.24.06-.1h0 0 0a4.73 4.73 0 1 1 8.72 3.68z"/></g><path d="M319.99 139.52l.82-.24 17.89 59.42-1.3.39-17.41-59.57z" class="B"/><path d="M319.99 139.52l.82-.24 17.89 59.42-1.3.39-17.41-59.57z" class="C G"/><path d="M359.9 217.44l6.44 6.37 2.61-2.1-7.35-6.02-1.7 1.75z" class="D"/><g class="B"><path d="M388.42 203.11a120.3 120.3 0 0 0-6.4 31.21l1.24 4.53c.94-1.39 2.5-2.89 3.55-4.27.57-14.24 1.89-27.93 3.05-31.32z"/><path d="M388.36 205.3l-1.03-3.5 2.53-.89 1.76 1.26-3.26 3.13z"/></g><g class="C"><path d="M389.86 200.91l3.2 4.38c2.92-1.26 9.81-4.69 9.86-8.41a3.7 3.7 0 0 0-1.64-1.87 40.27 40.27 0 0 1-11.42 5.9z"/><path d="M389.86 200.91a19.65 19.65 0 0 0-4 3.76c-1.9-1.58-.18-8.34.64-9a4.77 4.77 0 0 1 2.82-.68s-2.61 4.86.54 5.92z"/></g><path d="M364.94 411.16l-6.58-.9.91-16.08 6.57.91-.9 16.07z" fill="#ebb376"/><path d="M365.84 395.09l-6.57-.91-.57 9.97h6.63l.51-9.06z" class="D"/><path d="M357.86 409.47l7.43-.47a.48.48 0 0 1 .52.42h0l.73 5.86a1.18 1.18 0 0 1-1.08 1.25l-7.12.22a61.17 61.17 0 0 1-8.73.28c-2.77-.27-2.43-3-1.23-3.13a18.31 18.31 0 0 0 8.37-4 1.83 1.83 0 0 1 1.11-.43z" class="B"/><path d="M357.7 410.27h0c0-.11-.11-2-.8-2.58a1 1 0 0 0-.74-.18.64.64 0 0 0-.56.51 2.34 2.34 0 0 0 .65 1.51 2.74 2.74 0 0 0-1.84-.34.59.59 0 0 0-.33.46.82.82 0 0 0 .24.85 1.76 1.76 0 0 0 1.26.25 7.8 7.8 0 0 0 1.73-.34.06.06 0 0 0 .06 0s.15 0 .16-.06h.14zm-1.83-2.2c0-.09.06-.2.28-.24h.08a.49.49 0 0 1 .34.12 3.42 3.42 0 0 1 .56 2l-.14-.08a3.18 3.18 0 0 1-1.12-1.8zm-1.35 2.19a.54.54 0 0 1-.14-.54.28.28 0 0 1 .16-.23c.42-.19 1.55.29 2.35.73-1.17.31-2.04.33-2.37.04z" class="E"/><path d="M413.38 411.16l-6.58-.9-.91-15.64 6.57.91.92 15.63z" fill="#ebb376"/><path d="M412.46 395.53l-6.57-.9.55 9.52h6.53l-.51-8.62z" class="D"/><path d="M406.3 409.47l7.44-.47a.47.47 0 0 1 .51.42h0l.72 5.86a1.18 1.18 0 0 1-1.08 1.25l-7.11.22a61.37 61.37 0 0 1-8.74.28c-2.77-.27-2.43-3-1.23-3.13a18.26 18.26 0 0 0 8.37-4 1.83 1.83 0 0 1 1.12-.43z" class="B"/><g class="E"><path d="M406.14 410.27h0c0-.11-.11-2-.8-2.58a1 1 0 0 0-.74-.18.64.64 0 0 0-.56.51 2.34 2.34 0 0 0 .65 1.51 2.72 2.72 0 0 0-1.83-.34.6.6 0 0 0-.34.46.82.82 0 0 0 .24.85 1.78 1.78 0 0 0 1.27.25 7.82 7.82 0 0 0 1.72-.34.06.06 0 0 0 .06 0s.16 0 .17-.06h.13zm-1.82-2.2c0-.09.06-.2.27-.24h.08a.47.47 0 0 1 .34.12 3.42 3.42 0 0 1 .56 2l-.14-.08a3.1 3.1 0 0 1-1.11-1.8zm-1.32 2.19a.56.56 0 0 1-.14-.54.28.28 0 0 1 .16-.23c.42-.19 1.56.29 2.36.73-1.21.31-2.08.33-2.38.04zm-6.5-152.55v25.66c-7.91 21.11-20 56-22.05 67.38s-1.55 25.31-5.28 50.55l-13 .31s-.9-28.85 1-50 17.83-93.9 17.83-93.9z"/><path d="M412.89,257.71c1.51,11.39-3.71,87.49-2.41,98.08S413.32,376,415,401.61h-12.2s-6.36-24.28-9.63-45.55-5.15-77.65-3-98.35Z"/></g><path d="M383.9 318.73l1.57-16.65c.33-4.82 3.5-18.16 3.5-18.16l.54 18.7zm28.1-94.59c-.5-4.81-1.21-11.41-2.07-15.45a36.55 36.55 0 0 0 3.06 2.42" class="D"/><use xlink:href="#T" class="E"/><use xlink:href="#T" class="C H"/><path d="M378.31 213.06c-3.37 1.8-7.59 7.2-7.84 11.9l1 1s7.86-7.09 12-12.64c-1.09-1.58-1.29-2.32-5.16-.26z" class="D"/><use xlink:href="#U" class="E"/><use xlink:href="#U" class="C H"/><g class="E"><path d="M388.82,203.59c-1,2.86-2.59,5.22-3.77,12.65.46,1.56,1,3.13,1.6,4.69q1.35-2.28,2.86-4.55c.53-7.17-.17-9.07.84-12.71Z"/><path d="M388.89 205.9l-1.3-3.61 2.6-1.1 1.94 1.22-3.24 3.49z"/></g><path d="M406 196.66a124.65 124.65 0 0 0-19.33 24.27c-3.22-8.3-4.36-16.48-2.88-24.48a76.92 76.92 0 0 0-8.19 1.52s-8.55 21.48-.72 61.83l38.32.56c.14-2.92-.66-11.46-.8-22.72-.06-4.81 0-10.11.32-15.69a159.34 159.34 0 0 1 3-23.74s-4.58-1-9.72-1.55z" class="B"/><g class="C"><path d="M390.19 201.19l3.65 4.4c3-1.51 10-5.56 9.84-9.46a3.91 3.91 0 0 0-1.85-1.87 42.34 42.34 0 0 1-11.64 6.93z"/><path d="M390.19 201.19a20.94 20.94 0 0 0-3.95 4.21c-2.1-1.54-.72-8.76.11-9.55a5 5 0 0 1 2.92-.9s-2.46 5.32.92 6.24z"/></g><g class="K"><path d="M420.19 203.77l3.21 7.1 2.79 7.25 2.3 7.6a41.23 41.23 0 0 1 1.35 8.48 20.43 20.43 0 0 1-.08 2.55 14.14 14.14 0 0 1-.23 1.46l-.2.8-.13.42-.18.5a9.28 9.28 0 0 1-2.23 3.23 11.77 11.77 0 0 1-2.57 1.79 18.53 18.53 0 0 1-4.67 1.58 33 33 0 0 1-4.26.56 60.38 60.38 0 0 1-15.8-1.28l.48-5.35 3.62-.27 3.61-.36a70.33 70.33 0 0 0 7-1.09 25.43 25.43 0 0 0 3.11-.87 9 9 0 0 0 2.32-1.1 1.66 1.66 0 0 0 .45-.43c0-.08-.07 0-.16.13v.06-.12-.41a9 9 0 0 0-.07-1.19 35.91 35.91 0 0 0-1.43-6.26l-2.34-6.69c-1.7-4.46-3.66-9-5.62-13.35z"/><path d="M401.75,240.36l-6-4.14-1.54,9.06s5.85,2.38,7.44-.61Z"/><path d="M389.85 236.56l-.93 7.55 5.33 1.17 1.54-9.06-5.94.34zm9.92-56.71c-.77 4.43-1.46 12.54 1.69 15.42 0 0-4 6.09-10.58 6.37-5.66.25-3.15-6.07-3.15-6.07 4.91-1.29 4.7-4.94 3.77-8.35z"/></g><path d="M396.4 182.85l-4.9 4.37a14.2 14.2 0 0 1 .48 2.42c1.88-.31 5.92-4.32 6.08-6.29.09-.8-1.46.28-1.66-.5z" class="D"/><path d="M388.39 163.3c3.12 2.11 1.7 5.69-5.34 11.29-2.86-3.71-3.33-10.91-1.06-12.72s3.69-.4 6.4 1.43z" class="B"/><path d="M401.78,169.1c-.34,7.6-.16,12.06-3.92,16-5.67,6-15.11,2.64-17.05-4.91-1.74-6.79-.9-18.09,6.48-21.23a10.39,10.39,0,0,1,14.49,10.11Z" class="K"/><path d="M390.47 171.37c0 .62-.31 1.13-.72 1.13s-.73-.48-.74-1.1.3-1.12.7-1.14.71.5.76 1.11zm-7.03.13c0 .62-.31 1.12-.71 1.13s-.75-.48-.76-1.11.31-1.12.72-1.13.74.49.75 1.11z" class="B"/><path d="M385.74,171.75a22.19,22.19,0,0,1-2.87,5.34,3.58,3.58,0,0,0,3,.5Z" fill="#d08245"/><path d="M392.35 169.12a.37.37 0 0 0 .23-.05.37.37 0 0 0 .07-.51 3.57 3.57 0 0 0-3-1.45.35.35 0 0 0-.34.36h0a.37.37 0 0 0 .39.33h0a2.86 2.86 0 0 1 2.34 1.17.36.36 0 0 0 .31.15zm-12.15.06a.36.36 0 0 0 .33-.21 2.85 2.85 0 0 1 2-1.67.38.38 0 0 0 .31-.42.37.37 0 0 0-.4-.31 3.62 3.62 0 0 0-2.58 2.1.37.37 0 0 0 .17.48h0zm18.44-6.77c-3.54 1.28-3 5.1 2.42 12.25 3.68-2.9 5.91-9.77 4.14-12.07s-3.48-1.29-6.56-.18z" class="B"/><path d="M405.5 175.11a7.26 7.26 0 0 1-3.37 4.39c-2.21 1.24-3.91-.59-3.81-3 .1-2.17 1.36-5.42 3.82-5.68s3.96 2.02 3.36 4.29z" class="K"/><path d="M385.83,180.44a17.32,17.32,0,0,0,5.71-2.52,4.73,4.73,0,0,1-3.84,5.67Z" class="B"/><path d="M389.07 183.1a4.33 4.33 0 0 0 2.37-2.9 3.33 3.33 0 0 0-2 1 2.44 2.44 0 0 0-.37 1.9z" fill="#de5753"/><g class="B"><use xlink:href="#V"/><use xlink:href="#V" x="6.82"/><path d="M384.68 170.85h1.96v.85h-1.96zm7.26 0h7.33v.85h-7.33z"/></g><path d="M416.9 224.14l10.05-3.75.92 3.01-10.08 3.31-.89-2.57zm-6.27-3.2l1.75 16.7.2-11.66-1.95-5.04z" class="D"/><use xlink:href="#W" class="E"/><use xlink:href="#W" class="C H"/><path d="M192.85 290.38l-1.05 6.61-5.29 2.18-.26-7.52 6.6-1.27z" class="J"/><path d="M212.12 226.86c.1.52.46.88.8.81s.52-.54.42-1.06-.46-.87-.8-.8-.54.54-.42 1.05z" class="B"/><path d="M212.53,227.75a18.89,18.89,0,0,0,3.36,3.9,3,3,0,0,1-2.37,1Z" fill="#ed847e"/><path d="M209.65 224.39a.3.3 0 0 1-.21-.09.3.3 0 0 1 0-.43 3 3 0 0 1 2.62-1 .3.3 0 0 1 .25.35.31.31 0 0 1-.35.26h0a2.43 2.43 0 0 0-2.07.83.33.33 0 0 1-.24.08z" class="B"/><path d="M197.45,234.1c.94,4.77,1.87,13.5-1.46,16.68,0,0,1.3,4.83,10.15,4.83,9.74,0,4.66-4.83,4.66-4.83-5.32-1.27-5.18-5.21-4.26-8.91Z" class="J"/><path d="M194.06,251.66c-.71-1.32-1.49-2.84.13-3.31,1.78-.52,13.24-1.49,16.61-.51-1,1.84.72,4.1.72,4.1Z" class="B"/><g class="J"><path d="M190.21 262.31l-2.56 4.45-2.51 4.56a158.14 158.14 0 0 0-4.66 9.18l-2 4.63-.12.28v.06a.56.56 0 0 0-.07.13 1.17 1.17 0 0 0-.12.25 1.7 1.7 0 0 0 .11 1 9.73 9.73 0 0 0 2.13 3.24 37.1 37.1 0 0 0 3.46 3.28l-2.08 4.43a21.36 21.36 0 0 1-2.86-1 22.39 22.39 0 0 1-2.71-1.39 15.44 15.44 0 0 1-5-4.63 10.43 10.43 0 0 1-1.56-4.05 9.25 9.25 0 0 1 0-2.41 9.09 9.09 0 0 1 .21-1.18l.14-.58.11-.35 1.85-5.33c1.35-3.48 2.87-6.85 4.53-10.12q1.23-2.46 2.59-4.85c.91-1.61 1.79-3.16 2.83-4.78z"/><path d="M181.59,292.86l4.66-1.21.26,7.52s-3.64.55-5.87-1.68Z"/></g><use xlink:href="#X" class="E"/><use xlink:href="#X" fill="#fafafa" class="F"/><path d="M189.56,263.71c-3.32,3.28-4.4,9.26-4.66,14.46l.54.41a26.67,26.67,0,0,0,6.51-12c.12-.49.23-1,.32-1.45Z" class="D"/><g class="E"><use xlink:href="#Y"/><use xlink:href="#Y" class="F"/></g><path d="M194.73 229.26c1.67 6.24 2.33 10 6.18 12.58 5.8 3.91 13-.58 13.24-7.19.21-6-2.57-15.17-9.27-16.43a8.81 8.81 0 0 0-10.15 11.04z" class="J"/><g class="B"><path d="M197.59 239.44c2.66 1.52 12.34-3.56 10.35-11.25a16.54 16.54 0 0 0 2-3.29c.33-.71.64 3.7.88 2.85a62.09 62.09 0 0 0 .38-8.89c-.42-4.89-3.78-6.76-7.35-5.71-3.15.93-3.06 2.65-3.06 2.65s-14.88 1.75-11.71 7.81c-6.08 6.6 5.2 13.94 8.51 15.83z"/><path d="M189.51 224.11s-1.77-3.07-4.36-1.35c1.22.02 3.22.24 4.36 1.35zm23.35.7s.78-11.25-7.05-11.94a17.62 17.62 0 0 1 7.05 11.94z"/></g><path d="M205.35 229.52a7.27 7.27 0 0 0 2.63 3.89c1.69 1.26 3 0 2.84-1.9-.11-1.73-1.12-4.46-3-5s-2.96 1.14-2.47 3.01z" class="J"/><path d="M220.7 252.59s6.93 7.83.39 56.3h-34.84c-.24-5.35 3.12-31.44-2-56.64a90.21 90.21 0 0 1 11.66-1.47 126.07 126.07 0 0 1 14.81 0 65.13 65.13 0 0 1 9.98 1.81z" class="C F"/><path d="M223.46 269.52l-.13-.11-7.92 1.9c-.45 5.35 5.05 11.75 7.89 14.68a152.59 152.59 0 0 0 .16-16.47z" class="D"/><path d="M224 258.53l3.28 4.93 3.55 4.83a65.65 65.65 0 0 0 7.76 8.66c.68.64 1.38 1.22 2.09 1.77l.53.4a1.21 1.21 0 0 0-.31-.11h-.28a2.91 2.91 0 0 0 1.46-.34 17.22 17.22 0 0 0 2.24-1.16 79.1 79.1 0 0 0 9.37-7.26l3.8 3.07a45 45 0 0 1-8.49 10.44 21.1 21.1 0 0 1-3 2.24 11.91 11.91 0 0 1-4.47 1.66 7.82 7.82 0 0 1-3.39-.29 7.57 7.57 0 0 1-1.73-.79l-.77-.49-2.89-2.07a64.09 64.09 0 0 1-9.55-9.59l-4-5.26-3.62-5.6z" class="J"/><use xlink:href="#Z" class="E"/><use xlink:href="#Z" fill="#fafafa" class="F"/><g class="J"><path d="M252.68,272.1l2.43-7.78,6.37,3.18s-.93,5.67-5.57,6.65Z"/><path d="M257.66 262.16l5.75 1.59-1.93 3.75-6.37-3.18 2.55-2.16z"/></g><path d="M200.8,215.8s-1.23-1.94-4.81-.74a4.06,4.06,0,0,0-2.75,2.57l3.93,2.88Z" class="B"/><path d="M256.41 392.93l1.68 7.91 8.59-1.13-1.25-8.78-9.02 2z" class="L"/><g class="E"><path d="M268.27 399.72a.21.21 0 0 1-.19-.16.2.2 0 0 1 .08-.23c.13-.09 3.1-2.2 4.64-1.93a1.09 1.09 0 0 1 .72.43.8.8 0 0 1 .11.93c-.32.52-1.46.84-2.58.95a16.13 16.13 0 0 1-2.78.01zm.66-.35c1.7 0 4-.2 4.33-.82.05-.08.1-.22-.09-.47a.56.56 0 0 0-.45-.25 1.4 1.4 0 0 0-.41 0 9.92 9.92 0 0 0-3.38 1.54z"/><path d="M268.15 399.72a.2.2 0 0 1-.11-.18c0-.12 0-2.57 1.06-3.63a1.6 1.6 0 0 1 1.15-.48c.59 0 .81.28.85.52.29 1-1.68 3.17-2.71 3.75a.15.15 0 0 1-.09 0 .2.2 0 0 1-.15.02zm2-3.87a1.11 1.11 0 0 0-.72.34 5 5 0 0 0-.92 2.88c1.05-.77 2.32-2.44 2.21-3 0-.06-.07-.21-.45-.2h-.12z"/></g><path d="M267.22 398.55l-9.84 1a.79.79 0 0 0-.71.69l-1 8.18a1.34 1.34 0 0 0 1.42 1.49c3.54-.41 6.68-.91 11.09-1.34 5.22-.51 3.95.24 10.09-.27 3.7-.32 4-4.58 2.37-4.63-7.25-.2-8.2-2.29-11.22-4.58a3.14 3.14 0 0 0-2.2-.54z" class="B"/><path d="M266.09 395.54l-8.98.71-.7-3.32 9.02-2 .66 4.61z" class="D"/><path d="M258.81 327.45l8.48 62.31-13.18 1.03-15.34-61.77 20.04-1.57z" class="E"/><path d="M258.81 327.45l8.48 62.31-13.18 1.03-15.34-61.77 20.04-1.57z" class="I"/><path d="M252.9 389.88l15.88-1.26a3.45 3.45 0 0 1-.13 3.93l-15.33 1.38s-1.52-.88-.42-4.05zm-66.64-80.82s-.91 9-.79 12.23c.68 16.87 16.66 22.82 29.4 20.48l45.26-4.9c1.84 6.13 23.16 39.89 23.16 39.89l11.21-6.44-19.12-47.26c-4.29-11.07-38.29-11.41-51.13-9.13-3.91 1.05-3.15-5-3.15-5z" class="E"/><path d="M286.15 377.38l4.28 7.14 7.99-3.98-4.16-8.12-8.11 4.96z" class="L"/><g class="E"><path d="M300 380a.21.21 0 0 1-.23-.09.2.2 0 0 1 0-.25c.09-.13 2.28-3.17 3.87-3.43a1.11 1.11 0 0 1 .85.18.82.82 0 0 1 .41.86c-.14.62-1.14 1.31-2.19 1.79a16.09 16.09 0 0 1-2.71.94zm.53-.56c1.67-.53 3.8-1.52 3.94-2.25 0-.1 0-.24-.24-.42a.6.6 0 0 0-.52-.1 1.48 1.48 0 0 0-.41.12 10.27 10.27 0 0 0-2.81 2.67z"/><path d="M299.85 380.06a.2.2 0 0 1-.17-.14c0-.11-.86-2.5-.18-3.88a1.62 1.62 0 0 1 1-.85c.58-.2.88 0 1 .22.62.87-.58 3.64-1.38 4.55a.13.13 0 0 1-.09.05.2.2 0 0 1-.18.05zm.65-4.43a1.11 1.11 0 0 0-.58.57 5.16 5.16 0 0 0 .06 3.11c.77-1.1 1.45-3.15 1.13-3.7 0-.05-.13-.18-.5-.05l-.11.07z"/></g><path d="M298.56 379.23l-9.26 4.24a.83.83 0 0 0-.46.91l1.77 8.29a1.37 1.37 0 0 0 1.61 1.06 1.31 1.31 0 0 0 .28-.09c3.31-1.58 6.19-3.12 10.34-5 4.9-2.24 3.93-1.09 9.73-3.64 3.49-1.54 2.32-5.78.76-5.3-7.12 2.23-8.75.52-12.46-.7a3.24 3.24 0 0 0-2.31.23z" class="B"/><path d="M288.33 381.01l-2.18-3.63 8.11-4.96 2.01 3.92-7.94 4.67z" class="D"/><path d="M281.51 377.34l13.9-8.67a3.53 3.53 0 0 1 1.75 3.64l-13.35 8.53s-1.81-.08-2.3-3.5z" class="E"/><use xlink:href="#a" class="B"/><use xlink:href="#a" class="C G"/><path d="M206.99 345.34l.27 12h6.51l.27-12h-7.05z" class="D"/><path d="M184.95 416.76l3.75-70.59h6.12l-5.24 70.59h-4.63z" class="B"/><path d="M189.59 416.76h-4.64l3.41-64.89.33-5.78h6.13l-.47 5.78-4.76 64.89z" class="C G"/><path d="M194.82 346.09l-.47 6h-5.99l.33-6h6.13z" class="D"/><path d="M231.45 416.76l-5.25-70.59h6.13l3.75 70.59h-4.63z" class="B"/><path d="M231.44 416.76l-4.76-64.89-.47-5.78h6.12l.34 5.78 3.4 64.89h-4.63z" class="C G"/><path d="M226.21 346.09l.47 6h5.99l-.34-6h-6.12z" class="D"/><g class="B"><path d="M235.62 348.36h-50.2 0v-4.54a4.23 4.23 0 0 1 4.23-4.23h41.74a4.23 4.23 0 0 1 4.23 4.23v4.54h0z"/><rect x="183.01" y="343.97" width="55.01" height="4.38" rx="1.7" transform="matrix(-1 0 0 -1 421.03 692.33)"/></g><rect x="183.01" y="343.97" width="55.01" height="4.38" rx="1.7" transform="matrix(-1 0 0 -1 421.03 692.33)" class="C F"/><path d="M179.35 291.14h3.24l9 52.83h-3.23l-9.01-52.83zm24.01 0h3.23l9 52.83h-3.23l-9-52.83z" class="B"/><g class="C"><path d="M179.35 291.14h3.24l9 52.83h-3.23l-9.01-52.83zm24.01 0h3.23l9 52.83h-3.23l-9-52.83z" class="G"/></g><path d="M209.56 301.18h-29.81a4.46 4.46 0 0 1-4.22-4.15l-3-12.95c-.33-2.84 1.65-5.36 4.22-5.36h29.8a4.45 4.45 0 0 1 4.22 4.15l3.05 12.95c.28 2.85-1.7 5.36-4.26 5.36z" class="B"/><rect x="211.14" y="343.9" width="26.76" height="4.38" rx="1.7" transform="matrix(-1 0 0 -1 449.04 692.18)" class="C F"/><path d="M130.71 395.68l1.63 7.66 8.32-1.09-1.21-8.5-8.74 1.93z" class="L"/><g class="E"><path d="M142.19 402.26a.22.22 0 0 1-.18-.15.23.23 0 0 1 .08-.23c.13-.09 3-2.12 4.5-1.87a1.14 1.14 0 0 1 .69.42.77.77 0 0 1 .11.9 3.79 3.79 0 0 1-2.5.92 15.22 15.22 0 0 1-2.7.01zm.65-.34c1.64 0 3.84-.19 4.19-.8.05-.07.09-.2-.09-.44a.56.56 0 0 0-.43-.25 1.35 1.35 0 0 0-.4 0 9.57 9.57 0 0 0-3.27 1.49z"/><path d="M142.08 402.26a.21.21 0 0 1-.11-.18c0-.11 0-2.48 1-3.51a1.49 1.49 0 0 1 1.11-.46c.58 0 .78.27.83.5.28 1-1.63 3.07-2.63 3.63a.12.12 0 0 1-.08 0 .2.2 0 0 1-.12.02zm1.93-3.75a1.15 1.15 0 0 0-.69.33 4.89 4.89 0 0 0-.89 2.79c1-.74 2.25-2.36 2.13-2.95 0-.05-.05-.19-.43-.19h-.12z"/></g><path d="M141.18 401.13l-9.52.93a.78.78 0 0 0-.69.68l-1 7.92a1.28 1.28 0 0 0 1.11 1.43h.27c3.43-.4 6.47-.89 10.74-1.3 5-.5 3.83.23 9.77-.26 3.58-.31 3.83-4.43 2.3-4.49-7-.19-7.95-2.21-10.87-4.43a3.06 3.06 0 0 0-2.11-.48z" class="B"/><path d="M140.09 398.22l-8.69.68-.69-3.22 8.74-1.93.64 4.47z" class="D"/><path d="M133.03 332.29l7.43 64.7-9.75 1.12-17.08-64.29 19.4-1.53z" class="B"/><path d="M133.03 332.29l7.43 64.7-9.75 1.12-17.08-64.29 19.4-1.53z" class="I"/><path d="M159.51 380.63l4.14 6.91 7.74-3.85-4.03-7.86-7.85 4.8z" class="L"/><g class="E"><path d="M172.88 383.19a.21.21 0 0 1-.23-.09.21.21 0 0 1 0-.24c.1-.13 2.21-3.08 3.75-3.33a1.13 1.13 0 0 1 .82.18.82.82 0 0 1 .41.84c-.14.59-1.11 1.26-2.13 1.73a15.92 15.92 0 0 1-2.62.91zm.51-.55c1.62-.51 3.68-1.47 3.82-2.17 0-.09 0-.23-.24-.41a.6.6 0 0 0-.5-.1 1.42 1.42 0 0 0-.4.12 10.2 10.2 0 0 0-2.68 2.56z"/><path d="M172.77 383.23a.21.21 0 0 1-.16-.14c0-.11-.83-2.42-.18-3.76a1.54 1.54 0 0 1 .93-.82c.56-.19.85 0 1 .21.6.85-.56 3.53-1.34 4.41a.14.14 0 0 1-.08.05.22.22 0 0 1-.17.05zm.63-4.3a1.09 1.09 0 0 0-.56.56 5 5 0 0 0 .06 3c.74-1.07 1.4-3.05 1.09-3.58 0-.05-.12-.18-.48-.05l-.11.06z"/></g><path d="M171.52 382.43l-9 4.09a.79.79 0 0 0-.44.89l1.71 8a1.32 1.32 0 0 0 1.56 1 1.12 1.12 0 0 0 .26-.08l10-4.86c4.74-2.17 3.8-1 9.41-3.52 3.38-1.49 2.25-5.59.74-5.13-6.9 2.16-8.47.5-12.06-.68a3.11 3.11 0 0 0-2.18.29z" class="B"/><path d="M161.62 384.14l-2.11-3.51 7.85-4.8 1.95 3.8-7.69 4.51z" class="D"/><g class="B"><path d="M68.89 308.6s-6.13 7.92-6.85 17.72c-1.21 16.31 12.63 20.54 28.46 19.84l43.82-4.75c1.77 5.94 25.94 42.1 25.94 42.1l9.05-5.19-20.23-50.28c-4.15-10.72-37.07-11-49.51-8.84-3.77 1-3-4.88-3-4.88zm37.26-57.69c-.14.54 0 1.06.38 1.17s.75-.25.9-.79 0-1-.38-1.16-.76.25-.9.78z"/><path d="M106.88 250.11h1.4s-.94.83-1.4 0z"/></g><path d="M106.46,251.57a15.4,15.4,0,0,0,1,4,2.41,2.41,0,0,1-2-.21Z" fill="#ed847e"/><path d="M107.83,247.55a.39.39,0,0,1-.15-.06,2.78,2.78,0,0,0-2.39-.38.33.33,0,0,1-.43-.18.34.34,0,0,1,.19-.43,3.37,3.37,0,0,1,3,.45.33.33,0,0,1-.21.6Z" class="B"/><g class="J"><path d="M88.63 254.22c.13 4.19-1.66 10.94-4.95 13.08 0 0 2.12 4.52 9.66 6 8.29 1.58 4.66-3.3 4.66-3.3-4.34-2-3.67-5.27-2.37-8.25z"/><path d="M88.52 244.11c-1.35 6.72-2.06 9.52.38 13.9 3.67 6.58 12.22 7 15.55.9 3-5.51 4.7-15.57-1.08-20.1a9.15 9.15 0 0 0-14.85 5.3z"/><path d="M101.36 248.92a6.17 6.17 0 0 0 .89 3.62c.91 1.54 2.18 1.28 2.62 0s.38-3.35-.86-4.48-2.5-.56-2.65.86zm-23.77 27.16l-.09 1.05-.07 1.15-.1 2.32v4.68a63.06 63.06 0 0 0 1 9.24l.42 2a1.2 1.2 0 0 0 .34.68 10 10 0 0 0 3 2.08 50.85 50.85 0 0 0 8.77 3.06l-.32 4.13a33.27 33.27 0 0 1-10.74-1.13 15.33 15.33 0 0 1-5.63-2.84 8.71 8.71 0 0 1-2.49-3.39l-.2-.55-.1-.33-.2-.64-.39-1.3A56 56 0 0 1 69 285.74l-.14-5.32q0-1.34.12-2.67c0-.45 0-.9.1-1.35s.1-.88.18-1.44z"/><path d="M89.19,302.48l7.55-.21-3,4.61s-3.77.84-4.9-1.86Z"/><path d="M98.66 304.32l-.24 3.88-4.73-1.32 3.05-4.61 1.92 2.05z"/></g><g class="E"><path d="M70.06 267.6c-3.41 3.4-2.24 15.4-2.24 15.4l11.87 1.56s3.69-10.48-.23-16.33c-1.95-2.9-6.06-3.97-9.4-.63z"/><use xlink:href="#b"/></g><use xlink:href="#b" class="C D"/><g class="J"><path d="M152.88 297.88l2.39 3.56-3.28 1.44-1.53-4.88 2.42-.12zm-44.35-19.25l3.53 5.4 3.74 5.34 3.92 5.17 2 2.49 1 1.21.53.61.26.29.05.07a4.43 4.43 0 0 0 1.57.86 16.31 16.31 0 0 0 2.65.65 45.12 45.12 0 0 0 6.18.49c4.26.06 8.71-.16 13-.53l.83 4.06a75 75 0 0 1-13.6 2.73 43.21 43.21 0 0 1-7.23.18 23.08 23.08 0 0 1-3.93-.61 11.34 11.34 0 0 1-4.4-2.12c-.19-.15-.38-.33-.56-.5l-.32-.31-.63-.62c-.41-.42-.84-.82-1.23-1.25-.82-.83-1.61-1.69-2.38-2.56-1.55-1.73-3-3.5-4.45-5.33s-2.79-3.67-4.09-5.57-2.55-3.78-3.76-5.87z"/><path d="M145.94,301.61l4.52-3.61,2.33,4.59s-3.79,4.22-6.73,1.45Z"/></g><path d="M101.75 285.51a23.31 23.31 0 0 0 .82 12.12c2.3-7.55 3.61-12.72 4.32-16.25-2.13-.28-4.4.41-5.14 4.13z" class="D"/><path d="M107.13 273.63c4.63 3 7.58 9.75 8.37 13.61L104.75 296s-5.85-13.07-3.93-16.41 4.56-7.1 6.31-5.96zm-37.65 32.92l-1.66 2.23c-.13.18.06.42.38.48l29.12 5.64c.25.05.48 0 .52-.19l.66-2.42c0-.17-.15-.36-.42-.41L70 306.43a.49.49 0 0 0-.52.12z" class="E"/><path d="M72.74 310.41l-.76-.14c-.15 0-.25-.13-.22-.22l.88-3.15c0-.09.17-.14.32-.11l.75.15c.15 0 .26.12.23.22l-.88 3.14c-.06.09-.17.14-.32.11zm19.01 3.73L91 314c-.15 0-.25-.12-.23-.22l.89-3.14c0-.09.17-.14.32-.11l.75.14c.15 0 .25.13.22.22l-.88 3.11a.27.27 0 0 1-.32.14z" class="D"/><path d="M87.4 233.26a8.56 8.56 0 0 0-8 6.51c-1.48 5.08-2.61 11.62-6.15 10.93.79.83 3 1.57 3.55 1-1.84 2.65-2 4.54-1.63 9.18.41 5.79-3 5.09-3 5.09s4.72 5.3 17.12 5.27c11 0 15.55-3.3 16.63-5.56-1.56-.22-4.81-5.05-3.32-8.45s3.53-12.28 2.36-15.5c1.66 1.83 2.31 5.08 2.81 1.61s.38-7-4.37-10.38c-4.19-2.96-14.97-2.96-16 .3z" class="B"/><path d="M89,243c0,3-1.73,5.35-3.86,5.35S81.26,246,81.26,243s1.73-5.34,3.87-5.34S89,240.06,89,243Z" class="E"/><g class="B"><path d="M82.89 234.14c-3.39-2.23-9.68 1.12-12.65 4.15S63 250.83 63 250.83a15.93 15.93 0 0 1-11.17 5s10.89 5 14.36 4.45 6.17-3.82 6.17-3.82c-1.8 3.87-3.88 7.13-6.89 8.35a18.24 18.24 0 0 0 10-5.76c2.38-2.79 2.54-9.46 2.54-9.46s4.09.55 6.45-2.32 1.81-10.89-1.57-13.13z"/><use xlink:href="#a" x="-125.35" y="0.22"/></g><use xlink:href="#a" x="-125.35" y="0.22" class="C G"/><path d="M81.64 345.56l.27 12h6.51l.27-12h-7.05z" class="D"/><path d="M59.6 416.99l3.75-70.6h6.12l-5.24 70.6H59.6z" class="B"/><path d="M64.24 416.99H59.6l3.41-64.9.33-5.78h6.13l-.47 5.78-4.76 64.9z" class="C G"/><path d="M69.47 346.31l-.47 6h-5.99l.33-6h6.13z" class="D"/><path d="M106.1 416.99l-5.25-70.6h6.13l3.75 70.6h-4.63z" class="B"/><path d="M106.09 416.99l-4.76-64.9-.47-5.78h6.12l.34 5.78 3.4 64.9h-4.63z" class="C G"/><path d="M100.86 346.31l.47 6h5.99l-.34-6h-6.12z" class="D"/><g class="B"><path d="M110.27 348.58h-50.2 0v-4.54a4.23 4.23 0 0 1 4.23-4.23h41.74a4.23 4.23 0 0 1 4.23 4.23v4.54h0z"/><rect x="57.66" y="344.19" width="55.01" height="4.38" rx="1.7" transform="matrix(-1 0 0 -1 170.33 692.77)"/></g><rect x="57.66" y="344.19" width="55.01" height="4.38" rx="1.7" transform="matrix(-1 0 0 -1 170.33 692.77)" class="C F"/><path d="M54 291.36h3.24l9 52.83h-3.23L54 291.36zm24.01 0h3.23l9.01 52.83h-3.24l-9-52.83z" class="B"/><g class="C"><path d="M54 291.36h3.24l9 52.83h-3.23L54 291.36zm24.01 0h3.23l9.01 52.83h-3.24l-9-52.83z" class="G"/></g><path d="M84.21 301.41H54.4a4.46 4.46 0 0 1-4.22-4.16l-3-12.95c-.33-2.84 1.65-5.36 4.22-5.36h29.8a4.45 4.45 0 0 1 4.22 4.15l3.05 13c.28 2.8-1.7 5.32-4.26 5.32z" class="B"/><rect x="85.79" y="344.12" width="26.76" height="4.38" rx="1.7" transform="matrix(-1 0 0 -1 198.34 692.62)" class="C F"/><defs ><path id="B" d="M283 383.91L95.26 258a59.36 59.36 0 0 1-14-85.52l63-81.87a59.38 59.38 0 0 1 92.24-2.3L388 266.05a79.68 79.68 0 0 1-16.39 118h0a79.67 79.67 0 0 1-88.61-.14z"/><path id="C" d="M326.14 212.7H271a1.76 1.76 0 0 1-1.76-1.76h0a1.76 1.76 0 0 1 1.76-1.76h55.19a1.76 1.76 0 0 1 1.76 1.76h0a1.76 1.76 0 0 1-1.81 1.76z"/><path id="D" d="M221.7 122.43L219 130h-2.6l-1.4-4.1-1.52 4.1h-2.58l-2.71-7.61h2.52l1.56 4.6 1.62-4.6h2.28l1.57 4.65 1.61-4.65z"/><path id="E" d="M223.92,129.66a3.73,3.73,0,0,1-2.09-3.44,3.74,3.74,0,0,1,2.08-3.42,5.16,5.16,0,0,1,4.43,0,3.71,3.71,0,0,1,1.54,1.39,3.83,3.83,0,0,1,.54,2,3.89,3.89,0,0,1-.54,2,3.8,3.8,0,0,1-1.54,1.4,5,5,0,0,1-4.42,0Zm3.36-2.1a1.89,1.89,0,0,0,.45-1.34,1.85,1.85,0,0,0-.45-1.32,1.63,1.63,0,0,0-2.31,0,1.85,1.85,0,0,0-.45,1.32,1.89,1.89,0,0,0,.45,1.34,1.63,1.63,0,0,0,2.31,0Z"/><path id="F" d="M235.26 122.56a4.14 4.14 0 0 1 1.5-.26v2.4a5 5 0 0 0-.61 0 1.86 1.86 0 0 0-1.34.46 1.89 1.89 0 0 0-.48 1.42V130h-2.67v-7.61h2.54v.91a2.45 2.45 0 0 1 1.06-.74z"/><path id="G" d="M241.31,127.37l-.79.8V130h-2.67V119.62h2.67v5.46l2.73-2.65h3.16l-3.16,3.25,3.43,4.36h-3.23Z"/><path id="H" d="M248.11 130a5.15 5.15 0 0 1-1.49-.57l.8-1.83a4.54 4.54 0 0 0 1.24.52 5.77 5.77 0 0 0 1.42.19 2.26 2.26 0 0 0 .92-.14.42.42 0 0 0 .27-.38q0-.26-.33-.36a7.27 7.27 0 0 0-1.05-.21 10 10 0 0 1-1.55-.29 2.4 2.4 0 0 1-1.1-.68 1.89 1.89 0 0 1-.46-1.37 2.07 2.07 0 0 1 .43-1.3 2.86 2.86 0 0 1 1.27-.9 5.48 5.48 0 0 1 2-.33 8.32 8.32 0 0 1 1.65.17 4.6 4.6 0 0 1 1.36.48l-.8 1.81a4.38 4.38 0 0 0-2.19-.56 2.21 2.21 0 0 0-.93.14.43.43 0 0 0-.29.39c0 .18.1.3.32.37a7.88 7.88 0 0 0 1.07.22 12.07 12.07 0 0 1 1.56.32 2.37 2.37 0 0 1 1.07.67 1.91 1.91 0 0 1 .46 1.36 2.07 2.07 0 0 1-.44 1.28 2.8 2.8 0 0 1-1.28.89 5.68 5.68 0 0 1-2 .33 8.47 8.47 0 0 1-1.93-.22z"/><path id="I" d="M262.15 123.14a3.38 3.38 0 0 1 .86 2.54V130h-2.66v-3.92c0-1-.42-1.56-1.25-1.56a1.45 1.45 0 0 0-1.1.48 2 2 0 0 0-.41 1.35V130h-2.67v-10.38h2.67v3.51a2.94 2.94 0 0 1 1-.62 3.8 3.8 0 0 1 1.27-.21 3.14 3.14 0 0 1 2.29.84z"/><path id="J" d="M266.41,129.66a3.78,3.78,0,0,1-2.09-3.44,3.78,3.78,0,0,1,2.09-3.42,4.83,4.83,0,0,1,2.21-.5,4.9,4.9,0,0,1,2.22.5,3.68,3.68,0,0,1,1.53,1.39,3.74,3.74,0,0,1,.55,2,3.75,3.75,0,0,1-2.08,3.44,5.07,5.07,0,0,1-4.43,0Zm3.36-2.1a1.89,1.89,0,0,0,.45-1.34,1.85,1.85,0,0,0-.45-1.32,1.62,1.62,0,0,0-2.3,0,1.85,1.85,0,0,0-.45,1.32,1.89,1.89,0,0,0,.45,1.34,1.62,1.62,0,0,0,2.3,0Z"/><path id="K" d="M280.83 122.78a3.58 3.58 0 0 1 1.35 1.38 4.12 4.12 0 0 1 .5 2.07 4.07 4.07 0 0 1-.5 2.07 3.45 3.45 0 0 1-1.35 1.38 3.74 3.74 0 0 1-1.88.49 2.85 2.85 0 0 1-2.13-.81v3.41h-2.67v-10.34h2.55v.75a2.76 2.76 0 0 1 2.25-.88 3.73 3.73 0 0 1 1.88.48zm-1.29 4.78a2.23 2.23 0 0 0 0-2.66 1.52 1.52 0 0 0-1.16-.48 1.5 1.5 0 0 0-1.15.48 2.19 2.19 0 0 0 0 2.66 1.5 1.5 0 0 0 1.15.48 1.52 1.52 0 0 0 1.16-.48z"/><path id="L" d="M135.3 304.93h32.5a1.84 1.84 0 0 0 1.77-1.55l3.28-23.38a1.32 1.32 0 0 0-1.33-1.56H139a1.86 1.86 0 0 0-1.78 1.56L134 303.38a1.32 1.32 0 0 0 1.3 1.55z"/><path id="M" d="M137.48 301.45l28.88-.14a1.71 1.71 0 0 0 1.64-1.43l2.56-17.62a1.21 1.21 0 0 0-1.23-1.43l-28.88.13a1.7 1.7 0 0 0-1.63 1.43L136.25 300a1.22 1.22 0 0 0 1.23 1.45z"/><path id="N" d="M115.64 304.83H155a1.09 1.09 0 0 0 1.09-1.09h0a1.09 1.09 0 0 0-1.09-1.1h-39.36a1.09 1.09 0 0 0-1.09 1.1h0a1.09 1.09 0 0 0 1.09 1.09z"/><path id="O" d="M146.68 304.83h21a1.09 1.09 0 0 0 1.09-1.09h0a1.09 1.09 0 0 0-1.09-1.1h-21a1.1 1.1 0 0 0-1.1 1.1h0a1.09 1.09 0 0 0 1.1 1.09z"/><path id="P" d="M266.67 304.74h32.5a1.85 1.85 0 0 0 1.77-1.56l3.28-23.34a1.32 1.32 0 0 0-1.34-1.55h-32.49a1.85 1.85 0 0 0-1.78 1.55l-3.28 23.34a1.33 1.33 0 0 0 1.34 1.56z"/><path id="Q" d="M268.85 301.25l28.88-.13a1.73 1.73 0 0 0 1.64-1.44l2.56-17.62a1.21 1.21 0 0 0-1.23-1.43l-28.88.13a1.7 1.7 0 0 0-1.63 1.43l-2.57 17.63a1.21 1.21 0 0 0 1.23 1.43z"/><path id="R" d="M246.71 304.83h39.34a1.09 1.09 0 0 0 1.09-1.09h0a1.09 1.09 0 0 0-1.09-1.1h-39.34a1.09 1.09 0 0 0-1.09 1.1h0a1.09 1.09 0 0 0 1.09 1.09z"/><path id="S" d="M277.74 304.83h21a1.09 1.09 0 0 0 1.09-1.09h0a1.09 1.09 0 0 0-1.09-1.1h-21a1.09 1.09 0 0 0-1.09 1.1h0a1.09 1.09 0 0 0 1.09 1.09z"/><path id="T" d="M387.66 204.3c.63 6.84-16.12 21.66-16.12 21.66l-11.72-11.42a86.32 86.32 0 0 1 12.39-13.88c6.88-5.88 14.79-3.86 15.45 3.64z"/><path id="U" d="M415.72 198.21a159.34 159.34 0 0 0-3 23.74c-.31 5.58-.38 10.88-.32 15.69.14 11.26.94 19.8.8 22.72l-38.32-.56c-7.83-40.35.72-61.83.72-61.83a75.46 75.46 0 0 1 9.06-1.63 53.11 53.11 0 0 1 2-.18 140.17 140.17 0 0 1 16.29.24c1 .06 2.07.15 3.08.26 5.11.55 9.69 1.55 9.69 1.55z"/><path id="V" d="M383.67 173.61h-2.85a1.43 1.43 0 0 1-1.43-1.43v-1.81a1.43 1.43 0 0 1 1.43-1.42h2.85a1.43 1.43 0 0 1 1.43 1.42v1.81a1.43 1.43 0 0 1-1.43 1.43zm-2.85-3.81a.58.58 0 0 0-.58.57v1.81a.58.58 0 0 0 .58.58h2.85a.58.58 0 0 0 .58-.58v-1.81a.58.58 0 0 0-.58-.57z"/><path id="W" d="M417.81 198.88c6.24 2.84 11.82 22.54 11.82 22.54l-16.74 5.29a100.89 100.89 0 0 1-5.58-17.2c-1.99-9.46 2.93-14.08 10.5-10.63z"/><path id="X" d="M184.32 252.25c-6.1 1.4-11.14 17-11.14 17l12.26 9.34a26.78 26.78 0 0 0 6.51-12c2.05-8.22-1.38-15.77-7.63-14.34z"/><path id="Y" d="M220.81 252.59s6.94 7.83.39 56.3h-34.84c-.24-5.35 3.12-31.44-2-56.64a90.21 90.21 0 0 1 11.64-1.47 126.07 126.07 0 0 1 14.81 0 64.85 64.85 0 0 1 10 1.81z"/><path id="Z" d="M211.23 262.44c-2.08 8.73 13.72 17.29 13.72 17.29l10.26-12A85.28 85.28 0 0 0 224.73 255c-7.18-6.85-11.91.79-13.5 7.44z"/><path id="a" d="M206.99 345.34l.27 11.68 1.23 59.93h4.05l1.23-59.93.27-11.68h-7.05z"/><path id="b" d="M69.62 308.25l27.77 5.38c13.11-38.62 10-39.87 10-39.87a56.58 56.58 0 0 0-6.3-2.92c-.13-.06-.26-.1-.37-.14-1.78-.65-2.15-.75-4.53-1.44a127.25 127.25 0 0 0-12.61-2.44l-.9-.12c-.85-.11-1.69-.2-2.51-.28-.55-.06-1.1-.09-1.63-.13l-1.79-.1c-3-.15-5.21-.1-5.21-.1 1.56 24.1.4 31.02-1.92 42.16z"/></defs></svg>