<svg xmlns="http://www.w3.org/2000/svg" xmlns:xlink="http://www.w3.org/1999/xlink" width="666.01" height="1052.247" viewBox="0 0 176.215 278.407" xmlns:v="https://vecta.io/nano"><g fill-rule="evenodd"><path d="M.435 80.745h175.692v116.993H.435z" stroke="#231f20" stroke-miterlimit="2.61313" stroke-width=".176"/><path d="M0 201.163h175.589v3.842H0z"/><path d="M14.643 158.658s0-2.846.414-4.346 2.173-10.347 2.173-10.347l-.957-.052.078-4.967s.31-.466 1.552-.828l1.397-.414 6.364-17.694 1.552-3.673-.207-3.311 2.173-.155s2.716-3.492 4.165-4.268 1.526-.621 1.733-.31.621 2.044.233 3.648-.724 2.173-.724 2.173 3.88.517 4.656 3.518 1.087 9.468.983 12.417l-.155 3.828.931.414.259 1.914-1.19 1.293-.828 15.314s-1.035 2.794-1.604 3.053-1.048.207-1.048.207c.005-1.964.432-18.224-1.255-18.134-.556.03-12.417 4.268-12.934 5.303s-4.941 15.935-4.941 15.935zm9.984-22.791s4.915-12.21 5.898-13.659 2.949-2.638 3.622-.828c1.493 4.018.746 9.229 1.293 13.607zm20.26 19.816c.879-3.949 1.823-7.713 2.558-11.719l-.957-.052.078-4.967s.31-.466 1.552-.828l1.397-.414 6.364-17.694c1.293-3.363 1.552-3.673 1.552-3.673l-.207-3.311 2.173-.155s2.716-3.492 4.165-4.268 1.526-.621 1.733-.31.621 2.044.233 3.648-.724 2.173-.724 2.173 3.88.517 4.656 3.518 1.087 9.468.983 12.417l-.155 3.828.931.414.259 1.914-1.19 1.293-.828 15.314s-1.035 2.794-1.604 3.053-1.048.207-1.048.207c.006-1.964.432-18.224-1.255-18.134-.556.03-12.96 3.725-13.477 4.76s-3.906 13.038-3.906 13.038zm9.954-19.816s4.915-12.21 5.898-13.659 2.949-2.638 3.621-.828c1.493 4.018.746 9.229 1.293 13.607zm24.021 19.897s1.293-13.503.75-14.305-2.173-1.242-1.526-2.871.75-1.604 1.682-2.095 1.086-.595 1.086-.595-1.035-20.488.311-22.04 3.725-3.518 7.14-3.104 7.657.517 11.899 3.932 5.018 3.88 5.277 4.915.621 4.811.103 6.622-5.018 4.501-6.467 5.225-7.657 4.087-8.795 4.45-2.949 1.138-2.897 2.276.931 1.863 1.863 2.69 16.038 14.952 16.038 14.952l.311 4.294-1.759.207s-18.988-14.642-19.815-14.797-1.19-.103-1.293.466-.414 9.985-.931 10.14-2.975-.362-2.975-.362zm5.251-34.043s-1.345-1.759-.362-2.639 2.173-1.19 3.363-.931 9.571 1.604 10.347 2.173 1.656 2.018 1.5 3.984-.673 2.794-1.656 3.466-8.278 4.449-8.847 4.76-2.535 1.863-2.535.724c0-1.157 4.241-14.088-.052-12.055-.983.466-1.759.517-1.759.517zm48.71 26.256l1.707.259s-5.336 6.511-10.141 7.709c-20.209 5.039-20.369-27.217-4.863-41.907 1.966-1.863 5.277-4.734 8.718-4.708s4.915.44 5.976 1.785 2.82 3.259 2.302 8.743-1.604 11.486-2.69 13.296-1.656 3.57-2.794 3.932-2.277-.155-2.639-1.759-.259-5.95.259-7.916 1.19-5.084 1.966-5.95c2.327-2.594.55-5.633-2.897-5.381-6.172.452-7.8 4.944-10.399 9.882-1.035 1.966-3.414 7.786-2.613 13.271s2.251 8.64 4.216 10.295 3.88 1.966 6.157 1.759 4.294-1.449 5.07-1.914 2.665-1.396 2.665-1.396" fill="#caccd8 icc-color(srgb-iec61966-2, 0.1, 0.79219055, 0.79998779, 0.84709167)"/><path d="M134.684 163.457c-.209.07-.501.266-.807.465.264.412.322.818-.382 1.191-.879.466-1.138 1.345-1.966 1.293s-3.466 2.018-4.863 2.483l-2.587.983c-.517.31-1.966.621-2.483 1.242l-.743.973c.083.032.169.089.257.178.724.724.672.517 1.293.362s3.518-1.5 4.346-1.966l4.346-2.639c.673-.414 2.897-1.5 3.518-2.069s1.766-1.339 1.139-2.057-1.067-.439-1.067-.439zm-2.405.36c-.134-.458.018-.571.569-1.291.672-.88 1.034-2.38 2.483-3.208s1.759-2.639 2.742-3.415.724-1.5 1.811-2.173 2.949-3.621 3.57-3.777.88-1.862 1.656-2.173 1.552-1.293 2.069-2.069.052-.207 1.5-1.19 2.38-3.467 3.596-3.958 2.173-.388 2.535.233 1.087.207 1.449-.388.233-1.94.931-2.587.698-.931 1.5-.906 1.526 0 1.319 1.268-.802 2.018-1.449 2.639-1.009 1.862-1.578 2.147-1.061.724-1.113 1.138-3.414 3.984-3.932 4.501-.776 1.707-.776 1.707.259.672.931.259 1.914-2.432 2.742-3.156 1.449-2.069 1.966-2.328.31.31.88-.259 1.914-3.104 2.742-3.363 1.5.104 1.138.828-14.745 21.885-22.557 28.404-9.882 8.019-10.865 8.485-1.966.724-1.914 0 .207-1.811.931-2.328l2.328-1.707s.517-1.138-.621-1.604-1.966-.259-2.846.259-3.104 1.707-3.415 2.38-1.035 1.759-.414 2.069 1.552-.052 2.432.259 1.345 1.811.31 2.069-3.673 1.966-6.157 2.483-4.967 1.914-5.743 1.966-3.57.828-4.501.672-2.846.207-4.967.052-2.742-.362-2.949.103-.052 1.138.776 1.138 4.967.466 6.674.466 2.432-.362 2.432.259-.31.776-1.138.724l-12.417-.828c-1.966-.104-2.037.272-2.451-.09s-2.173-.259-3.208-.517-2.432-.466-3.415-1.087-2.794-1.759-3.621-2.069-1.345-.414-3.518-.88-5.484-1.604-6.881-2.173-2.949-1.138-3.725-1.811-1.449-.724-1.552-1.914.103-1.863.879-1.604 4.863 1.759 7.502 2.069 3.363.724 3.777 0-.517-1.759-1.242-2.173-2.38-.466-2.897-.776-.828-.569-2.483-.879-1.914-.155-2.69-.466-2.018-1.19-2.639-1.552-1.449-.673-1.475-1.164-.595-1.63-.181-1.914 1.035-.492 1.5-.078.88 1.164 1.681 1.604 2.69.388 3.544.388 2.276-.31 2.923-.155 1.449.052 1.992.517 1.681 1.475 1.94 1.552 1.164.336 1.397-.233.905-2.069-.078-2.432-2.846-.698-3.182-.983-.673-.543-.673-.905.336-1.086 1.112-1.009 1.914.026 2.716.026 1.552.75 2.458 1.423 1.707 1.526 2.638 2.069 3.078 1.061 4.346 1.138 1.63.207 2.897.078 1.604.078 2.354-.233 1.009-.724 1.785-.388.104.983 1.242 1.475 1.63.492 2.664.44 1.035-.207 1.5.362-.129.647 1.552.414 4.346-.75 4.346-.75-.31 1.811.259 2.483 1.604.828 2.639.569 5.381-1.552 6.002-1.811.724-.362.931-.828c.113-.255.335-.772.63-1.071-.445-.181-.894-.689-1.438-.442l-2.846 1.19s-2.846.828-3.518.517-.466-1.19-.931-1.5-6.519-.569-7.554-.983-1.811-.672-2.432-.828-1.5.052-2.587-.466-2.018-.517-2.794-.517-1.656-.155-2.069-.414-1.5-.155-1.5-.155-1.086-.517-1.293-.983-.362-.414-.931-.672-1.268-.233-2.121-.466l-.853-.233s-.776-.724-.776-1.449-.362-1.242.259-1.552 6.312.207 6.778.052-.052.88 1.397.983 2.38-.517 3.001-.155.517 1.293 2.069 1.397 2.018 0 3.208-.31 1.345-.104 1.966.31.052 1.138.931 1.19 2.018-.259 2.639-.104.828.466.828.466 2.587.052 3.673-.31 3.622-1.501 4.501-1.707 1.035-.414 2.639-.983 1.5-.362 1.914-1.035 1.604-.879 2.639-.879.879-.724 2.018-.724 1.863-.207 2.225.466.025 2.406.905 2.458c.865.051 1.58-.649 2.095-.623" fill="#154575 icc-color(srgb-iec61966-2, 0.1, 0.08239746, 0.27059937, 0.45878601)"/></g><path d="M15.793 225.112h-2.497l-1.955-5.081H4.37l-1.844 5.081H.195l6.412-16.694h2.377zm-5.13-6.83l-2.307-6.156-.583-1.96h-.045c-.211 1.12-.492 2.17-.864 3.125l-1.864 4.99zm0 0"/><use xlink:href="#B"/><use xlink:href="#B" x="16.581" y="-0.026"/><use xlink:href="#C"/><use xlink:href="#B" x="51.027" y="0.054"/><use xlink:href="#B" x="67.847" y="-0.317"/><path d="M123.155 224.265h-2.051v-7.623c0-.558-.021-1.05-.116-1.447a1.83 1.83 0 0 0-.583-1.046c-.302-.327-.794-.467-1.468-.467a2.87 2.87 0 0 0-2.075.839c-.583.558-.885 1.468-.885 2.729v7.016h-2.055v-7.855c0-1.05-.186-1.774-.558-2.146-.351-.397-.885-.583-1.563-.583a2.88 2.88 0 0 0-2.166.91c-.562.604-.839 1.749-.839 3.402v6.271h-2.051V212.19h1.84v1.678h.045c.819-1.306 2.03-1.96 3.613-1.96.889 0 1.608.186 2.191.537.562.351.98.885 1.236 1.583.91-1.422 2.146-2.121 3.733-2.121 1.257 0 2.191.351 2.819 1.025s.93 1.678.93 3.034zm0 0"/><use xlink:href="#C" x="76.722" y="0.106"/><path d="M160.316 224.054h-2.051v-7.342c0-1.236-.236-2.1-.678-2.542-.442-.467-1.046-.699-1.84-.699-.608 0-1.191.141-1.724.442s-.934.699-1.166 1.261c-.211.533-.327 1.282-.327 2.282v6.598h-2.055v-12.076h1.844v1.703h.045c.442-.653.955-1.145 1.608-1.492.633-.327 1.352-.492 2.191-.492.633 0 1.261.12 1.889.351s1.12.558 1.468 1.025c.351.442.583.934.653 1.447.095.513.141 1.211.141 2.096zm14.795.029c-.699.12-1.294.186-1.778.186-1.025 0-1.778-.161-2.265-.488-.459-.302-.752-.699-.864-1.191s-.161-1.162-.161-2.026v-6.949h-1.724v-1.583h1.724v-3.005l2.373-1.236v4.242h2.373v1.583h-2.373v7.065c0 .608.083 1.025.215 1.282s.513.397 1.108.397c.351 0 .699-.045 1.05-.091zM15.793 248.395h-2.497l-1.955-5.081H4.37l-1.844 5.081H.195l6.412-16.694h2.377zm-5.13-6.83l-2.307-6.156-.583-1.96h-.045c-.211 1.12-.492 2.17-.864 3.125L5 241.564zm19.306 6.83h-1.914v-1.538h-.045c-.748 1.211-1.844 1.819-3.332 1.819s-2.729-.583-3.708-1.749c-1.005-1.191-1.492-2.704-1.492-4.572 0-1.955.467-3.493 1.397-4.614.934-1.141 2.17-1.703 3.708-1.703 1.447 0 2.542.562 3.287 1.658h.045v-5.994h2.055zm-5.085-1.397c.91 0 1.658-.376 2.286-1.12.628-.723.93-1.84.93-3.332 0-1.472-.277-2.658-.86-3.522-.562-.864-1.377-1.306-2.447-1.306-1.05 0-1.864.422-2.402 1.282-.537.839-.814 1.984-.814 3.357 0 1.005.136 1.844.442 2.542.277.699.699 1.211 1.211 1.563.537.351 1.071.537 1.654.537zm20.964-10.678l-4.568 12.076h-1.914l-4.593-12.076h2.17l2.493 6.995.839 2.679h.045c.12-.488.327-1.141.633-1.955l2.795-7.718zm6.76 12.076h-2.051V236.32h2.051zm0-14.362h-2.051v-2.332h2.051zm12.731 5.668c-.091-.653-.347-1.166-.79-1.492s-1.075-.492-1.864-.492c-.769 0-1.401.141-1.889.397a1.24 1.24 0 0 0-.723 1.166c0 .467.186.819.583 1.025.372.211 1.141.442 2.261.748l2.869.86c.628.256 1.116.608 1.468 1.05.347.467.537 1.096.537 1.889 0 1.071-.446 1.98-1.331 2.729-.86.719-2.051 1.096-3.518 1.096-1.542 0-2.729-.327-3.593-.98-.86-.628-1.397-1.608-1.583-2.915l2.026-.302c.12.839.422 1.468.959 1.885.513.422 1.232.633 2.166.633.885 0 1.583-.186 2.051-.562.492-.372.723-.839.723-1.373 0-.376-.116-.653-.327-.889a2.21 2.21 0 0 0-.814-.488c-.351-.116-1.075-.302-2.241-.583-1.699-.422-2.844-.91-3.402-1.492a2.99 2.99 0 0 1-.814-2.096 3.06 3.06 0 0 1 1.211-2.497c.794-.653 1.889-.98 3.241-.98 1.443 0 2.563.281 3.357.864.814.558 1.282 1.397 1.443 2.518zm12.709-3.663c1.629 0 2.981.537 4.056 1.587 1.071 1.071 1.608 2.588 1.608 4.543 0 2.381-.583 4.06-1.749 5.035-1.141.98-2.472 1.472-3.915 1.472a5.72 5.72 0 0 1-3.965-1.517c-1.141-1-1.703-2.609-1.703-4.804 0-2.121.562-3.704 1.633-4.754 1.096-1.025 2.427-1.563 4.035-1.563zm0 10.96c1.166 0 2.051-.442 2.654-1.306s.91-2.005.91-3.402c0-1.517-.327-2.658-1.025-3.427a3.25 3.25 0 0 0-2.538-1.145 3.26 3.26 0 0 0-2.567 1.166c-.674.769-1 1.935-1 3.473s.347 2.683 1.025 3.477c.678.769 1.517 1.166 2.542 1.166zm17.417-10.306l-.699 1.889c-.513-.302-1.005-.442-1.492-.442-.769 0-1.352.347-1.749 1.025-.397.699-.583 1.654-.583 2.89v6.342h-2.051v-12.076h1.864v1.819h.045c.653-1.401 1.517-2.1 2.567-2.1.699 0 1.397.211 2.096.653zm14.033-.372l-4.614 12.287c0 .021-.025.045-.025.07-.442 1.373-.955 2.468-1.538 3.332s-1.422 1.282-2.518 1.282c-.351 0-.794-.07-1.327-.232l-.211-1.935c.397.116.794.186 1.166.186.769 0 1.282-.211 1.583-.628.281-.422.608-1.166.98-2.261l-4.593-12.101h2.216l2.844 7.904.537 1.885h.045a16.32 16.32 0 0 1 .723-2.518l2.658-7.272zm32.398 11.545h-2.146c-.211-.372-.351-.885-.422-1.492-1.373 1.191-2.865 1.774-4.452 1.774-1.282 0-2.282-.327-3.005-.959-.744-.628-1.12-1.468-1.12-2.518 0-1 .351-1.84 1.075-2.468.699-.653 1.935-1.096 3.683-1.306l1.91-.281c.723-.116 1.306-.256 1.774-.418l-.05-1.306c-.045-.256-.161-.513-.347-.794s-.492-.488-.889-.653c-.418-.186-.955-.256-1.654-.256-.885 0-1.583.165-2.096.492s-.864.93-1.05 1.819l-2.005-.256c.232-1.236.794-2.17 1.703-2.799s2.166-.934 3.75-.934c1.447 0 2.518.211 3.196.653.674.422 1.096.934 1.257 1.538s.236 1.401.236 2.356v2.749l.091 3.382c.07.558.256 1.12.562 1.678zm-2.704-5.316v-.744c-1.075.347-2.381.653-3.919.864-1.563.186-2.332.86-2.332 1.955a1.74 1.74 0 0 0 .633 1.377c.418.347 1 .537 1.794.537a4.19 4.19 0 0 0 2.658-.91c.769-.604 1.166-1.633 1.166-3.08zm17.93 5.316h-2.051v-7.342c0-1.236-.236-2.1-.678-2.542-.442-.467-1.046-.699-1.84-.699-.608 0-1.191.141-1.724.442s-.934.699-1.166 1.261c-.211.533-.327 1.282-.327 2.282v6.598h-2.055V235.79h1.844v1.703h.045c.442-.653.955-1.145 1.608-1.492.633-.327 1.352-.492 2.191-.492.633 0 1.261.12 1.889.351s1.12.558 1.468 1.025c.351.442.583.934.653 1.447.095.513.141 1.211.141 2.096zm15.743 0h-1.914v-1.538h-.045c-.748 1.211-1.844 1.819-3.332 1.819s-2.729-.583-3.708-1.749c-1.005-1.191-1.492-2.704-1.492-4.572 0-1.955.467-3.493 1.397-4.614.934-1.141 2.17-1.703 3.708-1.703 1.447 0 2.542.562 3.287 1.658h.045v-5.994h2.055zm-5.085-1.397c.91 0 1.658-.376 2.286-1.12.628-.723.93-1.84.93-3.332 0-1.472-.277-2.658-.86-3.522-.562-.864-1.377-1.306-2.447-1.306-1.05 0-1.864.422-2.402 1.282-.537.839-.814 1.984-.814 3.357 0 1.005.136 1.844.442 2.542.277.699.699 1.211 1.211 1.563.537.351 1.071.537 1.654.537zM16.714 269.85h-2.398l-2.683-4.196a9.42 9.42 0 0 0-1.087-1.331c-.384-.36-.748-.604-1.091-.703s-.785-.141-1.352-.141H5.907v6.371H3.989v-14.44h6.395c.864 0 1.612.062 2.195.161.587.124 1.112.364 1.554.707a3.64 3.64 0 0 1 1.029 1.352c.24.546.36 1.129.36 1.732 0 1.091-.339 1.96-1.025 2.625-.707.666-1.695 1.087-3.026 1.269v.041c.967.422 1.877 1.29 2.724 2.621zm-10.807-8.086H10c.827 0 1.492-.062 1.955-.203a2.19 2.19 0 0 0 1.17-.827c.281-.401.422-.868.422-1.373a2.26 2.26 0 0 0-.703-1.67c-.484-.467-1.273-.686-2.381-.686H5.907zm0 0"/><path d="M27.819 264.89H19.6c.083 1.207.422 2.137 1.038 2.774.612.657 1.397.976 2.307.976.719 0 1.315-.19 1.802-.575.463-.36.847-.93 1.1-1.695l1.906.236c-.294 1.141-.868 2.034-1.695 2.646s-1.86.91-3.113.91c-1.65 0-2.923-.504-3.853-1.501-.93-1.017-1.397-2.394-1.397-4.151 0-1.736.442-3.138 1.356-4.217.889-1.058 2.158-1.608 3.791-1.608a5.19 5.19 0 0 1 2.307.529c.74.36 1.377.951 1.906 1.798.508.847.765 2.141.765 3.878zm-1.906-1.525c-.087-1.124-.426-1.926-1.042-2.414s-1.29-.74-2.03-.74c-.868 0-1.592.294-2.162.868-.55.591-.889 1.356-.976 2.286zm20.007 6.379h-1.881v-6.594c0-.484-.021-.91-.107-1.253-.062-.339-.236-.645-.533-.905-.277-.281-.728-.405-1.344-.405a2.71 2.71 0 0 0-1.902.728c-.533.484-.81 1.269-.81 2.361v6.069h-1.881v-6.796c0-.905-.169-1.534-.513-1.856-.322-.343-.81-.504-1.43-.504-.79 0-1.451.265-1.989.79-.513.521-.769 1.509-.769 2.943v5.424h-1.877v-10.447h1.687v1.451h.041c.748-1.129 1.86-1.691 3.311-1.691.81 0 1.472.161 2.009.463.513.302.897.765 1.129 1.373.835-1.232 1.968-1.836 3.419-1.836 1.153 0 2.009.302 2.584.885s.856 1.455.856 2.621zm13.803-4.706h-8.334c.083 1.17.43 2.079 1.05 2.695.624.637 1.418.947 2.344.947.732 0 1.331-.186 1.827-.554.471-.351.86-.91 1.116-1.65l1.935.227c-.302 1.112-.881 1.976-1.72 2.576s-1.889.885-3.158.885c-1.678 0-2.964-.496-3.911-1.463-.947-.988-1.418-2.328-1.418-4.035 0-1.691.451-3.047 1.373-4.097.905-1.029 2.195-1.567 3.849-1.567a5.43 5.43 0 0 1 2.34.517c.753.352 1.397.926 1.935 1.749.517.823.773 2.079.773 3.77zm-1.931-1.484c-.087-1.091-.43-1.873-1.054-2.348s-1.311-.719-2.063-.719c-.881 0-1.612.285-2.191.843-.562.575-.905 1.319-.988 2.224zm13.954 6.702h-1.765v-1.422h-.045c-.686 1.12-1.699 1.678-3.076 1.678s-2.522-.537-3.423-1.612c-.926-1.1-1.381-2.497-1.381-4.221 0-1.807.434-3.229 1.294-4.262.86-1.054 2.001-1.571 3.423-1.571 1.335 0 2.344.517 3.034 1.53h.041v-5.531h1.898zm-4.696-1.29c.843 0 1.53-.347 2.113-1.034.579-.67.86-1.703.86-3.08 0-1.356-.256-2.456-.798-3.249-.517-.798-1.269-1.207-2.257-1.207-.972 0-1.724.389-2.22 1.186-.492.773-.752 1.827-.752 3.096 0 .926.128 1.703.409 2.348.256.645.645 1.12 1.12 1.443.496.322.988.496 1.525.496zm10.548 1.201h-1.774V259.72h1.774zm0-12.423h-1.774v-2.017h1.774zm12.946 12.436h-1.86c-.182-.339-.302-.81-.364-1.364-1.191 1.087-2.48 1.621-3.853 1.621-1.112 0-1.98-.298-2.604-.872-.645-.575-.967-1.344-.967-2.303 0-.914.302-1.678.926-2.253.608-.599 1.674-1 3.192-1.195l1.654-.256c.624-.103 1.133-.232 1.534-.38l-.041-1.195c-.037-.232-.141-.467-.302-.723s-.422-.446-.765-.595c-.364-.169-.831-.236-1.435-.236-.769 0-1.373.149-1.819.446s-.744.852-.905 1.662l-1.736-.232c.203-1.129.686-1.98 1.472-2.555s1.877-.852 3.249-.852c1.253 0 2.183.19 2.766.595.587.38.951.852 1.091 1.406s.203 1.277.203 2.15v2.509l.079 3.088c.062.513.223 1.021.488 1.534zm-2.344-4.853v-.682c-.926.318-2.059.595-3.39.79-1.352.169-2.017.785-2.017 1.786 0 .513.182.918.542 1.257.364.318.868.488 1.554.488.868 0 1.637-.273 2.303-.827s1.009-1.492 1.009-2.811zm7.78 5h-1.774v-14.44h1.774zm23.086-4.577c-.438 1.612-1.182 2.824-2.265 3.63-1.079.785-2.365 1.191-3.878 1.191-2.431 0-4.192-.748-5.312-2.22-1.1-1.472-1.662-3.266-1.662-5.345 0-2.299.645-4.113 1.951-5.403 1.306-1.311 2.989-1.955 5.044-1.955 1.451 0 2.675.364 3.712 1.067 1.017.728 1.745 1.778 2.158 3.146l-1.926.446c-.314-1.009-.81-1.757-1.476-2.261-.661-.525-1.492-.765-2.489-.765-1.621 0-2.844.525-3.675 1.554-.852 1.025-1.265 2.418-1.265 4.151 0 2.017.434 3.51 1.327 4.477.872.988 2.034 1.472 3.448 1.472 1.162 0 2.096-.302 2.819-.905.728-.624 1.249-1.534 1.538-2.762zm11.643-.179h-8.272c.083 1.215.426 2.154 1.042 2.795.62.661 1.41.98 2.328.98.723 0 1.319-.19 1.811-.575.471-.364.856-.938 1.108-1.707l1.922.236c-.302 1.153-.876 2.046-1.707 2.666s-1.877.918-3.134.918c-1.666 0-2.943-.513-3.882-1.513-.938-1.025-1.41-2.41-1.41-4.184 0-1.749.451-3.154 1.364-4.242.897-1.067 2.179-1.621 3.82-1.621.81 0 1.579.169 2.323.533s1.389.959 1.918 1.811c.513.856.769 2.154.769 3.903zm-1.918-1.534c-.087-1.133-.426-1.943-1.046-2.431s-1.302-.748-2.046-.748c-.876 0-1.6.298-2.175.876-.558.595-.897 1.364-.984 2.303zm14.173 6.031h-1.935v-6.515c0-1.096-.219-1.86-.637-2.253-.418-.413-.988-.62-1.736-.62-.571 0-1.12.124-1.625.393s-.876.62-1.1 1.116c-.194.475-.306 1.137-.306 2.026v5.854h-1.935v-10.711h1.736v1.509h.045c.418-.579.901-1.013 1.513-1.323.595-.289 1.277-.434 2.067-.434.591 0 1.186.103 1.778.31s1.054.496 1.385.91c.331.393.55.827.616 1.282.087.455.132 1.075.132 1.86zm8.681-.238c-.599.103-1.108.161-1.525.161-.876 0-1.521-.141-1.939-.422-.393-.265-.645-.608-.74-1.029s-.136-1.009-.136-1.753v-6.011h-1.48v-1.373h1.48v-2.6l2.03-1.071v3.671h2.034v1.373h-2.034v6.11c0 .525.07.889.186 1.108s.438.343.947.343c.302 0 .599-.041.901-.079zm9.903-10.157l-.624 1.633c-.455-.26-.893-.38-1.327-.38a1.71 1.71 0 0 0-1.554.885c-.356.608-.521 1.435-.521 2.501v5.486h-1.827v-10.447h1.662v1.575h.041c.579-1.211 1.348-1.815 2.282-1.815.624 0 1.244.182 1.869.562zm12 5.569h-8.5c.087 1.211.438 2.15 1.071 2.786.637.661 1.447.98 2.39.98.744 0 1.36-.19 1.864-.575.48-.36.876-.938 1.137-1.703l1.972.236c-.306 1.149-.897 2.042-1.753 2.658s-1.926.918-3.22.918c-1.707 0-3.022-.513-3.985-1.513-.967-1.021-1.447-2.406-1.447-4.171 0-1.745.459-3.15 1.401-4.237.922-1.062 2.237-1.616 3.923-1.616a5.46 5.46 0 0 1 2.385.533c.769.36 1.426.955 1.972 1.807.529.852.79 2.15.79 3.898zm-1.972-1.534c-.087-1.129-.438-1.939-1.075-2.427s-1.335-.744-2.1-.744c-.901 0-1.645.298-2.237.872-.571.595-.922 1.36-1.009 2.299zm0 0"/><g fill-rule="evenodd"><path d="M2.734 274.565h170.562v3.842H2.734z"/><path d="M.435.088h175.692v76.655H.435z" stroke="#231f20" stroke-miterlimit="2.61313" stroke-width=".176"/></g><defs ><path id="B" d="M28.86 215.624c-.091-.653-.347-1.166-.79-1.492s-1.075-.492-1.864-.492c-.769 0-1.401.141-1.889.397s-.723.653-.723 1.166c0 .467.186.819.583 1.025.372.211 1.141.442 2.261.748l2.869.86c.628.256 1.116.608 1.468 1.05.347.467.537 1.096.537 1.889 0 1.071-.446 1.98-1.331 2.729-.86.719-2.051 1.096-3.518 1.096-1.542 0-2.729-.327-3.593-.98-.86-.628-1.397-1.608-1.583-2.915l2.026-.302c.12.839.422 1.468.959 1.885.513.422 1.232.633 2.166.633.885 0 1.583-.186 2.051-.562.492-.372.723-.839.723-1.373 0-.376-.116-.653-.327-.889-.211-.207-.488-.372-.814-.488-.351-.116-1.075-.302-2.241-.583-1.699-.422-2.844-.91-3.402-1.492a2.99 2.99 0 0 1-.814-2.096 3.06 3.06 0 0 1 1.211-2.497c.794-.653 1.889-.98 3.241-.98 1.443 0 2.563.281 3.357.864.814.558 1.282 1.397 1.443 2.518zm0 0"/><path id="C" d="M65.829 218.478h-9.045c.095 1.327.467 2.352 1.145 3.051.674.723 1.538 1.075 2.538 1.075.794 0 1.447-.211 1.984-.633.513-.393.93-1.025 1.211-1.864l2.096.256c-.322 1.261-.955 2.241-1.864 2.915s-2.051 1.005-3.427 1.005c-1.815 0-3.216-.562-4.242-1.658-1.025-1.116-1.538-2.633-1.538-4.568 0-1.91.488-3.452 1.492-4.638.98-1.166 2.377-1.774 4.171-1.774a5.72 5.72 0 0 1 2.542.583c.814.397 1.513 1.05 2.096 1.984.562.93.839 2.352.839 4.266zm-2.096-1.678c-.095-1.236-.467-2.125-1.141-2.658s-1.422-.819-2.241-.819c-.955 0-1.749.327-2.377.959-.608.649-.98 1.488-1.071 2.518zm0 0"/></defs></svg>