<svg xmlns="http://www.w3.org/2000/svg" viewBox="0 0 500 500"><g id="freepik--background-simple--inject-2"><path d="M248.51,135.66c-65.84,29.63-6.07,82.42-44.09,111.18S63,242.35,102.44,317c46.29,87.71,249,75.53,292.68-32S314.35,106,248.51,135.66Z" style="fill:#451575"></path><path d="M248.51,135.66c-65.84,29.63-6.07,82.42-44.09,111.18S63,242.35,102.44,317c46.29,87.71,249,75.53,292.68-32S314.35,106,248.51,135.66Z" style="fill:#fff;opacity:0.9"></path></g><g id="freepik--Shadow--inject-2"><ellipse id="freepik--path--inject-2" cx="250" cy="416.24" rx="193.89" ry="11.32" style="fill:#f5f5f5"></ellipse></g><g id="freepik--Table--inject-2"><path d="M197.5,328.74H303.84a7.3,7.3,0,0,1-7,7.29c-11.43.51-29,2.32-34.58,8.64-10.4,11.79-9.39,53.19,3.06,62.78,3.9,3,15.28,9,15.28,9H220.71s10.64-6.09,14.33-9c12.38-9.66,12.74-51,2.3-62.78-5.36-6-21.84-8-32.89-8.58A7.35,7.35,0,0,1,197.5,328.74Z" style="fill:#451575"></path><path d="M197.5,328.74H303.84a7.3,7.3,0,0,1-7,7.29c-11.43.51-29,2.32-34.58,8.64-10.4,11.79-9.39,53.19,3.06,62.78,3.9,3,15.28,9,15.28,9H220.71s10.64-6.09,14.33-9c12.38-9.66,12.74-51,2.3-62.78-5.36-6-21.84-8-32.89-8.58A7.35,7.35,0,0,1,197.5,328.74Z" style="fill:#fff;isolation:isolate;opacity:0.30000000000000004"></path><path d="M290.67,336.41c-10.8.87-23.75,3-28.38,8.26a20.68,20.68,0,0,0-3.52,6.09H240.91a21.42,21.42,0,0,0-3.57-6.09c-4.66-5.23-17.71-7.38-28.31-8.26Z" style="opacity:0.2"></path><path d="M293.64,300.94l-5.59,25.36a1.9,1.9,0,0,1-1.81,1.44H250.11a1.24,1.24,0,0,1-1.15-1.6L254.54,301a1.75,1.75,0,0,1,1.82-1.24h36.13C293.31,299.75,293.82,300.12,293.64,300.94Z" style="fill:#263238"></path><path d="M293.64,300.94l-5.59,25.36a1.9,1.9,0,0,1-1.81,1.44H250.11a1.24,1.24,0,0,1-1.15-1.6L254.54,301a1.75,1.75,0,0,1,1.82-1.24h36.13C293.31,299.75,293.82,300.12,293.64,300.94Z" style="fill:#fff;isolation:isolate;opacity:0.6000000000000001"></path><path d="M292.61,300.94,287,326.3a1.91,1.91,0,0,1-1.82,1.44H250.11a1.24,1.24,0,0,1-1.15-1.6L254.55,301a1.73,1.73,0,0,1,1.81-1.24h35.09C292.27,299.75,292.79,300.12,292.61,300.94Z" style="isolation:isolate;opacity:0.2"></path><path d="M226.28,324.9v2.82c0,.72.85,1,1.57,1h56.32c.73,0,1.6-.3,1.6-1V324.9Z" style="fill:#263238"></path><path d="M226.28,324.9v2.82c0,.72.85,1,1.57,1h56.32c.73,0,1.6-.3,1.6-1V324.9Z" style="fill:#fff;isolation:isolate;opacity:0.6000000000000001"></path><path d="M226.28,324.9v2.82c0,.72.85,1,1.57,1H265c.72,0,1.58-.3,1.58-1V324.9Z" style="fill:#fff;isolation:isolate;opacity:0.2"></path><polygon points="286.78 322.43 250.67 322.43 255.37 301.24 291.49 301.24 286.78 322.43" style="fill:#451575"></polygon><polygon points="262.38 320.67 259.81 320.67 260.79 316.43 263.36 316.43 262.38 320.67" style="fill:#451575"></polygon><polygon points="266.55 320.67 263.98 320.67 265.67 313.35 268.24 313.35 266.55 320.67" style="fill:#451575"></polygon><polygon points="270.72 320.67 268.14 320.67 269.57 314.5 272.14 314.5 270.72 320.67" style="fill:#451575"></polygon><polygon points="274.88 320.67 272.31 320.67 274.45 311.42 277.02 311.42 274.88 320.67" style="fill:#451575"></polygon><polygon points="279.05 320.67 276.48 320.67 279.33 308.34 281.9 308.34 279.05 320.67" style="fill:#451575"></polygon><g style="opacity:0.5"><polygon points="262.38 320.67 259.81 320.67 260.79 316.43 263.36 316.43 262.38 320.67" style="fill:#fff"></polygon></g><g style="opacity:0.5"><polygon points="266.55 320.67 263.98 320.67 265.67 313.35 268.24 313.35 266.55 320.67" style="fill:#fff"></polygon></g><g style="opacity:0.5"><polygon points="270.72 320.67 268.14 320.67 269.57 314.5 272.14 314.5 270.72 320.67" style="fill:#fff"></polygon></g><g style="opacity:0.5"><polygon points="274.88 320.67 272.31 320.67 274.45 311.42 277.02 311.42 274.88 320.67" style="fill:#fff"></polygon></g><g style="opacity:0.5"><polygon points="279.05 320.67 276.48 320.67 279.33 308.34 281.9 308.34 279.05 320.67" style="fill:#fff"></polygon></g><polygon points="282.35 321.26 256.14 321.26 256.41 320.08 282.62 320.08 282.35 321.26" style="fill:#fff"></polygon><polygon points="258.27 317.23 257.64 316.69 267.64 310.17 271.25 312.5 284.53 303.31 285.19 303.83 271.15 313.54 267.51 311.2 258.27 317.23" style="fill:#fff"></polygon><polygon points="285.57 303.01 283.8 303.27 285.24 304.3 285.57 303.01" style="fill:#fff"></polygon></g><g id="freepik--character-2--inject-2"><rect x="280.73" y="408.05" width="118.44" height="7.78" style="fill:#263238"></rect><rect x="280.73" y="408.05" width="118.44" height="7.78" style="fill:#fff;isolation:isolate;opacity:0.4"></rect><rect x="280.73" y="408.05" width="67.15" height="7.78" style="fill:#fff;isolation:isolate;opacity:0.2"></rect><path d="M316.75,363.79h87.4L417.47,295a12.18,12.18,0,0,0-12-14.5H342.93a12.17,12.17,0,0,0-12,9.87Z" style="fill:#451575"></path><path d="M316.75,363.79h87.4L417.47,295a12.18,12.18,0,0,0-12-14.5H342.93a12.17,12.17,0,0,0-12,9.87Z" style="fill:#fff;isolation:isolate;opacity:0.6000000000000001"></path><path d="M379.33,363.79h24.82L417.47,295a12.18,12.18,0,0,0-12-14.5h0a12.18,12.18,0,0,0-12,9.87Z" style="isolation:isolate;opacity:0.2"></path><rect x="271.36" y="362.94" width="136.1" height="47.25" rx="6.14" style="fill:#451575"></rect><rect x="271.36" y="362.94" width="136.1" height="47.25" rx="6.14" style="fill:#fff;isolation:isolate;opacity:0.6000000000000001"></rect><rect x="342.19" y="362.94" width="65.27" height="47.25" rx="6.14" style="isolation:isolate;opacity:0.2"></rect><path d="M299.41,284.94,291,282.71l3.1-7s6.13.73,7.41,5.66Z" style="fill:#e4897b"></path><polygon points="286.39 278.49 289.95 273.84 294.06 275.73 290.96 282.71 286.39 278.49" style="fill:#e4897b"></polygon><path d="M332.84,282s-6.79,4.42-16.61,11.86l-14.9-14.12L298,284.61s13.24,18.91,16.8,19.55,20.77-11.37,20.77-11.37Z" style="fill:#263238"></path><path d="M335.52,292.79s-3.77,2.63-8.14,5.36c-5,3.11-10.74,6.36-12.63,6-3.56-.64-16.8-19.55-16.8-19.55l3.38-4.84,14.9,14.12c9.82-7.44,16.61-11.86,16.61-11.86l1.77,7.1Z" style="fill:#fff;isolation:isolate;opacity:0.4"></path><path d="M335.52,292.79s-3.77,2.63-8.14,5.36a31.3,31.3,0,0,1,7.23-9Z" style="isolation:isolate;opacity:0.2"></path><path d="M302.08,351.13c-.25.95,2.54,17.89,5.05,32.67,2,11.68,3.8,22,3.8,22l-5.33.49s-4.08-8.11-8.68-18.87a249.24,249.24,0,0,1-9-24.06c-3.27-10.59-5-20.3-2.63-25.24a5.83,5.83,0,0,1,2.07-2.46.46.46,0,0,1,.11-.07l.37-.24c3.5-2,9.1-3.13,15.51-3.66,11.53-.94,25.67,0,34.84.87,5.73.54,9.51,1.05,9.51,1.05l7.49,27.9q-3.72-.13-7.28-.45C321.26,358.75,302.48,349.58,302.08,351.13Z" style="fill:#e4897b"></path><path d="M307.13,383.8a73.94,73.94,0,0,1-10.21,3.63,249.24,249.24,0,0,1-9-24.06c2.17-4,11.65-17.07,24.19-21.69a41.84,41.84,0,0,0-8.76-10c11.53-.94,25.67,0,34.84.87l9.72,28.5c-26.61-2.32-45.39-11.49-45.79-9.94C301.83,352.08,304.62,369,307.13,383.8Z" style="isolation:isolate;opacity:0.2"></path><path d="M334.28,339.73s.68-9.34,1-11.24a43.56,43.56,0,0,1,1.16-5.59c2.07-6.23,29.81,1.09,29.81,1.09s16.41,24.71,4.94,36.37c-2.54,2.58-7.52,3.74-12.62,3.7,0,0-15.55.76-44.47-.59,0,0-12.89,18.23-48.19,42.34l-6.54-.9s43.39-54.06,44.71-55.13C315.61,340.46,334.28,339.73,334.28,339.73Z" style="fill:#e4897b"></path><path d="M265.88,415.46h-1.43l-.4-1.77-4.74,2.14h-12s-1.91-1.92,3.81-3.45a4.31,4.31,0,0,0,.81-.31c3.05-1.43,7.39-6.26,7.39-6.26h6.59a8.37,8.37,0,0,1,.54.95C267.16,408.21,268.41,411.25,265.88,415.46Z" style="fill:#263238"></path><path d="M266.44,406.76v0c-.87-1-4.83,3.29-7.73,4.74-2.59,1.29-5.5,1.86-6.79.55,3.05-1.43,7.85-7.68,7.85-7.68h5.3S266.13,406.14,266.44,406.76Z" style="fill:#e4897b"></path><path d="M310.91,415.46h-1.43l-.4-1.77-4.74,2.14h-12s-1.91-1.92,3.81-3.45a4.31,4.31,0,0,0,.81-.31c3.05-1.43,7.39-6.26,7.39-6.26h6.59a8.37,8.37,0,0,1,.54.95C312.19,408.21,313.44,411.25,310.91,415.46Z" style="fill:#263238"></path><path d="M311.47,406.76v0c-.87-1-4.83,3.29-7.73,4.74-2.59,1.29-5.5,1.86-6.79.55,3.05-1.43,7.85-7.68,7.85-7.68h5.3S311.16,406.14,311.47,406.76Z" style="fill:#e4897b"></path><path d="M301.9,331.79s20.36,8.31,25.26,14.9,1.87,15.85-1.82,17.22c0,0,5.88.85,25.55.85s25.21-4.35,25.08-14.9S366.24,324,366.24,324l-30.78.16-3,7.16S316.75,329.42,301.9,331.79Z" style="fill:#263238"></path><path d="M368.69,288.47c-2.73,8.23-2.86,26.8-1.89,37.06l-31-.2a105.94,105.94,0,0,1-3.08-39.63,8,8,0,0,1,1.46-4.05s6.33-2.62,11.84-2.58a92.06,92.06,0,0,1,12.72,1.34A83.22,83.22,0,0,1,368,282.5a2.46,2.46,0,0,1,1.66,3.16C369.3,286.63,369,287.56,368.69,288.47Z" style="fill:#451575"></path><path d="M335.77,325.33l18.71.13,12.32.07a154.75,154.75,0,0,1,.25-28.71,43.71,43.71,0,0,1,1.64-8.34c.3-.91.61-1.86.94-2.82A2.46,2.46,0,0,0,368,282.5a83.22,83.22,0,0,0-9.26-2.09A90.55,90.55,0,0,0,346,279.07c-5.51,0-11.84,2.58-11.84,2.58a14.24,14.24,0,0,0-1.46,4.05C332.11,290.49,330.43,304.86,335.77,325.33Z" style="fill:#fff;isolation:isolate;opacity:0.1"></path><path d="M336.41,325.07l-4,6.24s.72-5.85.71-9.8-4.13-18.3-.19-39.55a45.42,45.42,0,0,1,6.75-2.27,12.41,12.41,0,0,1,2.25-.3S337.21,291,336.25,309A127.91,127.91,0,0,0,336.41,325.07Z" style="fill:#263238"></path><path d="M336.41,325.07l-4,6.24s.72-5.85.71-9.8-4.13-18.3-.19-39.55a45.86,45.86,0,0,1,6.75-2.27,10.85,10.85,0,0,1,2.25-.3S337.21,291,336.25,309A127.91,127.91,0,0,0,336.41,325.07Z" style="fill:#fff;isolation:isolate;opacity:0.4"></path><path d="M368.85,318.34c1,9.36,2.77,14,2.77,14a20.69,20.69,0,0,1-13.41-12,19.72,19.72,0,0,1-1.14-6.52h0c-.53-12.68,4.75-33.45,4.75-33.45l1.05.28c7.08,1.93,9.05,4,9.05,4S367.79,309,368.85,318.34Z" style="fill:#263238"></path><path d="M370.17,326.77a42,42,0,0,0,1.45,5.58,20.69,20.69,0,0,1-13.41-12,13.23,13.23,0,0,1-.75-2.69,27.22,27.22,0,0,1-.39-3.83h0c-.53-12.68,4.75-33.45,4.75-33.45l1.05.28c7.08,1.93,9.05,4,9.05,4s-1,5.81-1.87,12.84c-.93,7.33-1.74,16-1.2,20.78C369.24,321.79,369.72,324.59,370.17,326.77Z" style="fill:#fff;isolation:isolate;opacity:0.4"></path><path d="M361.33,292l2.14,4.35s-4.32,10.93-6.4,17.54c-.53-12.68,4.75-33.45,4.75-33.45l1.05.28c.92,2.28,2.39,7.07,2.75,14.9Z" style="fill:#fff;isolation:isolate;opacity:0.2"></path><path d="M341.93,279.39S337.21,291,336.25,309c-2.63-6-1.6-20.6-1.6-20.6l1.88-2.51L333.12,287c1.69-4,4.5-5.84,6.56-7.27A11.67,11.67,0,0,0,341.93,279.39Z" style="fill:#fff;isolation:isolate;opacity:0.2"></path><path d="M370.17,326.77a30.17,30.17,0,0,1-5.28,2.23,20.11,20.11,0,0,1-6.68-8.61,13.23,13.23,0,0,1-.75-2.69l2.79-3.07s.61-9.77,4.23-16.48c1.21-2.24,3.35-2.24,5.57-.59-.93,7.33-1.74,16-1.2,20.78C369.24,321.79,369.72,324.59,370.17,326.77Z" style="isolation:isolate;opacity:0.2"></path><path d="M352.88,277.61s5.11.11,7.35,2.8c2,2.43.63,6.47.63,6.47l-7,.79-9.21,8.65-1.29-8.22-4.49-1.22S341.09,277.61,352.88,277.61Z" style="fill:#451575"></path><g style="isolation:isolate;opacity:0.4"><path d="M352.88,277.61s5.11.11,7.35,2.8c2,2.43.63,6.47.63,6.47l-7,.79-9.21,8.65-1.29-8.22-4.49-1.22S341.09,277.61,352.88,277.61Z" style="fill:#fff"></path></g><path d="M358.41,281.45A91.54,91.54,0,0,0,345.26,294s-3.31-11.8,2.08-13.72c0,0,1.51-.47,1.83-2.87a11.44,11.44,0,0,0-.64-5c-.08-.26-.17-.54-.26-.81l8.82-5.52S354,277.27,358.41,281.45Z" style="fill:#e4897b"></path><path d="M355.1,269.29s-.47,6.31-5.93,8.13a11.44,11.44,0,0,0-.64-5C351.75,270.72,355.1,269.29,355.1,269.29Z" style="isolation:isolate;opacity:0.2"></path><path d="M361.33,252.74a10.27,10.27,0,0,1,10.59-1.65c6.16,2.5,4.18,14.16-1.09,19.08s-1.07,5.56-1.07,5.56-4.3.59-2.54-5.69,2.18-12-3.63-11.37S361.33,252.74,361.33,252.74Z" style="fill:#263238"></path><path d="M359.88,246.6s-10.54-6-17.27-1.23-4.22,18.07,0,21.52,15.27,2.56,15.27,2.56,6-1,7.74-9.79C367.07,252.48,363.44,247.13,359.88,246.6Z" style="fill:#263238"></path><path d="M352.78,248.19c-7.28-.69-10,3-11.23,10.45-1.54,9.31-.09,16.17,9.2,15C363.37,272.1,364.87,249.32,352.78,248.19Z" style="fill:#e4897b"></path><path d="M346.3,258.67a15.29,15.29,0,0,1-2.41,2.82,2,2,0,0,0,1.85,1Z" style="fill:#de5753"></path><path d="M350.81,258.49c-.07.6.2,1.12.59,1.17s.78-.4.85-1-.2-1.12-.59-1.16S350.88,257.9,350.81,258.49Z" style="fill:#263238"></path><path d="M351.82,257.55l-1.24-.67S351.1,258.05,351.82,257.55Z" style="fill:#263238"></path><path d="M343.4,257.5c-.07.6.2,1.12.6,1.16s.77-.4.85-1-.2-1.12-.6-1.17S343.47,256.9,343.4,257.5Z" style="fill:#263238"></path><path d="M344.41,256.55l-1.23-.66S343.69,257.06,344.41,256.55Z" style="fill:#263238"></path><path d="M354.41,255.18a.31.31,0,0,1-.26-.14,3.55,3.55,0,0,0-2.79-1.26.31.31,0,0,1,0-.62,4.1,4.1,0,0,1,3.33,1.54.32.32,0,0,1-.09.43A.34.34,0,0,1,354.41,255.18Z" style="fill:#263238"></path><path d="M343.13,253.31a.29.29,0,0,1-.27-.17.31.31,0,0,1,.12-.42,3.71,3.71,0,0,1,3.24-.33.31.31,0,1,1-.26.56,3.12,3.12,0,0,0-2.68.32A.42.42,0,0,1,343.13,253.31Z" style="fill:#263238"></path><path d="M359.59,261.2s-2.85-6.3-1.9-10.87c0,0-13.88-7.24-16,7.34,0,0-.19-13.14,12.35-12.26s10.78,19.19,3.8,24C357.88,269.45,361.34,265.14,359.59,261.2Z" style="fill:#263238"></path><path d="M358.25,262.63A3.22,3.22,0,0,1,362,260c2.23.46,2.87,5.19-2.85,5.78C358.3,265.9,357.92,265.07,358.25,262.63Z" style="fill:#e4897b"></path><path d="M344.61,265.31a18,18,0,0,1,.8,2.49l.46,0c2.08-.18,3-.95,3.36-1.75a2.69,2.69,0,0,0,.23-1.25,2.56,2.56,0,0,0-.13-.72,9.76,9.76,0,0,1-4,1.19C344.89,265.29,344.61,265.31,344.61,265.31Z" style="fill:#263238"></path><path d="M345.32,265.23l.26.73c2-.17,3.31-.56,3.88-1.2a2.56,2.56,0,0,0-.13-.72A9.76,9.76,0,0,1,345.32,265.23Z" style="fill:#fff"></path><path d="M345.87,267.76c2.08-.18,3-.95,3.36-1.75a6.87,6.87,0,0,0-2.27.66A2.59,2.59,0,0,0,345.87,267.76Z" style="fill:#de5753"></path><path d="M343.91,333.23l-8.67,1.13,2.19,7.32s6.17.07,8.06-4.66Z" style="fill:#e4897b"></path><polygon points="330.17 337.97 333.11 343.04 337.43 341.69 335.24 334.36 330.17 337.97" style="fill:#e4897b"></polygon><path d="M370.48,284c-7.61-2.07-6.89,21.06-8.65,31.58L341,332.35l5.15,5.78s25.18-12.9,26.76-18.34C374.36,314.66,379,286.3,370.48,284Z" style="fill:#263238"></path><path d="M370.48,284c-7.61-2.07-6.89,21.06-8.65,31.58L341,332.35l5.15,5.78s25.18-12.9,26.76-18.34C374.36,314.66,379,286.3,370.48,284Z" style="fill:#fff;isolation:isolate;opacity:0.4"></path><polygon points="354.73 377.35 380.76 377.35 377.7 389.65 358.21 385.07 354.73 377.35" style="fill:#263238"></polygon><polygon points="356.23 380.98 356.23 371.75 381.29 372.41 381.29 375.57 383.94 375.57 382.43 389.65 356.23 380.98" style="fill:#451575"></polygon><polygon points="381.29 375.57 358.87 375.57 358.21 380.7 356.23 380.98 356.23 371.75 381.29 372.41 381.29 375.57" style="isolation:isolate;opacity:0.2"></polygon><polygon points="358.21 415.83 354.73 377.35 357.46 379.53 383.94 379.53 386.56 410.56 387.94 415.83 358.21 415.83" style="fill:#263238"></polygon><polygon points="358.21 415.83 354.73 377.35 357.46 379.53 383.94 379.53 386.56 410.56 387.94 415.83 358.21 415.83" style="fill:#fff;isolation:isolate;opacity:0.2"></polygon><path d="M373.24,389c-6.32,0-7.92-8.14-7.94-8.22a.5.5,0,0,1,.4-.58.48.48,0,0,1,.58.39c.06.33,1.59,8,7.64,7.38a4.94,4.94,0,0,0,3.72-1.89c1.53-2.1.86-5.25.85-5.29a.5.5,0,0,1,.38-.59.5.5,0,0,1,.6.38c0,.14.77,3.61-1,6.08A5.87,5.87,0,0,1,374,389,7,7,0,0,1,373.24,389Z" style="fill:#fff"></path><polygon points="357.46 379.53 359.66 413.57 360.58 415.83 358.21 415.83 354.73 377.35 357.46 379.53" style="isolation:isolate;opacity:0.2"></polygon></g><g id="freepik--character-1--inject-2"><rect x="99.78" y="408.05" width="118.44" height="7.78" transform="translate(318 823.88) rotate(180)" style="fill:#263238"></rect><rect x="99.78" y="408.05" width="118.44" height="7.78" transform="translate(318 823.88) rotate(180)" style="fill:#fff;isolation:isolate;opacity:0.4"></rect><rect x="151.07" y="408.05" width="67.15" height="7.78" transform="translate(369.28 823.88) rotate(180)" style="fill:#fff;isolation:isolate;opacity:0.2"></rect><path d="M182.2,363.79H94.79L81.47,295a12.19,12.19,0,0,1,12-14.5H156a12.19,12.19,0,0,1,12,9.87Z" style="fill:#451575"></path><path d="M182.2,363.79H94.79L81.47,295a12.19,12.19,0,0,1,12-14.5H156a12.19,12.19,0,0,1,12,9.87Z" style="fill:#fff;isolation:isolate;opacity:0.6000000000000001"></path><path d="M119.62,363.79H94.79L81.47,295a12.19,12.19,0,0,1,12-14.5h0a12.19,12.19,0,0,1,12,9.87Z" style="isolation:isolate;opacity:0.2"></path><rect x="91.48" y="362.94" width="136.1" height="47.25" rx="6.14" style="fill:#451575"></rect><rect x="91.48" y="362.94" width="136.1" height="47.25" rx="6.14" style="fill:#fff;isolation:isolate;opacity:0.6000000000000001"></rect><rect x="91.48" y="362.94" width="65.27" height="47.25" rx="6.14" style="isolation:isolate;opacity:0.2"></rect><path d="M178.58,291.19a22,22,0,0,1-16-8.26c-7.43-9.54-4.93-16.72-4.93-16.72l.07,0a15.28,15.28,0,0,1,4.65-.35c8.1.46,17.9,5.41,17.9,5.41C182.12,274.23,182.69,284.93,178.58,291.19Z" style="fill:#451575"></path><path d="M178.58,291.19a22,22,0,0,1-16-8.26c-7.43-9.54-4.93-16.72-4.93-16.72l.07,0a15.28,15.28,0,0,1,4.65-.35c8.1.46,17.9,5.41,17.9,5.41C182.12,274.23,182.69,284.93,178.58,291.19Z" style="fill:#fff;opacity:0.5"></path><polygon points="219.81 395.41 232.5 396.34 232.11 411.34 221.51 410.59 219.81 395.41" style="fill:#b55b52"></polygon><polygon points="219.82 395.42 232.51 396.34 232.29 404.75 220.76 403.92 219.82 395.42" style="opacity:0.2"></polygon><path d="M220,415.83h2.77l.74-1.12,1.46,1.13,16.68,0a7.42,7.42,0,0,0-.71-3.82s-5-.45-6.92-2.93a.63.63,0,0,0-.62-.25c-1.66.35-8.26,1.61-11.89.31a.6.6,0,0,0-.82.55A40.6,40.6,0,0,1,220,415.83Z" style="fill:#263238"></path><path d="M150.28,330.53s-18.89,35.23,3.52,35.23c28.2,0,55-7.1,55-7.1s-1.54,15,9.36,43.57l15.23-.13s5.93-61.28-5.43-71.57c-9.15-8.28-41.64-5.62-41.64-5.62Z" style="fill:#263238"></path><path d="M233.43,402.1l-15.23.12a171,171,0,0,1-6.59-21c-3.55-14.85-2.77-22.55-2.77-22.55s-26.85,7.1-55.05,7.1c-13.63,0-12-13-8.59-23.24a85.14,85.14,0,0,1,5.08-12l21.9-3.41,14.18-2.21s5.84-.48,13.27-.4c10.09.11,23.1,1.25,28.37,6C239.37,340.82,233.43,402.1,233.43,402.1Z" style="fill:#fff;isolation:isolate;opacity:0.4"></path><path d="M212.19,379c-.19.74-.38,1.47-.58,2.18-3.55-14.85-2.77-22.55-2.77-22.55s-26.85,7.1-55.05,7.1c-13.63,0-12-13-8.59-23.24,9.61-6.1,19.75-11.63,27-15.4l14.18-2.21s5.84-.48,13.27-.4C210.62,329.42,221.18,342.94,212.19,379Z" style="opacity:0.2"></path><path d="M168.48,259.49l-1.69,5.08c-3.55,4.37-8.37-1.17-8.37-1.17l-5-2.41a2.85,2.85,0,0,1-1.2-3.48l1.15-3.56a3,3,0,0,1,3.53-2.15l4.73,1.7A5.83,5.83,0,0,1,164.1,255Z" style="fill:#b55b52"></path><path d="M185.52,325.4c-16.39,9.06-58.09,2.49-65.55,1.22-.93-12.34-2.18-28-6.11-42.6a11.93,11.93,0,0,1,9-14.84A160.49,160.49,0,0,1,158,266.24c4.14.15,8.59,2.16,9.92,6.09C174.06,290.43,183.74,305.14,185.52,325.4Z" style="fill:#451575"></path><path d="M174.8,268.54c.38-.07,1-.14,1.46-.2s1-.1,1.57-.15c1-.08,2.1-.19,3.15-.23l1.57-.11,1.54-.07,3-.17-3.42,1.79a5.33,5.33,0,0,0-1.15,1.57,6.46,6.46,0,0,0-.66,3.57,5.42,5.42,0,0,0,.36,1.49,3.61,3.61,0,0,0,.21.49l.2.36.11.15.07.09.15.17a1.14,1.14,0,0,0,.16.14c.13.05,0-.2-.33-.46a11.1,11.1,0,0,0-1.13-.91,57.63,57.63,0,0,0-6.68-3.9c-2.45-1.28-5-2.51-7.61-3.75s-5.25-2.46-7.81-3.72l-.12-.06a4.66,4.66,0,0,1,2.46-8.83c3.12.27,6.07.73,9.1,1.27s6,1.24,9,2.07c1.52.43,3,.91,4.58,1.45a42.14,42.14,0,0,1,4.77,2A26.86,26.86,0,0,1,192,264a17,17,0,0,1,3,2.38c.26.25.59.64.88,1s.31.41.46.62l.23.32.25.39a9.33,9.33,0,0,1,.45.84c.16.33.3.66.44,1a10.8,10.8,0,0,1,.59,2.57,10.22,10.22,0,0,1-1.11,5.68,11.74,11.74,0,0,1-2.54,3.27,5.86,5.86,0,0,1-1.86,1.18l-1.57.61c-1.28.49-2.55,1-3.81,1.32a37.46,37.46,0,0,1-3.78,1c-1.25.29-2.51.48-3.77.65-.63.07-1.26.16-1.9.19s-1.24.08-2,.08a9.28,9.28,0,0,1-1.85-18.38Z" style="fill:#b65b52"></path><path d="M185.52,325.4c-16.39,9.06-58.09,2.49-65.55,1.22-.25-3.25-.52-6.74-.85-10.38-.52-5.67-1.19-11.71-2.2-17.81-.79-4.82-1.79-9.67-3.06-14.41a11.93,11.93,0,0,1,9-14.84A160.49,160.49,0,0,1,158,266.24c4.14.15,8.59,2.16,9.92,6.09C174.06,290.43,183.74,305.14,185.52,325.4Z" style="fill:#fff;opacity:0.7000000000000001"></path><path d="M152.63,268.66a7.51,7.51,0,0,0-3.79-3.13,6.91,6.91,0,0,1-.43-4.63l-17.75-4.36c1.79,5.65,3.2,10.11,1.25,13,3.56,1.86,10.07,5.18,16.88,4.52S153.9,271,152.63,268.66Z" style="fill:#b55b52"></path><path d="M148.31,261.44l-13.09.12c4.37,4.08,10.66,5.3,13.36,3.34A6.91,6.91,0,0,1,148.31,261.44Z" style="opacity:0.2"></path><path d="M149.2,274.06l-3-2.16-3.66,2.16S145.13,276.17,149.2,274.06Z" style="fill:#451575"></path><path d="M149.2,274.06l-3-2.16-3.66,2.16S145.13,276.17,149.2,274.06Z" style="fill:#fff;opacity:0.5"></path><path d="M132.84,265.63s6.06,6.42,13.38,6.27c-4.11,2.3-4.51,7.12-4.51,7.12s-9.29-2.16-11.66-11.73A3.54,3.54,0,0,1,132.84,265.63Z" style="fill:#451575"></path><path d="M149.2,274.06l3-3.08,4.15.94S153.51,275.6,149.2,274.06Z" style="fill:#451575"></path><path d="M149.2,274.06l3-3.08,4.15.94S153.51,275.6,149.2,274.06Z" style="fill:#fff;opacity:0.5"></path><path d="M148.84,265.53s3.06,3.09,3.36,5.45c3.48.74,5.46,5.63,5.46,5.63s.14-7.19-5.48-10.69A5.71,5.71,0,0,0,148.84,265.53Z" style="fill:#451575"></path><path d="M132.84,265.63s6.06,6.42,13.38,6.27c-4.11,2.3-4.51,7.12-4.51,7.12s-9.29-2.16-11.66-11.73A3.54,3.54,0,0,1,132.84,265.63Z" style="fill:#fff;opacity:0.8"></path><path d="M148.84,265.53s3.06,3.09,3.36,5.45c3.48.74,5.46,5.63,5.46,5.63s.14-7.19-5.48-10.69A5.71,5.71,0,0,0,148.84,265.53Z" style="fill:#fff;opacity:0.8"></path><path d="M135.92,238.24c-.15-5.35,4.83-8.13,9.48-5.63s5.66,11,2.63,15.74S135.92,238.24,135.92,238.24Z" style="fill:#263238"></path><path d="M126.68,248c2.58,7.34,4.5,12.27,10.06,14.31,11,4.05,15.5-1.34,15.35-9.26-.14-7.12-4.33-17.92-13.06-19S124.1,240.64,126.68,248Z" style="fill:#b55b52"></path><path d="M132.36,243.68c2.46,2,4,11.7.53,11.78a52.11,52.11,0,0,1-7.15-.44s-4.56-1.38-2.58-8.21S132.36,243.68,132.36,243.68Z" style="fill:#263238"></path><path d="M125.73,256.84a7.92,7.92,0,0,0,5.66,2.13c2.78-.12,3.33-2.82,1.86-5-1.32-2-4.37-4.27-6.82-3.09S123.88,255.06,125.73,256.84Z" style="fill:#b55b52"></path><path d="M141.19,246c.17.66.65,1.1,1.08,1s.64-.74.47-1.4-.65-1.09-1.08-1S141,245.34,141.19,246Z" style="fill:#263238"></path><path d="M148,244.42c.17.66.65,1.1,1.08,1s.64-.75.47-1.4-.65-1.1-1.08-1S147.86,243.76,148,244.42Z" style="fill:#263238"></path><path d="M145.9,245.53l1.38,5.54a6.39,6.39,0,0,0,2-.42.74.74,0,0,0,.09-1.31A13.32,13.32,0,0,1,145.9,245.53Z" style="fill:#a02724"></path><path d="M137.21,245a.44.44,0,0,1-.2,0,.4.4,0,0,1-.22-.52,4,4,0,0,1,2.73-2.44.4.4,0,0,1,.47.32.41.41,0,0,1-.32.47h0a3.16,3.16,0,0,0-2.14,1.95A.39.39,0,0,1,137.21,245Z" style="fill:#263238"></path><path d="M150.19,242a.4.4,0,0,1-.36-.09,3.13,3.13,0,0,0-2.74-.86.4.4,0,0,1-.48-.29.4.4,0,0,1,.29-.48,3.89,3.89,0,0,1,3.47,1,.41.41,0,0,1,0,.57A.31.31,0,0,1,150.19,242Z" style="fill:#263238"></path><path d="M148.55,254.07a.33.33,0,0,1-.17,0c-2.52-1.25-6-.5-6.07-.5a.38.38,0,0,1-.45-.28.38.38,0,0,1,.29-.45c.15,0,3.81-.8,6.56.56a.37.37,0,0,1-.16.71Z" style="fill:#263238"></path><path d="M122.66,251.55c-1.85-3.16-4.72-13.94,4.48-19.48s18.68-2.87,18.74.89-9.35,11.53-15.22,11.25-8,7.84-8,7.84" style="fill:#263238"></path><path d="M178.58,291.19a22,22,0,0,1-16-8.26c-7.43-9.54-4.93-16.72-4.93-16.72l.07,0a16.57,16.57,0,0,1,3.95-.39l.4.22c1.48.8,7.12,3.48,11.63,5.19A22.2,22.2,0,0,0,178.58,291.19Z" style="fill:#451575"></path><path d="M178.58,291.19a22,22,0,0,1-16-8.26c-7.43-9.54-4.93-16.72-4.93-16.72l.07,0a16.57,16.57,0,0,1,3.95-.39l.4.22c1.48.8,7.12,3.48,11.63,5.19A22.2,22.2,0,0,0,178.58,291.19Z" style="fill:#fff;opacity:0.7000000000000001"></path><polygon points="195.5 396.61 208.15 395.3 210.4 410.14 199.83 411.26 195.5 396.61" style="fill:#b55b52"></polygon><polygon points="195.5 396.62 208.16 395.3 209.41 403.62 197.92 404.82 195.5 396.62" style="opacity:0.2"></polygon><path d="M198,415.83h2.76l.75-1.12,1.45,1.13,16.69,0a7.49,7.49,0,0,0-.72-3.82s-5-.45-6.91-2.93a.63.63,0,0,0-.62-.25c-1.66.35-8.26,1.61-11.9.31a.6.6,0,0,0-.81.55A40.6,40.6,0,0,1,198,415.83Z" style="fill:#263238"></path><path d="M120.26,330.53s-7.89,26.05,13.34,33.22,42.21-5.48,42.21-5.48,0,5.48,18.91,45.78l15.68-3s-5.53-60.31-12.41-70.56-41.64-5.62-41.64-5.62Z" style="fill:#263238"></path><path d="M120.26,330.53s-7.89,26.05,13.34,33.22,42.21-5.48,42.21-5.48,0,5.48,18.91,45.78l15.68-3s-5.53-60.31-12.41-70.56-41.64-5.62-41.64-5.62Z" style="fill:#fff;isolation:isolate;opacity:0.4"></path><path d="M119.12,316.24c-.52-5.67-1.19-11.71-2.2-17.81,5.7-3.75,11.23-6.58,11.23-6.58S135.72,314.37,119.12,316.24Z" style="opacity:0.2"></path><path d="M127.39,288.57l-.79,3.71-.76,3.9c-.5,2.59-.91,5.2-1.28,7.76s-.6,5.12-.75,7.59a50.54,50.54,0,0,0,.1,7l-1.41-3.32a2.67,2.67,0,0,0-.67-.66c-.08-.05-.14,0-.07,0a4.44,4.44,0,0,0,.78.57,21.6,21.6,0,0,0,3,1.42c2.32.91,4.93,1.79,7.58,2.56s5.4,1.57,8.15,2.33,5.57,1.5,8.29,2.3l.13,0a4.67,4.67,0,0,1-.9,9.13c-3.09.27-6.06.34-9.09.34s-6.06-.15-9.13-.4a74.65,74.65,0,0,1-9.45-1.39,37.69,37.69,0,0,1-5.21-1.54,19.15,19.15,0,0,1-3.08-1.47,16,16,0,0,1-1.84-1.28,13.08,13.08,0,0,1-2.16-2.25,7.12,7.12,0,0,1-1.26-2.69l-.15-.63a53,53,0,0,1-1.33-10c-.07-1.62-.09-3.22-.07-4.81s.13-3.15.24-4.71c.22-3.11.63-6.16,1.14-9.18.27-1.51.54-3,.88-4.52.17-.75.34-1.5.53-2.25l.64-2.37a9.27,9.27,0,0,1,18,4.32Z" style="fill:#b65b52"></path><path d="M147.52,324.31l-1.47,5.15c.47,5.61,7.57,3.76,7.57,3.76l3.78.48a2.83,2.83,0,0,0,2.95-2.19l1.05-3.59a3,3,0,0,0-1.7-3.76l-3.18-1a5.73,5.73,0,0,0-2.85-.13Z" style="fill:#b55b52"></path><path d="M120.71,269.84C110,272.18,104.52,288,103.23,303.47c0,0,9.43,3.67,23.48,2.31,0,0,2.43-16.73,1.47-25.26S120.71,269.84,120.71,269.84Z" style="fill:#451575"></path><path d="M120.71,269.84C110,272.18,104.52,288,103.23,303.47c0,0,9.43,3.67,23.48,2.31,0,0,2.43-16.73,1.47-25.26S120.71,269.84,120.71,269.84Z" style="fill:#fff;opacity:0.7000000000000001"></path><path d="M175.31,290.77s-4.65-5.59-6.93-7.28C168.38,283.49,175.42,285,175.31,290.77Z" style="opacity:0.2"></path></g><g id="freepik--speech-bubble-2--inject-2"><path d="M332.11,190.54H289.38a8.85,8.85,0,0,0-8.85,8.85v25a8.85,8.85,0,0,0,8.85,8.85h28.4l13,13.9-7-13.9h8.38a8.85,8.85,0,0,0,8.85-8.85v-25A8.85,8.85,0,0,0,332.11,190.54Z" style="fill:#451575"></path><path d="M332.11,190.54H289.38a8.85,8.85,0,0,0-8.85,8.85v25a8.85,8.85,0,0,0,8.85,8.85h28.4l13,13.9-7-13.9h8.38a8.85,8.85,0,0,0,8.85-8.85v-25A8.85,8.85,0,0,0,332.11,190.54Z" style="fill:#fff;opacity:0.7000000000000001"></path><circle cx="306.05" cy="206.61" r="19.36" transform="translate(-55.77 132.85) rotate(-22.5)" style="fill:#451575"></circle><circle cx="306.05" cy="206.61" r="16.52" transform="translate(-55.77 132.85) rotate(-22.5)" style="fill:#fff;opacity:0.30000000000000004"></circle><path d="M307.24,215.52v2.79h-2v-2.76a10.9,10.9,0,0,1-6.1-2.07l1.12-2.51a9.55,9.55,0,0,0,5,1.89v-5c-2.77-.67-5.73-1.57-5.73-5,0-2.54,1.84-4.75,5.73-5.12v-2.82h2v2.77a10.66,10.66,0,0,1,5.05,1.51l-1,2.52a10.34,10.34,0,0,0-4-1.35v5c2.76.67,5.77,1.55,5.77,5C313,212.94,311.15,215.13,307.24,215.52Zm-2-10.65v-4.43c-1.77.27-2.52,1.17-2.52,2.26S303.75,204.45,305.2,204.87Zm4.63,5.75c0-1.22-1.1-1.79-2.59-2.22v4.41C309.05,212.54,309.83,211.69,309.83,210.62Z" style="fill:#451575"></path><rect x="319.75" y="207.1" width="9.71" height="1.7" style="fill:#451575"></rect><rect x="319.75" y="209.82" width="9.71" height="0.92" style="fill:#451575"></rect><polygon points="319.75 206.63 329.45 206.63 329.45 195 333.33 195 324.6 183 315.87 195 319.75 195 319.75 206.63" style="fill:#451575"></polygon><rect x="319.75" y="212.02" width="9.71" height="0.46" style="fill:#451575"></rect><g style="opacity:0.30000000000000004"><rect x="319.75" y="207.1" width="9.71" height="1.7"></rect><rect x="319.75" y="209.82" width="9.71" height="0.92"></rect><polygon points="319.75 206.63 329.45 206.63 329.45 195 333.33 195 324.6 183 315.87 195 319.75 195 319.75 206.63"></polygon><rect x="319.75" y="212.02" width="9.71" height="0.46"></rect></g></g><g id="freepik--speech-bubble-1--inject-2"><path d="M211.92,190.54H169.19a8.85,8.85,0,0,0-8.85,8.85v25a8.85,8.85,0,0,0,8.85,8.85h8.38l-7,13.9,13-13.9h28.4a8.85,8.85,0,0,0,8.85-8.85v-25A8.85,8.85,0,0,0,211.92,190.54Z" style="fill:#451575"></path><path d="M211.92,190.54H169.19a8.85,8.85,0,0,0-8.85,8.85v25a8.85,8.85,0,0,0,8.85,8.85h8.38l-7,13.9,13-13.9h28.4a8.85,8.85,0,0,0,8.85-8.85v-25A8.85,8.85,0,0,0,211.92,190.54Z" style="fill:#fff;opacity:0.7000000000000001"></path><path d="M209.32,196l1.86-.53-.68-3.67-1.92.17a10.2,10.2,0,0,0-2-3.13l.94-1.69L204.41,185l-1.25,1.49a10,10,0,0,0-3.65-.79l-.52-1.85-3.67.67.17,1.93a9.88,9.88,0,0,0-3.13,2l-1.7-.94-2.11,3.08,1.48,1.24a10,10,0,0,0-.78,3.65l-1.86.53.68,3.67,1.92-.17a10.32,10.32,0,0,0,2,3.13l-.94,1.69,3.07,2.11,1.25-1.48a9.78,9.78,0,0,0,3.65.78l.52,1.86,3.68-.68-.18-1.92a9.74,9.74,0,0,0,3.13-2l1.7.95,2.11-3.08-1.48-1.24A10,10,0,0,0,209.32,196Zm-9.12,4.74a5.05,5.05,0,1,1,4.06-5.89A5,5,0,0,1,200.2,200.72Z" style="fill:#451575"></path><path d="M181.21,211a7.24,7.24,0,0,0,2.25-1.47l1.21.68,1.52-2.21-1.07-.89a7.08,7.08,0,0,0,.57-2.62l1.33-.38-.49-2.64-1.38.12a7.21,7.21,0,0,0-1.46-2.25l.68-1.21-2.21-1.52-.9,1.07a7,7,0,0,0-2.62-.57l-.38-1.33-2.64.49.13,1.38a7.1,7.1,0,0,0-2.25,1.46l-1.22-.68-1.52,2.21,1.07.89a7.28,7.28,0,0,0-.56,2.63l-1.34.38.49,2.63,1.38-.12a7.28,7.28,0,0,0,1.46,2.25l-.67,1.22,2.21,1.52.89-1.07a7.23,7.23,0,0,0,2.62.56l.38,1.34,2.64-.49Zm-2.07-3.11a3.63,3.63,0,1,1,2.91-4.23A3.62,3.62,0,0,1,179.14,207.93Z" style="fill:#451575;opacity:0.6000000000000001"></path><path d="M203.2,218l-.58-3.14L201,215a8.6,8.6,0,0,0-1.74-2.68l.81-1.44L197.4,209l-1.06,1.27a8.43,8.43,0,0,0-3.12-.67l-.45-1.59-3.14.58.14,1.64A8.62,8.62,0,0,0,187.1,212l-1.45-.8-1.81,2.63,1.27,1.06a8.47,8.47,0,0,0-.67,3.12l-1.59.46.58,3.14,1.65-.15a8.6,8.6,0,0,0,1.74,2.68l-.81,1.44,2.63,1.81,1.06-1.27a8.52,8.52,0,0,0,3.13.67l.45,1.59,3.14-.58-.15-1.64a8.4,8.4,0,0,0,2.68-1.75l1.45.81,1.81-2.63-1.27-1.06a8.68,8.68,0,0,0,.67-3.13Zm-9.39,4.51a4.32,4.32,0,1,1,3.46-5A4.33,4.33,0,0,1,193.81,222.47Z" style="fill:#451575;opacity:0.5"></path></g></svg>
