<svg xmlns="http://www.w3.org/2000/svg" width="665.571" height="1006.742" viewBox="0 0 176.099 266.367" xmlns:v="https://vecta.io/nano"><g fill-rule="evenodd"><path d="M0 201.685h176.266v3.857H0zm.079 60.836H176.85v3.849H.079z"/><path d="M.435 80.745h175.692v116.993H.435zm0-80.657h175.692v76.655H.435z" stroke="#231f20" stroke-width=".176" stroke-miterlimit="2.61313"/></g><text xml:space="preserve" transform="matrix(.264583 0 0 .264583 -924.45414 -411.95625)" style="white-space:pre" x="186.443" font-size="70" font-family="Cooper Black" fill="#000" y="0"><tspan x="3672.605" y="2390.225"><tspan font-family="Calibri" text-anchor="middle">Assesment</tspan></tspan><tspan x="3642.202" y="2462.113"><tspan font-family="Calibri" text-anchor="middle">Advisory and</tspan></tspan><tspan x="3591.172" y="2534"><tspan font-family="Calibri" text-anchor="middle">Remedial Centre</tspan></tspan></text><g fill-rule="evenodd"><path d="M14.643 158.658s0-2.846.414-4.346 2.173-10.347 2.173-10.347l-.957-.052.078-4.967s.31-.466 1.552-.828l1.397-.414 6.364-17.694 1.552-3.673-.207-3.311 2.173-.155s2.716-3.492 4.165-4.268 1.526-.621 1.733-.31.621 2.044.233 3.647-.724 2.173-.724 2.173 3.88.517 4.656 3.518 1.087 9.468.983 12.417l-.155 3.828.931.414.259 1.914-1.19 1.293-.828 15.314s-1.035 2.794-1.604 3.053-1.048.207-1.048.207c.005-1.964.432-18.224-1.255-18.134-.556.03-12.417 4.268-12.934 5.303s-4.941 15.935-4.941 15.935zm9.984-22.791s4.915-12.21 5.898-13.659 2.949-2.639 3.622-.828c1.493 4.018.746 9.229 1.293 13.607zm20.26 19.816c.879-3.949 1.823-7.713 2.558-11.719l-.957-.052.078-4.967s.31-.466 1.552-.828l1.397-.414 6.364-17.694c1.293-3.363 1.552-3.673 1.552-3.673l-.207-3.311 2.173-.155s2.716-3.492 4.165-4.268 1.526-.621 1.733-.31.621 2.044.233 3.647-.724 2.173-.724 2.173 3.88.517 4.656 3.518 1.087 9.468.983 12.417l-.155 3.828.931.414.259 1.914-1.19 1.293-.828 15.314s-1.035 2.794-1.604 3.053-1.048.207-1.048.207c.006-1.964.432-18.224-1.255-18.134-.556.03-12.96 3.725-13.478 4.76s-3.906 13.038-3.906 13.038zm9.954-19.816s4.915-12.21 5.898-13.659 2.949-2.639 3.621-.828c1.493 4.018.746 9.229 1.293 13.607zm24.021 19.897s1.293-13.503.75-14.305-2.173-1.242-1.526-2.871.75-1.604 1.682-2.095 1.086-.595 1.086-.595-1.035-20.488.311-22.04 3.725-3.518 7.14-3.104 7.657.517 11.9 3.932 5.018 3.88 5.277 4.915.621 4.812.103 6.622-5.018 4.501-6.467 5.225-7.657 4.087-8.795 4.45-2.949 1.138-2.897 2.276.931 1.863 1.863 2.69 16.038 14.952 16.038 14.952l.311 4.294-1.759.207S84.89 145.675 84.062 145.52s-1.19-.103-1.293.466-.414 9.985-.931 10.14-2.975-.362-2.975-.362zm5.251-34.043s-1.345-1.759-.362-2.639 2.173-1.19 3.363-.931 9.571 1.604 10.347 2.173 1.656 2.018 1.5 3.984-.673 2.794-1.656 3.466-8.278 4.449-8.847 4.76-2.535 1.863-2.535.724c0-1.157 4.241-14.088-.052-12.055-.983.466-1.759.517-1.759.517zm48.71 26.256l1.707.259s-5.336 6.511-10.141 7.709c-20.209 5.039-20.369-27.217-4.864-41.907 1.966-1.863 5.277-4.734 8.718-4.708s4.915.44 5.976 1.785 2.82 3.259 2.302 8.743-1.604 11.486-2.69 13.296-1.656 3.57-2.794 3.932-2.277-.155-2.639-1.759-.259-5.95.259-7.916 1.19-5.084 1.966-5.95c2.327-2.594.55-5.633-2.897-5.381-6.172.452-7.8 4.944-10.399 9.882-1.035 1.966-3.415 7.786-2.613 13.271s2.251 8.64 4.216 10.296 3.88 1.966 6.157 1.759 4.294-1.449 5.07-1.914 2.665-1.396 2.665-1.396" fill="#caccd8 icc-color(srgb-iec61966-2, 0.1, 0.79219055, 0.79998779, 0.84709167)"/><path d="M134.684 163.457c-.209.07-.501.266-.807.465.264.412.322.818-.382 1.191-.879.466-1.138 1.345-1.966 1.293s-3.466 2.018-4.863 2.483l-2.587.983c-.517.31-1.966.621-2.483 1.242l-.743.973c.083.032.169.089.257.178.724.724.672.517 1.293.362s3.518-1.5 4.346-1.966l4.346-2.639c.673-.414 2.897-1.5 3.518-2.069s1.766-1.339 1.139-2.057-1.067-.439-1.067-.439zm-2.405.36c-.134-.458.018-.571.569-1.291.672-.88 1.034-2.38 2.483-3.208s1.759-2.639 2.742-3.415.724-1.5 1.811-2.173 2.949-3.621 3.57-3.777.88-1.862 1.656-2.173 1.552-1.293 2.069-2.07.052-.207 1.5-1.19 2.38-3.467 3.596-3.958 2.173-.388 2.535.233 1.087.207 1.449-.388.233-1.94.931-2.587.698-.931 1.5-.906 1.526 0 1.319 1.268-.802 2.018-1.449 2.639-1.009 1.862-1.578 2.147-1.061.724-1.113 1.138-3.415 3.984-3.932 4.501-.776 1.707-.776 1.707.259.672.931.259 1.914-2.432 2.742-3.156 1.449-2.069 1.966-2.328.31.31.88-.259 1.914-3.104 2.742-3.363 1.5.103 1.138.828-14.745 21.885-22.557 28.404-9.882 8.019-10.865 8.485-1.966.724-1.914 0 .207-1.811.931-2.328l2.328-1.707s.517-1.138-.621-1.604-1.966-.259-2.845.259-3.104 1.707-3.415 2.38-1.035 1.759-.414 2.069 1.552-.052 2.432.259 1.345 1.811.31 2.069-3.673 1.966-6.157 2.483-4.967 1.914-5.743 1.966-3.57.828-4.501.673-2.845.207-4.967.052-2.742-.362-2.949.103-.052 1.138.776 1.138 4.967.466 6.674.466 2.432-.362 2.432.259-.31.776-1.138.724l-12.417-.828c-1.966-.104-2.037.272-2.451-.09s-2.173-.259-3.208-.517-2.432-.466-3.415-1.087-2.794-1.759-3.621-2.069-1.345-.414-3.518-.88-5.484-1.604-6.881-2.173-2.949-1.138-3.725-1.811-1.449-.725-1.552-1.914.103-1.863.879-1.604 4.863 1.759 7.502 2.07 3.363.724 3.777 0-.517-1.759-1.242-2.173-2.38-.466-2.897-.776-.828-.569-2.483-.879-1.914-.155-2.69-.466-2.018-1.19-2.639-1.552-1.449-.673-1.475-1.164-.595-1.63-.181-1.914 1.035-.492 1.5-.078.88 1.164 1.681 1.604 2.69.388 3.544.388 2.276-.31 2.923-.155 1.449.052 1.992.517 1.681 1.475 1.94 1.552 1.164.336 1.397-.233.905-2.069-.078-2.432-2.846-.698-3.182-.983-.673-.543-.673-.905.336-1.086 1.112-1.009 1.914.026 2.716.026 1.552.75 2.458 1.423 1.707 1.526 2.639 2.069 3.078 1.061 4.346 1.138 1.63.207 2.897.078 1.604.078 2.354-.233 1.009-.724 1.785-.388.104.983 1.242 1.475 1.63.492 2.664.44 1.035-.207 1.5.362-.129.647 1.552.414 4.346-.75 4.346-.75-.31 1.811.259 2.483 1.604.828 2.639.569 5.381-1.552 6.002-1.811.724-.362.931-.828c.113-.255.335-.772.63-1.071-.445-.181-.894-.689-1.438-.442l-2.846 1.19s-2.846.828-3.518.517-.466-1.19-.931-1.5-6.519-.569-7.554-.983-1.811-.672-2.432-.828-1.5.052-2.587-.466-2.018-.517-2.794-.517-1.656-.155-2.069-.414-1.5-.155-1.5-.155-1.086-.517-1.293-.983-.362-.414-.931-.672-1.268-.233-2.121-.466l-.853-.233s-.776-.724-.776-1.449-.362-1.242.259-1.552 6.312.207 6.778.052-.052.88 1.397.983 2.38-.518 3.001-.155.517 1.293 2.069 1.397 2.018 0 3.208-.31 1.345-.104 1.966.31.052 1.138.931 1.19 2.018-.259 2.639-.104.828.466.828.466 2.587.052 3.673-.31 3.622-1.5 4.501-1.707 1.035-.414 2.639-.983 1.5-.362 1.914-1.035 1.604-.879 2.639-.879.879-.724 2.018-.724 1.863-.207 2.225.466.025 2.406.905 2.458c.865.051 1.58-.649 2.095-.623" fill="#154575 icc-color(srgb-iec61966-2, 0.1, 0.08239746, 0.27059937, 0.45878601)"/></g></svg>