<?xml version="1.0" encoding="UTF-8" standalone="no"?>
<svg
   version="1.1"
   width="501.43466pt"
   height="789.1864pt"
   id="svg122"
   viewBox="0 0 501.43466 789.1864"
   sodipodi:docname="path2.svg"
   inkscape:version="1.3 (0e150ed6c4, 2023-07-21)"
   xmlns:inkscape="http://www.inkscape.org/namespaces/inkscape"
   xmlns:sodipodi="http://sodipodi.sourceforge.net/DTD/sodipodi-0.dtd"
   xmlns="http://www.w3.org/2000/svg"
   xmlns:svg="http://www.w3.org/2000/svg">
  <sodipodi:namedview
     id="namedview1"
     pagecolor="#ffffff"
     bordercolor="#000000"
     borderopacity="0.25"
     inkscape:showpageshadow="2"
     inkscape:pageopacity="0.0"
     inkscape:pagecheckerboard="0"
     inkscape:deskcolor="#d1d1d1"
     inkscape:document-units="pt"
     inkscape:zoom="0.52886083"
     inkscape:cx="417.87931"
     inkscape:cy="647.61839"
     inkscape:window-width="1920"
     inkscape:window-height="1001"
     inkscape:window-x="-9"
     inkscape:window-y="-9"
     inkscape:window-maximized="1"
     inkscape:current-layer="Layer1000" />
  <defs
     id="defs126">
    <rect
       x="68.188914"
       y="390.41496"
       width="448.55641"
       height="161.63085"
       id="rect2" />
    <rect
       x="4.0111126"
       y="791.52622"
       width="665.84469"
       height="242.00379"
       id="rect1" />
  </defs>
  <g
     id="Layer1000"
     transform="translate(-218.37119,-289.2818)">
    <path
       d="m 219.60441,512.49284 c 0,110.54393 0,221.08785 0,331.63178 166.95332,0 333.90664,0 500.85996,0 0,-110.54393 0,-221.08785 0,-331.63178 -166.95332,0 -333.90664,0 -500.85996,0 z"
       style="fill:#131510;fill-rule:evenodd;stroke:#1b1918;stroke-width:0.50142;stroke-linecap:butt;stroke-linejoin:miter;stroke-dasharray:none"
       id="path2"
       inkscape:export-filename="path3.svg"
       inkscape:export-xdpi="96"
       inkscape:export-ydpi="96" />
    <path
       d="m 218.3712,850.5085 v 10.8904 h 500.56918 v -10.8904 z"
       style="fill:#131510;fill-rule:evenodd;stroke-width:1.00285"
       id="path4" />
    <g
       id="Layer1001">
      <path
         d="m 834.46988,727.99044 c 0,0 3e-4,-8.0662 1.1735,-12.319 1.1731,-4.2528 6.1595,-29.331 6.1595,-29.331 l -2.713,-0.1466 0.2198,-14.079 c 0,0 0.8788,-1.3209 4.3986,-2.3474 3.5197,-1.0265 3.9598,-1.1731 3.9598,-1.1731 0,0 14.3719,-40.6236 18.0385,-50.1562 3.6666,-9.5327 4.3997,-10.4126 4.3997,-10.4126 l -0.5865,-9.3861 6.1596,-0.4398 c 0,0 7.6993,-9.8996 11.8058,-12.0993 4.1064,-2.1997 4.3262,-1.7599 4.9129,-0.8799 0.5867,0.8799 1.7601,5.7931 0.6602,10.3394 -1.1,4.5463 -2.0534,6.1595 -2.0534,6.1595 0,0 10.9985,1.4656 13.1984,9.9717 2.2,8.5061 3.0802,26.8381 2.7867,35.1976 -0.2935,8.3595 -0.4401,10.8524 -0.4401,10.8524 l 2.6398,1.1734 0.7333,5.4262 -3.3731,3.6664 -2.3463,43.4097 c 0,0 -2.9333,7.9194 -4.5465,8.6527 -1.6133,0.7333 -2.9696,0.5867 -2.9696,0.5867 0.0155,-5.5664 1.2252,-51.6589 -3.5566,-51.4028 -1.5767,0.0845 -35.1974,12.0993 -36.664,15.0323 -1.4667,2.933 -14.0055,45.1698 -14.0055,45.1698 z m 28.3004,-64.604 c 0,0 13.9323,-34.6111 16.7187,-38.7173 2.7864,-4.1062 8.3589,-7.4793 10.2657,-2.3463 4.2309,11.3898 2.1154,26.1613 3.6666,38.5704 z m 57.4298,56.1725 c 2.4913,-11.1955 5.1663,-21.8637 7.2498,-33.2185 l -2.7129,-0.1466 0.2197,-14.079 c 0,0 0.8789,-1.3209 4.3986,-2.3474 3.5197,-1.0265 3.9598,-1.1731 3.9598,-1.1731 0,0 14.3719,-40.6236 18.0385,-50.1562 3.6667,-9.5327 4.3997,-10.4126 4.3997,-10.4126 l -0.5864,-9.3861 6.1595,-0.4398 c 0,0 7.6993,-9.8996 11.8058,-12.0993 4.1064,-2.1997 4.3262,-1.7599 4.9129,-0.8799 0.5867,0.8799 1.7602,5.7931 0.6602,10.3394 -1.1,4.5463 -2.0534,6.1595 -2.0534,6.1595 0,0 10.9985,1.4656 13.1985,9.9717 2.1999,8.5061 3.0802,26.8381 2.7867,35.1976 -0.2935,8.3595 -0.4401,10.8524 -0.4401,10.8524 l 2.6398,1.1734 0.7333,5.4262 -3.3731,3.6664 -2.3463,43.4097 c 0,0 -2.9333,7.9194 -4.5466,8.6527 -1.6133,0.7333 -2.9696,0.5867 -2.9696,0.5867 0.0155,-5.5664 1.225,-51.6586 -3.5566,-51.4028 -1.5764,0.0843 -36.7374,10.5592 -38.2041,13.4922 -1.4666,2.933 -11.0719,36.9572 -11.0719,36.9572 z m 28.2172,-56.1725 c 0,0 13.9323,-34.6111 16.7187,-38.7173 2.7864,-4.1062 8.359,-7.4793 10.2657,-2.3463 4.2309,11.3898 2.1155,26.1613 3.6667,38.5704 z m 68.09212,56.4011 c 0,0 3.6661,-38.2772 2.1263,-40.5503 -1.5398,-2.2732 -6.1598,-3.5201 -4.3265,-8.1395 1.8333,-4.6194 2.1268,-4.5463 4.7666,-5.9395 2.6398,-1.3932 3.0796,-1.6864 3.0796,-1.6864 0,0 -2.9327,-58.0762 0.8802,-62.4758 3.813,-4.3997 10.5592,-9.9725 20.2385,-8.7994 9.6793,1.1732 21.7054,1.4667 33.731,11.146 12.0255,9.6792 14.2255,10.999 14.9588,13.932 0.7334,2.933 1.7602,13.6388 0.2935,18.7718 -1.4666,5.133 -14.2255,12.7589 -18.332,14.8123 -4.1064,2.0533 -21.7051,11.586 -24.9316,12.6125 -3.2265,1.0266 -8.3592,3.2263 -8.2126,6.4528 0.1466,3.2265 2.6398,5.2799 5.2796,7.6262 2.6398,2.3463 45.463,42.3837 45.463,42.3837 l 0.8808,12.1724 -4.9864,0.5867 c 0,0 -53.8231,-41.504 -56.1694,-41.9438 -2.3463,-0.4399 -3.3731,-0.2932 -3.6663,1.32 -0.2932,1.6133 -1.1732,28.3048 -2.6398,28.7446 -1.4667,0.4398 -8.4333,-1.0263 -8.4333,-1.0263 z m 14.8857,-96.5 c 0,0 -3.8129,-4.9864 -1.0265,-7.4795 2.7864,-2.4932 6.1595,-3.3732 9.5327,-2.6398 3.3731,0.7333 27.1316,4.5462 29.3313,6.1595 2.1997,1.6132 4.6931,5.7194 4.253,11.2925 -0.4401,5.5731 -1.9067,7.9191 -4.6931,9.8259 -2.7865,1.9067 -23.4653,12.6125 -25.0783,13.4925 -1.613,0.8799 -7.1861,5.2796 -7.1861,2.0531 0,-3.2787 12.0212,-39.9352 -0.1466,-34.1708 -2.7864,1.32 -4.9864,1.4666 -4.9864,1.4666 z m 138.075,74.4271 4.8395,0.7331 c 0,0 -15.1251,18.4559 -28.7446,21.8517 -57.2846,14.2832 -57.7397,-77.1503 -13.7862,-118.7913 5.5728,-5.2793 14.9588,-13.4193 24.7113,-13.3459 9.7524,0.0735 13.932,1.2469 16.9385,5.0599 3.0064,3.8129 7.9934,9.2389 6.5267,24.7842 -1.4666,15.5453 -4.5462,32.5578 -7.6261,37.6905 -3.08,5.1327 -4.6929,10.1191 -7.9194,11.1456 -3.2266,1.0266 -6.4531,-0.4395 -7.4796,-4.9861 -1.0266,-4.5465 -0.7333,-16.8656 0.7333,-22.4384 1.4667,-5.5728 3.372,-14.4124 5.5728,-16.8654 6.5961,-7.3515 1.5592,-15.9676 -8.2126,-15.2523 -17.4953,1.2804 -22.1111,14.0135 -29.4779,28.0112 -2.933,5.5731 -9.679,22.0718 -7.4059,37.6174 2.2732,15.5456 6.3796,24.4912 11.9525,29.1841 5.5728,4.6929 10.9993,5.5726 17.452,4.9861 6.4528,-0.5864 12.1722,-4.1064 14.3722,-5.4262 2.1999,-1.3197 7.5535,-3.9582 7.5535,-3.9582 z"
         style="fill:#caccd8;fill-rule:evenodd"
         id="path6" />
      <g
         id="Layer1002" />
      <path
         d="m 600.1534,752.6244 c -0.5934,0.1979 -1.4201,0.7541 -2.2889,1.3173 0.7471,1.169 0.9129,2.3197 -1.0826,3.3759 -2.4932,1.3197 -3.2265,3.8129 -5.5731,3.6663 -2.3465,-0.1466 -9.8261,5.7197 -13.7857,7.0395 -3.9595,1.3197 -5.866,1.9065 -7.3327,2.7864 -1.4666,0.8799 -5.5728,1.7599 -7.0394,3.5197 -0.8276,0.993 -1.4683,2.0794 -2.1066,2.7584 0.2359,0.0912 0.4789,0.2536 0.7286,0.5036 2.0531,2.0534 1.9065,1.4664 3.6664,1.0265 1.7598,-0.4398 9.9724,-4.2527 12.319,-5.5728 2.3466,-1.32 10.4129,-6.3064 12.3194,-7.4795 1.9064,-1.1732 8.2126,-4.2528 9.9725,-5.8661 1.7598,-1.6132 5.0057,-3.7944 3.2273,-5.8294 -1.7784,-2.0351 -3.0242,-1.2458 -3.0242,-1.2458 z m -6.8186,1.021 c -0.3791,-1.2981 0.0507,-1.6185 1.6124,-3.6608 1.9065,-2.4932 2.9322,-6.7462 7.0387,-9.0928 4.1064,-2.3466 4.9864,-7.4796 7.7728,-9.6793 2.7864,-2.1997 2.0533,-4.2531 5.133,-6.1595 3.0796,-1.9065 8.3592,-10.2657 10.1191,-10.7058 1.7598,-0.4401 2.4934,-5.2796 4.6931,-6.1596 2.1997,-0.8799 4.3994,-3.6663 5.8661,-5.8663 1.4666,-2.2 0.1466,-0.5867 4.253,-3.3731 4.1065,-2.7864 6.746,-9.8264 10.1926,-11.2196 3.4465,-1.3933 6.1598,-1.1 7.1863,0.6598 1.0265,1.7599 3.0799,0.5865 4.1065,-1.1 1.0265,-1.6864 0.6601,-5.4993 2.6398,-7.3326 1.9796,-1.8333 1.9793,-2.6401 4.2527,-2.5667 2.2734,0.0735 4.3263,0 3.7398,3.5932 -0.5864,3.5932 -2.2728,5.7197 -4.1062,7.4796 -1.8333,1.7598 -2.8598,5.2793 -4.4731,6.0861 -1.6132,0.8067 -3.0073,2.0533 -3.1539,3.2265 -0.1466,1.1731 -9.679,11.2922 -11.1456,12.7589 -1.4667,1.4666 -2.2,4.8398 -2.2,4.8398 0,0 0.7333,1.9061 2.6398,0.733 1.9065,-1.1732 5.4262,-6.8929 7.7728,-8.9459 2.3466,-2.0531 4.1062,-5.8661 5.5728,-6.5994 1.4667,-0.7333 0.88,0.8799 2.4932,-0.7333 1.6133,-1.6133 5.4262,-8.7994 7.7728,-9.5327 2.3466,-0.7333 4.2531,0.2935 3.2265,2.3466 -1.0265,2.0531 -41.7972,62.0357 -63.9422,80.5143 -22.1449,18.4786 -28.0112,22.7314 -30.7976,24.0514 -2.7864,1.3201 -5.5728,2.0531 -5.4262,0 0.1466,-2.0531 0.5867,-5.1327 2.6398,-6.5993 2.053,-1.4667 6.5993,-4.8398 6.5993,-4.8398 0,0 1.4664,-3.2262 -1.7598,-4.5463 -3.2263,-1.32 -5.5729,-0.733 -8.0661,0.7333 -2.4931,1.4664 -8.7993,4.8398 -9.6792,6.7463 -0.88,1.9065 -2.9336,4.9861 -1.1735,5.866 1.7602,0.88 4.3997,-0.1466 6.8929,0.7334 2.4932,0.8799 3.813,5.1329 0.8797,5.8663 -2.9333,0.7333 -10.4126,5.5728 -17.4521,7.0394 -7.0395,1.4667 -14.0789,5.4265 -16.2789,5.5731 -2.2,0.1466 -10.1194,2.3463 -12.7592,1.9065 -2.6398,-0.4398 -8.066,0.5864 -14.0789,0.1466 -6.0129,-0.4398 -7.7725,-1.0262 -8.3592,0.2935 -0.5867,1.3198 -0.1469,3.2263 2.1997,3.2263 2.3465,0 14.0792,1.32 18.9187,1.32 4.8395,0 6.8928,-1.0266 6.8928,0.7333 0,1.7599 -0.8799,2.1997 -3.2265,2.0531 -2.3466,-0.1466 -29.6245,-2.0531 -35.1976,-2.3463 -5.5731,-0.2932 -5.7746,0.7707 -6.9477,-0.2561 -1.1732,-1.0268 -6.1593,-0.7333 -9.0926,-1.4666 -2.9333,-0.7334 -6.8931,-1.3201 -9.6795,-3.0799 -2.7864,-1.7599 -7.9192,-4.9861 -10.2657,-5.8661 -2.3466,-0.8799 -3.8133,-1.1731 -9.9728,-2.4932 -6.1595,-1.32 -15.5453,-4.5462 -19.5051,-6.1595 -3.9599,-1.6133 -8.3593,-3.2265 -10.5592,-5.133 -2.2,-1.9065 -4.1062,-2.0536 -4.3997,-5.4265 -0.2935,-3.3728 0.2929,-5.2796 2.4929,-4.5463 2.2,0.7334 13.786,4.9864 21.2653,5.8664 7.4793,0.8799 9.5326,2.053 10.7058,0 1.1732,-2.0531 -1.4666,-4.9864 -3.5197,-6.1596 -2.0531,-1.1731 -6.746,-1.32 -8.2127,-2.1999 -1.4666,-0.88 -2.3463,-1.613 -7.0394,-2.493 -4.6932,-0.8799 -5.4262,-0.4401 -7.6262,-1.32 -2.2,-0.8799 -5.7197,-3.3731 -7.4796,-4.3997 -1.7598,-1.0265 -4.107,-1.9067 -4.1801,-3.2999 -0.0732,-1.3932 -1.6865,-4.6197 -0.5133,-5.4262 1.1731,-0.8065 2.9333,-1.3935 4.253,-0.2201 1.3198,1.1734 2.4932,3.3002 4.7664,4.5466 2.2731,1.2463 7.6262,1.0997 10.0459,1.0997 2.4198,0 6.4528,-0.8797 8.2861,-0.4399 1.8333,0.4399 4.1061,0.1469 5.6462,1.4667 1.5401,1.3198 4.7664,4.1799 5.4997,4.3997 0.7333,0.2197 3.2999,0.9531 3.9598,-0.6602 0.6599,-1.6133 2.5664,-5.8663 -0.22,-6.8929 -2.7864,-1.0265 -8.066,-1.9799 -9.0194,-2.7864 -0.9534,-0.8065 -1.9065,-1.5395 -1.9065,-2.5663 0,-1.0268 0.9534,-3.0796 3.1531,-2.8599 2.1997,0.2198 5.4262,0.0732 7.6993,0.0732 2.2732,0 4.4,2.126 6.9663,4.0324 2.5664,1.9065 4.8395,4.326 7.4793,5.8661 2.6398,1.5401 8.7265,3.0064 12.3194,3.2265 3.5929,0.2201 4.6194,0.5867 8.2126,0.2201 3.5932,-0.3667 4.5463,0.22 6.6728,-0.6599 2.1265,-0.88 2.8601,-2.0534 5.0598,-1.1 2.1997,0.9534 0.2935,2.7867 3.5197,4.1799 3.2263,1.3932 4.6198,1.3935 7.5528,1.2466 2.933,-0.1469 2.9333,-0.5867 4.253,1.0265 1.3198,1.6133 -0.3666,1.833 4.3997,1.1732 4.7663,-0.6599 12.3196,-2.1266 12.3196,-2.1266 0,0 -0.8799,5.133 0.7334,7.0395 1.6132,1.9065 4.546,2.3466 7.4792,1.6133 2.9333,-0.7334 15.2527,-4.4005 17.0126,-5.1336 1.7598,-0.733 2.053,-1.0262 2.6398,-2.3463 0.3206,-0.7217 0.9483,-2.1889 1.787,-3.0347 -1.2613,-0.5138 -2.5345,-1.9539 -4.0754,-1.2538 -1.6133,0.733 -4.8401,1.7596 -8.0663,3.3728 -3.2262,1.6133 -8.066,2.3466 -9.9725,1.4667 -1.9065,-0.88 -1.3198,-3.3731 -2.6398,-4.2531 -1.32,-0.8799 -18.4792,-1.6132 -21.4122,-2.7867 -2.933,-1.1734 -5.133,-1.9064 -6.8928,-2.3466 -1.7599,-0.4401 -4.2528,0.1464 -7.3327,-1.32 -3.0799,-1.4664 -5.7194,-1.4664 -7.9194,-1.4664 -2.2,0 -4.6932,-0.4403 -5.8663,-1.1734 -1.1732,-0.733 -4.2531,-0.4398 -4.2531,-0.4398 0,0 -3.0796,-1.4664 -3.6663,-2.7864 -0.5867,-1.3201 -1.0266,-1.1732 -2.6398,-1.9065 -1.6133,-0.7333 -3.5949,-0.6602 -6.013,-1.32 -2.418,-0.6599 -2.418,-0.6599 -2.418,-0.6599 0,0 -2.1997,-2.0528 -2.1997,-4.1062 0,-2.0534 -1.0269,-3.5197 0.733,-4.3997 1.7599,-0.8799 17.8925,0.5868 19.2122,0.1466 1.3198,-0.4401 -0.1469,2.4932 3.9596,2.7865 4.1064,0.2932 6.7462,-1.467 8.5061,-0.4401 1.7599,1.0268 1.4666,3.6666 5.8663,3.9598 4.3997,0.2932 5.7194,0 9.0926,-0.8799 3.3731,-0.88 3.8129,-0.2933 5.5728,0.8799 1.7598,1.1731 0.1466,3.2265 2.6398,3.3731 2.4932,0.1466 5.7197,-0.733 7.4795,-0.2932 1.7599,0.4398 2.3466,1.3198 2.3466,1.3198 0,0 7.333,0.1466 10.4126,-0.88 3.0796,-1.0265 10.2657,-4.2533 12.7589,-4.8397 2.4932,-0.5865 2.9333,-1.1732 7.4796,-2.7865 4.5463,-1.6132 4.2528,-1.0265 5.4262,-2.933 1.1734,-1.9065 4.5466,-2.4932 7.4796,-2.4932 2.933,0 2.4929,-2.0531 5.7194,-2.0531 3.2265,0 5.2799,-0.5867 6.3064,1.3198 1.0266,1.9065 0.0718,6.8194 2.565,6.9663 2.4516,0.1444 4.4775,-1.8388 5.9389,-1.7654 z"
         style="fill:#154575;fill-rule:evenodd"
         id="path9" />
      <text
         xml:space="preserve"
         transform="matrix(0.75,0,0,0.75,245.3159,330.40793)"
         id="text2"
         style="font-style:normal;font-variant:normal;font-weight:normal;font-stretch:normal;font-size:150px;line-height:1;font-family:'Lato Black';-inkscape-font-specification:'Lato Black, ';text-align:center;white-space:pre;shape-inside:url(#rect2);shape-padding:7.56343;fill:#caccd8;fill-opacity:1"><tspan
           x="79.392803"
           y="518.72656"
           id="tspan3"><tspan
             style="font-family:'Poppins SemiBold';-inkscape-font-specification:'Poppins SemiBold, '"
             id="tspan1">AARC&#10;</tspan></tspan></text>
    </g>
    <g
       id="Layer1003" />
    <path
       d="m 217.61255,1036.0777 v 10.8905 h 500.5002 v -10.8905 z"
       style="fill:#131510;fill-rule:evenodd;stroke-width:1.01745"
       id="path117" />
    <path
       d="M 219.60441,289.53251 V 506.82149 H 720.46438 V 289.53251 Z"
       style="fill:#131510;fill-rule:evenodd;stroke:#1b1918;stroke-width:0.501419;stroke-linecap:butt;stroke-linejoin:miter;stroke-dasharray:none"
       id="path119" />
    <text
       xml:space="preserve"
       transform="matrix(0.75,0,0,0.75,218.37119,268.2818)"
       id="text1"
       style="font-style:normal;font-variant:normal;font-weight:normal;font-stretch:normal;font-size:80px;line-height:1;font-family:Lato;-inkscape-font-specification:Lato;text-align:center;white-space:pre;shape-inside:url(#rect1);fill:#000000;fill-opacity:1"><tspan
         x="145.73364"
         y="855.92539"
         id="tspan4">Assesment&#10;</tspan><tspan
         x="107.85362"
         y="935.92539"
         id="tspan5">Advisory and&#10;</tspan><tspan
         x="53.693619"
         y="1015.9254"
         id="tspan6">Remidial Centre</tspan></text>
  </g>
</svg>
