<svg xmlns="http://www.w3.org/2000/svg" xmlns:xlink="http://www.w3.org/1999/xlink" viewBox="0 0 500 500" xmlns:v="https://vecta.io/nano"><style><![CDATA[.B{opacity:.5}.C{fill:#263238}.D{fill:#f5f5f5}.E{opacity:.2}.F{fill:#e6e6e6}.G{fill:#b55b52}.H{fill:#154575}.I{fill:#ebebeb}.J{fill:#f0f0f0}.K{fill:#fafafa}]]></style><path d="M0 382.4h500v.25H0zm416.78 16.09h33.12v.25h-33.12zm-148.92-7.73h27.36v.25h-27.36zm128.73-1.55h19.19v.25h-19.19zm-344.13 1.68h17.15v.25H52.46zm26.05 0h32.38v.25H78.51zm86.27 4.22h60.37v.25h-60.37zM237 337.8H43.91a5.71 5.71 0 0 1-5.7-5.71V60.66a5.71 5.71 0 0 1 5.7-5.66H237a5.71 5.71 0 0 1 5.71 5.71v271.38a5.71 5.71 0 0 1-5.71 5.71zM43.91 55.2a5.46 5.46 0 0 0-5.45 5.46v271.43a5.46 5.46 0 0 0 5.45 5.46H237a5.47 5.47 0 0 0 5.46-5.46V60.66A5.47 5.47 0 0 0 237 55.2zm409.4 282.6h-193.1a5.72 5.72 0 0 1-5.71-5.71V60.66a5.72 5.72 0 0 1 5.71-5.66h193.1a5.71 5.71 0 0 1 5.69 5.66v271.43a5.71 5.71 0 0 1-5.69 5.71zM260.21 55.2a5.47 5.47 0 0 0-5.46 5.46v271.43a5.47 5.47 0 0 0 5.46 5.46h193.1a5.47 5.47 0 0 0 5.46-5.46V60.66a5.47 5.47 0 0 0-5.46-5.46z" class="I"/><g class="J"><path d="M64.35 238.02H81.3v139.82H64.35z"/><path d="M66.7 377.84h162.79v4.56H66.7z"/></g><path d="M231.84 377.83H81.3V238.01h150.54z" class="K"/><g class="J"><rect x="95.02" y="287.65" width="123.11" height="31.52" rx="5.16" transform="matrix(-1 0 0 -1 313.15 606.82)"/><rect x="95.02" y="328.22" width="123.11" height="31.52" rx="5.16" transform="matrix(-1 0 0 -1 313.15 687.96)"/></g><path d="M178.38 292.18h-43.61a3.41 3.41 0 0 1-3.4-3.41h0a3.41 3.41 0 0 1 3.4-3.4h43.61a3.41 3.41 0 0 1 3.4 3.4h0a3.41 3.41 0 0 1-3.4 3.41z" class="K"/><rect x="95.02" y="247.09" width="123.11" height="31.52" rx="5.16" transform="matrix(-1 0 0 -1 313.15 525.69)" class="J"/><g class="K"><use xlink:href="#B"/><use xlink:href="#B" y="81.13"/></g><path d="M81.31 230.91h153.63v7.11H81.31z" class="J"/><path d="M81.31 238.01H61.03v-7.11h20.28z" class="F"/><path d="M68.56 71.5h350.69v117.8H68.56z" class="I"/><path d="M70.86 71.5h353.32v117.8H70.86z" class="D"/><path d="M68.56 189.3h230.62v5.85H68.56z" class="I"/><path d="M92.81 189.3h338.64v5.85H92.81z" class="D"/><path d="M417.27 78.74v103.33H77.79V78.74z" class="K"/><path d="M120.7 182.07l59.07-103.33h27.89l-59.07 103.33H120.7zm33.88 0l59.07-103.33h10.87l-59.07 103.33h-10.87zm173.09 0l59.06-103.33h10.87l-59.06 103.33h-10.87z" fill="#fff"/><g class="I"><path d="M417.27 78.74v103.33h-.88V78.74z"/><use xlink:href="#C" class="B"/><use xlink:href="#C" y="6.94" class="B"/><use xlink:href="#C" y="13.89" class="B"/><use xlink:href="#C" y="20.83" class="B"/><use xlink:href="#C" y="27.78" class="B"/><use xlink:href="#C" y="34.73" class="B"/><use xlink:href="#C" y="41.67" class="B"/><use xlink:href="#C" y="48.62" class="B"/><use xlink:href="#C" y="55.56" class="B"/><use xlink:href="#C" y="62.51" class="B"/><path d="M425.82 156.57H75.13L74.5 151h350.68l.64 5.57z" class="B"/><use xlink:href="#C" y="76.4" class="B"/><path d="M425.82 170.47H75.13l-.63-5.58h350.68l.64 5.58z" class="B"/><use xlink:href="#C" y="90.29" class="B"/></g><path d="M408.17,325.94H349.83l-5.56-96.61a4,4,0,0,1,4.09-4.33H398a4.64,4.64,0,0,1,4.58,4.33Z" class="F"/><path d="M414.05,325.94H355.72l-5.56-96.61a4,4,0,0,1,4.08-4.33h49.67a4.64,4.64,0,0,1,4.58,4.33Z" class="D"/><path d="M356.89 313.89h40.61a0 0 0 0 1 0 0v12a0 0 0 0 1 0 0h-44.95a0 0 0 0 1 0 0v-7.72a4.33 4.33 0 0 1 4.34-4.28z" class="F"/><path d="M388.55 313.89h51.7a4.33 4.33 0 0 1 4.33 4.33v7.72a0 0 0 0 1 0 0h-60.37a0 0 0 0 1 0 0v-7.72a4.33 4.33 0 0 1 4.34-4.33z" class="D"/><path d="M349.83 325.94h4v56.46h-4zm29.36 0h4v56.46h-4zm31.12 0h4v56.46h-4zm29.35 0h4v56.46h-4zm-106.16 0h-58.33l-5.57-96.61a4.06 4.06 0 0 1 4.09-4.33h49.67a4.65 4.65 0 0 1 4.58 4.33z" class="F"/><path d="M339.39,325.94H281.05l-5.56-96.61a4.05,4.05,0,0,1,4.09-4.33h49.66a4.65,4.65,0,0,1,4.59,4.33Z" class="D"/><path d="M282.22 313.89h40.61a0 0 0 0 1 0 0v12a0 0 0 0 1 0 0h-44.94a0 0 0 0 1 0 0v-7.72a4.33 4.33 0 0 1 4.33-4.28z" class="F"/><path d="M313.88 313.89h51.7a4.33 4.33 0 0 1 4.33 4.33v7.72a0 0 0 0 1 0 0h-60.36a0 0 0 0 1 0 0v-7.72a4.33 4.33 0 0 1 4.33-4.33z" class="D"/><path d="M275.17 325.94h4v56.46h-4zm29.35 0h4v56.46h-4zm31.12 0h4v56.46h-4zm29.35 0h4v56.46h-4z" class="F"/><ellipse cx="250" cy="416.24" rx="193.89" ry="11.32" class="D"/><path d="M286.59 402.44l-7.59-2.63 4.06-18.26 7.59 2.63-4.06 18.26zm63.07 5.6h-8.03l-2.07-18.59h8.03l2.07 18.59z" class="G"/><path d="M341 407.11h9.19a.7.7 0 0 1 .68.55l1.59 7.14a1.18 1.18 0 0 1-1.18 1.42l-9.41-.24c-2.44 0-9.2.26-12.57.26s-3.81-3.33-2.43-3.64c6.18-1.35 10.84-3.21 12.82-5a2 2 0 0 1 1.31-.49zM279.11 399l8.28 2.87a.7.7 0 0 1 .47.74l-.84 7.26a1.16 1.16 0 0 1-1.55 1l-11-4.06c-4.39-1.52-6.48-1.85-11.63-3.63-3.11-1.08-2.23-4.44-.82-4.37 6.42.35 8.83 1.56 15.05.17a3.78 3.78 0 0 1 2.04.02zm47.54-231.25l-6.84 6.89-7.15 6.49a120.66 120.66 0 0 1-15.89 11.77 52.2 52.2 0 0 1-4.64 2.5l-2.55 1.13-1.37.5-1.52.45a22 22 0 0 1-12.46-.41 27.67 27.67 0 0 1-9.74-5.73 34.63 34.63 0 0 1-3.67-3.81l-1.59-2.08-1.47-2.28 5.52-4.19 1.58 1.26 1.7 1.26a37.64 37.64 0 0 0 3.5 2.2 21.32 21.32 0 0 0 7 2.49 11.52 11.52 0 0 0 6-.69l.71-.3.8-.37 1.68-.89c1.14-.63 2.29-1.4 3.46-2.18 2.33-1.58 4.65-3.37 6.93-5.26l6.78-5.88 6.63-6.19 6.45-6.32z" class="C"/><path d="M263.33 179.61l-5-7.77-5 9.7s5.8 6.11 8.67 3.32zm-11.05-9.1l-2.69 6.83 3.66 4.2 5.04-9.7-6.01-1.33z" class="G"/><path d="M283.06 381.56l-2.09 9.41 7.59 2.63 2.09-9.42-7.59-2.62zm64.53 7.9h-8.03l1.07 9.58h8.03l-1.07-9.58z" class="E"/><path d="M359.87 167.44c-8.21 27.78-7.34 57.27-8.42 63.26l-45.85-6.48c-2-32.18 5.76-53.74 9.28-63.31a10.17 10.17 0 0 1 9.07-6.66h.11c1.18-.05 2.45-.08 3.77-.07h2.22a159.1 159.1 0 0 1 18.09 2.44c1.13.21 2.28.45 3.39.7s2 .49 3 .74h.13a7.42 7.42 0 0 1 5.21 9.38z" class="C"/><g fill="#fff"><path d="M338.1 176.57l-.1 1.44 9.42 1.56.3-1.18-9.62-1.82z"/><path d="M330.05 154.23c-2.16 2.26-4.7 21.1-1.55 29.85 5.32-8.83 16-24.69 19.63-27.41a158.94 158.94 0 0 0-18.08-2.44z" opacity=".3"/></g><path d="M349.09,136.06c-1.92,5.66-4.5,16.17-.95,20.6-1.34,1.32-6.9,2.43-12,1.65-4.19-.64-6.19-2.46-6.08-4.08,6.7-.68,7.18-5.52,6.66-10.19Z" class="G"/><path d="M344 139.31l-7.28 4.69a19.24 19.24 0 0 1 .12 3.29c2.53 0 6.3-2.29 6.92-4.85a8.87 8.87 0 0 0 .24-3.13z" class="E"/><path d="M331.68 132.07c-1.12-2.54-1.54-7.49.57-13.87 1.72-5.2 7.17-3.52 10.94-2.61s2.38 6-.36 9.71c-2.94 3.95-11.15 6.77-11.15 6.77z" class="C"/><path d="M353.52 128.05c-2.3 7.63-3.25 12.21-8.1 15.26-7.28 4.59-16-1.2-16-9.36 0-7.35 3.73-18.59 12-19.88a10.86 10.86 0 0 1 12.1 13.98z" class="G"/><g class="C"><path d="M348.35 136c-1.34-2.43-1.88-8.82-.6-13.86 1-3.82 7.22-4.69 10.67-2.92 4.11 2.11 3.34 6.25.25 9.63-3.34 3.66-10.32 7.15-10.32 7.15z"/><path d="M357.6 121.56c3.08-.18 5.12-4.27 2.62-6.23-2.94-2.3-7 0-10.7-5.09-3.47-4.78-12.08-5.61-15.32-1.32-1.86 2.47-.2 3.46-5.19 6.46-2.91 1.75-2 4.72-1.25 6.18-.08-1.1.38-3.93 3.09-4.54 2.27-.51 3.61 1.45 5.17-.31 0 0 5.28 4.85 15.28 5.62 5.57.43 6.3-.77 6.3-.77z"/></g><path d="M355 137.4a7.61 7.61 0 0 1-5.36 2.18c-2.65 0-3.23-2.6-1.87-4.71 1.23-1.9 4.09-4.18 6.46-3.12s2.51 3.91.77 5.65z" class="G"/><path d="M278.73 388.23l12.85 4.44s12.58-49.58 16.52-74.28c1.2-7.52 3.88-17.92 7.12-29 4.09-14 9-29.08 13.09-40.89l7.44-21.23-28-3.77s-18.69 63.59-22 87.87c-3.35 25.22-7.02 76.86-7.02 76.86z" class="C"/><path d="M315.22 289.37c4.09-14 9-29.08 13.09-40.89L325.8 242c-7.51 7.84-11.03 33.36-10.58 47.37z" class="E"/><g class="C"><path d="M322.87,225.51s-1.38,68.78.51,92.22c2.06,25.67,13.54,79.46,13.54,79.46h14.71s-2.05-49.34-5.06-74.27c-3.43-28.4,3.76-93.71,3.76-93.71Z"/><path d="M335.16 397.5h17.32v-5.17l-18.49-.33 1.17 5.5zm-58.15-9.53l15.31 5.3 1.71-4.94-16.32-6.77-.7 6.41zm64.26-260.52c-.15.63-.6 1.06-1 1s-.63-.68-.48-1.31.6-1.06 1-1 .63.68.48 1.31zm-7.12-1.68c-.15.63-.6 1.07-1 1s-.62-.69-.47-1.32.6-1.06 1-1 .62.69.47 1.32z"/></g><path d="M336.34,126.62a23.13,23.13,0,0,1-4.28,4.68,3.74,3.74,0,0,0,2.88,1.27Z" fill="#a02724"/><path d="M337.2 134.89a5.35 5.35 0 0 0 4-1.23.191.191 0 0 0-.26-.28 5.12 5.12 0 0 1-4.53 1 .19.19 0 0 0-.23.14.2.2 0 0 0 .14.23l.88.14zm6.8-9.23a.32.32 0 0 0 .19 0 .37.37 0 0 0 .19-.5 3.76 3.76 0 0 0-2.65-2.23.38.38 0 0 0-.44.31.39.39 0 0 0 .32.44h0a3 3 0 0 1 2.08 1.79.37.37 0 0 0 .31.19zm-12.35-3.06a.38.38 0 0 0 .34-.14 3 3 0 0 1 2.48-1.18.37.37 0 0 0 .41-.34.39.39 0 0 0-.33-.42 3.8 3.8 0 0 0-3.15 1.48.38.38 0 0 0 .05.54.39.39 0 0 0 .2.06z" class="C"/><g class="H"><path d="M338.33 408.52a9.76 9.76 0 0 0 2.1-.29.2.2 0 0 0 .15-.16.21.21 0 0 0-.09-.19c-.29-.18-2.88-1.77-3.77-1.32a.62.62 0 0 0-.33.54 1.17 1.17 0 0 0 .4 1 2.44 2.44 0 0 0 1.54.42zm1.55-.56c-1.36.27-2.41.22-2.85-.15a.76.76 0 0 1-.26-.68.25.25 0 0 1 .12-.23c.46-.24 1.94.45 2.99 1.1z"/><path d="M340.39 408.23a.19.19 0 0 0 .1 0 .2.2 0 0 0 .09-.17c0-.1-.2-2.42-1.14-3.18a1 1 0 0 0-.81-.24h0a.61.61 0 0 0-.6.49c-.17.9 1.44 2.66 2.27 3.11zm-1.62-3.23a.62.62 0 0 1 .43.17 4.49 4.49 0 0 1 .95 2.51c-.82-.63-1.85-2-1.75-2.48 0-.05 0-.17.28-.2h.09zM278 399.74a.19.19 0 0 0 .17-.1.2.2 0 0 0 0-.22c-.28-.29-2.8-2.9-3.9-2.7a.62.62 0 0 0-.46.37h0a1.08 1.08 0 0 0 0 1c.58 1 2.86 1.48 4.16 1.66zm-3.62-2.65c.64 0 2.08 1.2 3.08 2.19-1.77-.3-3-.81-3.31-1.38a.68.68 0 0 1 0-.65.22.22 0 0 1 .18-.16z"/><path d="M278 399.74h.05a.22.22 0 0 0 .14-.14c0-.09.52-2.2-.17-3.33a1.4 1.4 0 0 0-.89-.65h0c-.51-.12-.74.08-.84.27-.44.81.81 3.07 1.58 3.8a.17.17 0 0 0 .13.05zm-1.15-3.74h.19 0a1 1 0 0 1 .65.48 4.39 4.39 0 0 1 .2 2.68c-.74-.88-1.53-2.6-1.27-3.08a.23.23 0 0 1 .23-.08zm.24-.16h0z"/></g><path d="M357.5 159.65l2.9 4.11 2.68 4.13q2.61 4.17 4.91 8.59a95.77 95.77 0 0 1 4.21 9.17 56.19 56.19 0 0 1 3.06 10.18l.43 2.83c0 .07 0 .37.06.56s0 .44 0 .63v1.16a15.8 15.8 0 0 1-.28 2 23.3 23.3 0 0 1-2.21 5.84 56.51 56.51 0 0 1-5.73 8.68l-6.46 7.43-7.05 6.76-5.16-4.63c3.37-5.14 6.85-10.36 9.79-15.56a58.41 58.41 0 0 0 3.76-7.64 12.81 12.81 0 0 0 .82-3.08 1.15 1.15 0 0 0 0-.35.2.2 0 0 0 0 0s0 .09 0 0c-.13-.59-.26-1.19-.44-1.81a54 54 0 0 0-2.93-7.72c-1.23-2.6-2.58-5.23-4.06-7.82s-3-5.16-4.63-7.72q-1.2-1.9-2.45-3.8l-2.47-3.67z" class="C"/><g class="G"><path d="M351 226.21l-8 2.44 7.18 7.62s6.11-3.64 4.54-7.09z"/><path d="M339.75 234.44l5.8 5.82 4.67-3.99-7.18-7.61-3.29 5.78z"/></g><path d="M321.74,226.9s1.53-10.42,4.18-15.49c.55,4.44,2.41,16.11,2.41,16.11Z" fill="#fff" opacity=".3"/><path d="M87.833 123.331l1-.019.465 23.995-1 .019zm.613 31.685l1-.019.2 10.318-1 .019zM286.12 98.89H90.85l5.14 266.78h195.27l-5.14-266.78z" class="H"/><g fill="#fff"><path d="M275.38 107.67H102.85l4.8 248.57h172.52l-4.79-248.57z" opacity=".8"/><path d="M275.35 106.42H102.83l7.01 248.56h172.53l-7.02-248.56z"/></g><g class="H"><path d="M152.88,157.31l9.25-27.56a30.43,30.43,0,0,1,20.07,27.56,28.41,28.41,0,0,1-23.41,28.88Z" class="E"/><path d="M152.88,157.31l5.91,28.88a29.87,29.87,0,0,1-5.08.44,30.48,30.48,0,0,1-30.15-29.32A28.48,28.48,0,0,1,152.05,128a29.76,29.76,0,0,1,10.08,1.77Z"/><path d="M226,157.31,225.27,128a30.24,30.24,0,0,1,20.89,8.59c11.7,11.38,12.23,30.1,1.17,41.47s-29.77,11.38-41.47,0a30.31,30.31,0,0,1-8.58-15.64Z" class="E"/><path d="M226 157.31l-28.73 5.09a28.41 28.41 0 0 1 30.09-34.33zm36.06 174.75H127.19l-1.77-62.44 1.07-.01 1.73 61.38h133.81l.03 1.07z"/><path d="M262 330.32a1.23 1.23 0 0 1 1.22 1.2 1.16 1.16 0 0 1-1.17 1.2 1.23 1.23 0 0 1-1.23-1.2 1.18 1.18 0 0 1 1.18-1.2zm-134.84-60.66a1.24 1.24 0 0 0-1.24-1.19 1.17 1.17 0 0 0-1.16 1.21 1.22 1.22 0 0 0 1.23 1.19 1.17 1.17 0 0 0 1.17-1.21zm4.77 58.28l-.77-.75 15.93-16.39h9.52l4.36-4.48h13.71l28.65-29.48h6.76l9.81 9.54h6.1l17.92-18.44h16.33l.02 1.06h-15.88l-17.92 18.44h-6.99l-9.81-9.54h-5.88l-28.65 29.48h-13.71l-4.35 4.49h-9.53l-15.62 16.07z"/><path d="M132.46 328.37a1.21 1.21 0 1 1 0-1.7 1.21 1.21 0 0 1 0 1.7zm127.77-58.7a1.17 1.17 0 0 0 1.17-1.2 1.23 1.23 0 0 0-1.22-1.2 1.18 1.18 0 0 0-1.18 1.2 1.24 1.24 0 0 0 1.23 1.2z"/><g class="E"><path d="M131.76 322.03l-.77-.75L150 301.71h15.61l10.58 10.3h11.83l10.33-10.64h13.28l4.33-4.45h12.81l8.81-9.07h4.32l20.11 19.57-.73.75-19.8-19.25h-3.44l-8.81 9.07h-12.8l-4.33 4.45h-13.29l-10.33 10.63h-12.7l-10.59-10.29h-14.72l-18.71 19.25z"/><path d="M132.29 322.45a1.21 1.21 0 1 1 0-1.69 1.19 1.19 0 0 1 0 1.69zm128.48-13.84a1.19 1.19 0 1 0 0-1.7 1.21 1.21 0 0 0 0 1.7z"/></g><path d="M138.83 218.97h-14.3l-.41-14.3h14.3l.41 14.3z"/></g><path d="M212.46 214.41h-65.21l-.15-5.18h65.21l.15 5.18zm44.43 0h-36.28l-.15-5.18h36.28l.15 5.18zm-71.49 22.56h-37.52l-.14-5.18h37.51l.15 5.18zm55.39 0h-47.24l-.15-5.18h47.25l.14 5.18z" fill="#e0e0e0"/><path d="M139.46 241.53h-14.3l-.4-14.3h14.3l.4 14.3z" class="E H"/><path d="M259.25 183.65l82.84 46.68-1.04 1.83-82.29-47.64.49-.87z" fill="#e0e0e0"/><defs ><path id="B" d="M178.38 251.61h-43.61a3.41 3.41 0 0 1-3.4-3.4h0a3.41 3.41 0 0 1 3.4-3.4h43.61a3.41 3.41 0 0 1 3.4 3.4h0a3.41 3.41 0 0 1-3.4 3.4z"/><path id="C" d="M425.82 87.12H75.13l-.63-5.57h350.68l.64 5.57z"/></defs></svg>